<svg width="527" height="585" viewBox="0 0 527 585" fill="none" xmlns="http://www.w3.org/2000/svg">
<path d="M0.711914 159.113L420.622 55.8053L525.4 481.693L105.49 585L0.711914 159.113Z" fill="white"/>
<path fill-rule="evenodd" clip-rule="evenodd" d="M420.059 56.7363L1.64291 159.676L106.053 584.069L524.469 481.129L420.059 56.7363ZM0.711914 159.113L105.49 585L525.4 481.693L420.622 55.8053L0.711914 159.113Z" fill="#C4C4C4"/>
<path d="M49.3073 189.154L391.512 104.964L476.988 452.398L134.784 536.588L49.3073 189.154Z" fill="white"/>
<path fill-rule="evenodd" clip-rule="evenodd" d="M390.948 105.895L50.2383 189.717L135.347 535.657L476.057 451.835L390.948 105.895ZM49.3073 189.154L134.784 536.588L476.988 452.398L391.512 104.964L49.3073 189.154Z" fill="#C4C4C4"/>
<path fill-rule="evenodd" clip-rule="evenodd" d="M50.036 190.045L1.44063 160.003L1.84523 159.349L50.4406 189.39L50.036 190.045Z" fill="#C4C4C4"/>
<path fill-rule="evenodd" clip-rule="evenodd" d="M135.018 535.458L105.724 583.87L106.382 584.268L135.677 535.857L135.018 535.458Z" fill="#C4C4C4"/>
<path fill-rule="evenodd" clip-rule="evenodd" d="M419.908 56.0126L390.617 105.7L391.28 106.09L420.571 56.4034L419.908 56.0126Z" fill="#C4C4C4"/>
<path fill-rule="evenodd" clip-rule="evenodd" d="M524.269 481.458L476.006 452.127L476.405 451.47L524.669 480.801L524.269 481.458Z" fill="#C4C4C4"/>
<path d="M140.752 124.882L231.371 1L271.559 92.5811" stroke="#C4C4C4"/>
<g clip-path="url(#clip0)">
<path d="M141.695 245.248C141.598 244.665 141.21 244.957 140.822 245.345C141.598 246.511 140.531 244.957 141.695 245.248ZM376.421 405.052C375.159 404.275 373.413 403.109 371.666 402.235C371.666 402.138 371.666 401.944 371.666 401.846C372.636 401.944 373.607 402.526 374.577 403.304C374.868 403.012 375.062 402.818 375.353 402.526C369.822 399.515 365.941 392.812 360.216 391.646C363.903 395.338 368.464 397.281 369.531 401.166C369.24 401.264 368.464 400.001 367.591 400.292C367.105 399.418 366.038 398.641 365.165 399.321C366.717 402.138 373.607 404.858 375.839 406.995C376.712 406.607 377.585 406.898 378.361 405.927C378.361 404.761 377.1 405.635 376.421 405.052ZM374.771 410.784C372.733 409.715 371.957 408.161 370.211 407.578C371.181 408.549 373.122 411.561 374.771 410.784ZM387.774 407.092C386.706 407.675 388.744 409.424 389.132 409.035C388.162 408.452 388.647 407.772 387.774 407.092ZM142.181 247.774C143.248 247.191 142.763 246.511 142.957 245.734C142.472 246.22 142.472 247.094 142.181 247.774ZM386.803 410.201C385.736 409.035 384.766 408.161 383.698 408.064C385.251 408.938 385.348 410.59 386.803 410.201ZM380.302 409.035C379.526 408.647 378.75 408.064 377.973 408.064C378.361 409.132 379.429 409.424 380.302 409.035ZM384.378 412.435C385.639 412.338 386.124 414.572 386.997 413.212C386.124 413.407 385.542 411.075 384.378 412.435ZM354.685 395.143C356.044 395.629 357.305 398.543 358.663 397.863C357.984 396.212 355.655 395.046 354.685 395.143ZM144.897 226.888C144.703 227.762 145.771 227.082 146.45 226.499C147.323 224.653 145.868 225.528 144.897 226.888ZM203.797 230.871V230.676H203.603V230.774L203.797 230.871ZM156.153 235.728C155.183 236.991 154.989 235.437 153.534 238.448C154.698 239.711 155.668 243.305 159.161 241.168C158.094 241.362 160.423 237.962 159.841 237.671C159.064 238.739 158.676 239.808 157.9 240.294C158.579 238.059 156.639 240.002 157.124 238.157C157.706 237.671 158.094 237.282 158.482 236.991C158.773 237.185 159.161 237.185 160.132 236.117C160.035 236.214 159.841 236.214 159.744 236.214C160.326 235.825 160.908 235.339 161.781 234.465C160.714 234.757 160.617 231.551 158.87 233.105C158.385 234.659 160.229 233.688 159.161 235.825C158.967 235.728 158.773 235.728 158.288 236.408C157.997 236.505 157.706 236.699 157.609 236.214C156.736 237.088 156.445 238.739 155.765 238.837C155.377 238.254 156.347 236.311 156.153 235.728ZM144.703 230.385C144.606 229.996 144.897 228.151 143.636 230.288C143.248 231.162 143.442 232.328 144.703 230.385ZM178.859 218.825H177.986L177.695 219.213L178.568 219.31L178.859 218.825ZM162.364 236.311C162.558 237.574 164.789 236.311 163.431 238.642C163.916 238.642 164.595 237.865 165.566 236.311C166.051 234.465 163.916 234.465 162.364 236.311ZM146.935 229.608C144.024 235.534 147.614 235.728 149.846 233.785C152.369 227.568 147.323 231.745 146.935 229.608ZM335.763 356.868C335.763 356.965 335.763 356.965 335.763 357.062C335.763 356.965 335.86 356.868 335.86 356.771H335.666L335.763 356.868ZM358.566 318.69L359.052 318.107L358.469 317.719L358.081 318.204L358.566 318.69ZM334.211 352.497C332.076 351.137 330.038 349.679 327.807 348.028C328.583 352.302 331.688 357.062 335.86 356.771C335.569 355.12 335.278 353.371 334.987 351.622L334.211 352.497ZM167.312 239.225C168.865 235.825 165.954 236.894 164.692 238.157C164.789 240.1 166.633 237.768 167.312 239.225ZM189.727 227.179L189.533 228.151L189.727 227.179L190.018 226.111L189.727 227.179ZM152.854 233.688C152.272 233.299 151.884 232.522 150.914 233.688C149.458 236.991 150.622 237.282 152.854 233.688ZM394.76 359.88C393.402 359.685 392.14 359.2 390.782 358.908C391.558 357.062 392.237 355.314 393.014 353.371C394.178 353.565 395.439 353.76 396.895 353.954C398.253 351.428 399.321 349.582 400.097 348.125C399.321 346.959 399.321 344.822 397.768 344.919C391.461 345.502 389.811 340.451 385.93 337.925C382.146 335.496 378.653 332.582 375.159 329.667C372.054 327.045 368.852 324.519 364.874 322.77C363.806 322.284 363.03 321.313 362.448 320.827C357.111 321.993 355.267 318.884 352.647 316.941C351.871 316.359 351.095 315.679 350.222 315.096C350.416 314.901 350.61 314.804 350.804 314.61C348.572 311.404 344.399 310.433 342.265 306.838C342.362 305.964 342.168 305.09 341.877 304.215L341.974 304.313L342.265 303.924C342.362 304.021 342.459 304.021 342.459 304.118C344.302 307.518 347.213 309.558 351.483 311.21C351.483 311.21 351.483 311.113 351.58 311.113C352.356 311.598 353.327 312.084 354.2 312.473C354.2 312.57 354.297 312.667 354.491 312.57C357.499 313.93 360.895 315.193 363.709 316.456C367.882 318.981 377.682 326.17 390.2 334.33C390.2 334.33 387.386 331.222 384.572 328.016C381.758 324.81 379.041 321.604 379.235 321.313C383.31 321.896 378.167 316.747 376.227 314.416C374.674 312.57 373.122 311.113 371.666 309.85C370.211 308.587 368.755 307.421 367.3 306.061C365.359 304.313 363.515 302.37 361.769 300.33C360.022 298.387 358.372 296.347 356.626 294.404C354.976 292.461 353.327 290.421 351.58 288.575C349.833 286.729 347.99 284.884 346.146 283.329C344.691 282.066 343.235 280.901 341.683 279.638C342.362 279.735 342.944 280.026 344.011 278.86C343.429 278.666 340.518 278.278 341.78 278.86C341.877 278.86 341.586 279.346 341.488 279.541C341.1 279.249 340.809 278.958 340.421 278.666C340.518 278.472 340.421 278.278 340.227 278.375C340.227 278.375 340.227 278.375 340.324 278.375C340.227 278.375 340.13 278.472 340.13 278.472C339.16 277.695 338.189 277.015 337.316 276.238C337.413 276.238 337.51 276.238 337.607 276.238C337.898 275.46 337.122 275.072 336.443 275.558C335.958 275.169 335.472 274.78 334.987 274.392C335.375 274.295 335.666 274.1 335.958 273.712C335.569 273.615 335.181 273.323 334.89 273.129C335.084 272.837 335.181 272.643 335.278 272.74C336.055 273.323 337.025 273.518 337.607 273.906C337.704 274.003 337.413 274.392 337.316 274.586C338.189 273.809 338.189 274.489 338.577 274.683C340.227 275.46 341.877 276.335 343.429 277.403C344.205 277.889 344.982 278.375 345.661 278.86C346.34 279.346 347.019 279.929 347.602 280.415C347.699 280.415 347.796 280.415 347.796 280.415C347.99 280.512 348.184 280.609 348.378 280.706C348.766 281.192 349.251 281.386 350.124 281.483C350.222 281.483 350.125 281.678 350.027 281.775C347.99 283.038 347.796 280.512 346.437 280.706C346.534 280.803 346.825 280.803 346.437 281.192C346.243 279.929 345.467 278.18 343.332 279.832C347.893 281.581 351.386 287.215 355.947 289.255C355.85 288.866 355.17 286.924 354.879 288.478C354.782 284.884 350.707 285.758 350.707 282.261C350.804 282.358 350.901 282.455 351.095 282.552C351.677 282.746 351.871 283.523 352.356 283.815C354.103 285.078 355.752 286.632 357.596 287.604C357.596 288.478 358.858 288.381 359.537 288.478C359.731 288.575 359.052 289.255 359.343 289.352C360.507 289.644 361.283 290.615 362.642 291.101C362.448 289.741 361.38 288.866 360.022 289.061C360.022 288.866 360.41 288.381 360.313 288.284C359.537 289.158 360.119 288.089 360.022 287.992C358.275 287.409 357.111 286.341 356.141 285.272C356.917 284.495 357.014 285.175 357.402 285.078C356.917 286.826 359.343 284.786 359.246 286.244C360.41 285.466 360.313 286.826 361.477 286.244C361.575 286.341 361.283 286.632 361.477 286.729C362.545 286.341 363.224 287.215 363.321 288.381C362.739 288.575 362.739 287.895 362.06 288.575C362.448 288.575 362.642 288.964 363.03 288.964C363.515 288.381 363.127 288.478 363.709 287.895C364.291 289.158 365.941 289.158 366.426 290.324C366.523 290.518 366.329 291.004 366.426 291.198C366.62 291.489 367.3 291.392 367.591 291.781C367.979 292.267 368.27 292.655 368.464 293.141C368.852 292.947 369.24 292.752 369.531 292.752C369.143 293.141 369.046 293.141 369.143 293.238C369.822 292.947 369.919 292.947 369.822 293.821C369.434 294.209 369.531 293.724 369.143 294.209C369.24 294.792 369.822 294.404 370.599 293.918C371.278 292.558 370.308 292.947 370.016 292.364C369.531 291.489 369.24 290.032 368.367 289.741C368.561 287.895 366.135 289.255 366.717 287.118C366.523 287.021 366.232 287.312 365.941 287.215C366.329 286.535 366.329 286.535 366.329 286.049C365.844 286.535 366.135 286.729 365.747 286.924C365.165 287.215 366.135 286.146 366.038 285.952C365.456 285.466 364.971 284.884 364.389 284.301C363.612 283.426 361.477 283.718 361.672 282.358C360.604 281.386 359.246 280.318 357.79 279.346C357.79 278.278 356.723 277.889 356.044 278.083C354.782 277.209 353.618 276.335 352.453 275.46C351.871 274.975 351.871 274.1 351.192 273.615C348.669 272.06 345.758 270.215 342.75 268.563C342.556 267.98 342.168 267.786 341.683 267.495C342.653 267.689 343.138 268.466 344.205 268.272C345.661 269.826 348.087 270.409 349.736 271.963C350.222 272.449 350.998 273.129 351.58 273.323C351.871 273.42 351.968 273.615 352.259 273.809C352.356 273.906 352.453 274.003 352.647 274.003C352.744 275.266 354.103 275.849 354.782 276.82C355.073 276.529 355.267 276.335 355.558 276.043C355.558 275.946 355.461 275.946 355.461 275.849C356.335 276.529 357.305 277.112 358.178 277.695C358.469 277.889 359.052 277.986 359.149 278.278C359.149 278.375 358.955 278.86 358.955 278.86C359.149 279.055 359.634 278.958 359.828 279.152C360.507 279.735 361.186 280.415 361.963 280.998C362.836 281.581 363.515 282.552 364.097 283.426C364.194 283.523 364.583 283.329 364.68 283.426C364.874 283.523 364.777 284.009 364.874 284.106C368.367 286.826 371.86 290.129 375.936 292.849C376.324 292.849 375.547 293.432 375.936 293.432C376.421 293.335 376.809 293.238 377.294 292.947C376.809 291.198 374.383 291.684 374.674 289.352C372.345 289.644 372.539 286.632 370.696 286.438C370.696 286.341 370.599 286.244 370.502 286.244C370.599 286.146 370.696 286.146 370.696 286.049C375.159 288.964 378.458 293.724 385.057 294.792C385.736 294.307 383.795 293.335 384.183 292.752C383.892 291.489 382.922 290.615 381.952 290.129C381.467 289.838 380.981 289.644 380.69 289.546C380.399 289.449 380.108 289.352 380.108 289.352C378.653 286.341 377.197 286.729 375.936 283.329C375.256 283.038 374.674 282.843 373.995 282.552C373.995 282.358 373.995 282.261 373.898 282.163C373.801 282.261 373.704 282.358 373.607 282.358C373.51 282.261 373.413 282.261 373.316 282.163C373.316 281.969 373.316 281.872 373.219 281.678C373.316 281.678 373.413 281.678 373.51 281.581C375.062 281.872 378.167 279.443 378.167 279.443C374.868 278.278 373.898 275.266 373.025 271.672C372.054 271.186 370.599 270.603 370.308 269.535C368.658 268.272 367.688 266.329 366.523 264.58C365.359 262.734 364.097 261.083 362.157 260.111C361.963 260.597 361.38 260.986 360.992 260.986L361.186 260.597L360.313 261.083C360.022 260.986 360.895 260.111 361.186 260.209C360.022 259.043 358.566 258.363 357.596 257.003C356.626 257.974 356.917 256.517 355.947 257.586C356.044 257.294 356.141 257.294 356.432 257.1C355.17 256.906 355.073 256.906 355.461 254.768C354.297 252.826 352.744 251.271 351.095 249.911C349.445 248.454 347.893 247.094 346.34 245.54C344.594 244.18 342.75 243.014 340.906 241.848C339.742 241.168 338.577 240.391 337.413 239.711C335.861 238.545 334.308 237.379 332.949 236.019C333.338 235.242 333.144 234.757 333.338 234.077C332.949 233.591 330.815 234.368 331.688 232.716C332.464 232.911 333.241 233.105 334.114 233.202C333.338 233.494 333.726 234.174 333.435 234.757C335.86 231.259 332.27 231.259 330.912 230.871C330.524 231.842 332.076 231.162 331.106 232.425C329.262 231.939 328.777 229.996 327.127 229.414C326.933 229.025 327.904 228.151 327.613 227.762C327.127 227.179 325.284 228.345 325.478 226.985C325.672 226.693 325.672 226.499 325.866 226.305C328.486 224.945 329.553 228.734 331.979 228.054C334.211 229.608 336.443 231.551 338.869 233.494C341.294 235.339 343.914 236.991 346.922 237.768C347.116 238.642 348.087 240.391 349.445 239.322C347.505 238.739 346.728 235.631 345.176 234.174C343.429 232.425 339.839 233.105 338.189 231.356C337.607 230.871 338.48 229.899 338.189 229.316C328.486 223.876 319.559 219.116 310.826 213.87C308.497 212.51 305.974 211.442 303.742 210.276C302.093 209.402 300.734 208.042 299.279 207.07C297.823 206.002 296.174 205.322 294.136 205.516C293.36 205.419 292.874 203.864 291.807 205.419C291.71 207.362 295.397 207.07 295.106 209.402C295.009 209.402 294.912 209.499 294.912 209.499L295.009 209.304C294.233 209.402 293.554 209.11 292.971 208.819C292.486 208.43 291.904 208.042 291.322 208.139C291.322 208.139 291.322 208.139 291.322 208.236C290.837 208.139 290.254 208.139 289.478 208.43C289.381 207.653 288.896 206.973 288.508 206.779C287.732 207.167 287.441 207.167 286.858 207.653C286.664 207.556 286.47 207.459 286.276 207.264C286.276 207.167 286.373 206.973 286.373 206.973C285.791 206.293 285.791 204.641 284.432 205.807L284.821 204.933C284.335 205.224 283.753 205.516 283.268 205.516C282.977 205.419 282.686 205.224 282.492 205.127C282.492 205.03 282.395 204.933 282.395 204.836C282.298 204.933 282.298 204.933 282.201 205.03C281.91 204.933 281.618 204.739 281.424 204.641C281.036 204.35 280.551 204.059 280.066 203.961C278.513 203.184 276.961 202.504 275.408 201.727C273.662 200.853 271.915 199.881 270.168 198.813C269.392 199.784 268.81 199.881 268.228 199.784C268.034 199.493 267.84 199.493 267.646 199.59C267.549 199.59 267.451 199.493 267.354 199.493C267.257 199.493 267.16 199.493 267.063 199.396C266.287 199.007 265.511 198.813 264.54 199.881C264.249 200.367 264.152 200.853 264.152 201.241C264.055 201.241 264.055 201.339 263.958 201.436L264.152 201.241C264.152 201.533 264.152 201.824 264.152 202.116C264.152 202.213 264.055 202.31 264.055 202.31L264.152 202.213C264.152 202.407 264.152 202.504 264.249 202.699V202.796C264.249 202.796 264.249 202.796 264.346 202.796C264.54 203.767 264.637 204.836 264.152 206.196C262.406 207.459 262.309 204.447 261.726 203.184C261.144 204.544 261.144 205.807 261.338 206.973C260.659 206.973 259.98 207.264 259.204 208.042C260.174 209.402 262.988 210.665 263.764 212.122C262.309 212.413 261.241 210.859 259.689 210.373C259.301 211.247 259.786 211.247 259.204 212.219C258.039 211.733 256.778 211.247 255.613 210.859C251.926 209.499 248.433 207.944 246.201 204.739C244.551 204.059 242.902 203.573 241.349 202.99C239.312 200.853 237.274 198.424 234.654 196.967C233.004 196.093 230.967 195.801 228.929 195.607C228.638 195.413 228.347 195.121 227.959 194.927C226.6 194.15 224.757 194.053 223.301 193.373C221.36 192.498 220.487 189.195 217.964 191.041C218.449 189.293 216.8 189.39 215.926 190.458C216.12 191.527 217.77 190.555 217.479 192.304C216.897 192.207 216.315 192.207 215.732 192.207C213.209 191.624 209.813 191.624 206.223 193.858C205.35 195.316 206.417 194.538 205.544 195.996C204.865 197.258 204.67 196.676 204.088 197.258C204.573 197.55 205.156 197.064 204.962 198.23C203.797 199.493 203.021 199.007 201.662 201.047C202.536 200.561 203.409 200.27 204.185 200.076C203.991 200.367 203.797 200.561 203.506 200.853C203.118 201.533 202.827 202.019 202.536 202.601C201.856 202.796 201.08 203.281 200.304 203.961C200.304 204.739 201.468 203.67 201.565 204.447C201.177 205.224 200.886 205.904 200.498 206.682C200.013 206.584 199.528 206.779 198.945 207.264C199.431 207.167 199.819 207.167 200.304 206.973C199.916 207.75 199.528 208.722 198.848 210.179C198.751 210.762 198.751 211.247 198.751 211.636C197.781 211.83 196.714 212.219 195.549 212.996C194.676 215.619 193.22 217.076 191.862 218.922C191.668 218.825 191.474 218.728 191.28 218.63C190.795 218.339 190.892 217.173 190.601 216.688C189.63 215.522 188.369 215.619 187.301 215.425C187.204 215.425 187.01 215.716 186.719 216.105L187.01 216.299C188.757 217.465 189.824 219.699 191.377 220.768C191.668 220.865 191.959 221.059 192.25 221.156L192.541 221.448L192.638 221.35C194.191 222.031 195.743 222.808 197.393 223.488C198.46 223.973 199.431 224.362 200.498 224.751C200.498 224.751 200.498 224.751 200.595 224.848C200.789 226.402 201.565 227.762 202.633 229.025C201.953 229.025 201.08 229.511 199.819 230.482C200.886 230.482 201.759 230.579 202.633 230.579C201.953 231.259 201.759 232.425 201.468 232.716C200.886 232.522 200.498 231.454 199.237 233.591C199.916 233.202 200.304 233.494 200.692 233.979C198.557 233.979 197.102 231.842 195.161 231.939C194.482 230.288 193.512 229.219 191.571 229.705C191.862 229.996 192.153 230.385 192.444 230.676C189.145 228.636 185.846 226.596 182.353 224.848C181.188 224.265 179.83 223.779 178.374 223.293C178.277 223.196 178.277 223.099 178.083 223.196C177.21 222.905 176.434 222.711 175.56 222.419C173.134 221.739 170.611 221.156 168.38 220.476C163.819 218.436 153.242 212.413 140.046 204.933C140.046 204.933 143.151 207.847 146.159 210.859C147.711 212.316 149.264 213.87 150.331 215.036C150.817 215.522 151.302 216.007 151.593 216.299C151.399 216.299 151.205 216.396 151.011 216.396C151.108 216.59 151.205 216.882 151.302 217.076C149.07 217.562 154.019 221.739 156.056 223.585C157.9 225.333 159.55 226.596 161.199 227.665C162.849 228.734 164.498 229.705 166.148 230.968C167.312 231.842 168.477 232.716 169.641 233.591C169.544 233.785 169.447 233.979 169.35 234.271C169.641 234.854 169.932 235.339 170.417 235.922C170.806 236.311 171.388 236.699 171.776 237.088L171.679 237.185L171.776 237.088C171.873 237.185 171.97 237.282 172.067 237.477C172.164 237.671 172.261 237.865 172.358 238.059C171.679 238.059 170.903 238.254 170.029 238.448C169.932 238.448 169.932 238.448 169.835 238.448C170.417 236.797 169.059 237.477 168.089 238.642C168.089 238.739 168.089 238.739 168.089 238.837C167.021 239.031 165.954 239.225 164.692 239.42C164.886 239.614 164.984 239.711 165.178 239.808C165.081 239.905 165.081 240.002 164.984 240.1C165.081 240.294 165.178 240.488 165.178 240.682C164.304 240.682 164.11 239.614 162.558 240.585C162.849 240.877 163.043 241.071 163.528 241.362C162.752 241.362 162.073 241.362 161.49 241.362C161.975 239.614 160.326 240.197 159.161 241.46C159.259 242.528 159.841 243.694 160.908 242.334C161.102 242.431 161.296 242.431 161.587 242.528L160.908 243.694C160.326 243.5 159.55 243.597 158.579 243.791C157.609 244.082 156.833 243.694 155.668 243.694C155.571 246.414 159.453 244.763 160.617 245.928C158.967 246.414 158.094 245.151 155.862 246.608C155.474 248.163 157.124 247.58 157.997 247.871C158.87 248.163 159.647 248.551 160.52 248.843C160.326 249.717 160.035 250.494 159.841 251.368C159.064 251.174 158.385 250.883 157.415 250.688C157.221 250.98 157.124 251.271 157.027 251.563C155.668 250.688 154.31 249.911 152.951 248.94C151.884 249.62 150.72 249.425 149.652 248.94C149.264 248.551 148.876 248.357 148.488 248.357C148.294 248.26 148.1 248.163 147.906 247.968C147.906 247.968 147.906 247.968 148.003 247.968C147.808 247.871 147.711 247.774 147.517 247.774C145.965 246.9 144.315 246.025 142.86 246.803C142.472 247.191 142.472 247.677 142.472 248.26C142.375 248.26 142.278 248.26 142.181 248.357L142.472 248.26C142.569 248.551 142.666 248.94 142.763 249.328C142.763 249.425 142.666 249.425 142.569 249.523H142.763C142.86 249.717 142.957 250.008 143.054 250.203L142.957 250.3H143.054C143.733 252.146 144.315 253.506 143.733 254.866C140.919 255.448 139.755 251.563 138.299 249.717C137.62 250.98 137.911 252.534 138.784 254.088C137.523 253.7 136.261 253.603 135 254.088C137.329 256.323 143.054 259.626 145.092 261.957C142.472 261.374 139.852 258.849 136.747 257.294C136.261 258.169 137.329 258.46 136.261 259.529C137.135 260.5 138.105 261.374 138.687 262.443C138.978 263.997 137.038 262.832 137.232 263.997C138.008 265.163 138.687 263.317 139.755 263.414C139.561 263.414 140.24 264.774 140.337 264.774C140.531 264.872 141.404 264.483 141.792 264.58C141.889 264.58 141.986 264.677 142.083 264.677C141.889 265.066 141.695 265.454 141.404 265.649C141.792 265.94 141.889 266.232 141.986 266.62C142.569 266.523 142.86 265.94 143.151 265.26C143.636 265.649 144.121 266.037 144.703 266.232C143.151 267.689 145.868 268.175 144.509 268.952C142.957 267.883 141.889 265.552 139.949 266.912C143.83 269.535 147.517 274.78 151.302 275.558C151.108 275.46 151.302 274.975 151.593 275.072C151.884 275.169 152.466 275.363 153.048 275.558C153.048 275.946 153.048 276.238 152.951 276.626C152.854 276.723 152.854 276.723 152.757 276.82C152.757 276.918 152.854 276.918 152.854 277.015C152.854 277.112 152.854 277.209 152.757 277.306C152.854 277.306 152.854 277.306 152.951 277.209C153.242 277.695 153.825 278.18 154.504 278.569C154.019 278.666 153.534 278.375 153.145 278.958C154.116 280.609 156.347 280.609 158.094 281.581C157.997 281.581 157.997 281.581 157.9 281.678C157.803 281.678 157.803 281.581 157.706 281.581C157.512 281.386 157.415 281.678 157.221 281.872C157.027 281.969 156.833 281.969 156.639 282.066C156.639 282.066 156.639 282.066 156.639 281.969C152.66 279.735 148.779 275.46 146.353 273.906C148.682 277.598 152.563 280.415 156.736 283.038C155.862 283.232 156.056 282.163 154.601 283.232C154.795 283.426 154.892 283.523 155.183 283.815C154.116 284.009 153.339 284.106 152.369 284.203C152.272 285.466 153.631 284.981 154.504 285.272C154.31 285.661 154.116 286.244 153.922 286.632C153.728 286.632 153.242 286.729 153.145 286.535C152.757 285.952 151.981 285.952 150.72 286.535C149.846 286.826 149.361 286.632 148.488 286.729C147.808 289.158 151.205 287.215 151.884 288.089C150.525 288.672 150.137 287.701 148.003 289.158C147.42 290.518 148.779 289.935 149.361 290.032C149.943 290.227 150.525 290.421 151.108 290.615C150.72 291.392 150.331 292.169 149.943 292.947C149.458 292.849 148.876 292.655 148.294 292.558C147.614 293.627 147.129 294.404 146.741 294.987C147.032 295.569 147.032 296.444 147.711 296.444C150.525 296.444 151.108 298.678 152.757 299.941C153.631 300.524 154.407 301.301 155.183 301.981C154.989 301.981 154.795 301.884 154.601 301.981C153.922 301.592 153.242 301.301 152.563 301.592C152.175 302.564 152.078 301.398 151.205 302.273C150.817 302.467 152.466 304.313 152.175 304.604C152.466 305.284 152.757 305.964 153.145 306.644C153.534 307.324 153.922 307.907 154.407 308.49C155.28 309.656 156.25 310.821 157.318 311.89C159.356 314.027 161.587 315.873 163.14 318.01C163.334 318.301 163.819 317.719 164.11 317.913C168.089 320.536 172.455 324.907 176.531 325.782C176.142 326.753 176.919 326.365 177.307 326.753C177.501 326.85 177.889 326.073 178.083 326.365C178.471 326.365 178.083 326.947 178.374 327.045C179.636 326.267 179.539 328.016 180.509 327.53C180.024 329.182 181.479 328.307 182.159 328.113C182.353 328.405 181.77 328.696 181.867 329.085C182.062 329.085 182.353 328.307 182.547 328.307C184.681 329.57 186.719 330.056 188.951 331.513C189.145 331.708 188.66 332.388 188.951 332.388C189.242 332.485 189.533 331.416 189.824 331.805C190.989 332.485 192.153 332.97 193.22 333.456C191.959 336.176 190.212 337.731 188.66 339.771C190.406 341.908 193.706 341.519 195.258 344.045C195.161 344.919 195.355 345.794 195.646 346.571C195.452 346.571 195.258 346.571 195.064 346.571C193.706 344.142 191.474 343.171 188.078 343.074C187.884 343.559 187.689 343.851 187.592 344.045C186.816 342.782 185.07 342.782 183.808 342.102C183.711 342.394 183.517 342.782 183.42 343.074C184.876 344.142 186.234 344.725 187.592 344.045C187.301 345.405 189.63 343.365 189.436 344.822C189.242 344.822 189.048 344.919 188.854 345.016C188.854 345.211 188.854 345.308 188.854 345.405C188.757 345.405 188.66 345.405 188.466 345.502C187.398 345.211 186.331 345.016 185.264 344.725C185.361 344.434 185.458 344.239 185.167 344.434C185.07 344.531 185.07 344.628 184.973 344.725C182.935 344.336 180.994 343.948 178.956 343.656C178.374 343.851 178.956 342.588 178.374 342.879C178.083 343.074 177.792 343.365 177.501 343.559C177.113 343.074 176.434 342.976 175.851 343.365C175.851 344.239 176.239 344.531 176.725 344.434L176.628 344.531C177.21 345.016 177.792 345.211 178.374 345.405C179.15 345.988 180.121 346.376 180.897 345.696C181.673 345.794 182.353 345.988 182.935 346.376C182.741 346.474 182.45 346.765 182.256 347.056C183.129 347.348 183.517 348.125 184.196 347.736C184.196 347.834 184.293 347.931 184.293 348.028C185.846 347.251 187.204 347.639 188.466 348.319C187.01 347.834 185.652 347.834 184.293 348.999C183.42 348.611 182.45 347.834 181.673 349.194C182.935 350.457 184.681 349.194 186.428 349.679C187.01 349.874 187.495 350.262 187.884 350.651C185.943 350.554 184.099 349.777 182.062 350.845C182.062 350.554 182.256 350.359 182.353 350.165C180.897 351.234 180.8 347.931 179.15 350.554L178.568 351.622C178.471 351.137 178.762 350.262 178.665 349.874C178.277 350.554 177.695 349.777 177.307 350.845C177.307 350.359 177.501 350.262 177.598 349.874C177.21 349.485 176.142 351.039 175.851 350.554L176.142 350.165C176.531 350.068 176.822 349.971 177.016 349.679C176.337 349.097 175.948 347.834 175.075 348.611C173.425 346.668 171.388 345.405 169.253 347.154C168.574 347.445 169.447 345.599 169.156 345.696C166.827 347.251 165.372 344.045 163.043 345.794C162.752 345.502 162.364 345.211 162.17 345.599C162.364 345.794 162.461 345.988 162.655 346.182C162.558 346.279 162.558 346.279 162.461 346.376C160.811 346.959 159.453 350.554 159.453 350.554C163.14 349.971 165.857 352.205 168.574 354.925C169.738 354.925 171.388 354.828 172.164 355.702C176.531 356.48 179.927 360.754 184.584 360.948C184.487 360.463 184.973 359.783 185.264 359.685L185.167 360.074L185.749 359.297C186.137 359.297 185.555 360.463 185.264 360.463C187.01 361.045 188.563 361.24 190.115 362.114C190.698 360.851 190.989 362.405 191.571 360.948C191.571 361.24 191.474 361.24 191.28 361.531C192.638 361.24 192.735 361.24 193.22 363.377C195.258 364.737 197.393 365.806 199.528 366.583C201.662 367.457 203.894 368.234 205.835 369.4C208.067 370.274 210.298 370.954 212.53 371.537C213.986 372.023 215.441 372.411 216.8 372.897C218.74 373.674 220.681 374.549 222.331 375.52C222.137 376.297 222.525 376.783 222.428 377.56C222.913 377.949 225.048 376.88 224.465 378.629C223.592 378.629 222.719 378.532 221.943 378.532C222.622 378.143 222.137 377.56 222.234 376.88C220.681 380.766 224.271 380.183 225.727 380.377C225.921 379.309 224.562 380.377 225.145 378.823C227.182 379.017 228.153 380.863 229.899 381.154C230.19 381.543 229.414 382.612 229.705 382.903C230.384 383.486 232.034 381.932 232.131 383.389C231.937 383.68 232.034 383.875 231.937 384.166C229.511 385.817 227.668 382.32 225.339 383.389C220.196 381.154 214.471 377.074 207.873 377.172C207.484 376.394 205.932 374.937 204.962 376.394C206.999 376.394 208.843 379.114 210.687 380.183C212.918 381.446 216.315 379.989 218.352 381.252C219.031 381.543 218.449 382.709 218.837 383.195C229.802 386.497 239.7 390.383 249.209 395.241C250.471 395.921 251.732 396.406 253.09 396.989C254.352 397.572 255.613 398.155 256.778 398.738C258.524 399.612 259.98 400.972 261.532 402.041C263.085 403.206 264.735 403.984 266.869 403.886C267.646 404.081 268.131 405.635 269.295 404.178C269.489 402.138 265.608 402.235 265.802 399.904C265.899 399.904 265.996 399.904 265.996 399.806L265.899 400.001C266.772 400.001 267.451 400.292 268.034 400.681C268.616 401.069 269.101 401.555 269.78 401.555C270.363 401.749 270.945 401.749 271.721 401.555C271.818 402.332 272.303 403.109 272.788 403.401C273.662 403.109 273.856 403.109 274.535 402.721C274.729 402.818 274.923 403.012 275.117 403.109C275.117 403.206 275.02 403.401 275.02 403.498C275.602 404.178 275.505 405.927 276.961 404.858L276.476 405.635C277.058 405.441 277.64 405.247 278.222 405.247C278.513 405.441 278.804 405.635 278.999 405.732C278.999 405.829 279.096 405.927 279.096 406.121C279.193 406.024 279.193 406.024 279.29 405.927C279.581 406.121 279.872 406.315 280.163 406.509C280.551 406.898 281.036 407.189 281.521 407.384C283.074 408.355 284.627 409.424 286.276 410.492C288.023 411.658 289.769 412.921 291.419 414.475C292.292 413.698 292.971 413.698 293.651 413.99C293.748 414.281 293.942 414.378 294.233 414.281C294.33 414.378 294.427 414.378 294.524 414.475C294.621 414.475 294.718 414.572 294.815 414.572C295.591 415.155 296.368 415.544 297.629 414.67C298.017 414.281 298.211 413.795 298.308 413.407C298.405 413.407 298.405 413.31 298.502 413.212L298.308 413.31C298.405 413.018 298.405 412.727 298.405 412.435C298.502 412.338 298.502 412.338 298.599 412.241L298.405 412.338C298.405 412.144 298.405 411.95 298.405 411.852L298.502 411.755C298.502 411.755 298.502 411.755 298.405 411.755C298.405 410.687 298.405 409.618 299.182 408.355C301.219 407.481 300.928 410.59 301.316 411.95C301.802 411.27 302.093 410.589 302.19 409.909C302.869 410.687 303.839 410.492 304.518 410.59C304.616 410.492 304.81 410.298 305.004 409.812L304.81 409.715C304.324 409.327 303.839 408.744 303.451 408.161C303.839 408.064 304.227 407.967 304.713 407.675C303.742 406.121 300.928 404.081 300.152 402.332C301.802 402.429 302.772 404.275 304.421 405.149C305.004 404.372 304.324 404.275 305.392 403.206C305.101 402.526 304.713 401.846 304.518 401.069C304.81 399.806 305.78 400.486 305.974 399.515C305.78 398.641 304.81 400.292 304.13 400.389C304.227 400.389 304.13 399.223 304.13 399.223C304.033 399.126 303.354 399.612 303.063 399.612C302.966 399.612 302.966 399.612 302.869 399.515C303.063 399.223 303.354 398.835 303.548 398.543C303.354 398.349 303.451 398.058 303.451 397.766C302.966 397.961 302.675 398.446 302.287 399.126C302.093 398.835 301.899 398.641 301.51 398.446C302.481 397.378 301.996 397.086 301.996 396.698C301.996 396.698 301.996 396.601 302.093 396.601C302.481 396.892 302.966 397.183 303.354 397.475C303.451 397.572 303.548 397.669 303.742 397.766C305.683 399.029 307.527 400.195 309.661 401.264C310.535 401.652 311.602 402.041 312.669 402.235C312.669 402.332 312.766 402.429 312.863 402.332C315.289 402.818 318.006 403.012 320.335 403.498C323.731 404.761 331.688 408.647 341.974 412.435C341.974 412.435 341.391 411.95 340.518 411.172C339.645 410.395 338.48 409.424 337.316 408.355C334.987 406.315 332.755 404.178 332.949 403.789C334.502 403.498 334.308 402.624 333.629 401.652C333.726 401.652 333.823 401.555 333.823 401.555C333.629 401.555 333.532 401.458 333.435 401.361C333.338 401.166 333.144 401.069 333.047 400.875C332.949 400.389 333.338 399.709 333.338 399.126C334.308 400.195 335.958 400.389 337.51 400.778C338.772 401.069 340.324 400.778 341.974 400.001C343.526 399.321 344.982 398.641 346.825 397.766C346.243 397.475 345.952 397.281 345.467 396.989C346.825 395.921 347.019 397.669 348.572 396.018C348.281 395.823 347.99 395.726 347.602 395.532C348.766 395.143 349.736 394.852 350.804 394.561C350.319 393.298 348.863 393.978 347.699 393.881C347.699 393.395 347.699 392.812 347.699 392.326C347.893 392.326 348.475 392.035 348.669 392.229C349.348 392.715 350.319 392.52 351.483 391.743C351.58 391.84 351.677 391.938 351.774 392.035C351.968 391.84 352.259 391.549 352.453 391.355C352.938 391.258 353.424 391.16 354.006 391.063C354.006 390.966 354.006 390.966 353.909 390.869C355.85 392.132 357.693 393.395 359.634 394.561C360.604 394.852 359.44 395.629 360.41 395.921C360.895 395.921 361.38 395.921 361.866 395.921C362.351 396.795 363.515 397.475 364.583 397.572C364.777 396.698 364.194 396.018 363.418 395.726C363.515 395.726 363.515 395.726 363.612 395.726C362.739 394.755 361.866 393.978 360.895 393.298C359.828 392.035 358.178 390.675 356.917 390.772C355.752 389.995 354.588 389.218 353.618 388.246C354.006 388.246 354.394 388.246 354.879 388.052C353.521 386.983 353.036 385.817 351.871 385.72C351.774 385.623 351.774 385.429 351.677 385.332C351.289 385.235 350.901 385.235 350.61 385.137C350.901 385.137 351.192 385.137 351.483 385.137C351.58 384.846 351.58 384.652 351.677 384.36C351.774 384.36 351.871 384.36 351.871 384.36C353.23 385.526 354.685 387.177 356.141 386.4C354.976 384.943 353.521 384.263 351.871 383.583C351.968 383.389 351.968 383.097 352.065 382.903C353.23 383.486 354.491 383.972 355.752 384.166C355.752 384.457 355.461 384.555 355.17 384.749C357.693 384.749 357.499 388.44 360.313 387.08L361.477 386.4C361.575 387.08 360.992 387.76 361.089 388.246C361.866 387.858 362.642 389.12 363.515 388.44C363.418 388.926 363.03 388.926 362.836 389.218C363.418 389.995 365.359 389.12 365.747 389.995L365.262 390.189C364.68 389.995 364.097 389.8 363.709 389.898C364.777 391.16 365.262 392.812 366.717 392.715C369.046 396.212 372.248 399.321 376.033 399.321C377.1 399.515 375.45 400.875 375.936 400.972C380.011 401.361 381.855 406.024 385.93 406.024C386.415 406.607 386.9 407.189 387.386 406.995C387.094 406.607 386.9 406.315 386.706 406.024C386.803 406.024 386.9 406.024 387.094 406.024C389.908 406.801 392.819 404.178 392.819 404.178C386.512 401.652 382.631 396.989 378.555 391.646C376.615 390.578 373.898 389.412 372.636 387.663C368.561 384.943 365.068 381.154 361.477 377.754C364.486 379.697 370.89 381.64 372.733 382.32C374.674 383 376.324 381.154 380.205 379.6C379.429 378.823 379.041 378.434 378.361 377.754C381.467 375.811 380.593 379.503 384.378 376.297C383.892 375.909 383.601 375.617 383.019 375.034C385.348 374.549 387.192 374.16 389.326 373.577C389.326 370.76 386.221 372.023 384.28 371.537C384.572 370.566 384.96 369.303 385.251 368.234C385.639 368.234 386.706 367.846 387.094 368.234C388.065 369.4 389.811 369.303 392.625 367.846C394.469 366.971 395.731 367.263 397.671 366.971C398.447 363.183 395.245 364.251 392.625 364.737C392.237 364.348 391.946 364.057 391.946 363.765C393.693 363.571 395.051 363.96 398.35 361.143C399.127 358.325 396.119 360.074 394.76 359.88ZM356.335 278.666C356.238 278.569 356.141 278.569 356.044 278.472C356.141 278.472 356.238 278.569 356.335 278.666ZM370.114 280.706C369.628 280.415 369.046 280.026 368.561 279.735C369.337 279.735 369.725 280.123 370.114 280.706ZM368.658 278.278C369.143 278.278 368.464 278.958 368.076 279.346C367.591 278.958 367.008 278.569 366.523 278.18C367.105 278.472 367.785 278.472 368.658 278.278ZM366.814 282.163L366.717 282.066C366.329 281.775 366.038 281.483 365.844 280.998C365.65 281.095 365.553 281.095 365.359 281.192C365.165 281.095 365.068 280.998 364.874 280.901C364.874 280.803 364.971 280.706 365.068 280.609C365.553 280.512 365.844 280.706 366.135 280.901C366.426 281.289 366.62 281.678 366.814 282.163ZM362.254 271.477L363.224 270.797C363.03 271.283 362.448 271.866 362.351 272.352C363.03 271.866 363.127 272.74 363.903 272.06C363.612 272.449 363.418 272.546 363.224 272.74C363.321 273.226 364.971 272.255 364.971 272.837L364.583 273.129C364.291 273.032 363.903 273.032 363.612 273.129C363.903 273.906 363.612 275.169 364.68 274.78C364.874 275.849 365.165 276.723 365.65 277.403C363.418 275.46 361.477 273.226 359.731 270.603C361.089 270.506 359.925 273.032 362.254 271.477ZM360.119 270.117C360.022 270.312 359.925 270.409 359.731 270.506C359.634 270.409 359.537 270.215 359.44 270.117C359.634 270.117 359.828 270.117 360.119 270.117ZM356.917 271.963C357.014 271.963 357.111 271.963 357.111 272.06C358.566 272.74 359.828 273.615 361.089 274.683H360.992C362.157 276.82 364.486 277.598 364 280.123L363.903 280.026C363.515 279.832 362.933 279.638 362.642 279.249C362.254 278.472 361.769 277.889 361.186 277.306C360.992 277.015 360.701 276.723 360.507 276.432C360.216 275.655 359.634 274.975 358.858 275.169C358.372 274.78 357.984 274.489 357.499 274.1C357.402 274.003 357.402 273.906 357.305 273.906C357.499 273.906 357.79 273.712 358.178 273.518C357.596 272.935 357.693 272.157 356.917 272.255C356.917 272.06 356.917 272.06 356.917 271.963ZM356.141 267.009C356.044 267.203 355.85 267.397 355.655 267.592C355.558 267.592 355.558 267.495 355.461 267.495C355.752 267.397 355.947 267.203 356.141 267.009ZM351.58 263.414C351.386 263.706 351.289 263.9 351.192 263.997C351.095 263.9 350.901 263.803 350.804 263.706C350.707 263.22 350.416 263.22 350.124 263.317C349.833 263.123 349.542 262.929 349.348 262.832C349.348 262.734 349.348 262.734 349.445 262.637C350.027 262.929 350.707 263.22 351.58 263.414ZM349.251 262.54C349.154 262.54 349.154 262.637 349.154 262.637C348.766 262.346 348.281 262.054 347.893 261.86C347.796 261.666 347.699 261.569 347.699 261.374C348.184 261.763 348.669 262.249 349.251 262.54ZM346.534 258.46C346.437 258.557 346.437 258.654 346.34 258.751C345.952 258.654 345.467 258.654 345.176 258.557C345.758 258.169 346.146 258.557 346.534 258.46ZM345.467 257.78C345.467 257.877 345.273 258.46 345.176 258.557C345.079 258.557 344.982 258.46 344.885 258.363C344.788 258.266 344.691 258.169 344.691 257.974C344.982 257.78 345.467 257.391 345.467 257.78ZM345.273 257.003C345.079 257.294 344.788 257.586 344.594 257.78C344.594 257.683 344.497 257.489 344.497 257.391C344.594 257.294 344.885 257.197 345.273 257.003ZM343.429 255.546C343.332 255.448 343.235 255.351 343.138 255.351C343.332 255.157 343.526 255.157 343.429 255.546ZM339.742 252.146C340.13 252.243 339.839 252.728 339.548 253.117C339.451 253.02 339.354 252.923 339.257 252.923L339.451 252.631L339.257 252.923C339.16 252.826 339.16 252.826 339.063 252.826C339.257 252.728 339.451 252.534 339.742 252.146ZM338.189 250.105L337.995 250.688C337.995 250.688 337.995 250.688 337.898 250.688C337.801 250.397 337.801 250.203 337.801 249.911C337.898 249.911 338.092 250.008 338.189 250.105ZM151.884 292.169C151.787 292.267 151.69 292.267 151.69 292.267V292.169C151.787 292.072 151.884 292.072 151.884 292.072C151.981 292.072 151.884 292.169 151.884 292.169ZM152.175 292.849H151.981L152.175 292.655V292.849ZM155.377 284.495L155.959 284.592L155.765 284.786L155.183 284.689L155.377 284.495ZM155.862 303.341C155.765 303.244 155.765 303.05 155.668 302.953C155.862 303.147 156.153 303.341 156.347 303.535C156.25 303.535 156.056 303.438 155.862 303.341ZM158.094 286.244L157.9 286.438L158.094 286.146V286.244ZM161.878 250.883C161.878 250.883 161.878 250.786 161.781 250.786C161.878 250.688 161.975 250.688 161.975 250.688C161.975 250.688 161.975 250.786 162.073 250.883C161.975 250.786 161.878 250.883 161.878 250.883ZM162.558 251.563H162.364L162.558 251.368V251.563ZM162.849 244.957C162.655 244.957 161.975 244.957 161.781 244.763C161.587 244.568 161.49 244.471 161.296 244.374C161.49 244.18 161.684 243.888 161.975 243.305L161.684 243.014C162.17 243.111 162.655 243.208 163.14 243.305C163.043 243.791 162.946 244.374 162.849 244.957ZM163.819 242.431L164.013 242.237L164.789 242.431L164.595 242.625L163.819 242.431ZM165.469 302.855C165.178 302.564 164.984 302.175 164.692 301.884L165.081 301.398C165.372 301.69 165.566 302.078 165.857 302.37L165.469 302.855ZM167.895 244.763L168.089 244.471V244.665L167.895 244.763ZM170.417 306.158C170.417 306.158 170.32 306.158 170.32 306.061L170.223 305.867L170.514 305.575L170.417 306.158ZM172.552 307.324C172.261 307.227 171.873 307.033 171.582 306.838C171.582 306.644 171.582 306.547 171.582 306.353C171.97 306.644 172.358 307.033 172.746 307.324C172.746 307.324 172.649 307.324 172.552 307.324ZM173.037 307.713C173.037 307.616 173.037 307.616 173.037 307.616C173.328 307.81 173.523 308.004 173.814 308.198C173.62 308.004 173.328 307.907 173.037 307.713ZM176.239 254.477C176.239 254.574 176.337 254.671 176.337 254.866C176.239 254.768 176.045 254.671 175.948 254.574C176.045 254.477 176.142 254.477 176.239 254.477ZM176.919 311.21C176.725 311.016 176.628 310.627 176.434 310.336C176.337 310.238 176.337 310.238 176.239 310.141V310.044C176.434 310.238 176.628 310.433 176.822 310.53C177.016 310.821 177.21 311.113 177.501 311.404C177.307 311.404 177.113 311.404 176.919 311.21ZM181.479 303.924C180.8 303.438 180.024 302.758 179.539 302.661C179.539 302.661 179.539 302.661 179.539 302.758C178.568 301.981 177.792 301.107 177.016 300.33C178.18 301.107 179.248 301.787 180.218 302.467C180.606 302.758 181.091 303.05 181.479 303.438C181.673 303.827 181.867 304.118 182.062 304.507C181.964 304.215 181.77 304.118 181.479 303.924ZM187.787 250.786C187.592 250.688 187.398 250.591 187.301 250.397L187.398 250.3C187.689 250.494 187.981 250.688 188.175 250.883C187.981 250.786 187.884 250.786 187.787 250.786ZM187.301 352.885C187.301 352.399 187.592 351.817 187.787 351.428C187.884 351.525 187.981 351.622 188.078 351.817C187.787 352.011 187.495 352.302 187.301 352.885ZM193.706 350.554C193.803 350.845 193.706 351.039 193.512 351.234C193.123 351.137 192.735 350.942 192.347 350.845C192.735 350.748 193.22 350.748 193.706 350.554ZM192.444 352.788C192.444 352.788 192.444 352.885 192.444 352.788C192.444 352.885 192.444 352.885 192.444 352.788C192.25 352.982 192.25 352.982 192.153 352.885C192.25 352.885 192.347 352.788 192.444 352.788ZM193.22 353.177V352.982C193.026 353.079 192.929 352.885 192.929 352.788C193.22 352.788 193.317 352.982 193.512 353.177C193.415 353.079 193.317 353.079 193.22 353.177ZM193.609 354.731C193.609 354.342 193.706 354.148 193.803 353.954C193.9 354.148 193.997 354.342 194.094 354.44C194.191 354.537 194.191 354.537 194.288 354.634C194.094 354.634 193.803 354.634 193.609 354.731ZM193.512 254.38C193.609 254.38 193.609 254.477 193.706 254.477C193.706 254.574 193.803 254.671 193.803 254.671C193.706 254.574 193.512 254.477 193.415 254.477C193.415 254.477 193.415 254.38 193.512 254.38ZM196.326 273.129C196.034 273.032 195.743 272.837 195.452 272.837C195.452 272.837 195.452 272.837 195.355 272.837C194.676 272.546 193.9 272.352 193.123 272.255C193.123 272.06 193.123 271.866 193.123 271.575C194.288 272.255 195.355 272.643 196.52 272.837C196.326 272.935 196.326 273.032 196.326 273.129ZM197.878 273.615C197.878 273.615 197.781 273.615 197.878 273.615L197.684 273.906C197.587 273.809 197.393 273.712 197.296 273.615C197.296 273.615 197.296 273.615 197.393 273.518C197.587 273.518 197.684 273.518 197.878 273.518C197.878 273.42 197.878 273.323 197.878 273.226C197.878 273.323 197.878 273.42 197.878 273.615ZM197.781 258.363C197.587 258.266 197.587 257.974 197.49 257.78C197.781 257.974 198.169 258.169 198.557 258.363L199.042 258.751C198.557 258.557 198.072 258.557 197.781 258.363ZM203.603 230.579C203.603 230.385 203.603 230.288 203.603 230.191C203.894 230.579 204.282 230.968 204.573 231.259L203.797 230.774V230.968C203.506 230.774 203.312 230.676 203.021 230.482C203.215 230.579 203.409 230.579 203.603 230.579ZM199.722 274.586C199.625 274.489 199.625 274.392 199.528 274.295C199.625 274.295 199.722 274.295 199.819 274.198C199.819 274.392 199.722 274.489 199.722 274.586ZM200.983 357.742C200.983 357.645 200.983 357.548 200.983 357.451C201.08 357.548 201.177 357.548 201.274 357.645C201.177 357.645 201.08 357.645 200.983 357.742ZM202.245 276.043C202.342 276.043 202.439 275.946 202.439 275.752L202.148 275.558C201.953 275.752 201.953 275.946 201.953 275.946C201.274 275.752 200.595 275.46 200.013 275.169V275.072C200.401 275.072 200.983 274.683 201.274 274.586C201.371 274.878 200.886 275.169 200.983 275.558C201.177 275.558 201.371 274.78 201.565 274.78C201.759 274.878 201.953 274.975 202.148 275.072C202.536 275.46 202.827 275.946 202.924 276.432C202.827 276.432 202.633 276.432 202.536 276.432L202.633 276.14C202.439 276.14 202.342 276.14 202.245 276.043ZM202.924 358.811C202.924 358.811 202.924 358.714 202.924 358.811C202.924 358.714 202.924 358.714 202.924 358.811ZM201.177 260.306C202.051 260.986 203.021 261.569 203.991 262.249C202.924 261.86 202.051 261.083 201.177 260.306ZM204.476 231.454L204.573 231.356C204.67 231.454 204.767 231.551 204.865 231.648C204.67 231.551 204.573 231.454 204.476 231.454ZM212.821 363.668C212.821 363.668 212.918 363.668 212.821 363.668C212.918 363.668 212.821 363.668 212.821 363.668ZM214.956 272.255C215.053 272.255 215.053 272.255 215.15 272.255C215.15 272.352 215.053 272.352 214.956 272.255ZM222.234 270.992C222.428 271.186 222.719 271.477 222.913 271.575C223.204 271.769 223.495 271.963 223.786 272.06C222.331 271.477 220.778 270.992 219.129 270.409C219.031 270.312 219.031 270.02 218.934 269.826C220.099 270.215 221.166 270.603 222.234 270.992ZM215.635 272.546C215.829 272.546 215.926 272.546 216.023 272.546C216.412 272.643 216.8 272.837 217.188 272.935C218.352 274.003 219.905 274.295 221.457 274.78C221.457 274.78 221.36 274.78 221.36 274.878C221.457 274.975 221.554 275.072 221.748 275.266C220.099 274.683 218.449 274.003 216.8 273.42C216.509 273.032 216.12 272.837 215.635 272.546ZM221.263 282.941C220.778 282.649 220.196 282.358 219.711 282.066C220.293 282.261 220.875 282.455 221.36 282.649L221.263 282.941ZM223.786 284.301C223.01 283.912 222.234 283.523 221.554 283.135L221.748 282.843C222.525 283.135 223.398 283.426 224.174 283.718C223.98 283.912 223.883 284.106 223.786 284.301ZM226.309 285.078L225.242 284.592C225.242 284.786 225.242 284.981 225.339 285.078C225.048 284.884 224.659 284.689 224.368 284.592C224.465 284.398 224.659 284.203 224.757 283.912C224.854 283.912 224.854 283.912 224.951 284.009L224.854 284.106L225.339 284.495L225.242 284.106C225.727 284.301 226.115 284.398 226.6 284.592C226.406 284.786 226.309 284.884 226.309 285.078ZM226.794 247.191C226.891 247.191 226.988 247.288 227.085 247.288C227.57 247.58 227.959 247.871 228.444 248.26C227.668 247.968 227.085 247.677 226.794 247.191ZM227.668 285.855L227.473 286.146C227.376 286.049 227.279 286.049 227.085 285.952C227.376 285.564 227.668 285.078 227.862 285.078C227.862 285.078 227.862 285.078 227.959 285.078C227.959 285.564 227.959 285.758 228.153 285.855H227.668ZM229.802 286.826C229.802 287.118 229.802 287.312 229.802 287.506C229.414 287.312 228.929 287.021 228.541 286.826C228.638 286.632 228.638 286.438 228.638 286.244L228.25 286.146C228.347 286.146 228.541 286.049 228.735 285.952C228.735 286.049 228.735 286.146 228.735 286.146C229.026 286.244 229.22 286.826 229.608 285.855C229.705 285.952 229.899 285.952 229.996 286.049C230.093 286.049 230.19 286.049 230.287 285.952H230.384C230.19 286.244 229.996 286.535 229.802 286.826ZM351.677 390.092C351.871 390.189 352.065 390.286 352.259 390.48C351.871 390.578 351.58 390.675 351.192 390.772C351.095 390.675 350.998 390.578 350.804 390.383C350.998 390.383 351.289 390.286 351.677 390.092ZM356.335 334.233C356.917 334.913 357.596 335.69 358.178 336.37L357.305 337.439C356.626 336.759 356.044 336.079 355.461 335.399L356.335 334.233ZM339.936 324.713C340.324 323.353 340.518 322.77 340.324 322.382C340.421 322.187 340.615 322.09 340.712 321.896C340.906 321.41 341.1 320.924 341.197 320.439C341.488 320.439 341.877 320.439 342.265 320.439C342.265 320.536 342.168 320.73 342.168 320.827C342.265 320.73 342.459 320.536 342.653 320.439C343.332 320.342 344.108 320.244 344.885 320.05C345.079 319.759 345.273 319.467 345.467 319.273C345.758 319.37 345.952 319.564 346.243 319.662C346.049 320.342 345.952 321.119 345.758 321.993C346.146 321.993 346.631 322.09 347.116 322.09C346.437 323.742 345.758 325.393 344.982 327.045C344.497 326.85 344.011 326.656 343.332 326.462C342.265 325.879 341.1 325.296 339.936 324.81V324.713ZM345.079 327.53C344.982 327.53 344.982 327.433 344.885 327.433V327.336L345.079 327.53ZM344.788 357.451C344.497 357.257 344.205 356.965 343.817 356.771C343.914 356.771 343.914 356.674 344.011 356.577C344.302 356.868 344.497 357.16 344.788 357.451ZM341.003 352.982C340.906 352.885 340.809 352.885 340.809 352.885C340.809 352.885 340.906 352.885 340.906 352.788C340.906 352.788 341.003 352.885 341.003 352.982ZM335.084 259.431C334.308 259.237 333.726 258.654 333.047 258.169C333.726 258.557 334.405 258.946 335.084 259.431ZM332.367 271.769C333.241 272.06 334.114 272.255 334.987 272.935C334.987 272.935 334.987 273.129 334.89 273.226C334.502 272.935 334.114 272.643 333.532 272.643C333.435 272.837 333.435 272.935 333.435 273.032C333.338 272.935 333.241 272.837 333.047 272.837C333.144 272.74 333.241 272.643 333.435 272.352C333.241 272.352 333.046 272.546 332.852 272.74H332.755C332.464 272.546 332.173 272.352 331.882 272.06C332.076 272.06 332.27 271.963 332.464 271.866C332.464 271.963 332.464 271.866 332.367 271.769ZM331.397 257.1C331.106 257.1 330.718 257.197 330.427 257.1C330.233 257.003 330.233 256.614 330.135 256.517C329.941 256.323 329.844 256.226 329.65 256.031L331.397 257.1ZM328.486 255.351C327.419 254.963 326.254 254.768 325.09 254.574C325.09 254.38 325.284 254.088 325.478 253.7C326.448 254.186 327.516 254.768 328.486 255.351ZM323.731 249.814C323.634 250.203 323.731 250.397 324.022 250.397V250.494C323.731 250.397 323.537 250.3 323.246 250.105C323.44 250.008 323.537 249.814 323.731 249.814ZM325.09 253.408C323.731 253.408 322.664 252.923 321.694 252.146C321.402 251.854 321.111 251.66 320.82 251.368C322.276 252.048 323.634 252.728 325.09 253.408ZM315.969 245.345C316.163 245.443 316.357 245.54 316.551 245.637C316.842 245.831 317.23 246.123 317.521 246.317C317.327 246.608 317.133 246.9 317.036 247.288C317.23 247.58 317.618 247.288 318.103 246.705C318.977 247.288 319.753 247.968 320.529 248.648C320.529 248.648 320.529 248.745 320.432 248.745C319.365 248.357 318.2 248.163 317.133 248.357C316.842 248.26 316.648 248.163 316.163 248.163C316.745 246.705 316.066 246.414 315.289 246.511C315.58 246.123 315.774 245.734 315.969 245.345ZM322.082 361.628C321.791 361.531 321.596 361.434 321.402 361.24C321.208 361.045 321.014 360.851 320.82 360.657C321.305 360.463 321.888 360.074 322.082 360.657C322.276 360.851 322.179 361.434 322.082 361.628ZM324.41 362.114C324.41 362.211 324.313 362.308 324.313 362.405C323.634 362.114 322.761 361.92 322.082 361.628C322.858 361.337 323.925 362.017 324.41 362.114ZM320.432 360.171C320.238 359.977 320.044 359.685 319.947 359.491C320.335 359.588 320.723 359.588 321.111 359.394C321.014 359.783 320.82 359.977 320.432 360.171ZM321.014 369.108C319.753 368.04 318.491 366.971 317.036 366.68C317.036 366.388 317.133 366.097 317.23 365.806C317.327 366 317.521 366.194 317.715 366.291C318.491 366.777 319.268 367.36 320.044 367.846C320.238 368.234 320.626 368.623 321.014 369.108ZM316.357 356.188C316.551 356.091 316.842 356.091 317.036 356.577C316.842 356.48 316.648 356.285 316.357 356.188ZM314.222 259.237C314.222 259.334 314.222 259.334 314.222 259.237C314.222 259.334 314.222 259.334 314.222 259.237C314.222 259.237 314.222 259.334 314.222 259.237ZM313.252 243.888C313.252 243.888 313.155 243.888 313.155 243.985C313.057 243.888 312.863 243.791 312.766 243.694C312.863 243.694 313.057 243.791 313.252 243.888ZM311.02 361.045C311.408 361.337 311.796 361.725 312.184 362.017C312.087 362.017 311.893 362.017 311.699 361.92C311.408 361.628 311.117 361.434 310.826 361.143C310.923 361.045 310.923 361.045 311.02 361.045ZM308.206 350.457C308.982 350.748 308.788 351.234 308.497 351.719C308.303 351.622 308.109 351.428 307.818 351.234L308.012 350.942L307.818 351.234C307.721 351.137 307.527 351.039 307.43 350.942C307.624 350.942 307.915 350.748 308.206 350.457ZM308.4 359.103V359.2H308.303L308.4 359.103C308.4 359.005 308.4 359.005 308.4 359.103ZM306.847 338.411C307.235 338.605 307.624 338.799 308.012 339.091C308.012 339.188 307.915 339.382 307.915 339.479C307.43 339.188 306.944 338.896 306.459 338.702C306.556 338.605 306.653 338.508 306.847 338.411ZM304.13 346.959V347.736H304.033C303.742 347.348 303.451 346.959 303.257 346.571C303.548 346.668 303.839 346.765 304.13 346.959ZM286.858 324.033C291.322 327.142 295.688 328.307 299.376 332.485C298.599 333.65 298.599 332.582 297.726 333.845C297.144 333.553 296.659 333.262 296.077 332.97C295.494 332.582 294.912 332.29 294.33 331.902C293.942 331.61 293.457 331.416 293.068 331.125C293.263 330.445 293.554 329.765 293.942 328.987C292.389 330.25 293.068 328.016 291.71 328.696C291.419 329.085 291.225 329.473 291.031 329.862C289.187 328.696 287.343 327.627 285.597 326.462C285.694 325.976 285.5 325.587 285.306 325.102C285.888 324.81 286.373 324.422 286.858 324.033ZM299.182 353.565C298.696 353.274 298.211 352.982 297.629 352.691C297.629 352.497 297.629 352.302 297.92 352.011C298.114 352.108 298.308 352.302 298.502 352.399C298.988 352.788 299.182 353.177 299.182 353.565ZM285.5 320.05L285.985 320.439C285.597 321.022 285.306 321.507 285.112 321.896C284.918 321.702 284.724 321.507 284.529 321.41C284.821 320.827 285.112 320.439 285.5 320.05ZM284.335 322.77C284.432 322.77 284.529 322.867 284.529 322.867V322.964C284.724 323.159 284.821 323.256 285.015 323.45C284.918 323.644 284.724 323.742 284.627 323.936C284.529 323.839 284.335 323.839 284.141 323.742C284.238 323.547 284.335 323.256 284.529 322.964C284.432 322.867 284.432 322.77 284.335 322.77ZM283.85 322.576C283.656 322.867 283.559 323.159 283.365 323.45C282.201 323.159 280.939 322.867 281.23 321.702C282.104 321.993 282.977 322.284 283.85 322.576ZM277.834 315.581C279.096 317.039 280.357 318.593 281.715 320.05C280.939 319.759 280.066 319.467 279.387 319.273C279.29 318.496 279.387 317.233 278.999 317.33C276.379 317.913 275.796 315.581 274.438 314.221C275.699 314.804 276.767 315.387 277.834 315.581ZM274.341 316.65C275.796 317.621 277.349 318.593 278.804 319.564C279.387 319.953 280.454 320.05 279.872 321.119C278.028 320.439 276.67 319.467 275.214 318.399C275.893 318.69 276.476 318.982 277.058 319.467C277.058 319.176 277.155 318.884 276.961 318.787C276.185 317.913 275.311 317.233 274.341 316.65ZM272.885 315.679C273.274 315.873 273.565 316.164 273.953 316.359C273.856 316.359 273.856 316.359 273.759 316.359C273.565 316.261 273.274 316.067 273.079 315.97C273.079 316.067 273.176 316.164 273.176 316.261C273.079 316.359 272.982 316.553 272.885 316.65C272.691 316.553 272.594 316.456 272.4 316.359C272.594 316.164 272.691 315.97 272.885 315.679ZM272.206 316.261C272.012 316.164 271.915 316.067 271.721 316.067C272.012 315.97 272.206 315.97 272.206 316.261ZM268.81 312.958C269.004 313.056 269.101 313.153 269.295 313.25C269.101 313.25 268.907 313.25 268.713 313.153C268.713 313.056 268.713 312.958 268.81 312.958ZM266.772 311.501C267.257 311.89 267.84 312.278 268.325 312.667C268.228 312.764 268.131 312.958 268.034 313.153C267.354 313.056 266.772 312.764 266.578 312.084C266.869 311.793 266.772 311.696 266.772 311.501ZM253.77 212.316C254.934 214.162 256.487 215.327 258.427 216.007C258.524 216.105 258.718 216.105 258.912 216.202C259.01 216.299 259.107 216.396 259.204 216.299C259.883 216.493 260.465 216.688 261.241 216.785C261.241 216.882 261.241 216.979 261.241 217.076C261.338 216.979 261.435 216.882 261.532 216.785C261.824 216.882 262.115 216.882 262.406 216.882C262.309 217.562 262.988 217.562 262.309 218.436C261.629 217.95 261.338 216.299 260.077 217.95C260.95 218.533 261.726 219.699 262.503 220.67C263.279 221.642 264.055 222.419 265.026 222.225C264.929 222.128 265.123 221.642 265.317 221.642C265.511 221.642 265.802 221.642 265.996 221.642C265.899 221.933 265.802 222.322 265.705 222.613C265.705 222.711 265.608 222.711 265.608 222.808V222.905C265.608 223.002 265.511 223.099 265.511 223.196L265.608 223.099C265.705 223.488 265.899 223.682 266.287 223.876C266.093 224.071 265.899 223.973 265.608 224.362C265.22 224.168 264.832 223.973 264.54 223.876C264.249 223.682 263.958 223.391 263.667 223.196C263.279 222.711 262.891 222.322 262.503 222.128C262.503 222.225 262.503 222.225 262.6 222.322C260.562 220.476 259.01 218.339 257.651 216.299C256.681 214.842 254.643 214.356 253.187 212.996C252.702 212.607 252.314 212.122 251.829 211.733C252.314 212.316 252.993 212.51 253.77 212.316ZM252.023 299.65C251.926 299.164 251.829 298.678 251.635 298.29C249.694 297.512 247.754 296.735 245.813 296.055C245.91 296.25 246.007 296.347 246.104 296.541C245.037 295.958 243.969 295.375 242.999 294.792C242.999 294.695 242.999 294.695 242.999 294.598L242.902 294.695C239.7 292.947 236.498 291.198 233.393 289.352C232.81 289.061 232.325 288.769 231.743 288.478C231.937 287.798 232.034 287.215 232.131 286.632C232.325 286.729 232.422 286.729 232.616 286.729C232.519 286.826 232.422 286.924 232.228 286.924C232.422 287.118 232.713 287.215 233.004 287.215C233.004 288.284 233.198 288.284 234.46 288.284C235.721 289.352 237.08 290.227 238.438 291.004C238.535 291.101 238.632 291.101 238.826 291.198C241.446 292.558 244.163 293.627 246.977 294.501C248.918 295.958 251.053 297.221 253.187 298.387C253.964 298.775 254.74 299.164 255.516 299.65C255.613 300.038 255.807 300.427 255.904 300.718C255.613 300.621 255.225 300.232 254.934 300.427C255.031 300.815 255.613 301.301 256.001 300.912C256.098 301.107 256.293 301.398 256.39 301.495C256.584 301.69 256.875 301.981 257.069 302.175L257.166 302.273C255.419 301.398 253.673 300.524 252.023 299.65ZM259.301 348.222C259.301 348.125 259.204 348.028 259.204 348.028C258.524 347.056 257.651 346.182 256.875 345.502C257.554 345.891 258.136 346.376 258.815 347.154C259.786 347.056 260.853 347.348 261.921 347.834C262.115 348.319 262.309 348.708 262.6 348.902C261.435 348.514 260.368 348.319 259.301 348.222ZM262.988 335.982C262.988 334.136 261.532 333.553 259.98 333.359C259.495 332.873 257.36 332.096 255.419 331.319C255.71 330.542 256.098 330.833 256.39 330.153C255.613 329.667 254.837 329.085 253.964 328.599C256.293 329.862 258.621 331.028 260.95 332.29C261.824 333.845 263.085 334.816 263.958 336.273C263.764 336.176 263.376 336.079 262.988 335.982ZM267.451 350.845C267.451 350.748 267.549 350.651 267.549 350.651C267.646 350.845 267.743 350.942 267.84 351.039C267.646 350.942 267.549 350.845 267.451 350.845ZM276.282 356.188C276.088 355.994 275.893 355.702 275.699 355.508C276.185 355.702 276.573 355.994 276.864 356.48C276.961 356.382 276.961 356.382 277.058 356.382C277.446 356.674 277.931 356.965 278.319 357.354C277.64 356.868 276.961 356.577 276.282 356.188ZM280.163 360.171C280.842 360.365 281.618 360.56 282.395 360.754C282.298 360.948 282.104 361.143 281.91 361.531C281.327 361.045 280.745 360.657 280.163 360.171ZM286.761 363.96C285.112 363.377 283.559 362.503 282.104 361.628C282.298 361.531 282.589 361.337 282.88 360.851C282.977 360.851 283.171 360.948 283.268 360.948C283.171 360.754 283.074 360.657 283.074 360.463C283.074 360.268 283.074 360.171 282.977 360.171C282.88 360.074 282.88 359.88 282.783 359.783C284.821 361.24 287.246 362.308 288.993 363.96C289.187 363.863 289.478 363.571 289.575 363.668C289.575 363.765 289.575 363.96 289.672 364.057C288.702 363.96 287.538 364.251 286.761 363.96ZM285.5 356.577C287.441 357.645 289.381 358.714 291.128 359.88C291.71 360.268 291.807 361.143 292.486 361.531C291.322 361.24 290.157 360.657 289.09 359.977C288.314 359.103 287.343 358.325 286.47 357.645C286.082 357.354 285.791 356.965 285.5 356.577ZM298.696 369.983C297.532 369.303 296.368 368.72 295.106 368.234C294.815 367.748 294.233 367.554 293.554 367.457C293.554 367.457 293.554 367.457 293.554 367.36C292.874 366.971 292.098 366.68 291.225 366.486C290.837 365.806 290.546 364.931 290.06 364.445C290.254 364.445 290.546 364.543 290.74 364.64C291.128 364.834 291.419 365.126 291.807 365.32C291.904 365.514 292.098 365.806 292.195 366C292.389 366 292.486 365.903 292.68 365.903C293.068 366.194 293.457 366.486 293.942 366.68C295.203 367.457 296.465 368.234 297.823 368.914C298.114 369.108 298.502 369.303 298.793 369.497C298.793 369.691 298.793 369.886 298.696 369.983ZM299.861 366.971C299.085 366.097 298.017 365.611 296.95 365.028C296.465 364.543 295.979 363.96 295.494 363.377C297.338 364.445 299.279 365.611 301.219 366.777C301.413 367.36 301.802 367.651 302.287 367.846C301.413 367.651 300.928 366.874 299.861 366.971ZM312.96 365.126C311.796 364.348 310.535 364.154 309.37 363.183C309.273 363.085 309.855 362.405 309.564 362.405C309.467 362.308 308.885 363.377 308.788 363.085C308.691 362.988 308.497 362.891 308.4 362.794C308.4 362.6 308.4 362.308 308.4 362.211C307.721 361.823 307.138 361.531 306.459 361.143C306.459 361.045 306.556 361.045 306.556 360.948C306.459 361.045 306.459 361.045 306.362 361.045C306.071 360.851 305.683 360.657 305.295 360.463C305.392 360.657 305.489 360.948 305.586 361.143C305.489 361.045 305.392 360.851 305.198 360.754C305.198 360.754 305.101 360.754 305.101 360.657C305.295 360.268 305.586 359.88 305.78 359.491C305.489 359.2 305.101 359.103 304.616 359.297C304.421 359.588 304.324 359.88 304.227 360.074C302.287 359.005 300.249 357.84 298.502 356.771V356.674C299.085 356.188 300.152 357.062 300.152 355.897C299.085 354.828 298.308 355.994 297.629 356.188C297.338 355.994 297.047 355.8 296.853 355.605C296.853 355.605 296.853 355.508 296.756 355.508C297.241 355.12 297.823 355.314 298.405 355.12C297.144 354.828 295.882 354.44 294.718 354.051C294.621 353.76 294.33 353.662 293.942 353.76C293.651 353.662 293.263 353.468 292.971 353.371L293.263 353.079C293.068 352.594 292.874 352.205 292.68 351.525C292.389 352.108 292.195 352.497 292.098 352.788C291.904 352.691 291.807 352.497 291.613 352.497C291.419 352.497 291.322 352.399 291.128 352.302C291.225 352.205 291.419 352.011 291.516 351.817C291.419 351.817 291.322 351.719 291.225 351.719C291.322 350.651 290.934 350.165 289.866 350.457C289.769 350.651 289.672 350.845 289.575 351.039C288.993 350.651 288.411 350.359 287.732 349.971H287.635C287.343 349.777 287.052 349.679 286.761 349.485C286.955 349.194 287.149 348.805 287.343 348.514C287.246 348.319 286.858 348.708 286.373 349.291C285.985 348.805 285.5 348.417 285.112 348.028C285.112 347.834 285.112 347.639 285.112 347.542C285.015 347.542 284.918 347.639 284.821 347.834C284.529 347.639 284.335 347.348 284.044 347.154C284.044 347.056 284.141 347.056 284.141 346.959C283.947 346.959 283.753 346.862 283.656 346.862C281.521 345.308 279.193 344.045 276.767 342.782C277.058 343.365 277.252 343.948 277.543 344.531C277.155 344.336 276.767 344.142 276.379 343.851C276.476 343.365 276.185 343.365 275.893 343.559C275.602 343.365 275.214 343.171 274.923 342.879C274.923 342.782 275.02 342.588 274.923 342.588C274.923 342.588 274.826 342.685 274.826 342.782C274.535 342.588 274.147 342.296 273.856 342.102C273.953 342.005 274.05 342.005 274.147 341.908C273.371 340.839 272.497 339.868 271.624 338.605C271.139 338.508 270.557 338.313 269.683 338.702C269.586 338.605 269.489 338.508 269.392 338.411C269.101 338.411 268.907 338.411 268.713 338.411C268.616 338.313 268.519 338.313 268.422 338.216H268.519C268.519 338.216 268.713 337.731 268.616 337.731C268.519 337.633 268.325 337.731 268.131 337.731C268.131 337.828 268.131 337.925 268.034 337.925C267.646 337.731 267.257 337.536 266.966 337.342C266.772 336.759 266.384 336.371 265.996 335.982C265.414 335.399 264.832 334.719 264.346 334.039C268.616 336.468 272.788 338.993 276.767 341.908C277.252 341.811 277.64 341.422 278.125 341.228C278.319 341.325 278.61 341.519 278.804 341.616C278.707 341.422 278.707 341.325 278.61 341.228C278.61 341.228 278.61 341.228 278.707 341.228C279.193 342.005 279.775 342.782 280.745 343.559C281.91 343.559 283.074 343.851 284.141 344.434C284.044 344.434 284.044 344.434 283.947 344.531C283.85 344.822 283.85 345.114 283.753 345.308C284.627 345.891 285.403 346.376 286.276 346.959C286.276 346.474 286.276 346.085 286.373 345.794C286.761 346.085 287.149 346.279 287.538 346.571C288.314 347.154 289.09 347.736 289.866 348.222C290.934 349.777 292.389 350.942 294.136 351.622C293.942 351.137 293.651 350.748 293.554 350.262C293.845 350.359 294.136 350.457 294.427 350.554C294.621 351.234 293.845 351.914 295.009 352.497C295.979 353.371 295.979 351.428 296.465 351.914C296.659 352.108 296.756 352.399 296.853 352.691C296.95 352.982 297.047 353.274 297.241 353.565C297.338 353.662 297.338 353.76 297.435 353.76L297.532 353.857C298.211 354.537 299.376 355.12 300.54 355.217L300.637 355.12C301.219 355.217 301.802 355.12 302.384 355.022C302.772 355.314 303.16 355.508 303.548 355.8C304.227 356.48 305.004 356.965 305.877 357.354C305.877 357.451 305.78 357.548 305.683 357.742C305.877 357.645 305.974 357.645 306.168 357.548C306.75 357.937 307.332 358.325 307.818 358.714C307.43 358.908 307.138 359.2 306.653 359.394C307.624 360.365 308.691 361.24 309.661 362.114C309.467 362.211 309.37 362.211 308.885 362.988C309.37 362.697 308.982 363.377 309.273 363.28C309.564 362.697 309.758 362.503 309.855 362.308C310.341 362.697 310.826 363.183 311.311 363.571C311.408 363.668 311.699 363.571 311.893 363.571C312.184 363.863 312.475 364.154 312.863 364.348L312.96 364.445C312.96 364.445 312.863 364.543 312.863 364.64L313.057 364.834C313.057 364.834 313.057 364.737 313.155 364.737C313.252 364.931 313.349 365.028 313.543 365.126C313.155 365.028 313.057 365.223 312.96 365.126ZM313.252 365.32C313.252 365.223 313.349 365.028 313.446 364.931C313.543 364.931 313.64 365.028 313.737 365.028C313.543 365.126 313.349 365.223 313.252 365.32ZM314.125 365.611C314.222 365.417 314.319 365.223 314.319 365.126C314.513 365.126 314.804 365.223 315.192 365.223C315.192 365.417 315.192 365.708 315.192 365.903C314.513 366.388 314.901 365.126 314.125 365.611ZM314.804 382.029C316.066 382.709 317.521 383.097 318.783 383.68C318.685 383.875 318.588 384.069 318.394 384.36C318.685 384.166 318.588 385.04 319.074 384.166C319.074 384.069 319.171 383.972 319.171 383.777C319.365 383.875 319.656 383.972 319.947 384.166C320.044 384.263 320.141 384.36 320.238 384.457C320.626 384.846 321.014 385.235 321.402 385.623C321.499 385.915 321.596 386.206 321.888 386.303C321.985 386.303 322.082 386.303 322.179 386.303C322.955 386.983 323.634 387.663 324.41 388.246C324.799 388.538 325.284 388.829 325.672 389.12C324.605 388.829 323.634 388.44 322.567 388.052C322.373 387.955 322.082 387.955 321.888 387.857C320.432 386.789 319.074 385.623 317.618 384.36C317.618 384.36 317.618 384.263 317.521 384.263V384.36L317.424 384.263C317.133 383.972 316.745 383.583 316.357 383.389C315.871 383 315.386 382.612 314.998 382.223C314.804 382.126 314.804 382.126 314.804 382.029ZM318.2 387.955C318.006 388.343 317.715 388.538 317.327 388.635C316.842 388.149 316.357 387.663 315.969 387.177C316.26 387.08 316.551 386.983 316.939 386.789C317.424 387.08 317.909 387.566 318.394 387.955C318.297 387.955 318.2 387.955 318.2 387.955ZM331.3 399.515C331.203 399.612 331.203 399.709 331.203 399.806C330.815 399.418 330.427 399.126 330.233 398.835C329.844 398.446 329.456 398.155 329.068 397.863C329.65 397.961 330.33 398.058 330.912 397.961C330.233 396.601 328.777 395.726 327.321 395.435C327.419 395.338 327.516 395.143 327.613 394.949C327.322 395.143 327.322 394.172 326.739 395.046C326.739 395.143 326.739 395.241 326.739 395.338C326.642 395.338 326.545 395.338 326.448 395.338C326.157 394.658 325.478 394.561 324.896 394.366C324.993 394.561 324.993 394.852 325.09 395.046C324.508 394.658 323.828 394.269 323.246 393.783C323.343 393.492 323.537 393.298 323.925 393.006C322.858 392.035 321.888 389.995 320.626 391.063C321.111 391.743 321.694 392.326 322.276 392.229C322.082 392.423 321.985 392.618 321.888 392.715C321.014 392.035 320.141 391.258 319.268 390.383C319.365 389.995 319.462 389.509 319.753 389.023C320.141 389.315 320.529 389.606 320.917 389.898C321.111 390.092 321.305 390.286 321.499 390.383C321.499 390.286 321.596 390.286 321.596 390.189C322.567 390.675 323.634 390.869 324.799 390.675C325.09 390.966 325.284 391.355 325.284 392.035C327.419 391.258 328.292 392.229 328.583 393.978C328.68 394.852 329.068 395.338 329.553 395.823C330.621 396.892 331.688 397.961 332.755 399.126C332.27 399.321 331.882 398.641 331.3 399.515ZM325.963 389.412L326.739 389.606L326.448 389.995L325.963 389.412ZM333.435 386.206C332.076 385.235 330.524 384.652 328.777 384.166C328.292 383.972 327.71 383.875 327.224 383.68C327.516 383 327.904 383.389 328.098 382.806C328.098 382.32 327.419 383.292 326.933 383.389C327.03 383.389 327.03 382.709 327.03 382.709C326.933 382.709 326.545 383 326.448 382.903C326.06 382.806 326.06 382.417 325.672 382.32C326.351 381.64 325.963 381.446 326.06 381.154C326.254 381.154 326.351 381.154 326.545 381.252C326.739 381.64 326.836 382.029 327.516 381.543C327.904 381.64 328.389 381.64 328.874 381.349C329.262 381.64 329.65 381.932 330.038 382.32C331.494 383.486 332.949 384.749 334.599 385.915C333.92 386.206 333.629 386.303 333.435 386.206ZM332.173 371.343C332.076 371.051 331.882 370.663 331.591 370.566C331.106 370.274 330.621 369.886 330.233 369.497C330.524 369.497 330.815 369.303 331.106 369.011C330.038 368.428 329.165 367.554 328.389 366.583C329.553 367.457 330.718 368.234 331.979 369.011C331.009 369.886 332.852 370.566 332.173 371.343ZM331.979 369.108C333.338 369.983 334.793 370.663 336.443 371.246C336.152 372.509 335.569 372.12 335.084 372.217C335.084 372.023 335.181 371.731 335.375 371.537C334.114 369.303 331.979 371.634 331.979 369.108ZM333.047 372.314C332.852 372.217 332.755 372.12 332.561 372.023C332.464 371.926 332.367 371.829 332.27 371.634C332.561 371.926 332.852 372.12 333.047 372.314ZM337.025 374.257C336.443 373.577 335.666 373.286 334.793 372.994C334.987 372.703 334.987 372.509 335.084 372.217C335.569 371.926 335.861 372.897 336.928 373.286L336.831 373.48C337.219 373.577 337.316 373.966 337.51 374.257C337.316 374.257 337.219 374.257 337.025 374.257ZM338.189 374.354C338.48 374.16 338.577 374.257 338.674 374.451C338.577 374.354 338.383 374.354 338.189 374.354ZM342.556 394.561L342.459 394.366L342.653 394.172L342.556 394.561ZM345.273 378.92C345.758 378.92 346.243 378.823 346.728 378.337C346.631 378.823 346.146 379.309 345.758 379.6C345.564 379.406 345.37 379.212 345.273 378.92ZM346.631 395.823L345.855 395.921L345.952 395.629L346.728 395.532L346.631 395.823ZM347.213 387.275C347.213 387.275 347.213 387.177 347.116 387.177C347.116 387.177 347.116 387.177 347.116 387.08L347.213 387.177C347.311 387.275 347.311 387.275 347.213 387.275ZM346.922 380.96C346.631 380.572 346.34 380.28 346.049 379.892C347.019 380.377 347.893 380.96 348.766 381.543C348.087 381.543 347.408 381.252 346.922 380.96ZM349.057 390.966L349.154 390.869C349.251 390.966 349.348 390.966 349.445 391.063C349.251 391.063 349.154 391.063 349.057 390.966ZM349.057 368.331C349.057 368.817 349.057 369.303 349.057 369.788C347.019 368.331 344.982 366.971 343.041 365.32C342.071 366.291 341.585 364.251 340.615 365.417C340.615 365.126 340.809 365.126 341.1 364.931C338.772 364.057 338.577 364.057 337.898 361.24C331.591 355.12 324.41 350.748 317.521 345.599C318.006 345.114 318.394 344.725 318.88 344.239C320.432 344.822 321.985 345.502 323.537 346.085C326.642 347.348 329.747 348.514 332.755 349.874C333.338 350.748 334.017 351.428 334.793 351.525C334.793 351.234 334.793 351.039 334.793 350.748C336.54 351.622 338.286 352.497 339.936 353.468C340.13 353.565 340.421 353.371 340.712 353.079C341.003 353.177 341.197 353.371 341.488 353.468C341.391 353.565 341.294 353.76 341.197 353.857L343.914 356.771C342.847 356.091 341.78 355.605 340.712 355.508C340.421 353.565 337.801 352.691 337.219 354.051C339.645 354.634 341.488 357.16 343.526 359.005C343.235 358.908 343.041 358.811 342.75 358.714C341.586 358.325 340.227 358.228 338.966 357.84C337.607 361.823 339.16 362.6 340.13 364.057C340.615 363.474 341.003 362.891 341.877 361.92C342.653 364.348 347.311 362.114 346.146 367.068C349.833 365.417 351.192 366.68 351.192 369.4C350.513 368.72 349.736 368.526 349.057 368.331ZM348.378 360.754C348.475 360.754 348.475 360.754 348.378 360.754L349.736 361.045L349.057 361.823L348.378 360.754ZM347.311 328.21L348.669 325.199C348.572 328.307 350.416 328.599 351.871 328.89C352.259 329.376 352.647 329.765 353.133 330.25L352.259 330.542C350.513 329.862 348.863 329.085 347.311 328.21ZM352.356 371.343C352.453 372.023 351.58 372.314 351.095 372.217L351.289 371.829H351.192C351.192 371.634 351.289 371.537 351.289 371.343C351.968 371.343 353.133 370.663 353.521 371.246C354.976 373.48 358.178 374.063 359.44 376.589C357.305 374.743 354.976 372.897 352.356 371.343ZM381.855 374.743H380.496L380.884 374.16H382.243L381.855 374.743ZM387.871 355.411L387.968 355.022L388.259 354.925L387.871 355.411ZM388.938 356.285C388.744 356.382 388.55 356.674 388.453 356.674C388.356 356.674 388.453 356.48 388.453 356.382C388.647 356.285 388.841 356.091 388.938 355.994C389.035 355.994 388.938 356.188 388.938 356.285ZM198.266 229.511C197.587 230.774 196.811 233.299 198.072 231.454C198.363 230.579 198.751 229.608 198.266 229.511ZM188.272 225.722L188.951 225.139V223.488L187.981 224.362V225.139C187.592 225.916 187.787 226.499 188.272 225.722ZM369.143 297.901C369.24 297.901 369.434 297.707 369.822 297.221C369.531 296.444 369.919 294.404 367.882 295.667C368.561 296.347 368.076 297.901 369.143 297.901ZM362.351 294.404C362.448 293.918 362.836 292.655 361.575 294.307C361.769 294.209 361.672 295.181 362.351 294.404ZM201.953 228.928C199.625 225.139 196.326 223.682 191.377 223.293C189.824 227.179 194.579 222.613 193.317 226.402C193.317 226.111 192.638 225.431 191.959 226.693C193.22 226.888 193.415 229.705 195.646 227.179C194.191 229.705 195.743 229.802 196.326 229.608C195.84 229.414 196.423 228.928 197.102 227.471C198.46 227.471 195.84 231.648 197.199 231.065C198.266 229.414 197.296 229.996 198.169 228.539C199.625 227.859 199.916 230.968 201.953 228.928ZM215.829 189.973C215.538 188.418 213.112 189.001 212.239 189.584C213.015 189.875 214.374 191.624 215.829 189.973ZM363.418 298.581C361.866 296.152 359.731 292.558 356.723 291.295C358.081 293.335 360.604 298.872 363.418 298.581ZM372.151 309.17C371.957 309.558 372.151 310.724 373.219 309.267C372.733 309.364 372.83 308.393 372.151 309.17ZM373.898 302.175C374.965 301.884 374.383 303.633 375.936 301.981C375.644 301.398 375.45 300.815 373.898 302.175ZM364.097 289.546C363.612 289.352 363.612 288.284 362.157 290.324C362.933 289.838 362.836 291.392 364.097 289.546ZM355.655 290.421C356.141 290.421 356.141 291.489 356.917 290.809C357.111 290.227 356.626 289.255 355.655 290.421ZM317.23 411.755C317.812 411.561 318.006 412.338 318.977 410.978C318.394 411.27 318.491 409.521 317.23 411.755ZM303.16 359.005C303.548 359.297 303.451 360.074 303.936 359.685C304.13 358.52 304.616 357.16 303.16 359.005ZM316.163 410.104C315.774 410.007 314.61 410.007 314.222 410.784C314.319 411.561 315.58 412.921 317.133 411.172C317.133 410.492 316.648 410.104 316.163 410.104ZM318.685 411.755C319.268 410.881 319.074 413.504 320.626 411.075C320.044 411.172 319.559 410.201 318.685 411.755ZM172.649 214.55C173.134 214.647 174.59 214.939 175.075 214.162C174.881 213.287 173.037 211.636 171.291 213.19C171.388 213.967 171.97 214.453 172.649 214.55ZM171.097 212.607C170.417 212.802 170.029 211.83 168.962 213.093C169.641 212.996 169.738 214.842 171.097 212.607ZM160.908 228.831C161.005 228.442 160.714 227.276 159.841 228.831C160.229 228.734 160.229 229.705 160.908 228.831ZM169.253 212.316C168.671 213.19 168.574 210.276 166.924 212.705C167.603 212.607 168.283 213.773 169.253 212.316ZM366.814 259.334C365.068 258.751 367.397 253.02 363.903 255.837C364.097 257.683 365.553 259.14 366.814 259.334ZM367.979 260.889C367.591 261.666 368.27 261.86 368.755 261.763C368.755 261.083 368.949 259.82 368.076 260.403C368.173 260.791 367.591 260.694 367.591 261.083C367.882 260.889 367.979 260.791 367.979 260.889ZM363.127 252.728C362.157 251.271 361.186 249.717 359.44 250.105C359.828 248.551 358.372 248.454 357.596 249.62C360.119 249.523 359.537 254.963 363.127 252.728ZM264.055 198.23C264.055 197.744 263.861 198.133 263.57 198.618C263.861 199.396 263.473 198.327 264.055 198.23ZM302.772 208.236C303.936 208.916 305.586 209.304 307.332 209.887C308.982 210.47 310.729 211.053 311.893 212.025L312.766 213.19C314.416 212.607 315.58 213.87 317.036 214.259C317.327 213.87 317.424 214.065 317.812 213.579C316.551 212.025 314.901 211.83 313.252 212.122C312.378 210.47 310.729 209.207 308.885 208.43C307.041 207.653 305.004 207.264 303.257 207.167C302.869 206.876 303.257 205.224 302.19 206.973C301.316 207.459 302.578 208.139 302.772 208.236ZM317.424 214.453C317.909 215.23 318.491 215.522 319.171 215.133C319.074 214.745 319.462 214.842 319.753 214.745C318.977 214.745 318.588 212.899 317.424 214.453ZM264.735 198.327C264.443 198.91 264.249 199.687 264.055 200.367C264.735 199.59 264.54 199.104 264.735 198.327ZM356.723 247.968C357.305 246.608 357.208 244.957 355.752 245.54C355.85 246.414 355.752 248.163 356.723 247.968ZM355.558 245.831C354.976 245.443 354.976 242.917 353.133 243.597C353.521 244.082 354.006 246.317 355.558 245.831ZM322.373 216.59C322.082 216.007 321.694 215.716 321.111 216.007C321.208 216.202 320.917 216.396 320.626 216.59C321.111 216.785 322.276 216.882 322.373 216.59ZM352.065 241.751C352.259 241.071 351.289 240.877 350.61 241.362C350.416 242.042 351.192 242.528 352.065 241.751ZM296.853 416.515C297.241 416.03 297.532 415.252 297.92 414.67C297.144 415.35 297.241 415.835 296.853 416.515ZM297.532 416.807C297.435 417.293 297.726 417.001 298.114 416.613C297.92 415.641 298.211 416.807 297.532 416.807ZM257.845 401.749C255.419 400.389 250.859 399.904 248.336 398.058L247.365 396.989C245.716 397.669 244.454 396.406 242.999 396.115C242.708 396.503 242.611 396.406 242.32 396.892C243.775 398.349 245.328 398.446 247.074 398.155C248.142 399.806 249.791 400.972 251.732 401.652C253.576 402.429 255.71 402.818 257.457 402.915C257.845 403.206 257.554 404.858 258.524 403.206C259.301 402.624 258.039 401.846 257.845 401.749ZM194.87 371.051C194.773 372.509 195.452 374.063 196.617 372.994C196.326 372.314 195.84 370.566 194.87 371.051ZM180.509 364.251C182.45 364.057 182.741 370.274 184.778 366.291C183.905 364.64 181.77 363.863 180.509 364.251ZM240.476 395.435C240.573 395.823 240.185 395.726 239.991 395.921C240.767 395.823 241.349 397.572 242.417 396.018C241.834 395.241 241.252 395.046 240.476 395.435ZM178.859 362.988C178.762 363.183 178.665 363.377 178.568 363.183C178.568 362.405 177.792 362.405 177.404 362.697C177.695 363.28 178.083 364.543 178.665 363.668C178.471 363.474 179.053 363.28 178.859 362.988ZM186.913 368.914C188.466 369.886 190.018 370.954 191.571 370.08C191.765 371.634 193.22 371.246 193.512 369.886C190.989 370.857 189.436 365.514 186.913 368.914ZM196.811 372.703C197.587 372.897 198.363 375.229 200.013 374.063C199.431 373.771 198.169 371.731 196.811 372.703ZM237.177 394.366C237.565 394.852 238.05 395.143 238.535 394.852C238.438 394.658 238.632 394.463 238.923 394.269C238.438 393.978 237.177 394.075 237.177 394.366ZM201.662 375.52C201.662 376.2 202.633 376.2 203.215 375.52C203.215 374.743 202.245 374.451 201.662 375.52ZM161.296 341.033C161.781 340.451 162.364 342.199 162.849 340.548C162.17 341.228 161.684 339.479 161.296 341.033ZM168.477 337.633C169.738 337.633 170.32 338.605 171.388 338.313C170.806 337.925 169.35 336.273 168.477 337.633ZM181.479 342.102C180.606 342.296 179.733 340.353 178.956 341.519C179.442 342.685 180.897 342.588 181.479 342.102ZM165.566 341.713C166.051 341.713 166.536 341.811 166.924 341.519C166.633 340.742 165.954 341.033 165.566 341.713ZM160.52 345.599C161.102 345.696 160.908 346.474 161.49 346.668C162.073 345.696 160.714 345.114 160.52 345.599ZM161.781 343.559C162.461 344.045 163.14 344.434 163.722 344.045C162.752 344.045 162.558 342.588 161.781 343.559ZM166.827 343.656C167.021 344.531 167.603 343.268 168.089 343.365C168.768 343.462 169.738 343.656 170.709 343.656C170.806 343.656 171 343.656 171.097 343.656C171.097 343.754 171.097 343.851 171.097 344.045C170.514 344.434 169.932 344.336 169.35 344.045C169.253 344.336 169.156 344.725 168.962 345.016C172.358 345.114 175.172 349.097 178.568 347.542C176.142 346.085 173.328 346.474 172.455 343.559C172.649 343.365 173.134 344.142 173.62 343.462C173.911 344.045 174.687 344.142 175.075 343.268C174.493 342.394 173.231 342.102 171.776 342.005C170.417 341.908 168.962 341.908 168.186 341.422C167.798 342.296 167.215 342.394 166.827 343.656ZM225.145 284.495L225.242 284.592L225.145 284.495ZM170.611 237.282L170.709 237.379L170.806 237.185L170.611 237.282ZM289.866 327.627C289.381 327.433 288.896 327.239 288.314 327.045L288.12 327.336C288.605 327.53 289.187 327.725 289.672 327.919L289.866 327.627ZM290.74 326.559C290.449 326.462 290.157 326.267 289.866 326.17L289.672 326.462C289.963 326.559 290.254 326.753 290.546 326.85L290.74 326.559ZM255.128 300.038L254.837 299.747L254.643 299.941L255.031 300.232L255.128 300.038ZM324.896 393.881L324.799 394.366H324.896V394.269V393.881ZM301.122 355.605L301.705 356.188L301.51 355.217L301.122 355.605ZM301.705 356.188V356.285L301.802 356.382V356.285L301.705 356.188ZM340.324 402.041L340.13 402.138H340.227L340.324 402.041ZM341.294 401.944L341.197 401.846L341.1 402.041L341.294 401.944ZM301.802 357.062L302.093 356.771L301.802 356.382V357.062ZM183.226 330.056L182.838 329.862C182.45 330.25 183.032 330.639 183.226 330.056ZM158.094 314.707C158.094 315.193 158.579 315.873 159.064 315.29C158.676 315.29 158.482 314.61 158.094 314.707ZM185.943 331.028C185.652 330.93 185.361 331.125 185.07 331.416C185.361 331.513 185.652 331.513 185.943 331.028ZM381.175 297.61C380.981 297.512 380.787 297.318 380.496 297.415C380.399 297.901 380.787 297.901 381.175 297.61ZM364.583 293.432C364.777 293.044 364.291 293.044 363.806 293.529C364.194 293.044 363.903 292.947 363.515 293.335C363.127 294.112 364.097 293.627 364.583 293.432ZM382.049 298.872C382.631 298.678 382.243 299.747 382.922 299.067C382.534 299.164 382.922 298.192 382.049 298.872ZM365.165 294.112C365.068 294.015 364.777 294.307 364.583 294.404C364.68 294.501 364.389 294.792 364.583 294.792C364.777 294.695 365.068 294.307 365.165 294.112ZM366.135 296.055C366.135 296.25 366.232 296.25 366.523 296.055C366.62 295.861 366.523 295.667 366.135 296.055ZM380.593 296.055C380.011 295.569 379.041 294.792 378.07 294.695C378.167 294.307 377.876 294.015 377.294 294.404C377.294 295.569 379.526 296.152 379.914 297.027C380.399 296.735 380.69 296.832 381.272 296.25C381.564 295.764 380.787 296.347 380.593 296.055ZM367.202 294.598C367.3 294.792 367.202 295.861 368.173 294.889C367.979 294.695 367.882 294.112 367.202 294.598ZM369.919 295.278C370.114 295.278 370.502 294.889 370.793 294.695C371.084 294.209 370.211 294.987 369.919 295.278ZM311.02 363.863C311.214 363.863 311.408 363.668 311.699 363.474C311.602 363.377 311.311 363.377 311.02 363.863ZM390.297 370.177C389.811 369.886 389.423 369.497 388.938 369.594C389.132 370.177 389.811 370.371 390.297 370.177ZM392.528 372.411C393.305 372.411 393.499 373.771 394.081 372.994C393.499 372.994 393.402 371.634 392.528 372.411Z" fill="#F4F5EF"/>
</g>
<path opacity="0.6" d="M207.904 361H178.816V345.592H132.592V323.272L167.584 264.952H207.904V320.248H218.992V345.592H207.904V361ZM178.816 320.248V290.008L160.672 320.248H178.816ZM290.379 355.672C283.851 360.376 275.979 362.728 266.763 362.728C257.547 362.728 249.627 360.376 243.003 355.672C236.475 350.872 231.675 344.824 228.603 337.528C225.627 330.136 224.139 321.976 224.139 313.048C224.139 299.128 227.835 287.416 235.227 277.912C242.619 268.312 253.131 263.512 266.763 263.512C280.395 263.512 290.907 268.312 298.299 277.912C305.691 287.416 309.387 299.128 309.387 313.048C309.387 321.976 307.851 330.136 304.779 337.528C301.803 344.824 297.003 350.872 290.379 355.672ZM253.371 313.048C253.371 329.08 257.835 337.096 266.763 337.096C275.691 337.096 280.155 329.08 280.155 313.048C280.155 297.112 275.691 289.144 266.763 289.144C257.835 289.144 253.371 297.112 253.371 313.048ZM389.873 361H360.785V345.592H314.561V323.272L349.553 264.952H389.873V320.248H400.961V345.592H389.873V361ZM360.785 320.248V290.008L342.641 320.248H360.785Z" fill="#FF4823"/>
<defs>
<clipPath id="clip0">
<rect width="265" height="228" fill="white" transform="translate(135 189)"/>
</clipPath>
</defs>
</svg>
