<svg width="82" height="38" viewBox="0 0 82 38" fill="none" xmlns="http://www.w3.org/2000/svg">
<path d="M15.4507 7C17.03 7 17.5262 8.12264 17.9426 9.24352C18.1174 9.71949 22.2214 20.8579 22.3448 21.1922C22.3777 21.2855 22.3555 21.4386 22.2108 21.494C22.0652 21.5485 19.9329 22.3703 19.8148 22.4143C19.6967 22.4591 19.5644 22.394 19.5218 22.277C19.4775 22.1618 18.5924 19.7335 18.493 19.4625H12.4102C12.3144 19.7335 11.4186 22.167 11.3787 22.277C11.3379 22.3888 11.2109 22.4644 11.0849 22.4143C10.9588 22.365 8.81849 21.5433 8.69065 21.494C8.56815 21.4465 8.51222 21.3084 8.55483 21.1922C8.70574 20.7752 12.7476 9.81539 12.9535 9.24352C13.3548 8.13935 13.8679 7 15.4507 7ZM8.22992 26.9303C8.10209 26.9303 8 27.0359 8 27.1644V29.7677C8 29.8962 8.10209 30 8.22992 30H22.6653C22.7958 30 22.8979 29.8962 22.8979 29.7677V27.1644C22.8979 27.0359 22.7958 26.9303 22.6653 26.9303H8.22992ZM15.4365 10.6371L13.3805 16.7562H17.5262L15.4631 10.6371H15.4365ZM46.2878 20.6705C45.985 20.7717 45.7853 20.7963 45.5474 20.7963C45.0556 20.7963 44.7831 20.6036 44.7831 20.1039C44.7831 19.583 45.1293 19.4088 45.8093 19.4088C45.9753 19.4088 46.1386 19.4326 46.215 19.459V19.832C46.215 20.2341 46.2372 20.498 46.2878 20.6705ZM48.0357 21.267C47.6726 20.7206 47.5776 20.3986 47.5776 19.7097V18.3108C47.5776 17.5577 47.4889 17.2859 47.2882 17.0114C47.0086 16.6225 46.5425 16.4536 45.6859 16.4536C45.0796 16.4536 44.491 16.5187 43.9211 16.663L44.127 17.6571C44.5123 17.6035 44.9162 17.5577 45.2012 17.5577C46.1111 17.5577 46.215 17.6879 46.215 18.3645V18.617C46.0126 18.5633 45.7853 18.5246 45.5216 18.5246C44.1519 18.5246 43.4284 19.1889 43.4284 20.2887C43.4284 21.3198 44.2016 21.882 45.1435 21.882C45.495 21.882 45.8625 21.8178 46.1537 21.6999C46.3295 21.6242 46.4058 21.5793 46.6331 21.4333C46.7698 21.6304 47.0441 21.8318 47.156 21.8697L48.0357 21.267ZM61.5851 20.6705C61.2806 20.7717 61.0844 20.7963 60.8447 20.7963C60.3512 20.7963 60.0751 20.6036 60.0751 20.1039C60.0751 19.583 60.4257 19.4088 61.1075 19.4088C61.2735 19.4088 61.4377 19.4326 61.5123 19.459V19.832C61.5123 20.2341 61.5336 20.498 61.5851 20.6705ZM63.3348 21.267C62.9691 20.7206 62.8759 20.3986 62.8759 19.7097V18.3108C62.8759 17.5577 62.7853 17.2859 62.5829 17.0114C62.3068 16.6225 61.8399 16.4536 60.9806 16.4536C60.3751 16.4536 59.783 16.5187 59.2131 16.663L59.4164 17.6571C59.8025 17.6035 60.2073 17.5577 60.5003 17.5577C61.4049 17.5577 61.5123 17.6879 61.5123 18.3645V18.617C61.3099 18.5633 61.0844 18.5246 60.8154 18.5246C59.4439 18.5246 58.7177 19.1889 58.7177 20.2887C58.7177 21.3198 59.4927 21.882 60.439 21.882C60.795 21.882 61.159 21.8178 61.4475 21.6999C61.6259 21.6242 61.6996 21.5793 61.9269 21.4333C62.0654 21.6304 62.3397 21.8318 62.4524 21.8697L63.3348 21.267ZM74 21.765C74 21.765 73.249 20.1787 73.0652 19.818C72.8584 19.4115 72.6666 19.1308 72.2441 19.0296V19.0068C72.5273 18.9531 72.7527 18.7833 72.9995 18.2642C73.233 17.7583 73.3022 17.6492 73.4398 17.5287C73.5748 17.409 73.7594 17.4521 73.7594 17.4521L73.8287 16.5169C73.6325 16.4905 73.415 16.4896 73.1904 16.502C72.8175 16.5239 72.6249 16.6304 72.4411 16.8134C72.2973 16.9533 72.1997 17.1627 72.0789 17.4029C71.9511 17.6651 71.8499 17.8762 71.7168 18.1428C71.5845 18.4164 71.5223 18.5396 71.1664 18.5396H70.9347V14.3966H69.5631V21.765H70.9347V19.6464L71.122 19.6429C71.5152 19.6429 71.5845 19.7405 71.7922 20.1514C72.0355 20.6415 72.5015 21.765 72.5015 21.765H74ZM35.3625 21.765H36.9453L34.5511 14.5197C34.299 14.4362 33.9874 14.3842 33.6545 14.3842C33.2914 14.3842 33.1618 14.4318 32.8777 14.5197L30.3441 21.765H31.863C31.863 21.765 32.0681 21.1298 32.3096 20.3423H34.9337C35.1681 21.1289 35.3625 21.765 35.3625 21.765ZM32.6948 19.1273C32.6948 19.1273 33.1334 17.673 33.2017 17.4469C33.3757 16.8609 33.6403 15.9301 33.6403 15.9301H33.6838C33.6838 15.9301 33.9288 16.8943 34.0886 17.4363C34.149 17.6519 34.568 19.1273 34.568 19.1273H32.6948ZM50.3722 18.2985C49.8884 18.2985 49.4951 18.69 49.4951 19.1695C49.4951 19.6526 49.8884 20.0414 50.3722 20.0414C50.8569 20.0414 51.2484 19.6526 51.2484 19.1695C51.2484 18.69 50.8569 18.2985 50.3722 18.2985ZM38.8246 14.3966H37.4495V21.7641H38.8246V14.3966ZM66.1445 17.6246C66.9044 17.6404 66.9985 17.7962 66.9985 18.4279V21.765H68.3611V18.3108C68.3611 17.5577 68.2724 17.2859 68.07 17.0114C67.7903 16.6225 67.2408 16.4536 66.3114 16.4536C65.3917 16.4536 64.8058 16.5503 64.0521 16.7729V21.765H65.429V17.6879C65.7903 17.636 65.8542 17.6246 66.1445 17.6246ZM42.2255 14.2655C41.3662 14.2655 40.8984 14.4344 40.6232 14.8224C40.4208 15.0978 40.3311 15.3758 40.3311 16.1307V16.7729H39.6484V17.8745H40.3311V21.765H41.6946L41.6911 17.8745H43.0502V16.7729H41.6911L41.6946 16.1826C41.6946 15.5069 41.7985 15.3758 42.7093 15.3758C42.8079 15.3758 42.9188 15.3811 43.0369 15.3899L43.2517 14.3315C42.9153 14.2875 42.5708 14.2655 42.2255 14.2655ZM53.1659 14.3341C53.6337 14.3068 54.6795 14.2681 55.3355 14.2681C55.4553 14.2681 55.5796 14.269 55.7039 14.2752C56.9938 14.2752 57.7332 15.206 57.7332 16.2987C57.7332 17.0422 57.3897 17.5357 56.5845 17.8296C57.5317 18.0372 58.028 18.7701 58.028 19.6666C58.028 20.3247 57.8407 20.8473 57.4971 21.2037C57.0515 21.6383 56.3768 21.882 55.4784 21.882C54.6795 21.882 53.6763 21.8574 53.1659 21.8274V14.3341ZM55.3355 15.5412C55.1082 15.5412 54.8268 15.5456 54.5481 15.5553V17.3246H55.3364C55.6489 17.3246 55.9001 17.2384 56.0714 17.0721C56.2348 16.9155 56.32 16.6937 56.32 16.4307C56.32 15.865 56.0111 15.5447 55.4367 15.5412H55.3355ZM55.3639 20.6115H55.4234C56.1398 20.6115 56.5783 20.2341 56.5836 19.474C56.5765 19.2012 56.4709 18.9496 56.2818 18.7675C56.075 18.5616 55.782 18.4543 55.4385 18.4543H54.5481V20.6036C54.7993 20.6089 55.0763 20.6098 55.3639 20.6115Z" fill="#EE2A23"/>
</svg>
