<svg width="18" height="18" viewBox="0 0 18 18" fill="none" xmlns="http://www.w3.org/2000/svg">
<path d="M9.86951 8.9983L14.7986 4.09618C15.0349 3.86226 15.0349 3.48357 14.7986 3.25024C14.5629 3.01631 14.18 3.01631 13.9443 3.25024L9.01944 8.14818L4.04904 3.17724C3.81332 2.94092 3.43046 2.94092 3.19474 3.17724C2.95902 3.41415 2.95902 3.79761 3.19474 4.03392L8.16151 9.00129L3.17679 13.9585C2.94107 14.1924 2.94107 14.5711 3.17679 14.8044C3.4125 15.0383 3.79537 15.0383 4.03109 14.8044L9.01158 9.85141L13.9622 14.8026C14.1979 15.0389 14.5808 15.0389 14.8165 14.8026C15.0522 14.5657 15.0522 14.1822 14.8165 13.9459L9.86951 8.9983Z" fill="black"/>
</svg>
