<svg width="12" height="12" viewBox="0 0 12 12" fill="none" xmlns="http://www.w3.org/2000/svg">
<path d="M6.86951 5.9983L11.7986 1.09618C12.0349 0.862257 12.0349 0.483568 11.7986 0.250238C11.5629 0.0163112 11.18 0.0163112 10.9443 0.250238L6.01944 5.14818L1.04904 0.177235C0.813323 -0.0590785 0.430457 -0.0590785 0.19474 0.177235C-0.040977 0.414146 -0.040977 0.797609 0.19474 1.03392L5.16151 6.00129L0.176788 10.9585C-0.0589293 11.1924 -0.0589293 11.5711 0.176788 11.8044C0.412505 12.0383 0.795371 12.0383 1.03109 11.8044L6.01158 6.85141L10.9622 11.8026C11.1979 12.0389 11.5808 12.0389 11.8165 11.8026C12.0522 11.5657 12.0522 11.1822 11.8165 10.9459L6.86951 5.9983Z" fill="black"/>
</svg>
