<svg width="71" height="81" viewBox="0 0 71 81" fill="none" xmlns="http://www.w3.org/2000/svg">
<g opacity="0.5" clip-path="url(#clip0)">
<path d="M54.8708 5.72069C55.0385 5.7042 54.9631 5.5875 54.8601 5.46893C54.5135 5.66851 54.9763 5.39315 54.8708 5.72069ZM4.85162 69.7931C5.0972 69.4472 5.46275 68.9699 5.74541 68.4871C5.77304 68.489 5.8283 68.4927 5.85593 68.4946C5.80943 68.7704 5.62476 69.0367 5.38484 69.2993C5.46207 69.3883 5.51356 69.4476 5.59079 69.5365C6.55494 68.0121 8.53699 67.0312 8.97993 65.4156C7.85822 66.3993 7.21689 67.6666 6.09088 67.8969C6.06891 67.8117 6.44322 67.614 6.37731 67.3585C6.63543 67.2366 6.87724 66.9462 6.70081 66.6832C5.8693 67.073 4.96162 68.9917 4.31032 69.5889C4.40386 69.8463 4.30397 70.0906 4.56519 70.3314C4.89676 70.354 4.67262 69.9761 4.85162 69.7931ZM3.25347 69.2102C3.59704 68.6478 4.05425 68.4558 4.25401 67.9673C3.95882 68.2262 3.0645 68.7232 3.25347 69.2102ZM4.05052 73.0021C3.9055 72.6854 3.3685 73.2346 3.47147 73.3532C3.65613 73.0868 3.84012 73.2388 4.05052 73.0021ZM54.1429 5.81067C54.288 6.12735 54.4908 6.00168 54.7081 6.07224C54.5794 5.92402 54.3307 5.90712 54.1429 5.81067ZM3.1852 72.6643C3.53754 72.3814 3.80509 72.1207 3.85349 71.8172C3.5746 72.2445 3.10299 72.2403 3.1852 72.6643ZM3.64324 70.8266C3.76886 70.612 3.94975 70.4012 3.96485 70.1791C3.65336 70.2695 3.5497 70.5692 3.64324 70.8266ZM2.59687 71.927C2.59996 72.2898 1.95501 72.3854 2.32486 72.6616C2.28658 72.408 2.96106 72.2865 2.59687 71.927ZM8.0928 63.7654C7.92822 64.1447 7.07474 64.4493 7.24174 64.8512C7.72468 64.6887 8.10156 64.0449 8.0928 63.7654ZM60.0308 6.99195C59.7859 6.91951 59.9585 7.23807 60.1111 7.4437C60.6191 7.72927 60.3987 7.29589 60.0308 6.99195ZM57.7522 23.768L57.8074 23.7718L57.8112 23.7162L57.7836 23.7144L57.7522 23.768ZM57.2974 10.0417C56.9571 9.73963 57.4029 9.71416 56.5747 9.23946C56.1928 9.54821 55.1516 9.75635 55.6915 10.7972C55.657 10.488 56.5788 11.2201 56.6731 11.0592C56.3842 10.8164 56.0878 10.6847 55.9648 10.4532C56.5871 10.6907 56.0722 10.0979 56.5877 10.2724C56.7146 10.4484 56.8176 10.5669 56.8929 10.6836C56.832 10.7632 56.8244 10.8742 57.1095 11.1725C57.0837 11.1429 57.0875 11.0874 57.0894 11.0596C57.1886 11.2337 57.3154 11.4097 57.5471 11.6765C57.485 11.3654 58.3987 11.3996 57.9906 10.8698C57.5579 10.7009 57.7984 11.2473 57.2113 10.9005C57.2427 10.8469 57.2464 10.7913 57.0625 10.6394C57.0405 10.5542 56.9909 10.4671 57.1309 10.4488C56.8992 10.182 56.4352 10.0668 56.4208 9.87053C56.5941 9.77074 57.1278 10.086 57.2974 10.0417ZM59.0398 6.8688C59.1523 6.84855 59.6716 6.96753 59.0882 6.56526C58.8471 6.4373 58.5118 6.47029 59.0398 6.8688ZM61.6635 16.8655L61.6805 16.6156L61.5757 16.5248L61.531 16.7728L61.6635 16.8655ZM57.0108 11.8074C56.6478 11.8385 56.9636 12.5015 56.3269 12.0677C56.3175 12.2065 56.5253 12.4159 56.9485 12.7236C57.4641 12.8981 57.5056 12.2873 57.0108 11.8074ZM59.2175 7.52241C57.5886 6.57489 57.4635 7.59842 57.9727 8.27457C59.692 9.11667 58.602 7.59214 59.2175 7.52241ZM19.3475 59.0914C19.3199 59.0896 19.3199 59.0896 19.2923 59.0877C19.3199 59.0896 19.3457 59.1192 19.3733 59.1211L19.3771 59.0655L19.3475 59.0914ZM29.763 66.3543L29.9194 66.5044L30.0412 66.3454L29.9106 66.2249L29.763 66.3543ZM20.6211 58.7317C21.0495 58.1472 21.5036 57.5923 22.0168 56.9857C20.7859 57.1251 19.3716 57.9216 19.3733 59.1211C19.8487 59.0697 20.3517 59.0202 20.8547 58.9708L20.6211 58.7317ZM56.0856 13.167C57.0225 13.677 56.7752 12.8234 56.4405 12.438C55.886 12.4282 56.5133 13.0008 56.0856 13.167ZM59.0759 19.8135L58.8033 19.7392L59.0759 19.8135L59.3741 19.9175L59.0759 19.8135ZM57.9418 9.13715C58.0637 8.97808 58.2923 8.88205 57.9796 8.58186C57.0684 8.10152 56.9629 8.42906 57.9418 9.13715ZM17.3434 75.914C17.425 75.5291 17.5877 75.1776 17.6971 74.7945C18.207 75.0523 18.6911 75.2805 19.2286 75.5401C19.1507 75.8696 19.0709 76.2267 18.9873 76.6395C19.6793 77.077 20.1835 77.4181 20.5829 77.6684C20.9296 77.4688 21.5375 77.5101 21.54 77.064C21.4969 75.2481 22.9659 74.8738 23.7598 73.812C24.5242 72.7762 25.421 71.833 26.3179 70.8898C27.1244 70.0521 27.9051 69.1847 28.4798 68.0801C28.6387 67.7841 28.9301 67.5808 29.0796 67.4236C28.8519 65.874 29.7719 65.4066 30.3755 64.6945C30.5564 64.4837 30.7649 64.2747 30.9477 64.0361C30.9992 64.0954 31.023 64.1528 31.0745 64.2121C32.0298 63.6355 32.3872 62.4604 33.4511 61.9191C33.6979 61.9637 33.9504 61.9251 34.2047 61.8587L34.1752 61.8846L34.2801 61.9754C34.2505 62.0013 34.2486 62.0291 34.221 62.0272C33.2181 62.489 32.5812 63.2825 32.0284 64.4722C32.0284 64.4722 32.056 64.474 32.0541 64.5018C31.9009 64.7145 31.7439 64.9828 31.6163 65.2252C31.5887 65.2233 31.5592 65.2492 31.5831 65.3066C31.1377 66.141 30.7124 67.0883 30.2985 67.8691C29.4989 69.0141 27.2636 71.6793 24.6991 75.1032C24.6991 75.1032 25.638 74.3581 26.6046 73.6149C27.5711 72.8717 28.5358 72.1563 28.6149 72.2175C28.3699 73.3723 29.9344 72.0003 30.6353 71.4901C31.1904 71.0816 31.6351 70.6655 32.0226 70.2735C32.4101 69.8814 32.77 69.4875 33.1852 69.0973C33.7203 68.5759 34.3088 68.0859 34.923 67.6256C35.5096 67.1634 36.122 66.7309 36.7086 66.2687C37.2933 65.8342 37.9056 65.4017 38.4646 64.9376C39.0235 64.4735 39.5844 63.9817 40.0624 63.4842C40.4499 63.0922 40.8098 62.6983 41.1992 62.2784C41.1583 62.4709 41.0641 62.6319 41.3749 62.9598C41.4415 62.797 41.6087 61.9716 41.4183 62.3212C41.4164 62.349 41.2839 62.2563 41.2306 62.2248C41.321 62.1194 41.4096 62.0417 41.5 61.9363C41.5534 61.9678 41.6105 61.9438 41.5867 61.8864C41.5867 61.8864 41.5867 61.8864 41.5848 61.9142C41.5867 61.8864 41.5609 61.8568 41.5609 61.8568C41.8009 61.5941 42.0132 61.3296 42.2512 61.0948C42.2493 61.1226 42.2474 61.1503 42.2455 61.1781C42.4609 61.2764 42.5865 61.0618 42.4616 60.8581C42.5816 60.7268 42.7015 60.5954 42.8215 60.4641C42.8416 60.5771 42.8912 60.6641 42.996 60.7549C43.0312 60.6458 43.1217 60.5403 43.1826 60.4608C43.2617 60.522 43.3151 60.5535 43.2856 60.5794C43.1047 60.7902 43.0305 61.0641 42.9087 61.2232C42.8792 61.2491 42.7743 61.1582 42.7209 61.1267C42.925 61.3916 42.7316 61.3785 42.6688 61.4858C42.4156 61.9428 42.1348 62.3978 41.8007 62.8214C41.6474 63.0341 41.4942 63.2469 41.3428 63.4318C41.1915 63.6168 41.0125 63.7999 40.863 63.9571C40.8611 63.9848 40.8592 64.0126 40.8592 64.0126C40.8278 64.0662 40.7964 64.1199 40.765 64.1735C40.6193 64.2752 40.5546 64.4103 40.51 64.6583C40.5081 64.686 40.4547 64.6545 40.429 64.6249C40.1094 64.0174 40.8316 64.0107 40.8027 63.6182C40.7732 63.6441 40.7676 63.7274 40.6646 63.6089C41.0276 63.5777 41.54 63.3894 41.1118 62.7467C40.5257 64.0178 38.8552 64.9084 38.1862 66.1739C38.2986 66.1536 38.8645 65.9968 38.428 65.8835C39.4523 65.9252 39.2829 64.7422 40.2776 64.8098C40.2481 64.8357 40.2185 64.8616 40.1871 64.9153C40.1206 65.0781 39.8957 65.1186 39.8034 65.2518C39.4102 65.7271 38.936 66.1691 38.6239 66.6778C38.3752 66.6609 38.3783 67.0237 38.3374 67.2162C38.306 67.2698 38.1258 67.0623 38.0925 67.1437C37.987 67.4713 37.6956 67.6746 37.531 68.0539C37.9216 68.0247 38.191 67.7362 38.1622 67.3437C38.2175 67.3475 38.3481 67.4679 38.3776 67.4421C38.144 67.203 38.4366 67.3903 38.4661 67.3644C38.6659 66.8759 38.9925 66.5634 39.3153 66.3064C39.5213 66.5436 39.326 66.5582 39.346 66.6711C38.8581 66.4985 39.3912 67.232 38.9786 67.1761C39.177 67.5243 38.7921 67.4702 38.9352 67.8147C38.9057 67.8406 38.8284 67.7516 38.797 67.8053C38.8868 68.1182 38.6249 68.2957 38.2914 68.3009C38.2475 68.1305 38.4409 68.1437 38.2607 67.9362C38.2532 68.0472 38.1389 68.0953 38.1313 68.2063C38.2877 68.3564 38.2676 68.2435 38.422 68.4213C38.0515 68.5635 38.0194 69.0355 37.6784 69.1518C37.6213 69.1758 37.4869 69.1109 37.4297 69.1349C37.3431 69.1848 37.3575 69.381 37.2413 69.4568C37.0956 69.5584 36.9794 69.6342 36.8375 69.6804C36.8852 69.7952 36.9329 69.91 36.9272 69.9933C36.8243 69.8747 36.8262 69.8469 36.7966 69.8728C36.8663 70.0728 36.8644 70.1006 36.6176 70.0559C36.5147 69.9373 36.6509 69.9745 36.5203 69.8541C36.3526 69.8705 36.4518 70.0446 36.5749 70.2762C36.9485 70.4968 36.8569 70.2116 37.0283 70.1396C37.2864 70.0177 37.7066 69.9626 37.8065 69.7183C38.3277 69.8096 37.988 69.0891 38.5846 69.2971C38.616 69.2434 38.5388 69.1545 38.5721 69.0731C38.7579 69.1973 38.7579 69.1973 38.8961 69.2067C38.7674 69.0584 38.7064 69.138 38.6587 69.0232C38.5872 68.851 38.8722 69.1493 38.9294 69.1253C39.0789 68.9681 39.2541 68.8405 39.4312 68.6852C39.695 68.48 39.6536 67.8635 40.0367 67.9454C40.3337 67.6587 40.6641 67.2907 40.9687 66.893C41.2727 66.9137 41.404 66.6158 41.3619 66.4177C41.6351 66.0736 41.9065 65.7574 42.1778 65.4411C42.3273 65.2839 42.5759 65.3008 42.7273 65.1158C43.2185 64.424 43.8001 63.6268 44.3284 62.798C44.4979 62.7537 44.5607 62.6464 44.6531 62.5133C44.5789 62.7871 44.3484 62.9109 44.3829 63.2201C43.9125 63.6065 43.6995 64.2894 43.2254 64.7313C43.0778 64.8607 42.8692 65.0697 42.8027 65.2325C42.7694 65.3139 42.7122 65.338 42.6513 65.4175C42.6218 65.4434 42.5923 65.4693 42.5885 65.5248C42.2274 65.5281 42.0352 65.9056 41.7457 66.0811C41.8229 66.1701 41.8744 66.2294 41.9516 66.3183C41.9792 66.3202 41.9811 66.2924 42.0088 66.2943C41.7983 66.531 41.6137 66.7974 41.4309 67.036C41.37 67.1155 41.331 67.2802 41.2462 67.3024C41.2186 67.3005 41.0842 67.2356 41.0842 67.2356C41.0252 67.2873 41.0434 67.428 40.9844 67.4798C40.8054 67.6629 40.5987 67.8441 40.4178 68.0549C40.2351 68.2935 39.9455 68.4691 39.6855 68.6188C39.656 68.6447 39.7037 68.7595 39.6742 68.7854C39.6428 68.839 39.5065 68.8019 39.477 68.8278C38.6354 69.7747 37.628 70.7103 36.775 71.8239C36.7675 71.9349 36.6168 71.7015 36.6092 71.8126C36.6274 71.9533 36.6475 72.0662 36.721 72.2107C37.2278 72.1057 37.1368 71.4022 37.7943 71.5305C37.7567 70.8586 38.6095 70.9723 38.7006 70.4486C38.7282 70.4504 38.7578 70.4246 38.7597 70.3968C38.7854 70.4264 38.7835 70.4542 38.8111 70.4561C37.8954 71.6769 36.4773 72.5288 36.045 74.3962C36.1699 74.5999 36.484 74.0634 36.6422 74.1857C37.0071 74.1268 37.2746 73.8661 37.4317 73.5979C37.524 73.4647 37.5887 73.3296 37.622 73.2482C37.6553 73.1668 37.6886 73.0854 37.6886 73.0854C38.5735 72.7271 38.4913 72.3031 39.4829 72.008C39.579 71.8192 39.6456 71.6564 39.7417 71.4677C39.7969 71.4714 39.8246 71.4733 39.8541 71.4474C39.8284 71.4178 39.8026 71.3881 39.8045 71.3604C39.834 71.3345 39.8359 71.3067 39.8654 71.2809C39.9207 71.2846 39.9483 71.2865 40.0055 71.2625C40.0036 71.2902 40.0017 71.318 40.0274 71.3477C39.9143 71.7862 40.5447 72.7217 40.5447 72.7217C40.9405 71.8002 41.8159 71.5808 42.8552 71.4004C43.0123 71.1322 43.2064 70.727 43.516 70.6643C43.9073 70.2168 44.4788 69.9767 44.9988 69.6773C45.5464 69.3799 46.0407 69.0508 46.3548 68.5143C46.2204 68.4494 46.1212 68.2753 46.1287 68.1643L46.2355 68.2273L46.1143 67.968C46.1476 67.8866 46.3793 68.1534 46.346 68.2348C46.7002 67.9242 46.922 67.5209 47.3277 67.2695C47.0702 66.9731 47.479 67.0846 47.194 66.7862C47.275 66.8196 47.2731 66.8474 47.3227 66.9345C47.4025 66.5773 47.4044 66.5495 48.0047 66.7019C48.58 66.4063 49.0523 65.9921 49.4712 65.5464C49.9178 65.1026 50.3348 64.6847 50.8071 64.2705C51.2279 63.797 51.5953 63.292 51.9628 62.7871C52.1789 62.467 52.4225 62.1489 52.6386 61.8289C53.0004 61.4072 53.3622 60.9855 53.7754 60.6231C53.9889 60.7492 54.1309 60.703 54.3205 60.7717C54.4662 60.67 54.2867 60.0442 54.7394 60.326C54.6691 60.5444 54.5987 60.7627 54.5541 61.0107C54.4863 60.783 54.2853 60.8809 54.1252 60.7863C55.0727 61.548 55.1426 60.5208 55.2795 60.1396C55.0108 60.0097 55.174 60.4671 54.8336 60.165C55.0077 59.6469 55.5697 59.5457 55.7676 59.0849C55.8819 59.0369 56.1117 59.3315 56.2279 59.2557C56.4031 59.1281 56.1074 58.5781 56.4905 58.6599C56.5696 58.7211 56.6248 58.7248 56.6763 58.7841C57.0122 59.56 55.9138 59.7922 56.0601 60.4995C55.5745 61.108 54.9785 61.709 54.3787 62.3655C53.8065 63.024 53.2858 63.7417 53.0063 64.5873C52.7538 64.626 52.2376 64.8698 52.5151 65.2792C52.7186 64.7352 53.6179 64.5731 54.0626 64.1571C54.5939 63.6911 54.4703 62.6507 54.9998 62.2125C55.1493 62.0553 55.4086 62.324 55.5801 62.252C57.3161 59.5807 58.8437 57.1184 60.5057 54.721C60.9378 54.081 61.2908 53.3798 61.6658 52.7637C61.9466 52.3086 62.3599 51.9462 62.6645 51.5486C62.9967 51.1527 63.2222 50.6939 63.2066 50.1071C63.2494 49.8868 63.7009 49.7781 63.2796 49.4426C62.7288 49.3773 62.74 50.438 62.0825 50.3096C62.0844 50.2818 62.0586 50.2522 62.0586 50.2522L62.112 50.2837C62.0995 50.0597 62.1956 49.871 62.2898 49.71C62.4098 49.5787 62.5316 49.4197 62.5153 49.2512C62.5153 49.2512 62.5153 49.2512 62.4877 49.2493C62.5248 49.1124 62.5361 48.9458 62.4683 48.718C62.6912 48.7053 62.8941 48.5796 62.9569 48.4723C62.8615 48.2427 62.8671 48.1594 62.7403 47.9834C62.7717 47.9298 62.8031 47.8761 62.8622 47.8243C62.8898 47.8262 62.9432 47.8577 62.9432 47.8577C63.1479 47.7043 63.6176 47.7362 63.3125 47.325L63.5536 47.453C63.4802 47.3085 63.4086 47.1363 63.418 46.9975C63.4513 46.916 63.5122 46.8365 63.5436 46.7829C63.5713 46.7847 63.6008 46.7588 63.6284 46.7607C63.6027 46.7311 63.6027 46.7311 63.5769 46.7014C63.6102 46.62 63.6712 46.5405 63.7026 46.4868C63.793 46.3814 63.8853 46.2482 63.9224 46.1113C64.1737 45.6821 64.3973 45.251 64.6485 44.8218C64.9312 44.3389 65.2415 43.858 65.5794 43.3789C65.3182 43.138 65.3019 42.9695 65.3408 42.8048C65.4275 42.7549 65.4313 42.6994 65.4074 42.6419C65.4093 42.6142 65.4388 42.5883 65.4407 42.5605C65.4426 42.5328 65.4445 42.505 65.474 42.4791C65.5996 42.2645 65.67 42.0462 65.3849 41.7478C65.2524 41.6552 65.1162 41.618 65.0056 41.6105C65.0075 41.5827 64.9799 41.5808 64.9542 41.5512L65.0056 41.6105C64.9227 41.6049 64.8399 41.5992 64.757 41.5936C64.7293 41.5917 64.7036 41.5621 64.7036 41.5621L64.7293 41.5917C64.6741 41.588 64.6464 41.5861 64.5893 41.6101L64.5617 41.6082C64.5617 41.6082 64.5617 41.6082 64.5598 41.636C64.2797 41.6727 63.9738 41.6798 63.5964 41.5147C63.2712 40.9905 64.1297 41.021 64.5002 40.8788C64.1247 40.6859 63.7655 40.6615 63.4301 40.6945C63.4434 40.5001 63.3737 40.3002 63.1677 40.063C62.762 40.3144 62.3481 41.0951 61.9185 41.289C61.8639 40.8669 62.3268 40.5916 62.4951 40.1567C62.254 40.0288 62.2446 40.1676 61.9796 39.9822C62.1404 39.6585 62.3031 39.3069 62.4363 38.9812C62.8948 37.9525 63.4049 36.983 64.3601 36.4064C64.5856 35.9476 64.7559 35.485 64.9518 35.052C65.5994 34.5103 66.3298 33.9742 66.7952 33.2527C67.076 32.7976 67.1985 32.2202 67.2934 31.6409C67.3543 31.5614 67.4429 31.4837 67.5057 31.3764C67.7532 31.0027 67.8167 30.4771 68.0384 30.0738C68.3248 29.5354 69.2813 29.3494 68.8054 28.5918C69.2933 28.7644 69.2978 28.2906 69.0108 28.02C68.7031 28.0549 68.9473 28.5457 68.4556 28.4286C68.4946 28.2639 68.5059 28.0973 68.5172 27.9307C68.7321 27.2201 68.7981 26.2483 68.2325 25.1778C67.835 24.8998 68.0353 25.2202 67.6378 24.9421C67.2918 24.7234 67.4614 24.6791 67.3069 24.5013C67.2146 24.6344 67.3414 24.8104 67.0136 24.7323C66.677 24.3748 66.8303 24.162 66.2765 23.7339C66.3976 23.9932 66.4635 24.2487 66.5037 24.4745C66.4246 24.4134 66.3731 24.3541 66.2959 24.2652C66.11 24.141 65.9775 24.0483 65.8174 23.9537C65.7753 23.7556 65.6523 23.5241 65.474 23.2888C65.2529 23.2738 65.5342 23.6276 65.3113 23.6404C65.0978 23.5143 64.91 23.4178 64.6965 23.2918C64.7336 23.1548 64.6878 23.0122 64.5609 22.8363C64.5791 22.977 64.5716 23.088 64.6174 23.2306C64.4039 23.1045 64.1351 22.9747 63.7339 22.7521C63.57 22.7131 63.4318 22.7037 63.3213 22.6962C63.2849 22.4148 63.1952 22.1019 62.9968 21.7537C62.2677 21.4531 61.8815 21.0084 61.383 20.584C61.4144 20.5304 61.4458 20.4767 61.4772 20.4231C61.5695 20.2899 61.8992 20.3402 62.043 20.2663C62.3935 20.0112 62.3904 19.6484 62.4664 19.3467C62.4683 19.319 62.3892 19.2578 62.2843 19.167L62.2234 19.2465C61.8578 19.7237 61.2016 19.9859 60.8674 20.4095C60.8341 20.4909 60.7732 20.5705 60.7399 20.6519L60.6514 20.7295L60.6771 20.7592C60.4535 21.1903 60.2022 21.6195 59.9767 22.0783C59.8178 22.3743 59.6884 22.6445 59.5571 22.9424C59.5571 22.9424 59.5571 22.9424 59.5276 22.9682C59.0817 22.9937 58.6798 23.1895 58.2998 23.4705C58.313 23.2762 58.1919 23.0169 57.9401 22.6372C57.9193 22.9426 57.8747 23.1906 57.8577 23.4405C57.6775 23.233 57.3497 23.1549 57.2725 23.066C57.3391 22.9031 57.6506 22.8127 57.0672 22.4105C57.1645 22.6123 57.0741 22.7178 56.9284 22.8194C56.9699 22.2086 57.6061 21.8335 57.6162 21.2763C58.0992 21.1139 58.422 20.8569 58.3216 20.2922C58.233 20.3699 58.1168 20.4457 58.0283 20.5233C58.6727 19.6188 59.3171 18.7142 59.8825 17.7485C60.0709 17.4266 60.2355 17.0473 60.4019 16.6402C60.4315 16.6143 60.4591 16.6162 60.4352 16.5588C60.5351 16.3146 60.6055 16.0962 60.7054 15.852C60.946 15.171 61.1608 14.4604 61.3977 13.8349C62.0666 12.5695 63.9855 9.65959 66.3698 6.02825C66.3698 6.02825 65.4805 6.86037 64.5654 7.66283C64.1207 8.07889 63.6484 8.49307 63.2961 8.77594C63.1485 8.90537 63.0009 9.0348 62.9123 9.11246C62.9161 9.05693 62.8923 8.99952 62.896 8.94399C62.8389 8.968 62.7541 8.99013 62.697 9.01413C62.6022 8.36616 61.3178 9.70138 60.7532 10.2487C60.22 10.7425 59.8287 11.19 59.4926 11.6414C59.1566 12.0927 58.8482 12.5459 58.4569 12.9935C58.1856 13.3098 57.9142 13.626 57.6429 13.9423C57.5895 13.9108 57.5362 13.8793 57.4552 13.8459C57.2837 13.9179 57.1399 13.9918 56.9647 14.1193C56.8466 14.2229 56.7247 14.3819 56.6067 14.4855L56.5809 14.4558L56.6067 14.4855C56.5772 14.5114 56.5476 14.5373 56.4905 14.5613C56.4333 14.5853 56.3762 14.6093 56.319 14.6333C56.3322 14.4389 56.2921 14.2131 56.2538 13.9594C56.2557 13.9317 56.2557 13.9317 56.2576 13.9039C56.716 14.1024 56.549 13.7006 56.2363 13.4004C56.2087 13.3985 56.2087 13.3985 56.181 13.3966C56.1465 13.0875 56.112 12.7783 56.0813 12.4136C56.0223 12.4654 55.9928 12.4913 55.9614 12.5449C55.9356 12.5153 55.908 12.5134 55.8822 12.4837C55.8251 12.5077 55.7679 12.5318 55.7127 12.528C55.7297 12.2781 56.0374 12.2433 55.7913 11.7802C55.7027 11.8579 55.6437 11.9097 55.5513 12.0429C55.5664 11.8207 55.5797 11.6264 55.591 11.4598C56.0789 11.6324 55.9452 11.1492 55.6086 10.7916C55.3028 10.7987 54.9599 10.9427 55.326 11.2744C55.2946 11.3281 55.2908 11.3836 55.2575 11.465L54.9392 11.2481C55.0057 11.0853 54.9932 10.8613 54.9568 10.5799C54.8928 10.2966 55.0184 10.082 55.0411 9.74884C54.2693 9.66848 54.6635 10.811 54.3093 11.1216C54.2032 10.6402 54.5794 10.4148 54.2084 9.74802C53.7738 9.6069 53.9075 10.0902 53.8076 10.3344C53.7078 10.5787 53.5821 10.7933 53.4823 11.0375C53.2374 10.9651 53.022 10.8668 52.7771 10.7943C52.8474 10.576 52.9435 10.3872 53.0177 10.1134C52.9385 10.0522 52.8575 10.0188 52.7765 9.98539C53.0516 9.61359 53.2991 9.23992 53.6019 8.87C53.4292 8.55144 53.5071 8.22202 53.666 7.926C53.7841 7.82246 53.8469 7.71516 53.8545 7.6041C53.8859 7.55045 53.9173 7.4968 53.9763 7.44503C53.9763 7.44503 53.9763 7.44502 53.9744 7.47279C54.0058 7.41914 54.0354 7.39325 54.0391 7.33772C54.318 6.9104 54.5988 6.45531 54.406 6.02381C54.3031 5.90524 54.1649 5.89585 53.9991 5.88458C54.001 5.85681 54.0029 5.82905 53.9772 5.7994L53.9991 5.88458C53.9143 5.9067 53.8019 5.92695 53.6895 5.94721C53.6619 5.94533 53.6638 5.91756 53.638 5.88792L53.6343 5.94345C53.5771 5.96746 53.4923 5.98959 53.4352 6.01359L53.4094 5.98395L53.4075 6.01171C52.8693 6.17038 52.4712 6.31066 52.0957 6.11778C51.9846 5.30134 53.1125 5.0433 53.6658 4.66252C53.3198 4.44375 52.8721 4.49699 52.413 4.71681C52.548 4.36339 52.6002 4.00433 52.4866 3.634C51.8058 4.25714 50.755 5.83138 50.0522 6.36935C50.2689 5.63098 51.0383 4.93018 51.5408 4.07177C51.3015 3.91604 51.1979 4.21582 50.9147 3.88974C50.6214 4.12084 50.3539 4.38158 50.0386 4.5275C49.5908 4.58074 49.9602 4.04799 49.6248 4.08098C49.2781 4.28055 49.7899 4.5106 49.7415 4.81413C49.7453 4.7586 49.3452 4.92665 49.3434 4.95442C49.3119 5.00807 49.4055 5.26546 49.3703 5.37464C49.3684 5.40241 49.3389 5.42829 49.337 5.45606C49.2303 5.39301 49.1235 5.32997 49.0739 5.24292C48.9835 5.34834 48.8987 5.37047 48.7863 5.39072C48.8026 5.55919 48.9627 5.65375 49.1505 5.7502C49.0305 5.8815 48.9105 6.01281 48.8439 6.17564C48.4597 5.70323 48.2687 6.47125 48.074 6.06752C48.4082 5.64395 49.0921 5.38362 48.743 4.80203C47.9215 5.8619 46.3577 6.81551 46.063 7.8833C46.0944 7.82965 46.2288 7.89457 46.1955 7.97599C46.1622 8.0574 46.0956 8.22023 46.029 8.38306C45.9185 8.37555 45.8356 8.36991 45.727 8.33464C45.7012 8.30499 45.7012 8.30499 45.6755 8.27535C45.6479 8.27347 45.646 8.30124 45.6183 8.29936C45.5907 8.29748 45.5631 8.2956 45.5373 8.26596C45.5354 8.29372 45.5354 8.29372 45.5612 8.32337C45.4174 8.39727 45.2679 8.55446 45.1442 8.7413C45.126 8.6006 45.2183 8.46741 45.0601 8.34508C44.5714 8.59079 44.528 9.22938 44.2177 9.71036C44.2196 9.68259 44.2196 9.68259 44.1939 9.65295C44.1958 9.62518 44.2234 9.62706 44.2253 9.5993C44.2843 9.54752 44.2033 9.51413 44.1518 9.45484C44.128 9.39743 44.1318 9.3419 44.1079 9.28449C44.1079 9.28449 44.1079 9.28449 44.1355 9.28637C44.8484 8.19123 46.1397 7.1633 46.629 6.49924C45.5337 7.09421 44.6569 8.15032 43.8297 9.29347C43.7914 9.03984 44.0916 9.11603 43.816 8.6789C43.7569 8.73067 43.7274 8.75656 43.6389 8.83421C43.6044 8.52505 43.5918 8.30105 43.5831 8.02153C43.2258 7.96934 43.3375 8.36744 43.2376 8.61169C43.1309 8.54864 42.9688 8.48184 42.8621 8.4188C42.8659 8.36327 42.8477 8.22257 42.9048 8.19856C43.0782 8.09877 43.0933 7.87666 42.952 7.50445C42.8861 7.24893 42.9508 7.11387 42.9402 6.86211C42.2626 6.62079 42.7492 7.63012 42.4873 7.80757C42.3479 7.40759 42.6318 7.31532 42.2588 6.67632C41.8833 6.48344 42.0227 6.88341 41.9837 7.04812C41.9171 7.21095 41.8505 7.37378 41.784 7.53661C41.5705 7.41053 41.357 7.28444 41.1435 7.15835C41.1805 7.02141 41.2471 6.85858 41.2861 6.69387C40.9953 6.47886 40.7837 6.325 40.6255 6.20268C40.454 6.2747 40.2054 6.25779 40.1921 6.45214C40.1374 7.25732 39.4906 7.3807 39.0993 7.82828C38.9165 8.06689 38.6803 8.27398 38.4718 8.48294C38.4756 8.42741 38.507 8.37376 38.4832 8.31636C38.6069 8.12952 38.703 7.9408 38.6333 7.74081C38.3646 7.61097 38.698 7.60575 38.4663 7.33896C38.4186 7.22415 37.8615 7.66045 37.7843 7.57152C37.5852 7.64167 37.3861 7.71181 37.1852 7.80972C36.9842 7.90763 36.8109 8.00742 36.6356 8.13497C36.2871 8.36231 35.9366 8.61741 35.6119 8.90216C34.9644 9.44389 34.396 10.0468 33.7579 10.4497C33.6712 10.4996 33.8276 10.6497 33.7667 10.7292C32.9432 11.8168 31.6149 12.9817 31.2869 14.1309C31.0182 14.0011 31.1136 14.2307 30.9955 14.3343C30.9641 14.3879 31.1776 14.514 31.091 14.5639C31.0834 14.6749 30.9252 14.5526 30.8919 14.634C31.0884 15.01 30.5929 14.9484 30.7122 15.2355C30.2519 15.0647 30.4723 15.4981 30.5143 15.6962C30.4277 15.7461 30.3561 15.5739 30.2437 15.5941C30.2399 15.6496 30.4553 15.748 30.4515 15.8035C30.0508 16.3899 29.873 16.9635 29.4151 17.574C29.3561 17.6257 29.1721 17.4738 29.1664 17.557C29.1331 17.6385 29.4314 17.7424 29.3152 17.8182C29.0992 18.1382 28.9383 18.462 28.7794 18.758C28.0303 18.3445 27.6222 17.8147 27.0721 17.331C26.4303 17.7894 26.4766 18.7409 25.728 19.1363C25.4812 19.0917 25.2287 19.1303 25.002 19.1985C25.0058 19.143 25.0096 19.0875 25.0134 19.032C25.7306 18.6902 26.0503 18.0704 26.144 17.1005C26.0096 17.0356 25.9305 16.9744 25.8771 16.9429C26.2514 16.7452 26.2854 16.2455 26.5033 15.8977C26.4223 15.8643 26.3156 15.8012 26.2346 15.7678C25.9023 16.1636 25.7101 16.5411 25.8771 16.9429C25.4959 16.8333 26.0309 17.5391 25.6202 17.4554C25.624 17.3999 25.6001 17.3425 25.5763 17.2851C25.521 17.2813 25.4934 17.2794 25.4657 17.2776C25.4676 17.2498 25.4695 17.222 25.4457 17.1646C25.5493 16.8649 25.6253 16.5632 25.729 16.2634C25.81 16.2968 25.8634 16.3284 25.8138 16.2413C25.788 16.2117 25.7604 16.2098 25.7347 16.1801C25.8848 15.6046 26.0331 15.0568 26.1556 14.4794C26.1117 14.3091 26.4596 14.5001 26.388 14.3278C26.3384 14.2408 26.2612 14.1519 26.2116 14.0648C26.3573 13.9631 26.3981 13.7707 26.2989 13.5966C26.0502 13.5797 25.9598 13.6851 25.978 13.8258L25.9522 13.7961C25.8028 13.9533 25.7362 14.1162 25.6696 14.279C25.4887 14.4898 25.3593 14.76 25.5376 14.9952C25.4949 15.2155 25.4264 15.4061 25.3046 15.5651C25.2807 15.5077 25.2035 15.4188 25.1244 15.3576C25.0245 15.6019 24.7959 15.6979 24.8932 15.8998C24.8656 15.8979 24.836 15.9238 24.8084 15.9219C24.9993 16.3812 24.8623 16.7624 24.6444 17.1102C24.8108 16.7031 24.8372 16.3144 24.5321 15.9031C24.6596 15.6608 24.8995 15.3981 24.5278 15.1497C24.1441 15.4863 24.4693 16.0104 24.2972 16.5008C24.2306 16.6636 24.1106 16.7949 23.9925 16.8985C24.0579 16.3451 24.3148 15.8326 24.0505 15.2289C24.1334 15.2345 24.1849 15.2938 24.2383 15.3253C23.9626 14.8882 24.904 14.9243 24.19 14.4016L23.8974 14.2143C24.0375 14.1959 24.2805 14.2961 24.3929 14.2759C24.207 14.1517 24.4394 14.0001 24.143 13.8684C24.2812 13.8778 24.305 13.9352 24.4137 13.9705C24.5317 13.8669 24.1104 13.5315 24.2542 13.4576L24.3591 13.5484C24.3792 13.6613 24.4011 13.7465 24.4802 13.8076C24.6592 13.6246 25.026 13.5379 24.8219 13.273C25.4066 12.8386 25.8055 12.28 25.3497 11.6353C25.28 11.4353 25.788 11.7209 25.766 11.6357C25.3692 10.9393 26.3094 10.5848 25.8573 9.88469C25.9458 9.80703 26.0363 9.7016 25.9295 9.63856C25.8705 9.69033 25.8134 9.71434 25.7543 9.76611C25.7286 9.73647 25.7286 9.73647 25.7028 9.70683C25.5691 9.22356 24.5732 8.76535 24.5732 8.76535C24.6673 9.83168 23.9789 10.5659 23.1524 11.2907C23.1297 11.6239 23.1253 12.0977 22.8615 12.3029C22.5555 13.5373 21.2737 14.4264 21.1278 15.7554C21.2678 15.737 21.4518 15.889 21.4738 15.9741L21.3652 15.9389L21.5749 16.1205C21.5673 16.2315 21.2471 16.0424 21.2527 15.9591C21.053 16.4476 20.9675 16.8881 20.6886 17.3154C21.0365 17.5064 20.5888 17.5597 20.9919 17.7544C20.909 17.7488 20.9109 17.721 20.8318 17.6599C20.8882 18.0542 20.8864 18.082 20.269 18.1795C19.8426 18.7362 19.4971 19.3264 19.2345 19.9222C18.9443 20.5161 18.6798 21.1396 18.3105 21.6724C18.0184 22.2941 17.7816 22.9195 17.5724 23.5468C17.4059 23.9539 17.2671 24.3628 17.1025 24.7422C16.8437 25.2824 16.5573 25.8208 16.2489 26.274C16.0316 26.2035 15.8859 26.3051 15.6667 26.2623C15.5468 26.3936 15.8092 27.0251 15.3232 26.8247C15.3401 26.5748 15.3848 26.3268 15.3999 26.1047C15.4972 26.3066 15.6724 26.179 15.8639 26.22C14.7889 25.7006 14.8848 26.7391 14.8013 27.1519C15.1014 27.228 14.8239 26.8187 15.2547 27.0153C15.1598 27.5946 14.6159 27.8366 14.499 28.3307C14.3829 28.4065 14.094 28.1637 14.0055 28.2414C13.8265 28.4244 14.2365 28.9265 13.8201 28.9261C13.741 28.8649 13.6839 28.8889 13.6028 28.8555C13.1803 28.1295 14.2109 27.6696 13.9522 26.9826C14.6878 25.5542 15.9597 23.995 16.0604 22.1052C16.289 22.0091 16.7337 21.5931 16.3381 21.2873C16.2984 21.8703 15.4889 22.3452 15.1491 22.8521C14.7465 23.4663 15.0949 24.4662 14.696 25.0248C14.5999 25.2136 14.2797 25.0244 14.134 25.1261C12.9812 28.1996 11.6834 30.9565 10.1169 33.5835C9.89896 33.9313 9.73626 34.2828 9.54405 34.6602C9.35373 35.0099 9.1634 35.3596 8.97497 35.6815C8.69231 36.1643 8.27716 36.5545 7.94301 36.9781C7.58124 37.3998 7.3281 37.8567 7.31421 38.4694C7.24385 38.6878 6.79231 38.7966 7.18413 39.1579C7.76061 39.2529 7.80848 38.1404 8.46785 38.241C8.46596 38.2688 8.46408 38.2966 8.49171 38.2984L8.43833 38.2669C8.42135 38.5168 8.32524 38.7055 8.20339 38.8646C8.08154 39.0237 7.93394 39.1531 7.92073 39.3474C7.85414 39.5103 7.84282 39.6769 7.88298 39.9027C7.66004 39.9155 7.42956 40.0393 7.33723 40.1725C7.40313 40.428 7.39936 40.4835 7.49667 40.6854C7.46526 40.739 7.40623 40.7908 7.37482 40.8444C7.34719 40.8426 7.29381 40.811 7.26618 40.8092C7.06144 40.9626 6.56597 40.901 6.8416 41.3382L6.62998 41.1843C6.67392 41.3547 6.71786 41.525 6.70653 41.6916C6.64561 41.7711 6.58468 41.8507 6.55328 41.9043C6.52565 41.9024 6.49613 41.9283 6.44087 41.9246C6.46661 41.9542 6.46661 41.9542 6.49235 41.9838C6.43143 42.0634 6.3705 42.1429 6.30958 42.2225C6.1915 42.326 6.09917 42.4592 6.03447 42.5943C5.72796 43.0197 5.39382 43.4433 5.05779 43.8946C4.69223 44.3718 4.29905 44.8472 3.82487 45.2891C4.02893 45.554 4.01572 45.7484 3.91961 45.9371C3.83483 45.9592 3.80343 46.0129 3.82539 46.098C3.79588 46.1239 3.79399 46.1517 3.76447 46.1776C3.76258 46.2053 3.73306 46.2312 3.73118 46.259C3.55029 46.4698 3.42466 46.6844 3.64881 47.0623C3.75178 47.1809 3.88616 47.2458 3.9948 47.2811C3.99291 47.3088 4.02054 47.3107 4.04628 47.3403L4.02243 47.2829C4.10344 47.3163 4.18633 47.322 4.26922 47.3276C4.29497 47.3572 4.29497 47.3573 4.32071 47.3869L4.29686 47.3295C4.35212 47.3332 4.40738 47.337 4.43501 47.3389L4.46075 47.3685C4.46075 47.3685 4.46075 47.3685 4.46264 47.3408C4.76658 47.3614 5.07053 47.3821 5.41463 47.6286C5.62367 48.2286 4.74514 48.0852 4.35075 48.1699C4.53473 48.3219 4.72249 48.4184 4.91402 48.4593C4.67976 48.6386 4.71614 48.92 4.6753 49.1125C4.70104 49.1421 4.75253 49.2014 4.88691 49.2663L4.91832 49.2127C5.03828 49.0814 5.2135 48.9538 5.38684 48.854C5.40692 48.967 5.427 49.0799 5.50046 49.2243C5.96143 48.9768 6.59642 48.211 7.10889 48.0227C7.04917 48.4928 6.5053 48.7348 6.22453 49.1899C6.43426 49.3715 6.4751 49.179 6.75828 49.5051C6.95736 49.435 7.15833 49.3371 7.38315 49.2966C7.7367 49.4043 7.5244 49.6688 7.79694 49.7431C8.0494 49.7045 7.59854 49.3949 7.58412 49.1986C7.58223 49.2264 7.9157 49.2212 7.9157 49.2212C7.94522 49.1953 7.82027 48.9916 7.82593 48.9083C7.82782 48.8805 7.82782 48.8805 7.85734 48.8546C7.93646 48.9158 8.04132 49.0066 8.12044 49.0677C8.17948 49.016 8.26048 49.0494 8.34337 49.055C8.29755 48.9124 8.16505 48.8197 7.97919 48.6955C8.06586 48.6456 8.12489 48.5939 8.1877 48.4866C8.47277 48.7849 8.5651 48.6517 8.67563 48.6592C8.67563 48.6592 8.70326 48.6611 8.70137 48.6888C8.61093 48.7943 8.5186 48.9275 8.42815 49.0329C8.39864 49.0588 8.36912 49.0847 8.33771 49.1383C7.94076 49.6692 7.57332 50.1742 7.22785 50.7643C7.10034 51.0067 6.96905 51.3046 6.89302 51.6062C6.86539 51.6044 6.83588 51.6302 6.86162 51.6599C6.67627 52.3446 6.56816 53.1183 6.3847 53.7752C5.95944 54.7226 4.69941 56.9241 3.42172 59.7939C3.42172 59.7939 3.57121 59.6367 3.80924 59.4018C4.04728 59.167 4.34624 58.8526 4.67283 58.5401C5.29839 57.9132 5.94968 57.3159 6.05643 57.379C6.10913 57.8288 6.36158 57.7902 6.65111 57.6146C6.64922 57.6424 6.67496 57.6721 6.67496 57.6721C6.67874 57.6165 6.70825 57.5906 6.73777 57.5648C6.79492 57.5407 6.82633 57.4871 6.88348 57.4631C7.02352 57.4447 7.20939 57.5689 7.37518 57.5802C7.05236 57.8372 6.96501 58.3054 6.82429 58.7421C6.71685 59.0974 6.76955 59.5473 6.95851 60.0343C7.12173 60.4917 7.28683 60.9213 7.49965 61.4658C7.59387 61.3048 7.65479 61.2253 7.74712 61.0921C8.02464 61.5015 7.5235 61.5232 7.96303 61.9993C8.02396 61.9198 8.05725 61.8384 8.12006 61.7311C8.20794 62.0718 8.27195 62.3551 8.33408 62.6661C8.70273 62.5517 8.53763 62.1221 8.58791 61.7908C8.72606 61.8002 8.89185 61.8114 9.03 61.8208C9.02623 61.8764 9.0978 62.0486 9.03876 62.1004C8.88739 62.2853 8.92378 62.5667 9.12218 62.9149C9.09266 62.9408 9.06314 62.9667 9.03362 62.9926C9.08511 63.0519 9.16234 63.1408 9.21383 63.2001C9.23202 63.3408 9.25022 63.4815 9.26652 63.65C9.29415 63.6518 9.29415 63.6518 9.32367 63.6259C8.92671 64.1568 8.53164 64.6599 8.16232 65.1927C8.06055 65.4647 7.86215 65.1165 7.76039 65.3885C7.75095 65.5273 7.74151 65.6661 7.73207 65.805C7.47396 65.9269 7.25789 66.2469 7.20949 66.5504C7.4544 66.6229 7.65914 66.4694 7.75713 66.2529C7.75525 66.2807 7.75525 66.2807 7.75336 66.3085C8.04666 66.0774 8.2847 65.8425 8.49699 65.578C8.87696 65.297 9.29588 64.8513 9.29279 64.4885C9.53649 64.1704 9.78019 63.8522 10.0754 63.5934C10.0678 63.7044 10.0603 63.8155 10.1061 63.9581C10.4365 63.59 10.7775 63.4737 10.8278 63.1424C10.8573 63.1166 10.9125 63.1203 10.9421 63.0944C10.9772 62.9853 10.9848 62.8742 11.0181 62.7928C11.0124 62.8761 11.0068 62.9594 11.0011 63.0427C11.0821 63.0761 11.1374 63.0798 11.2184 63.1132C11.2165 63.141 11.2146 63.1687 11.2146 63.1687C10.8566 63.5349 10.3586 63.9194 10.5513 64.3509C10.9884 64.0459 11.2101 63.6426 11.4356 63.1838C11.489 63.2153 11.5719 63.2209 11.6253 63.2525C11.4368 63.5744 11.2742 63.9259 11.1944 64.2831C11.1115 64.2775 11.0895 64.1923 11.0399 64.1052C10.9908 64.8271 9.94461 64.7002 10.2767 65.5317L10.4475 65.878C10.2522 65.8926 10.0701 65.7129 9.93003 65.7312C10.0255 65.9609 9.65115 66.1586 9.82758 66.4216C9.69131 66.3844 9.69886 66.2734 9.61975 66.2122C9.38737 66.3638 9.59831 66.936 9.34207 67.0301L9.29625 66.8875C9.36283 66.7247 9.42942 66.5619 9.40934 66.4489C9.02937 66.7299 8.55021 66.8368 8.54952 67.2552C7.5095 67.8539 6.56302 68.71 6.4894 69.7928C6.41338 70.0945 6.05863 69.5962 6.02156 69.7331C5.83176 70.8917 4.4696 71.3291 4.39033 72.4952C4.2151 72.6228 4.03988 72.7503 4.0857 72.8929C4.20189 72.8171 4.28856 72.7672 4.37523 72.7173C4.37334 72.7451 4.37145 72.7729 4.36768 72.8284C4.09189 73.6185 4.7813 74.5022 4.7813 74.5022C5.6224 72.7463 7.0242 71.7259 8.62319 70.6631C8.96488 70.1285 9.34931 69.3736 9.87121 69.0465C10.7242 67.933 11.8697 67.0067 12.9066 66.0452C12.2955 66.8683 11.6183 68.6632 11.389 69.1776C11.1579 69.7197 11.6508 70.2274 12.0174 71.368C12.2535 71.1609 12.3716 71.0574 12.5782 70.8762C13.0704 71.8022 12.0374 71.481 12.8757 72.6258C12.9956 72.4945 13.0842 72.4168 13.2613 72.2615C13.3541 72.9372 13.4288 73.4723 13.5531 74.0944C14.3544 74.1488 14.0556 73.236 14.2315 72.6901C14.5021 72.7921 14.8538 72.9276 15.1521 73.0316C15.1445 73.1426 15.2343 73.4556 15.1162 73.5591C14.7657 73.8142 14.7594 74.3158 15.1191 75.1492C15.3319 75.6936 15.2245 76.0489 15.2697 76.6099C16.3322 76.9052 16.0905 75.9683 16.0033 75.2093C16.1214 75.1058 16.21 75.0281 16.2929 75.0337C16.3141 75.5373 16.1772 75.9184 16.9143 76.9169C17.7005 77.1935 17.2617 76.299 17.3434 75.914ZM41.1905 66.4897C41.22 66.4638 41.2219 66.436 41.2514 66.4101C41.2495 66.4379 41.22 66.4638 41.1905 66.4897ZM40.3422 70.3928C40.4345 70.2596 40.5564 70.1005 40.6487 69.9673C40.6336 70.1895 40.5155 70.293 40.3422 70.3928ZM41.0613 70.0233C41.0518 70.1621 40.8716 69.9546 40.7687 69.836C40.8886 69.7047 41.0105 69.5457 41.1304 69.4144C41.0362 69.5753 41.023 69.7697 41.0613 70.0233ZM39.9919 69.4206L40.0214 69.3947C40.1118 69.2893 40.2004 69.2117 40.3423 69.1655C40.3185 69.1081 40.3204 69.0804 40.2965 69.0229C40.3279 68.9693 40.3574 68.9434 40.3888 68.8898C40.4165 68.8916 40.4422 68.9213 40.468 68.9509C40.4862 69.0916 40.4252 69.1712 40.3643 69.2507C40.2481 69.3265 40.1338 69.3745 39.9919 69.4206ZM43.12 68.3223L43.2946 68.6131C43.1602 68.5482 43.0057 68.3703 42.8695 68.3332C42.9944 68.5369 42.7438 68.5478 42.9222 68.783C42.8173 68.6922 42.7934 68.6348 42.7419 68.5756C42.6019 68.5939 42.8461 69.0847 42.6803 69.0734L42.605 68.9567C42.6383 68.8753 42.6458 68.7643 42.6239 68.6791C42.3972 68.7474 42.0436 68.6396 42.1334 68.9526C41.8257 68.9874 41.5713 69.0538 41.3685 69.1795C41.9645 68.5785 42.6378 68.0664 43.4178 67.6174C43.419 68.0079 42.7232 67.6259 43.12 68.3223ZM43.5484 67.7378C43.495 67.7063 43.4693 67.6766 43.4454 67.6192C43.4749 67.5933 43.5321 67.5693 43.5616 67.5435C43.5578 67.599 43.554 67.6545 43.5484 67.7378ZM43.0857 66.7859C43.0838 66.8136 43.0819 66.8414 43.0543 66.8395C42.8325 67.2429 42.5593 67.5869 42.2308 67.9272L42.2327 67.8994C41.6022 68.1912 41.3358 68.8426 40.6269 68.6549L40.6564 68.629C40.7192 68.5217 40.7858 68.3589 40.902 68.2831C41.1306 68.1871 41.3058 68.0595 41.4829 67.9042C41.5696 67.8543 41.6581 67.7767 41.7448 67.7268C41.9715 67.6585 42.1763 67.5051 42.1361 67.2792C42.2561 67.1479 42.3465 67.0425 42.4665 66.9111C42.496 66.8853 42.5236 66.8871 42.5255 66.8594C42.5217 66.9149 42.5713 67.0019 42.619 67.1168C42.7962 66.9614 43.0153 67.0042 43.0028 66.7802C43.0581 66.784 43.0581 66.784 43.0857 66.7859ZM44.51 66.6596C44.4566 66.628 44.4051 66.5688 44.3536 66.5095C44.3555 66.4817 44.3831 66.4836 44.385 66.4558C44.407 66.541 44.4585 66.6003 44.51 66.6596ZM45.621 65.4241C45.5419 65.363 45.4885 65.3315 45.4628 65.3018C45.4923 65.2759 45.5237 65.2223 45.5532 65.1964C45.6933 65.178 45.699 65.0947 45.677 65.0095C45.7379 64.93 45.7988 64.8505 45.8302 64.7968C45.8579 64.7987 45.8579 64.7987 45.8836 64.8283C45.7894 64.9893 45.6933 65.178 45.621 65.4241ZM45.915 64.7747C45.9169 64.7469 45.8893 64.745 45.8893 64.745C45.9797 64.6396 46.0721 64.5064 46.1349 64.3991C46.192 64.3751 46.2215 64.3492 46.2768 64.353C46.1568 64.4843 46.0092 64.6137 45.915 64.7747ZM47.1284 64.0762C47.1026 64.0465 47.075 64.0447 47.0493 64.015C47.0844 63.9058 47.0939 63.767 47.1272 63.6856C47.2264 63.8597 47.1083 63.9632 47.1284 64.0762ZM47.3426 63.7839C47.3149 63.782 47.1529 63.7152 47.1272 63.6856C47.1291 63.6578 47.1586 63.6319 47.1881 63.6061C47.2176 63.5802 47.2471 63.5543 47.3024 63.558C47.352 63.6451 47.4531 63.7914 47.3426 63.7839ZM47.5674 63.7434C47.4883 63.6823 47.411 63.5933 47.3595 63.534C47.3872 63.5359 47.4443 63.5119 47.472 63.5138C47.4977 63.5434 47.5197 63.6286 47.5674 63.7434ZM48.0177 63.2441C48.0472 63.2182 48.0767 63.1923 48.0786 63.1645C48.1301 63.2238 48.1264 63.2793 48.0177 63.2441ZM49.0565 62.2548C49.0214 62.3639 48.8889 62.2713 48.784 62.1804C48.8135 62.1546 48.843 62.1287 48.8449 62.1009L48.924 62.1621L48.8449 62.1009C48.8744 62.075 48.8744 62.075 48.8763 62.0473C48.9002 62.1047 48.9517 62.164 49.0565 62.2548ZM49.667 61.85L49.505 61.7832C49.505 61.7832 49.505 61.7832 49.5069 61.7554C49.5916 61.7333 49.6469 61.737 49.7298 61.7427C49.7279 61.7704 49.6965 61.8241 49.667 61.85ZM41.3268 7.72867C41.301 7.69903 41.3029 7.67126 41.3029 7.67126L41.3305 7.67314C41.3563 7.70279 41.3544 7.73055 41.3544 7.73055C41.3525 7.75832 41.3268 7.72867 41.3268 7.72867ZM41.1277 7.79882L41.1314 7.74329L41.1829 7.80257L41.1277 7.79882ZM43.4417 8.87659L43.4027 9.0413L43.3512 8.98202L43.3902 8.81731L43.4417 8.87659ZM38.0718 8.651C38.1013 8.62511 38.1566 8.62887 38.1861 8.60298C38.127 8.65475 38.0661 8.73429 38.0071 8.78606C38.009 8.7583 38.0404 8.70465 38.0718 8.651ZM42.8915 9.62019L42.84 9.5609L42.9191 9.62207L42.8915 9.62019ZM52.8756 11.3868C52.8756 11.3868 52.9032 11.3886 52.9051 11.3609C52.9308 11.3905 52.929 11.4183 52.929 11.4183C52.929 11.4183 52.9013 11.4164 52.8718 11.4423C52.9013 11.4164 52.8756 11.3868 52.8756 11.3868ZM52.6689 11.568L52.6727 11.5124L52.7242 11.5717L52.6689 11.568ZM54.5422 11.779C54.546 11.7235 54.5592 11.5291 54.6182 11.4773C54.6773 11.4256 54.7068 11.3997 54.7382 11.346C54.7897 11.4053 54.8688 11.4665 55.0289 11.5611L55.1175 11.4834C55.0804 11.6203 55.0433 11.7573 55.0063 11.8942C54.87 11.8571 54.7061 11.818 54.5422 11.779ZM55.2417 12.1055L55.2932 12.1648L55.2229 12.3831L55.1714 12.3238L55.2417 12.1055ZM38.0231 11.4091C38.1116 11.3314 38.2259 11.2834 38.3145 11.2057L38.4451 11.3262C38.3565 11.4039 38.2422 11.4519 38.1537 11.5295L38.0231 11.4091ZM54.4993 13.2265L54.5784 13.2877L54.5232 13.2839L54.4993 13.2265ZM36.9874 12.7612C36.9874 12.7612 36.9892 12.7334 37.0169 12.7353L37.074 12.7113L37.1512 12.8002L36.9874 12.7612ZM36.6142 13.3495C36.6475 13.2681 36.7104 13.1608 36.7713 13.0812C36.8265 13.085 36.8542 13.0869 36.9094 13.0906C36.819 13.196 36.7009 13.2996 36.6105 13.405C36.6105 13.405 36.6124 13.3772 36.6142 13.3495ZM36.4943 13.4808C36.5219 13.4827 36.5219 13.4827 36.5219 13.4827C36.461 13.5622 36.402 13.614 36.341 13.6935C36.4001 13.6417 36.4334 13.5603 36.4943 13.4808ZM51.5739 15.4264C51.5462 15.4245 51.5167 15.4504 51.4615 15.4467C51.491 15.4208 51.5224 15.3671 51.5519 15.3412C51.5776 15.3709 51.5758 15.3987 51.5739 15.4264ZM35.4241 14.5237C35.4831 14.472 35.5955 14.4517 35.6822 14.4018C35.7117 14.3759 35.7117 14.3759 35.7412 14.3501L35.7689 14.3519C35.7098 14.4037 35.6508 14.4555 35.6194 14.5091C35.5327 14.559 35.446 14.6089 35.3575 14.6866C35.3613 14.631 35.365 14.5755 35.4241 14.5237ZM37.4077 15.9696C37.5591 15.7846 37.7676 15.5756 37.8046 15.4387C37.8046 15.4387 37.8046 15.4387 37.777 15.4368C38.0169 15.1742 38.2807 14.969 38.5169 14.7619C38.2732 15.08 38.059 15.3723 37.8467 15.6368C37.7562 15.7422 37.6639 15.8754 37.5458 15.979C37.4315 16.027 37.3449 16.0769 37.2306 16.1249C37.3154 16.1028 37.3468 16.0491 37.4077 15.9696ZM52.3992 18.8018C52.4306 18.7481 52.462 18.6945 52.5192 18.6705L52.5449 18.7001C52.484 18.7796 52.4231 18.8592 52.3641 18.911C52.3955 18.8573 52.3974 18.8295 52.3992 18.8018ZM23.3683 16.6887C23.5065 16.6981 23.6666 16.7927 23.7734 16.8557C23.7438 16.8816 23.7143 16.9075 23.6572 16.9315C23.6076 16.8444 23.5304 16.7555 23.3683 16.6887ZM23.9069 18.5662C23.8221 18.5884 23.7688 18.5568 23.7173 18.4976C23.7524 18.3884 23.8153 18.2811 23.8504 18.1719C23.8705 18.2848 23.8611 18.4237 23.9069 18.5662ZM23.2959 18.1621C23.2959 18.1621 23.2683 18.1602 23.2959 18.1621C23.2683 18.1602 23.2683 18.1602 23.2959 18.1621C23.2444 18.1028 23.2444 18.1028 23.274 18.0769C23.2721 18.1047 23.2978 18.1343 23.2959 18.1621ZM23.1703 18.3767L23.2256 18.3805C23.2017 18.323 23.2589 18.299 23.2865 18.3009C23.2808 18.3842 23.2237 18.4082 23.1646 18.46C23.1942 18.4341 23.196 18.4063 23.1703 18.3767ZM22.7207 18.4577C22.8312 18.4652 22.8846 18.4967 22.9379 18.5283C22.8808 18.5523 22.8236 18.5763 22.7941 18.6022C22.7646 18.628 22.7646 18.628 22.7351 18.6539C22.7388 18.5984 22.7445 18.5151 22.7207 18.4577ZM51.2655 20.3704C51.2636 20.3981 51.236 20.3963 51.2341 20.424C51.2065 20.4222 51.177 20.448 51.177 20.448C51.2065 20.4222 51.2379 20.3685 51.2398 20.3407C51.2398 20.3407 51.2674 20.3426 51.2655 20.3704ZM45.878 20.813C45.9113 20.7316 45.9722 20.6521 45.9778 20.5688C45.9778 20.5688 45.9778 20.5688 45.9797 20.541C46.0758 20.3523 46.1462 20.1339 46.1889 19.9137C46.2442 19.9174 46.2995 19.9212 46.3824 19.9268C46.1663 20.2469 46.035 20.5448 45.9571 20.8742C45.9332 20.8168 45.9056 20.8149 45.878 20.813ZM45.7096 21.2479C45.7096 21.2479 45.7115 21.2201 45.7096 21.2479L45.6305 21.1867C45.66 21.1608 45.6914 21.1072 45.7209 21.0813C45.7209 21.0813 45.7209 21.0813 45.7467 21.1109C45.7429 21.1664 45.741 21.1942 45.7372 21.2497C45.7649 21.2516 45.7925 21.2535 45.8201 21.2554C45.7925 21.2535 45.7649 21.2516 45.7096 21.2479ZM50.0496 21.515C50.081 21.4614 50.1639 21.467 50.221 21.443C50.1601 21.5225 50.0973 21.6298 50.0345 21.7371L49.9145 21.8684C49.9792 21.7334 49.9887 21.5945 50.0496 21.515ZM57.8388 23.7181C57.8941 23.7219 57.9217 23.7238 57.9494 23.7256C57.8332 23.8014 57.7151 23.905 57.6266 23.9826L57.7798 23.7699L57.7245 23.7661C57.7855 23.6866 57.8169 23.6329 57.8778 23.5534C57.8464 23.6071 57.8426 23.6626 57.8388 23.7181ZM45.3974 21.7566C45.427 21.7307 45.4546 21.7326 45.4841 21.7067C45.4822 21.7345 45.4803 21.7622 45.5061 21.7919C45.4508 21.7881 45.4251 21.7585 45.3974 21.7566ZM21.7206 20.5096C21.7483 20.5115 21.7759 20.5133 21.8035 20.5152C21.774 20.5411 21.7721 20.5689 21.7426 20.5947C21.7445 20.567 21.7464 20.5392 21.7206 20.5096ZM44.9339 22.4503C44.932 22.4781 44.9578 22.5077 45.013 22.5115L45.0739 22.4319C45.0225 22.3726 44.9672 22.3689 44.9672 22.3689C45.0357 22.1783 45.1318 21.9896 45.226 21.8286L45.2536 21.8305C45.2461 21.9416 45.3453 22.1157 45.3672 22.2008C45.2825 22.223 45.209 22.0785 45.0966 22.0988C45.0928 22.1543 45.3101 22.2248 45.3063 22.2804C45.2749 22.334 45.2435 22.3877 45.2121 22.4413C45.094 22.5449 44.9502 22.6188 44.8102 22.6371C44.812 22.6094 44.8158 22.5538 44.8177 22.5261L44.8987 22.5595C44.9025 22.5039 44.9044 22.4762 44.9339 22.4503ZM21.3789 21.0442C21.3789 21.0442 21.4066 21.0461 21.3789 21.0442C21.4066 21.0461 21.4066 21.0461 21.3789 21.0442ZM49.4309 22.4492C49.2205 22.6859 49.0358 22.9523 48.8235 23.2168C48.9548 22.9189 49.1929 22.6841 49.4309 22.4492ZM57.5732 23.9511L57.5989 23.9807C57.5694 24.0066 57.5399 24.0325 57.5104 24.0584C57.5418 24.0047 57.5713 23.9789 57.5732 23.9511ZM19.8049 23.7823C19.8049 23.7823 19.803 23.81 19.8049 23.7823C19.803 23.81 19.8049 23.7823 19.8049 23.7823ZM45.7642 26.1607C45.7624 26.1885 45.7624 26.1885 45.7605 26.2162C45.7328 26.2144 45.7347 26.1866 45.7642 26.1607ZM45.9819 28.2675C45.9228 28.3192 45.8343 28.3969 45.8029 28.4506C45.742 28.5301 45.681 28.6096 45.6477 28.691C45.8418 28.2858 46.0102 27.851 46.2081 27.3903C46.2376 27.3644 46.3205 27.37 46.3776 27.346C46.2445 27.6717 46.1132 27.9696 45.9819 28.2675ZM45.6681 26.3494C45.6644 26.405 45.6625 26.4327 45.6606 26.4605C45.6254 26.5697 45.5626 26.677 45.5274 26.7861C45.2008 27.0987 45.0877 27.5373 44.9194 27.9721C44.9194 27.9721 44.9213 27.9443 44.8936 27.9425C44.8641 27.9683 44.8346 27.9942 44.7756 28.046C44.9734 27.5853 45.1989 27.1264 45.3968 26.6657C45.513 26.5899 45.5758 26.4826 45.6681 26.3494ZM42.6021 27.7588C42.6945 27.6256 42.7887 27.4646 42.881 27.3315C42.8144 27.4943 42.7478 27.6571 42.6831 27.7922L42.6021 27.7588ZM42.1662 28.4544C42.2918 28.2398 42.4175 28.0252 42.5412 27.8383L42.6203 27.8995C42.5223 28.116 42.4224 28.3602 42.3245 28.5767C42.273 28.5174 42.2196 28.4859 42.1662 28.4544ZM41.8961 29.1612L42.055 28.8652C41.9997 28.8614 41.9445 28.8577 41.915 28.8836C41.9759 28.804 42.0387 28.6967 42.072 28.6153C42.1254 28.6468 42.1769 28.7061 42.2579 28.7395C42.256 28.7673 42.256 28.7673 42.2265 28.7932L42.2007 28.7635L42.0808 28.8948L42.1932 28.8746C42.1285 29.0096 42.0933 29.1188 42.0286 29.2539C41.9771 29.1946 41.9514 29.165 41.8961 29.1612ZM52.6628 30.0326C52.6609 30.0604 52.6314 30.0863 52.6295 30.114C52.5372 30.2472 52.4467 30.3527 52.3268 30.484C52.4248 30.2675 52.519 30.1065 52.6628 30.0326ZM41.6486 29.5349L41.5695 29.4737C41.599 29.4478 41.6009 29.4201 41.6323 29.3664C41.7372 29.4572 41.8697 29.5499 41.8659 29.6054C41.8659 29.6054 41.8659 29.6054 41.864 29.6332C41.7258 29.6238 41.6706 29.6201 41.6392 29.6737L41.6486 29.5349ZM41.3308 30.1269C41.2479 30.1213 41.1926 30.1175 41.1374 30.1138C41.2002 30.0065 41.2925 29.8733 41.3553 29.766C41.4087 29.7975 41.464 29.8013 41.5192 29.805L41.5544 29.6958C41.5525 29.7236 41.5764 29.781 41.6002 29.8384C41.5726 29.8365 41.545 29.8347 41.545 29.8347C41.5117 29.9161 41.3421 29.9603 41.6109 30.0902C41.5813 30.1161 41.5776 30.1716 41.5481 30.1975C41.5462 30.2252 41.5443 30.253 41.57 30.2826L41.5681 30.3104C41.489 30.2492 41.4099 30.1881 41.3308 30.1269ZM9.58813 63.0024C9.55673 63.056 9.52532 63.1097 9.46629 63.1615C9.4462 63.0485 9.42424 62.9634 9.40415 62.8504C9.43367 62.8245 9.46319 62.7986 9.52223 62.7469C9.51845 62.8024 9.54042 62.8876 9.58813 63.0024ZM25.3854 65.4152C25.1807 65.5686 24.9464 65.748 24.7417 65.9014L24.4547 65.6309C24.6614 65.4497 24.8661 65.2962 25.0709 65.1428L25.3854 65.4152ZM28.4123 60.9071C28.7916 61.0444 28.9536 61.1112 29.0679 61.0632C29.1213 61.0947 29.1451 61.1522 29.1985 61.1837C29.3329 61.2486 29.4673 61.3135 29.6035 61.3507C29.5979 61.434 29.5903 61.545 29.5828 61.6561C29.5551 61.6542 29.5018 61.6227 29.4741 61.6208C29.4999 61.6504 29.5514 61.7097 29.5752 61.7671C29.5896 61.9634 29.6022 62.1874 29.6423 62.4132C29.7214 62.4744 29.8006 62.5356 29.852 62.5949C29.8187 62.6763 29.7597 62.728 29.7264 62.8095C29.5368 62.7408 29.3176 62.698 29.0727 62.6255C29.0652 62.7366 29.0281 62.8736 29.0187 63.0124C28.5621 62.7861 28.1056 62.5598 27.651 62.3058C27.7157 62.1707 27.7804 62.0356 27.8489 61.845C28.0354 61.5509 28.2239 61.229 28.3847 60.9052L28.4123 60.9071ZM27.5109 62.3241C27.5128 62.2964 27.5405 62.2982 27.5424 62.2705L27.57 62.2724L27.5109 62.3241ZM19.0062 61.6623C19.0671 61.5827 19.1557 61.5051 19.2185 61.3978C19.2166 61.4255 19.2443 61.4274 19.27 61.4571C19.1814 61.5347 19.0948 61.5846 19.0062 61.6623ZM20.3509 60.6659C20.3804 60.64 20.3823 60.6122 20.3823 60.6122C20.3823 60.6122 20.3804 60.64 20.408 60.6419C20.408 60.6419 20.3785 60.6677 20.3509 60.6659ZM47.0748 60.7812C47.1452 60.5628 47.3223 60.4075 47.4736 60.2225C47.3499 60.4094 47.2262 60.5962 47.0748 60.7812ZM43.6185 59.7652C43.5186 60.0095 43.4464 60.2556 43.236 60.4923C43.236 60.4923 43.1807 60.4886 43.1549 60.4589C43.2454 60.3535 43.3358 60.2481 43.3472 60.0815C43.2938 60.05 43.2662 60.0481 43.2385 60.0462C43.268 60.0203 43.2976 59.9944 43.3013 59.9389C43.3271 59.9685 43.3528 59.9982 43.4319 60.0593C43.4357 60.0038 43.3842 59.9445 43.3327 59.8852L43.3346 59.8575C43.3956 59.7779 43.4565 59.6984 43.545 59.6207C43.5413 59.6763 43.5651 59.7337 43.589 59.7911C43.5613 59.7892 43.589 59.7911 43.6185 59.7652ZM47.8097 59.7712C47.8153 59.6879 47.7953 59.575 47.8285 59.4936C47.86 59.4399 47.9705 59.4474 48 59.4215C48.059 59.3698 48.0886 59.3439 48.1476 59.2921L47.8097 59.7712ZM48.3637 58.9721C48.4949 58.6742 48.5729 58.3448 48.6508 58.0154C48.706 58.0191 48.7852 58.0803 48.8919 58.1433C48.7349 58.4116 48.5483 58.7057 48.3637 58.9721ZM50.0311 57.7187C49.9225 57.6834 49.8653 57.7074 49.8597 57.7907L49.832 57.7888C49.8653 57.7074 49.8967 57.6538 49.9577 57.5742C49.9815 57.6316 50.0349 57.6632 50.0311 57.7187ZM48.9823 58.0379C49.0088 57.6492 49.1677 57.3532 49.4076 57.0906C49.4962 57.0129 49.5571 56.9334 49.6456 56.8557C49.4239 57.259 49.2041 57.6346 48.9823 58.0379ZM51.4532 55.5839C51.4217 55.6376 51.3903 55.6912 51.3589 55.7449C51.298 55.8244 51.2076 55.9299 51.1466 56.0094C51.0675 55.9482 50.9884 55.8871 50.8798 55.8518C50.7931 55.9017 50.8684 56.0184 51.0248 56.1685C50.842 56.4071 50.6335 56.616 50.425 56.825C50.425 56.825 50.3974 56.8231 50.3992 56.7954C50.5305 56.4975 50.6084 56.168 50.5739 55.8589C50.6072 55.7775 50.6386 55.7238 50.6481 55.585C51.0512 55.7798 51.1473 55.591 51.1348 55.367C51.2397 55.4579 51.3464 55.5209 51.4532 55.5839ZM18.2598 55.0846C18.293 55.0032 18.3245 54.9495 18.3835 54.8978C18.4425 54.846 18.5016 54.7942 18.5606 54.7424C18.6064 54.885 18.7056 55.0591 18.5361 55.1034C18.477 55.1551 18.3131 55.1161 18.2598 55.0846ZM18.0763 55.7415C18.0487 55.7397 18.0229 55.71 17.9953 55.7081C18.0914 55.5194 18.1637 55.2733 18.2598 55.0846C18.3275 55.3123 18.1134 55.6046 18.0763 55.7415ZM18.7063 54.6408C18.7653 54.589 18.852 54.5391 18.9092 54.5151C18.874 54.6243 18.8664 54.7353 18.9142 54.8502C18.8055 54.8149 18.754 54.7556 18.7063 54.6408ZM16.1529 54.6345C16.4814 54.2943 16.8099 53.954 16.9211 53.5432C17.004 53.5488 17.085 53.5822 17.166 53.6156C17.1088 53.6396 17.0498 53.6914 17.0184 53.745C16.8651 53.9577 16.6843 54.1686 16.531 54.3813C16.4167 54.4293 16.2986 54.5329 16.1529 54.6345ZM19.9185 53.5517C19.9423 53.6091 19.9367 53.6924 19.7947 53.7385C19.8261 53.6849 19.8852 53.6331 19.9185 53.5517ZM47.5359 54.8156C47.5082 54.8137 47.5082 54.8137 47.5359 54.8156C47.5082 54.8137 47.5082 54.8137 47.5359 54.8156C47.5359 54.8156 47.5082 54.8137 47.5359 54.8156ZM51.9205 54.8347C51.9205 54.8347 51.9224 54.8069 51.8947 54.8051C51.9242 54.7792 51.9557 54.7255 51.9852 54.6996C51.9833 54.7274 51.9519 54.7811 51.9205 54.8347ZM18.6407 51.9307C18.5503 52.0361 18.4322 52.1397 18.3418 52.2451C18.3436 52.2173 18.3474 52.1618 18.3788 52.1082C18.4674 52.0305 18.5283 51.951 18.6169 51.8733C18.6426 51.9029 18.6426 51.9029 18.6407 51.9307ZM21.7073 51.3303C21.6093 51.5468 21.4749 51.4818 21.3424 51.3892C21.3738 51.3355 21.4328 51.2837 21.4938 51.2042L21.5729 51.2654L21.4938 51.2042C21.5233 51.1783 21.5547 51.1247 21.5842 51.0988C21.5804 51.1543 21.63 51.2414 21.7073 51.3303ZM19.2443 51.2186L19.2167 51.2167L19.2186 51.189L19.2443 51.2186C19.2719 51.2205 19.2719 51.2205 19.2443 51.2186ZM25.1599 51.1745C25.0971 51.2818 25.0343 51.3891 24.9439 51.4945C24.9162 51.4927 24.8629 51.4611 24.8352 51.4593C24.9276 51.3261 25.0199 51.1929 25.0846 51.0578C25.1103 51.0875 25.1361 51.1171 25.1599 51.1745ZM22.7813 50.2318L22.5602 50.2168L22.5621 50.189C22.6783 50.1132 22.7945 50.0374 22.9088 49.9894C22.8755 50.0708 22.8422 50.1523 22.7813 50.2318ZM29.6382 45.733C28.6672 46.9501 28.2507 48.1769 26.9908 49.1512C26.6743 48.9066 26.9782 48.9272 26.636 48.6529C26.7303 48.492 26.8226 48.3588 26.9168 48.1978C27.0387 48.0388 27.1329 47.8778 27.2547 47.7187C27.3452 47.6133 27.4099 47.4782 27.5003 47.3728C27.69 47.4415 27.8777 47.5379 28.0912 47.664C27.7622 47.1954 28.3845 47.4329 28.2175 47.0311C28.1127 46.9403 28.0059 46.8772 27.8992 46.8142C28.2666 46.3092 28.6064 45.8023 28.9719 45.3251C29.1082 45.3623 29.2225 45.3143 29.3644 45.2681C29.436 45.4403 29.5371 45.5867 29.6382 45.733ZM20.9986 48.6881C21.0909 48.5549 21.1833 48.4217 21.2775 48.2607C21.3327 48.2645 21.388 48.2683 21.4652 48.3572C21.4338 48.4108 21.3748 48.4626 21.3434 48.5163C21.2234 48.6476 21.1091 48.6956 20.9986 48.6881ZM30.7975 45.4213L30.6775 45.5526C30.5193 45.4303 30.3868 45.3376 30.28 45.2746C30.3391 45.2228 30.3981 45.171 30.4295 45.1174C30.5897 45.212 30.6945 45.3028 30.7975 45.4213ZM30.0465 45.0356C30.0446 45.0633 30.0151 45.0892 30.0151 45.0892L29.9874 45.0873C29.9284 45.1391 29.8989 45.165 29.8398 45.2168C29.7865 45.1852 29.7626 45.1278 29.7092 45.0963C29.7388 45.0704 29.7425 45.0149 29.7739 44.9613C29.8273 44.9928 29.9083 45.0262 29.9874 45.0873C30.0169 45.0615 30.0446 45.0633 30.0465 45.0356ZM30.1112 44.9005C30.032 44.8393 29.951 44.8059 29.8719 44.7448C29.9775 44.4172 30.0849 44.0619 30.4108 44.1678C30.3109 44.412 30.211 44.6563 30.1112 44.9005ZM32.2176 43.3143C31.7786 43.6471 31.312 43.978 30.8711 44.3385C30.9691 44.122 31.069 43.8778 31.1375 43.6872C31.3604 43.6745 31.7177 43.7266 31.6976 43.6137C31.5828 42.8528 32.2573 42.7313 32.6705 42.3689C32.4802 42.7186 32.2937 43.0127 32.2176 43.3143ZM31.9816 42.2942C31.677 42.6918 31.3705 43.1173 31.0659 43.515C30.944 43.674 30.8956 43.9776 30.603 43.7903C30.8323 43.276 31.135 42.906 31.4673 42.5102C31.3712 42.6989 31.277 42.8599 31.1275 43.0171C31.2104 43.0227 31.2914 43.0561 31.3228 43.0025C31.5866 42.7973 31.797 42.5605 31.9816 42.2942ZM32.2863 41.8965C32.2235 42.0038 32.1349 42.0814 32.0721 42.1887C32.074 42.161 32.074 42.161 32.0759 42.1332C32.1073 42.0796 32.1682 42 32.1996 41.9464C32.172 41.9445 32.1425 41.9704 32.1148 41.9685C32.0891 41.9389 32.0357 41.9073 32.01 41.8777C32.0414 41.824 32.0709 41.7982 32.1023 41.7445C32.1538 41.8038 32.2071 41.8353 32.2863 41.8965ZM32.1337 41.6909C32.1651 41.6372 32.1946 41.6113 32.1984 41.5558C32.2204 41.641 32.2166 41.6965 32.1337 41.6909ZM33.1392 40.783C33.1078 40.8366 33.0783 40.8625 33.0469 40.9161C33.0507 40.8606 33.0544 40.8051 33.0858 40.7514C33.1135 40.7533 33.1411 40.7552 33.1392 40.783ZM33.5933 40.2281C33.4734 40.3594 33.3515 40.5185 33.2315 40.6498C33.2058 40.6201 33.1524 40.5886 33.0991 40.5571C33.1399 40.3646 33.2341 40.2037 33.4313 40.1613C33.5085 40.2502 33.5381 40.2243 33.5933 40.2281ZM62.0577 38.4255C61.51 38.723 61.1482 39.1447 60.9171 39.6869C60.8875 39.7127 60.8838 39.7683 60.8524 39.8219C60.8228 39.8478 60.7933 39.8737 60.8191 39.9033C60.7506 40.0939 60.684 40.2568 60.6413 40.477C60.6136 40.4751 60.586 40.4732 60.5584 40.4714C60.5841 40.501 60.6099 40.5307 60.6356 40.5603C60.6023 40.6417 60.5967 40.725 60.591 40.8083C60.3995 40.7674 60.3863 40.9617 60.1508 40.7505C60.3022 40.5655 60.7775 40.5142 60.3324 40.1213C60.1496 40.3599 59.8029 40.5595 59.5115 40.7628C59.2201 40.9661 58.9839 41.1732 59.0203 41.4546C59.0498 41.4287 59.1842 41.4937 59.1804 41.5492C59.1767 41.6047 59.171 41.688 59.1672 41.7435C59.0862 41.7101 58.9776 41.6749 58.8966 41.6415C58.869 41.6396 58.8708 41.6118 58.8432 41.6099L58.8156 41.6081C58.7879 41.6062 58.7622 41.5765 58.7346 41.5747L58.7603 41.6043C58.6479 41.6246 58.5889 41.6763 58.5261 41.7836C58.4746 41.7243 58.506 41.6707 58.4011 41.5799C58.4639 41.4726 58.5267 41.3653 58.56 41.2839C58.621 41.2043 58.7095 41.1267 58.7704 41.0471C58.9161 40.9455 59.0342 40.8419 59.097 40.7346C59.0694 40.7327 59.0694 40.7327 59.0399 40.7586C59.6045 40.2113 60.2426 39.8084 60.8493 39.4591C61.2826 39.2096 61.4604 38.636 61.8756 38.2458C61.9955 38.1145 62.1412 38.0128 62.2612 37.8815C62.086 38.0091 62.0175 38.1997 62.0577 38.4255ZM37.2512 36.237C37.3913 36.2187 37.5313 36.2003 37.6456 36.1523C37.9044 35.612 38.1632 35.0718 38.3944 34.5296C38.3372 34.5536 38.3077 34.5795 38.2506 34.6035C38.4371 34.3094 38.6237 34.0152 38.8083 33.7489C38.836 33.7507 38.836 33.7507 38.8636 33.7526L38.8378 33.723C39.3975 32.8406 39.9571 31.9581 40.5425 31.1054C40.6367 30.9444 40.7291 30.8112 40.8233 30.6503C41.0129 30.719 41.1768 30.758 41.3407 30.797C41.3093 30.8507 41.3074 30.8784 41.3037 30.934C41.2779 30.9043 41.2522 30.8747 41.256 30.8192C41.1969 30.8709 41.1636 30.9523 41.158 31.0356C40.854 31.015 40.8502 31.0705 40.8257 31.4314C40.4972 31.7717 40.2221 32.1435 39.9746 32.5172C39.9451 32.5431 39.9432 32.5708 39.9118 32.6245C39.474 33.3478 39.1172 34.1046 38.8138 34.8928C38.3616 35.42 37.9609 36.0064 37.5878 36.5946C37.4622 36.8092 37.3365 37.0238 37.1833 37.2366C37.0709 37.2568 36.9566 37.3048 36.8718 37.327C36.9051 37.2455 37.0232 37.142 36.9735 37.055C36.8611 37.0752 36.7117 37.2324 36.8146 37.351C36.7575 37.375 36.6708 37.4249 36.6413 37.4508C36.5823 37.5025 36.4937 37.5802 36.4347 37.632L36.4051 37.6578C36.6878 37.175 36.9705 36.6921 37.2512 36.237ZM23.2941 37.3802C23.3217 37.382 23.3512 37.3561 23.3512 37.3561C23.6408 37.1806 23.9064 36.9476 24.1149 36.7386C23.9912 36.9255 23.8417 37.0827 23.6075 37.262C23.6162 37.5415 23.5126 37.8413 23.3536 38.1373C23.2117 38.1835 23.0974 38.2315 23.0365 38.311C23.1697 37.9853 23.2457 37.6837 23.2941 37.3802ZM26.7039 38.6719C27.2289 38.7076 27.423 38.3024 27.5084 37.8619C27.656 37.7325 27.9186 37.1367 28.1774 36.5964C28.3928 36.6947 28.3024 36.8002 28.4901 36.8966C28.6434 36.6839 28.8242 36.473 28.9794 36.2326C28.5749 36.8745 28.198 37.5183 27.7935 38.1602C27.3344 38.38 27.0336 38.7222 26.6021 38.9439C26.6335 38.8903 26.6687 38.7811 26.7039 38.6719ZM22.3895 39.6617C22.4171 39.6635 22.4429 39.6932 22.4429 39.6932C22.3857 39.7172 22.3562 39.7431 22.3267 39.769C22.3581 39.7153 22.3876 39.6894 22.3895 39.6617ZM20.698 42.0849C20.757 42.0331 20.8437 41.9833 20.9028 41.9315C20.8381 42.0665 20.7476 42.172 20.6038 42.2459C20.6295 42.2755 20.6295 42.2755 20.6277 42.3033C20.5372 42.4087 20.4449 42.5419 20.3268 42.6454C20.4782 42.4605 20.5743 42.2718 20.698 42.0849ZM19.4896 43.1185C19.4212 43.3091 19.3508 43.5274 19.2804 43.7458C19.2271 43.7143 19.1756 43.655 19.0688 43.5919C19.2183 43.4347 19.3402 43.2757 19.4896 43.1185ZM18.2837 44.9332C18.4815 44.4725 18.7604 44.0452 19.0374 43.6456C19.0613 43.703 19.1109 43.7901 19.2434 43.8827C19.2415 43.9105 19.2101 43.9642 19.2082 43.9919C19.2653 43.9679 19.2949 43.942 19.3501 43.9458C19.4054 43.9495 19.433 43.9514 19.4349 43.9237C19.4644 43.8978 19.5197 43.9015 19.5492 43.8756C19.0951 44.4305 18.744 45.104 18.2403 45.5718C18.2641 45.6292 18.3413 45.7181 18.3118 45.744C18.2842 45.7421 18.2289 45.7384 18.1994 45.7643C18.2459 45.4885 18.1857 45.1497 18.2837 44.9332ZM20.4082 44.715C20.0665 45.2497 19.7248 45.7843 19.3592 46.2615C19.2374 46.4206 18.9868 46.4314 18.8631 46.6183C18.9686 46.2907 19.1571 45.9688 19.3712 45.6766C19.635 45.4714 19.875 45.2088 20.0854 44.972C20.1758 44.8666 20.292 44.7908 20.4082 44.715ZM16.3384 48.2318C16.5544 47.9118 16.7429 47.5899 16.9056 47.2383C17.0494 47.1644 17.116 47.0016 17.1568 46.8091C17.1568 46.8091 17.1568 46.8091 17.1845 46.811C17.3082 46.6241 17.4062 46.4077 17.4784 46.1615C17.6794 46.0636 17.9337 45.9972 18.0813 45.8678C18.0776 45.9233 18.0443 46.0048 18.0129 46.0584C17.95 46.1657 17.8615 46.2434 17.7987 46.3507C17.7415 46.3747 17.6549 46.4246 17.5977 46.4486C17.5939 46.5041 17.6197 46.5338 17.6159 46.5893C17.5255 46.6947 17.435 46.8001 17.3703 46.9352C17.1247 47.2811 16.8791 47.627 16.6593 48.0026C16.5984 48.0821 16.5356 48.1894 16.4746 48.2689C16.4194 48.2652 16.3641 48.2614 16.3384 48.2318ZM17.1723 48.6232C17.4361 48.418 17.595 48.122 17.7815 47.8278C17.9291 47.6984 18.1044 47.5708 18.2796 47.4433C17.9398 47.9502 17.5705 48.4829 17.2011 49.0157C17.0316 49.0599 16.9411 49.1653 16.8764 49.3004C16.9487 49.0543 17.1792 48.9305 17.1723 48.6232ZM17.4425 52.4071C17.6862 52.089 17.766 51.7318 18.0649 51.4174C18.0944 51.3915 18.2765 51.5712 18.2822 51.4879C18.3117 51.462 18.0191 51.2748 18.1039 51.2527C18.1334 51.2268 18.1648 51.1731 18.1943 51.1472C18.2496 51.151 18.3325 51.1566 18.3601 51.1585C18.4838 50.9717 18.5781 50.8107 18.7018 50.6239C18.7294 50.6258 18.7275 50.6535 18.7552 50.6554C18.7294 50.6258 18.7294 50.6258 18.7313 50.598C18.7922 50.5185 18.8551 50.4112 18.9179 50.3039C18.8607 50.3279 18.7759 50.35 18.7188 50.374C18.7483 50.3481 18.8055 50.3241 18.8369 50.2705C18.8369 50.2705 18.8388 50.2427 18.8664 50.2446C18.9731 50.3076 19.078 50.3984 19.1847 50.4615C19.2733 50.3838 19.3085 50.2746 19.2627 50.1321C19.1835 50.0709 19.1025 50.0375 19.0492 50.006C19.3909 49.4713 19.7621 48.9108 20.1 48.4317L20.1276 48.4336C20.2544 48.6096 19.985 48.8981 20.3166 48.9206C20.6413 48.6359 20.3248 48.3912 20.2828 48.1931C20.3437 48.1136 20.4046 48.034 20.4636 47.9823C20.4636 47.9823 20.4913 47.9841 20.4932 47.9564C20.5943 48.1027 20.5277 48.2656 20.5716 48.4359C20.679 48.0806 20.8141 47.7272 20.9473 47.4015C21.0321 47.3794 21.0653 47.298 21.0453 47.185C21.0786 47.1036 21.1414 46.9963 21.1747 46.9149L21.2519 47.0038C21.3938 46.9577 21.5081 46.9097 21.7053 46.8673C21.5452 46.7727 21.4384 46.7097 21.3574 46.6763C21.3888 46.6226 21.446 46.5986 21.4498 46.5431C21.4535 46.4876 21.4831 46.4617 21.5145 46.408C21.5402 46.4377 21.5917 46.497 21.6451 46.5285C21.647 46.5007 21.6765 46.4748 21.6784 46.4471C21.9804 46.4955 22.1261 46.3938 22.064 46.0828C22.0106 46.0513 21.9572 46.0197 21.9039 45.9882C22.0257 45.8291 22.1199 45.6682 22.2437 45.4814L22.2456 45.4536C22.3065 45.3741 22.3398 45.2926 22.4007 45.2131C22.4798 45.2743 22.5866 45.3373 22.6657 45.3985C22.7228 45.3745 22.6199 45.2559 22.4635 45.1058C22.6092 45.0041 22.7292 44.8728 22.8473 44.7693C22.9025 44.773 22.9578 44.7768 22.9854 44.7787C22.9873 44.7509 22.9616 44.7213 22.9082 44.6897C22.9691 44.6102 23.0558 44.5603 23.1167 44.4808C23.1443 44.4827 23.1425 44.5104 23.1701 44.5123C23.1739 44.4568 23.2053 44.4031 23.2072 44.3754C23.6908 43.7946 24.0953 43.1527 24.5017 42.483C24.3302 42.555 24.1607 42.5992 23.9892 42.6713C24.052 42.564 24.1148 42.4567 24.2053 42.3512C24.3416 42.3884 24.3472 42.3051 24.2976 42.2181C24.3585 42.1385 24.4214 42.0312 24.5099 41.9536C24.5375 41.9554 24.5909 41.987 24.5928 41.9592C24.5928 41.9592 24.5671 41.9296 24.5394 41.9277C24.6003 41.8481 24.6908 41.7427 24.7517 41.6632C24.7775 41.6928 24.7756 41.7206 24.8013 41.7502C25.1204 41.5488 25.4137 41.3177 25.7899 41.0922C25.8269 40.9553 25.8935 40.7924 25.8 40.5351C25.8295 40.5092 25.859 40.4833 25.8885 40.4574C25.8942 40.3741 25.898 40.3186 25.9017 40.263C25.9313 40.2372 25.9331 40.2094 25.9627 40.1835L25.9608 40.2113C25.9608 40.2113 26.0952 40.2762 26.097 40.2484C26.1266 40.2225 26.1027 40.1651 26.1065 40.1096C26.0789 40.1077 26.0512 40.1058 26.0531 40.0781C26.1159 39.9708 26.1787 39.8635 26.2397 39.7839C26.4092 39.7397 26.5273 39.6361 26.6454 39.5326C26.8225 39.3773 27.0272 39.2238 27.2301 39.0982C26.4563 40.2728 25.6567 41.4179 24.7504 42.4999C24.7686 42.6406 24.8715 42.7591 24.9174 42.9017C24.8859 42.9554 24.825 43.0349 24.7936 43.0886C24.8508 43.0646 24.8784 43.0664 24.9079 43.0405C24.9079 43.0405 24.9079 43.0405 24.906 43.0683C24.6755 43.1921 24.4432 43.3437 24.2032 43.6063C24.1806 43.9395 24.075 44.267 23.8885 44.5611C23.8904 44.5334 23.8904 44.5334 23.8646 44.5037C23.7836 44.4703 23.7007 44.4647 23.6474 44.4332C23.4646 44.6718 23.3113 44.8845 23.1286 45.1231C23.2667 45.1325 23.3772 45.14 23.4582 45.1734C23.3678 45.2788 23.305 45.3861 23.2145 45.4916C23.0337 45.7024 22.8528 45.9133 22.6995 46.126C22.2367 46.4013 21.8768 46.7953 21.6494 47.2819C21.7913 47.2357 21.9075 47.16 22.0475 47.1416C22.0142 47.223 21.9809 47.3044 21.9477 47.3858C21.7505 47.4282 21.5721 47.193 21.3837 47.5149C21.1161 47.7756 21.6688 47.8132 21.5212 47.9426C21.4621 47.9944 21.3774 48.0165 21.2926 48.0386C21.2078 48.0608 21.123 48.0829 21.0363 48.1328C21.0068 48.1587 20.9792 48.1568 20.9773 48.1845L20.9478 48.2104C20.7412 48.3916 20.5527 48.7135 20.5024 49.0448L20.5282 49.0745C20.4892 49.2392 20.5055 49.4077 20.5218 49.5761C20.4314 49.6815 20.3686 49.7888 20.2781 49.8943C20.0715 50.0755 19.9183 50.2882 19.7907 50.5306C19.7631 50.5287 19.7374 50.499 19.684 50.4675C19.7079 50.5249 19.706 50.5527 19.7298 50.6101C19.608 50.7692 19.4861 50.9282 19.3662 51.0596C19.3184 50.9447 19.2412 50.8558 19.1954 50.7132C18.9002 50.9721 18.6308 51.2606 18.3632 51.5213C18.3393 51.4639 18.3412 51.4362 18.1296 51.2823C18.2031 51.4268 18.0172 51.3026 18.0392 51.3877C18.1993 51.4823 18.2508 51.5416 18.3042 51.5731C18.1842 51.7044 18.0366 51.8338 17.9166 51.9652C17.8871 51.991 17.9091 52.0762 17.9053 52.1317C17.8168 52.2094 17.7282 52.2871 17.6654 52.3944L17.6359 52.4202C17.6359 52.4202 17.6101 52.3906 17.5825 52.3887L17.5235 52.4405C17.5235 52.4405 17.5511 52.4424 17.5492 52.4701C17.4921 52.4941 17.4625 52.52 17.4311 52.5737C17.4663 52.4645 17.4129 52.433 17.4425 52.4071ZM17.3815 52.4866C17.4092 52.4885 17.4625 52.52 17.4883 52.5497C17.4864 52.5774 17.4569 52.6033 17.455 52.6311C17.4311 52.5737 17.4073 52.5163 17.3815 52.4866ZM17.2817 52.7309C17.335 52.7624 17.3884 52.7939 17.416 52.7958C17.4123 52.8513 17.379 52.9327 17.3714 53.0438C17.3162 53.04 17.2333 53.0344 17.178 53.0307C17.0531 52.8269 17.4047 52.9624 17.2817 52.7309ZM12.5988 52.6078C12.3808 52.9556 12.242 53.3645 12.0517 53.7142C11.9983 53.6827 11.9449 53.6511 11.8658 53.59C11.9154 53.677 11.6686 53.6324 11.9078 53.7881C11.9355 53.79 11.9612 53.8196 12.0165 53.8234C11.9851 53.877 11.9518 53.9584 11.8909 54.038C11.8613 54.0639 11.8318 54.0897 11.8023 54.1156C11.6842 54.2192 11.5662 54.3227 11.4481 54.4263C11.3633 54.4484 11.2785 54.4705 11.2452 54.5519C11.2433 54.5797 11.2414 54.6075 11.2396 54.6352C11.031 54.8442 10.8244 55.0254 10.6435 55.2362C10.5531 55.3417 10.4607 55.4748 10.3703 55.5803C10.474 55.2805 10.6034 55.0104 10.7346 54.7125C10.7661 54.6588 10.7717 54.5755 10.8031 54.5219C11.1354 54.1261 11.4934 53.7599 11.8809 53.3679C11.8809 53.3679 11.9085 53.3697 11.9104 53.342L11.8828 53.3401L11.9123 53.3142C12.0009 53.2366 12.1189 53.133 12.1817 53.0257C12.3017 52.8944 12.4217 52.7631 12.5397 52.6595C12.5712 52.6059 12.5712 52.6059 12.5988 52.6078ZM10.8472 53.4649C10.7405 53.4019 10.6909 53.3149 10.6708 53.2019C10.8184 53.0725 10.966 52.9431 11.1117 52.8414C11.1336 52.9266 11.1556 53.0117 11.2033 53.1265C11.111 53.2597 10.9634 53.3892 10.8434 53.5205C10.8453 53.4927 10.8472 53.4649 10.8472 53.4649ZM7.30429 56.9896C7.27855 56.96 7.25092 56.9581 7.22329 56.9562C7.34136 56.8527 7.4318 56.7473 7.51847 56.6974C7.63655 56.5938 7.72699 56.4884 7.81744 56.383C7.77848 56.5477 7.73763 56.7402 7.75394 56.9086C8.15399 56.7406 8.43098 56.341 8.54219 55.9302C8.56793 55.9598 8.62131 55.9913 8.67468 56.0229C8.62508 55.9358 8.90139 55.9546 8.66404 55.7711C8.63641 55.7692 8.60878 55.7673 8.58115 55.7655C8.58304 55.7377 8.58492 55.7099 8.58681 55.6822C8.78589 55.612 8.82673 55.4195 8.89332 55.2567C8.83617 55.2807 8.75327 55.2751 8.69613 55.2991C8.81797 55.14 8.94171 54.9532 9.09119 54.796C9.1722 54.8294 9.22369 54.8887 9.29903 55.0054C9.5961 54.7187 10.1952 54.4806 9.91583 54.0989C9.71298 54.2246 9.53587 54.3799 9.55217 54.5484C9.50068 54.4891 9.44731 54.4576 9.42156 54.428C9.63197 54.1912 9.87001 53.9564 10.1357 53.7234C10.2443 53.7587 10.3806 53.7958 10.5131 53.8885C10.4226 53.9939 10.3322 54.0994 10.2417 54.2048C10.1827 54.2566 10.1237 54.3083 10.0923 54.362C10.1199 54.3639 10.118 54.3916 10.1456 54.3935C9.9886 54.6618 9.91258 54.9634 9.94519 55.3003C9.85664 55.378 9.74234 55.426 9.54892 55.4129C9.72844 56.0387 9.43514 56.2698 8.93212 56.3193C8.68155 56.3301 8.53585 56.4318 8.38826 56.5612C8.06355 56.846 7.73884 57.1307 7.3865 57.4136C7.34068 57.271 7.54165 57.1731 7.30429 56.9896ZM10.2817 55.6579L10.2114 55.8763L10.1065 55.7855L10.2817 55.6579ZM11.0482 57.8578C11.351 57.4879 11.547 57.0549 11.7191 56.5645C11.7838 56.4295 11.8227 56.2648 11.8874 56.1297C12.0752 56.2261 11.9571 56.3297 12.1191 56.3965C12.2573 56.4059 11.9942 56.1927 11.976 56.052C11.9741 56.0798 12.1675 56.093 12.1675 56.093C12.1694 56.0652 12.0941 55.9485 12.1236 55.9226C12.1588 55.8134 12.2693 55.8209 12.3045 55.7118C12.4847 55.9193 12.5475 55.812 12.6285 55.8454C12.6247 55.9009 12.6228 55.9287 12.5914 55.9823C12.4771 56.0303 12.3647 56.0506 12.4897 56.2543C12.4545 56.3635 12.4451 56.5023 12.5185 56.6468C12.4281 56.7522 12.3376 56.8576 12.2195 56.9612C11.8597 57.3551 11.4721 57.7471 11.1085 58.1966C11.0388 57.9966 11.0168 57.9114 11.0482 57.8578ZM15.3003 57.7843C15.3851 57.7621 15.4994 57.7141 15.5327 57.6327C15.625 57.4995 15.745 57.3682 15.8631 57.2647C15.8574 57.3479 15.907 57.435 15.9842 57.5239C16.1708 57.2298 16.4365 56.9968 16.7279 56.7935C16.4565 57.1098 16.2128 57.4279 15.9673 57.7738C15.7375 57.4793 15.5082 57.9936 15.3003 57.7843ZM15.9396 57.7719C15.6645 58.1437 15.4428 58.5471 15.2449 59.0078C14.8914 58.9001 15.0132 58.741 14.995 58.6003C15.0503 58.604 15.1313 58.6374 15.1828 58.6967C15.8428 58.379 15.2212 57.7231 15.9396 57.7719ZM15.007 58.0154C15.0384 57.9617 15.068 57.9358 15.0994 57.8822C15.1289 57.8563 15.1584 57.8304 15.2156 57.8064C15.127 57.884 15.0661 57.9636 15.007 58.0154ZM14.377 59.1161C14.5818 58.9627 14.6798 58.7462 14.7796 58.502C14.8588 58.5631 14.914 58.5669 14.995 58.6003C15.0685 58.7447 14.7865 58.8093 14.6552 59.1072L14.6019 59.0756C14.5667 59.1848 14.4543 59.2051 14.3676 59.255C14.3714 59.1994 14.3733 59.1717 14.377 59.1161ZM14.3267 59.4474C14.3763 59.5345 14.3468 59.5604 14.2897 59.5844C14.3192 59.5585 14.323 59.503 14.3267 59.4474ZM8.49452 60.3061L8.55168 60.2821L8.60316 60.3414L8.49452 60.3061ZM12.8903 61.386C12.8809 61.5248 12.8991 61.6655 13.0278 61.8137C12.8915 61.7765 12.7628 61.6283 12.6874 61.5116C12.7465 61.4599 12.8055 61.4081 12.8903 61.386ZM8.05605 61.4478L8.04352 61.2238L8.12452 61.2572L8.13705 61.4812L8.05605 61.4478ZM10.4763 61.7797C10.4763 61.7797 10.5039 61.7816 10.5058 61.7538C10.5058 61.7538 10.5058 61.7538 10.5334 61.7557L10.5039 61.7816C10.4744 61.8075 10.4744 61.8075 10.4763 61.7797ZM12.2779 61.8185C12.3941 61.7427 12.4827 61.6651 12.5989 61.5893C12.4419 61.8575 12.2591 62.0961 12.0763 62.3348C12.0895 62.1404 12.1856 61.9517 12.2779 61.8185ZM9.39042 62.2358L9.41616 62.2655C9.38664 62.2914 9.38475 62.3191 9.35523 62.345C9.35901 62.2895 9.3609 62.2617 9.39042 62.2358ZM15.8285 62.6735C15.6903 62.6641 15.5522 62.6547 15.414 62.6453C15.8681 62.0905 16.2946 61.5337 16.8021 61.0103C16.5446 60.7139 17.1343 60.6145 16.8216 60.3144C16.9045 60.32 16.9007 60.3755 16.9503 60.4626C17.2443 59.8131 17.2481 59.7576 18.0626 59.6177C19.9261 57.9314 21.3091 55.9613 22.9076 54.0896C23.0363 54.2378 23.1393 54.3564 23.268 54.5046C23.072 54.9376 22.8484 55.3687 22.6524 55.8016C22.2328 56.6657 21.8408 57.5316 21.3955 58.366C21.1355 58.5157 20.9289 58.6969 20.8861 58.9171C20.969 58.9227 21.0243 58.9265 21.1072 58.9321C20.8245 59.415 20.5419 59.8978 20.2335 60.3511C20.2021 60.4047 20.2517 60.4918 20.3289 60.5807C20.2956 60.6621 20.2366 60.7139 20.2033 60.7953C20.1775 60.7656 20.1241 60.7341 20.0984 60.7045L19.2166 61.4255C19.4308 61.1333 19.5897 60.8373 19.6381 60.5337C20.1964 60.488 20.496 59.7553 20.1205 59.5624C19.9076 60.2452 19.1533 60.7239 18.5887 61.2713C18.6219 61.1899 18.6534 61.1362 18.6866 61.0548C18.8198 60.7291 18.8739 60.3423 19.0089 59.9889C17.9025 59.5232 17.6512 59.9524 17.2179 60.2018C17.3742 60.3519 17.5325 60.4743 17.7918 60.7429C17.0859 60.9181 17.6308 62.294 16.2443 61.865C16.6423 62.952 16.2567 63.3163 15.483 63.2637C15.6896 63.0825 15.76 62.8641 15.8285 62.6735ZM17.9969 62.6257C17.995 62.6535 17.995 62.6535 17.9969 62.6257L17.8876 63.0088L17.6798 62.7994L17.9969 62.6257ZM27.2741 62.9496L28.1043 63.3965C27.2219 63.3086 27.1032 63.8305 26.992 64.2413C26.8463 64.343 26.7282 64.4466 26.5806 64.576L26.5147 64.3205C26.7421 63.8339 26.9952 63.3769 27.2741 62.9496ZM14.9077 63.5593C14.7124 63.5739 14.6465 63.3184 14.6836 63.1814L14.7903 63.2445L14.7922 63.2167C14.8475 63.2205 14.8732 63.2501 14.9285 63.2539C14.9153 63.4482 15.086 63.7945 14.9127 63.8943C14.2489 64.2676 14.0208 65.1726 13.2779 65.4847C13.8444 64.9095 14.4147 64.2789 14.9077 63.5593ZM13.3668 71.934L13.3933 71.5453L13.5515 71.6676L13.5251 72.0563L13.3668 71.934ZM18.7484 74.0292L18.857 74.0645L18.879 74.1496L18.7484 74.0292ZM18.479 74.3177C18.4551 74.2603 18.376 74.1991 18.3779 74.1713C18.3798 74.1436 18.4331 74.1751 18.4608 74.177C18.4846 74.2344 18.5361 74.2937 18.5619 74.3233C18.56 74.3511 18.5066 74.3196 18.479 74.3177ZM58.2466 22.2117C57.9006 21.993 57.1973 21.722 57.6978 22.1186C57.9408 22.2188 58.2095 22.3487 58.2466 22.2117ZM59.5186 19.4252L59.6712 19.6309L60.1409 19.6628L59.9111 19.3682L59.6901 19.3532C59.4766 19.2271 59.307 19.2714 59.5186 19.4252ZM35.4703 69.7827C35.4685 69.8104 35.5199 69.8697 35.6505 69.9902C35.8773 69.9219 36.45 70.0724 36.1304 69.4649C35.9238 69.6461 35.4911 69.4773 35.4703 69.7827ZM36.5972 67.9068C36.7335 67.9439 37.0851 68.0794 36.6399 67.6865C36.6638 67.7439 36.3893 67.6974 36.5972 67.9068ZM58.3407 23.2781C59.4636 22.685 59.9422 21.7691 60.149 20.3607C59.074 19.8413 60.2801 21.29 59.2271 20.8559C59.31 20.8615 59.5166 20.6803 59.1706 20.4615C59.0908 20.8187 58.2857 20.8197 58.9607 21.5072C58.2706 21.0419 58.2128 21.4842 58.2567 21.6546C58.3214 21.5195 58.4483 21.6955 58.8495 21.918C58.8231 22.3067 57.6859 21.4763 57.8253 21.8763C58.2742 22.2136 58.1273 21.9247 58.5248 22.2028C58.6899 22.6324 57.8001 22.6556 58.3407 23.2781ZM69.1508 28.0017C69.5986 27.9484 69.48 27.243 69.3312 26.9819C69.2332 27.1984 68.7094 27.5532 69.1508 28.0017ZM35.3883 68.1314C36.1093 67.7341 37.1731 67.1928 37.5909 66.3565C36.9842 66.7058 35.3601 67.3206 35.3883 68.1314ZM32.2066 70.4255C32.0999 70.3624 31.7645 70.3954 32.1582 70.729C32.14 70.5883 32.4144 70.6348 32.2066 70.4255ZM34.1621 71.0605C34.2242 71.3715 33.7382 71.1711 34.1777 71.6473C34.3492 71.5753 34.5187 71.531 34.1621 71.0605ZM37.9448 68.5005C38.0095 68.3654 38.3134 68.3861 37.7615 67.9301C37.8845 68.1616 37.4443 68.1038 37.9448 68.5005ZM37.8603 66.068C37.8509 66.2069 37.5469 66.1862 37.7252 66.4215C37.8873 66.4883 38.173 66.3682 37.8603 66.068ZM4.09646 52.7271C4.14039 52.8974 3.91557 52.9379 4.28353 53.2419C4.21197 53.0696 4.70744 53.1312 4.09646 52.7271ZM19.3739 49.7212C19.2834 49.8266 19.0643 49.7839 19.1653 49.9302C19.4931 50.0083 19.8705 50.1734 19.3739 49.7212ZM4.58695 52.4536C4.62213 52.3444 4.64478 52.0112 4.43128 51.8852C4.20835 51.8979 3.79697 52.2325 4.26413 52.7106C4.45755 52.7237 4.57751 52.5924 4.58695 52.4536ZM4.06814 53.1435C4.3055 53.327 3.56323 53.2208 4.22381 53.712C4.2075 53.5435 4.49326 53.4235 4.06814 53.1435ZM63.0001 15.1712C62.963 15.3081 62.8518 15.719 63.0634 15.8728C63.3159 15.8342 63.8215 15.3386 63.4134 14.8088C63.1904 14.8215 63.041 14.9787 63.0001 15.1712ZM63.5829 14.7645C63.5409 14.5664 63.8247 14.4741 63.4863 14.1443C63.5007 14.3405 62.9738 14.3326 63.5829 14.7645ZM59.1667 11.5355C59.2754 11.5708 59.6126 11.5101 59.1875 11.2301C59.2076 11.3431 58.9313 11.3243 59.1667 11.5355ZM63.7017 14.2426C63.4643 14.0591 64.2952 14.0877 63.6365 13.5688C63.6509 13.765 63.3061 13.9368 63.7017 14.2426ZM46.4852 69.8621C46.685 69.3736 48.2699 70.1507 47.5366 69.0967C47.0078 69.1166 46.565 69.5049 46.4852 69.8621ZM46.0205 70.1652C45.807 70.0391 45.7385 70.2297 45.7567 70.3704C45.9501 70.3835 46.3055 70.4635 46.1567 70.2023C46.0443 70.2226 46.0833 70.0579 45.9727 70.0504C46.0223 70.1374 46.0481 70.1671 46.0205 70.1652ZM48.4358 68.9347C48.8692 68.6853 49.3302 68.4377 49.2536 67.9304C49.6882 68.0715 49.7441 67.6569 49.4276 67.4123C49.4062 68.136 47.8702 67.8643 48.4358 68.9347ZM65.8641 41.641C66.0022 41.6504 65.8955 41.5873 65.763 41.4946C65.5363 41.5629 65.8478 41.4725 65.8641 41.641ZM62.265 52.5255C62.0489 52.8456 61.9063 53.31 61.7065 53.7985C61.5086 54.2593 61.3089 54.7478 61.0099 55.0621L60.6614 55.2895C60.7951 55.7727 60.4132 56.0815 60.2744 56.4905C60.3792 56.5813 60.3221 56.6053 60.4527 56.7257C60.9193 56.3948 61.0067 55.9266 60.9559 55.449C61.4426 55.231 61.8339 54.7834 62.0908 54.2709C62.3477 53.7584 62.4979 53.1829 62.5595 52.685C62.6499 52.5796 63.1121 52.7226 62.6355 52.3834C62.5143 52.1241 62.2964 52.4719 62.265 52.5255ZM60.2115 56.5978C59.9811 56.7216 59.8868 56.8825 59.9842 57.0844C60.0966 57.0641 60.0614 57.1733 60.0834 57.2585C60.0985 57.0364 60.631 56.961 60.2115 56.5978ZM65.8232 41.8334C65.6631 41.7389 65.4458 41.6683 65.2562 41.5996C65.464 41.809 65.606 41.7629 65.8232 41.8334ZM49.9144 67.1943C50.2899 67.3872 50.7615 67.3914 50.624 66.9636C50.3734 66.9745 49.878 66.9129 49.9144 67.1943ZM50.5449 66.9025C50.6667 66.7434 51.3851 66.7922 51.2276 66.2516C51.0819 66.3532 50.4369 66.4489 50.5449 66.9025ZM59.5074 57.9724C59.6788 57.9004 59.7693 57.795 59.6977 57.6228C59.6406 57.6468 59.591 57.5597 59.5414 57.4727C59.4767 57.6077 59.4264 57.939 59.5074 57.9724ZM51.7733 65.9819C51.963 66.0505 52.0371 65.7766 51.9122 65.5729C51.7225 65.5042 51.5693 65.7169 51.7733 65.9819ZM3.13891 46.8045C3.26952 46.9249 3.48491 47.0232 3.64314 47.1456C3.46483 46.9103 3.32479 46.9287 3.13891 46.8045ZM3.04281 46.9932C2.90654 46.956 2.98377 47.045 3.08674 47.1635C3.36683 47.1268 3.02959 47.1875 3.04281 46.9932ZM8.09764 35.9287C8.53166 35.2608 8.75853 33.9653 9.3326 33.2791L9.65541 33.0221C9.49408 32.537 9.87783 32.2005 9.98903 31.7896C9.88417 31.6988 9.91369 31.6729 9.7812 31.5803C9.33842 31.9685 9.28058 32.4109 9.3295 32.9163C8.83901 33.1898 8.47535 33.6392 8.24418 34.1814C7.98727 34.6939 7.83522 35.2972 7.77361 35.7951C7.68317 35.9005 7.2191 35.7853 7.66996 36.0948C7.82064 36.3282 8.06623 35.9823 8.09764 35.9287ZM18.0541 18.5031C17.6415 18.4471 17.1862 18.6114 17.4675 18.9653C17.6666 18.8951 18.1734 18.7901 18.0541 18.5031ZM20.2676 14.5254C20.2851 15.0844 18.5111 15.0475 19.6043 15.7076C20.091 15.4896 20.3536 14.8938 20.2676 14.5254ZM10.2315 31.0809C10.1191 31.1012 10.1543 30.992 10.1028 30.9327C10.1153 31.1567 9.60665 31.2895 10.028 31.6249C10.2604 31.4734 10.327 31.3105 10.2315 31.0809ZM20.6589 14.0778C20.6055 14.0463 20.5522 14.0148 20.6093 13.9908C20.8304 14.0058 20.8455 13.7837 20.7701 13.667C20.5987 13.739 20.2319 13.8256 20.4693 14.0091C20.5283 13.9574 20.5722 14.1277 20.6589 14.0778ZM18.8167 16.2677C18.5102 16.6931 18.1761 17.1167 18.3946 17.5778C17.9487 17.6033 18.0309 18.0273 18.4121 18.1369C18.1849 17.3962 19.7348 17.0553 18.8167 16.2677ZM17.5466 19.0264C17.4762 19.2448 16.798 19.4218 17.0975 19.9163C17.1917 19.7554 17.7965 19.4339 17.5466 19.0264ZM10.5996 30.1576C10.4539 30.2592 10.3616 30.3924 10.4351 30.5369C10.4922 30.5129 10.5437 30.5722 10.5933 30.6592C10.6856 30.526 10.6825 30.1632 10.5996 30.1576ZM16.6509 20.3602C16.4575 20.347 16.4386 20.6247 16.6207 20.8044C16.8418 20.8194 16.9435 20.5474 16.6509 20.3602ZM27.2452 9.47697C27.4015 9.62706 26.8929 9.75984 27.3532 9.93059C27.1729 9.72309 27.6797 9.61808 27.2452 9.47697ZM28.0726 11.5973C28.0481 11.9582 27.7604 12.106 27.8226 12.4171C27.9444 12.258 28.4425 11.8735 28.0726 11.5973ZM26.5486 15.2313C26.5104 14.9777 27.08 14.7654 26.7635 14.5207C26.4225 14.637 26.4218 15.0554 26.5486 15.2313ZM26.9687 10.6855C26.9593 10.8243 26.9222 10.9612 26.9976 11.0779C27.2243 11.0097 27.1546 10.8097 26.9687 10.6855ZM25.9616 9.16656C25.9227 9.33127 25.7054 9.26072 25.6388 9.42355C25.9038 9.60892 26.096 9.23149 25.9616 9.16656ZM26.5173 9.56695C26.366 9.75191 26.2422 9.93875 26.3414 10.1128C26.3603 9.8352 26.7786 9.80785 26.5173 9.56695ZM26.3916 11.0088C26.1391 11.0475 26.487 11.2385 26.4499 11.3754C26.4091 11.5679 26.3349 11.8418 26.3161 12.1194C26.3142 12.1472 26.3104 12.2027 26.3085 12.2305C26.2809 12.2286 26.2532 12.2267 26.198 12.223C26.0988 12.0489 26.1377 11.8841 26.232 11.7232C26.151 11.6898 26.0423 11.6545 25.9632 11.5934C25.8695 12.5632 24.6819 13.2914 25.0579 14.2932C25.5196 13.6273 25.4638 12.8146 26.3097 12.6211C26.3612 12.6803 26.1307 12.8041 26.3147 12.9561C26.1433 13.0281 26.1005 13.2484 26.3416 13.3763C26.6017 13.2266 26.7091 12.8713 26.765 12.4568C26.8191 12.0699 26.8474 11.6535 27.0007 11.4407C26.7595 11.3128 26.7432 11.1443 26.3916 11.0088ZM42.0845 28.8393L42.055 28.8652L42.0845 28.8393ZM56.5741 14.1486L56.5445 14.1744L56.5979 14.206L56.5741 14.1486ZM28.5573 46.5242C28.622 46.3892 28.6867 46.2541 28.7533 46.0913L28.6742 46.0301C28.6095 46.1652 28.5429 46.328 28.4782 46.4631L28.5573 46.5242ZM28.8443 46.7948C28.8776 46.7133 28.9385 46.6338 28.9718 46.5524L28.8927 46.4912C28.8594 46.5726 28.7985 46.6522 28.7652 46.7336L28.8443 46.7948ZM37.0803 37.118L37.1689 37.0403L37.1174 36.9811L37.0269 37.0865L37.0803 37.118ZM9.03148 55.2661L8.89521 55.229L8.89332 55.2567L8.92095 55.2586L9.03148 55.2661ZM20.3806 49.2039L20.2035 49.3592L20.4836 49.3225L20.3806 49.2039ZM20.2035 49.3592L20.1759 49.3574L20.1463 49.3832L20.174 49.3851L20.2035 49.3592ZM6.41034 59.5229L6.38649 59.4655L6.3846 59.4932L6.41034 59.5229ZM6.4191 59.8024L6.44862 59.7765L6.39524 59.745L6.4191 59.8024ZM19.9529 49.3701L20.0301 49.459L20.1463 49.3832L19.9529 49.3701ZM29.9409 15.964L30.0037 15.8567C29.9008 15.7381 29.7789 15.8972 29.9409 15.964ZM34.7955 9.0698C34.6574 9.06041 34.4545 9.18608 34.6109 9.33618C34.6184 9.22512 34.8156 9.18274 34.7955 9.0698ZM29.6118 16.7226C29.6451 16.6412 29.5955 16.5542 29.5182 16.4652C29.4849 16.5467 29.4793 16.63 29.6118 16.7226ZM35.3192 73.2311C35.3506 73.1775 35.4096 73.1257 35.3877 73.0405C35.2514 73.0034 35.2438 73.1144 35.3192 73.2311ZM36.8301 68.5641C36.9368 68.6272 36.9463 68.4884 36.8176 68.3401C36.9482 68.4606 36.9815 68.3792 36.8785 68.2606C36.665 68.1345 36.7843 68.4216 36.8301 68.5641ZM34.943 73.4566C34.9869 73.6269 34.6905 73.4952 34.8707 73.7027C34.8507 73.5898 35.1194 73.7196 34.943 73.4566ZM36.6253 68.7176C36.6549 68.6917 36.5776 68.6028 36.5538 68.5454C36.5243 68.5712 36.447 68.4823 36.4432 68.5378C36.4671 68.5953 36.572 68.6861 36.6253 68.7176ZM36.0538 68.9577C35.9986 68.9539 35.9967 68.9817 36.0463 69.0687C36.0997 69.1002 36.1568 69.0762 36.0538 68.9577ZM35.7726 73.0946C35.9221 72.9374 36.162 72.6748 36.2085 72.399C36.3171 72.4343 36.4057 72.3566 36.3065 72.1825C35.9749 72.16 35.7657 72.7873 35.5095 72.8814C35.583 73.0259 35.5497 73.1073 35.7041 73.2852C35.8366 73.3779 35.6859 73.1445 35.7726 73.0946ZM36.4475 69.2912C36.3904 69.3153 36.0883 69.2668 36.3458 69.5633C36.4048 69.5115 36.5725 69.495 36.4475 69.2912ZM36.2013 70.0555C36.1975 70.111 36.3005 70.2296 36.3501 70.3167C36.4826 70.4093 36.2785 70.1444 36.2013 70.0555ZM17.8394 51.8762C17.8356 51.9318 17.8871 51.991 17.9367 52.0781C17.9662 52.0522 17.9719 51.9689 17.8394 51.8762ZM14.5013 74.4378C14.5936 74.3046 14.7117 74.201 14.6935 74.0603C14.5239 74.1046 14.4555 74.2952 14.5013 74.4378ZM13.8224 75.0331C13.8073 75.2553 13.4166 75.2845 13.6264 75.4661C13.6377 75.2995 14.0264 75.2981 13.8224 75.0331Z" fill="#FF4823"/>
</g>
<g clip-path="url(#clip1)">
<path d="M35.8005 50.6C35.6005 50.6 35.3005 50.5 35.1005 50.4C32.5005 49 23.8005 44.1 24.0005 37.8C24.0005 37.7 24.0005 37.6 24.0005 37.6V37.4C24.0005 33.9 26.9005 31 30.4005 31H30.5005H30.7005C32.7005 31 34.6005 31.9 35.8005 33.5C37.0005 31.9 38.9005 31 40.9005 31H41.1005H41.2005C44.7005 31 47.6005 33.9 47.6005 37.4V37.6C47.6005 37.7 47.6005 37.8 47.6005 37.8C47.8005 44.2 38.4005 49.4 36.5005 50.4C36.3005 50.5 36.0005 50.6 35.8005 50.6ZM30.5005 33C28.0005 33 26.0005 35 26.0005 37.4V37.5C26.0005 37.6 26.0005 37.8 26.0005 37.9C25.8005 42.9 34.0005 47.5 35.8005 48.5C37.6005 47.5 45.8005 42.9 45.6005 37.9C45.6005 37.8 45.6005 37.7 45.6005 37.5V37.4C45.6005 35 43.6005 33 41.2005 33H40.9005C39.1005 33 37.4005 34.1 36.7005 35.8L35.8005 38L34.9005 35.8C34.2005 34.1 32.5005 33 30.7005 33H30.5005Z" fill="black"/>
</g>
<defs>
<clipPath id="clip0">
<rect width="76" height="65" fill="white" transform="translate(71 4.89258) rotate(93.8892)"/>
</clipPath>
<clipPath id="clip1">
<rect width="23.6" height="19.6" fill="white" transform="translate(24 31)"/>
</clipPath>
</defs>
</svg>
