<svg width="20" height="20" viewBox="0 0 20 20" fill="none" xmlns="http://www.w3.org/2000/svg">
<path d="M15.4058 0.00416134L12.8123 0C9.89852 0 8.01551 1.9319 8.01551 4.92203V7.19141H5.40781C5.18247 7.19141 5 7.37409 5 7.59943V10.8875C5 11.1128 5.18268 11.2953 5.40781 11.2953H8.01551V19.5922C8.01551 19.8175 8.19799 20 8.42332 20H11.8256C12.051 20 12.2334 19.8173 12.2334 19.5922V11.2953H15.2825C15.5078 11.2953 15.6903 11.1128 15.6903 10.8875L15.6915 7.59943C15.6915 7.49123 15.6484 7.38762 15.5721 7.31105C15.4957 7.23448 15.3917 7.19141 15.2835 7.19141H12.2334V5.26763C12.2334 4.34298 12.4538 3.87358 13.6583 3.87358L15.4054 3.87295C15.6305 3.87295 15.813 3.69027 15.813 3.46514V0.411972C15.813 0.187052 15.6308 0.00457747 15.4058 0.00416134Z" fill="#3B5998"/>
</svg>
