<svg width="20" height="20" viewBox="0 0 20 20" fill="none" xmlns="http://www.w3.org/2000/svg">
<g clip-path="url(#clip0)">
<path d="M4.2108 11.4821L3.54944 13.9511L1.13217 14.0022C0.409762 12.6623 0 11.1293 0 9.50019C0 7.92486 0.383117 6.43929 1.06222 5.13123H1.06274L3.21479 5.52577L4.15751 7.66491C3.9602 8.24014 3.85266 8.85764 3.85266 9.50019C3.85273 10.1975 3.97905 10.8657 4.2108 11.4821Z" fill="#FBBB00"/>
<path d="M18.8341 7.72534C18.9432 8.30002 19.0001 8.89351 19.0001 9.50006C19.0001 10.1802 18.9286 10.8436 18.7924 11.4836C18.3299 13.6613 17.1215 15.5628 15.4476 16.9085L15.4471 16.908L12.7364 16.7697L12.3528 14.3748C13.4636 13.7234 14.3316 12.704 14.7889 11.4836H9.70898V7.72534H14.863H18.8341Z" fill="#518EF8"/>
<path d="M15.447 16.9078L15.4476 16.9083C13.8195 18.2169 11.7514 18.9998 9.50015 18.9998C5.88232 18.9998 2.7369 16.9777 1.13232 14.0019L4.21096 11.4818C5.01322 13.6229 7.07869 15.1471 9.50015 15.1471C10.541 15.1471 11.516 14.8658 12.3528 14.3746L15.447 16.9078Z" fill="#28B446"/>
<path d="M15.5636 2.18708L12.486 4.70666C11.6201 4.16538 10.5965 3.8527 9.4998 3.8527C7.02353 3.8527 4.91942 5.4468 4.15734 7.66472L1.06253 5.13104H1.06201C2.64309 2.08269 5.8282 0 9.4998 0C11.8048 0 13.9183 0.821082 15.5636 2.18708Z" fill="#F14336"/>
</g>
<defs>
<clipPath id="clip0">
<rect width="19" height="19" fill="white"/>
</clipPath>
</defs>
</svg>
