<svg width="82" height="38" viewBox="0 0 82 38" fill="none" xmlns="http://www.w3.org/2000/svg">
<g clip-path="url(#clip0)">
<path d="M38.4728 18.656V27.45H35.7031V5.73278H43.0488C43.9256 5.71433 44.7974 5.87097 45.6138 6.19366C46.4302 6.51635 47.1751 6.9987 47.8055 7.61287C48.4422 8.18976 48.9489 8.89724 49.2916 9.68779C49.6344 10.4783 49.8051 11.3336 49.7924 12.1961C49.8106 13.0633 49.6425 13.9241 49.2995 14.7197C48.9566 15.5153 48.4469 16.2268 47.8055 16.8054C46.521 18.0391 44.9354 18.6554 43.0488 18.6543H38.4728V18.656ZM38.4728 8.4065V15.9875H43.1176C43.6268 16.0027 44.1336 15.9107 44.6055 15.7173C45.0774 15.524 45.504 15.2336 45.8581 14.8646C46.2103 14.5197 46.4903 14.1071 46.6815 13.6513C46.8727 13.1955 46.9712 12.7057 46.9712 12.2109C46.9712 11.716 46.8727 11.2262 46.6815 10.7704C46.4903 10.3146 46.2103 9.90201 45.8581 9.55708C45.5084 9.18038 45.0833 8.88284 44.6108 8.68418C44.1384 8.48552 43.6294 8.39027 43.1176 8.40476H38.4728V8.4065Z" fill="#5F6368"/>
<path d="M56.1747 12.1061C58.2219 12.1061 59.8378 12.6571 61.0225 13.7592C62.2073 14.8612 62.799 16.3722 62.7979 18.2922V27.45H60.1486V25.388H60.0282C58.8813 27.0861 57.356 27.9352 55.4522 27.9352C53.8271 27.9352 52.4675 27.45 51.3734 26.4797C50.8483 26.0343 50.4285 25.4765 50.1446 24.847C49.8607 24.2175 49.7198 23.5321 49.7322 22.8408C49.7322 21.3032 50.3091 20.0804 51.4628 19.1724C52.6166 18.2645 54.1568 17.8093 56.0836 17.807C57.7282 17.807 59.0826 18.1102 60.1469 18.7167V18.079C60.15 17.6078 60.049 17.1417 59.8511 16.7146C59.6533 16.2875 59.3635 15.9101 59.0029 15.6098C58.2705 14.9442 57.316 14.581 56.3296 14.5926C54.7824 14.5926 53.5581 15.25 52.6567 16.5646L50.2173 15.0172C51.5592 13.0764 53.545 12.1061 56.1747 12.1061ZM52.5913 22.9014C52.5895 23.2565 52.6719 23.6068 52.8317 23.9233C52.9915 24.2398 53.224 24.5133 53.51 24.7209C54.1225 25.2062 54.8829 25.4633 55.6621 25.4487C56.8308 25.4467 57.9512 24.9781 58.7775 24.1456C59.695 23.2757 60.1538 22.2551 60.1538 21.0837C59.2902 20.3906 58.086 20.044 56.5412 20.044C55.4161 20.044 54.4779 20.3172 53.7267 20.8637C52.9681 21.4182 52.5913 22.0922 52.5913 22.9014Z" fill="#5F6368"/>
<path d="M78.0053 12.5913L68.7569 34.0001H65.8978L69.3298 26.5092L63.2485 12.5913H66.2591L70.6544 23.2654H70.7146L74.9896 12.5913H78.0053Z" fill="#5F6368"/>
<path d="M27.2804 16.7603C27.2814 15.9101 27.2101 15.0614 27.0671 14.2235H15.3862V19.0286H22.0765C21.9396 19.796 21.6498 20.5276 21.2247 21.1792C20.7995 21.8308 20.2478 22.3889 19.6027 22.8199V25.939H23.5955C25.9334 23.7678 27.2804 20.5569 27.2804 16.7603Z" fill="#4285F4"/>
<path d="M15.386 28.9523C18.7286 28.9523 21.543 27.8467 23.5953 25.9407L19.6025 22.8216C18.4912 23.5806 17.0599 24.0138 15.386 24.0138C12.1553 24.0138 9.41315 21.8201 8.43258 18.8639H4.31934V22.0782C5.35026 24.1446 6.93106 25.8816 8.88526 27.0955C10.8395 28.3093 13.0901 28.9522 15.386 28.9523Z" fill="#34A853"/>
<path d="M8.43264 18.864C7.91424 17.3149 7.91424 15.6374 8.43264 14.0884V10.874H4.3194C3.45215 12.6123 3.00049 14.5308 3.00049 16.4762C3.00049 18.4216 3.45215 20.3401 4.3194 22.0783L8.43264 18.864Z" fill="#FBBC04"/>
<path d="M15.386 8.93845C17.1524 8.90938 18.8592 9.58162 20.1375 10.8099L23.6727 7.24897C21.431 5.12815 18.4613 3.96378 15.386 3.99996C13.0901 4.00007 10.8395 4.64293 8.88526 5.85677C6.93106 7.07061 5.35026 8.80766 4.31934 10.874L8.43258 14.0883C9.41315 11.1322 12.1553 8.93845 15.386 8.93845Z" fill="#EA4335"/>
</g>
<defs>
<clipPath id="clip0">
<rect width="75" height="30" fill="white" transform="translate(3 4)"/>
</clipPath>
</defs>
</svg>
