<svg width="82" height="38" viewBox="0 0 82 38" fill="none" xmlns="http://www.w3.org/2000/svg">
<g clip-path="url(#clip0)">
<path fill-rule="evenodd" clip-rule="evenodd" d="M25.5154 10V10.0079C25.5074 10.0079 22.9765 10 22.3016 12.3659C21.6829 14.5354 19.9394 20.5249 19.8912 20.69H19.4091C19.4091 20.69 17.6255 14.5668 16.9988 12.3581C16.3239 9.99214 13.7849 10 13.7849 10H8V28H13.7849V17.31H14.026H14.267L17.6415 28H21.6588L25.0334 17.3179H25.5154V28H31.3004V10H25.5154Z" fill="#4DB45E"/>
<path fill-rule="evenodd" clip-rule="evenodd" d="M46.6464 10C46.6464 10 44.9511 10.1493 44.1557 11.8865L40.058 20.69H39.5759V10H33.791V28H39.2545C39.2545 28 41.0302 27.8428 41.8256 26.1135L45.8429 17.31H46.325V28H52.1099V10H46.6464Z" fill="#4DB45E"/>
<path fill-rule="evenodd" clip-rule="evenodd" d="M54.6812 18.1747V28H60.4661V22.262H66.7331C69.4648 22.262 71.7788 20.5563 72.6385 18.1747H54.6812Z" fill="#4DB45E"/>
<path fill-rule="evenodd" clip-rule="evenodd" d="M66.733 10H53.8696C54.5124 13.4271 57.1397 16.1782 60.5384 17.0742C61.3097 17.2786 62.1212 17.3886 62.9568 17.3886H72.8715C72.9599 16.9799 73 16.5633 73 16.131C73 12.7432 70.1959 10 66.733 10Z" fill="url(#paint0_linear)"/>
</g>
<defs>
<linearGradient id="paint0_linear" x1="53.8712" y1="13.6943" x2="73" y2="13.6943" gradientUnits="userSpaceOnUse">
<stop offset="0.3" stop-color="#00B4E6"/>
<stop offset="1" stop-color="#088CCB"/>
</linearGradient>
<clipPath id="clip0">
<rect width="65" height="18" fill="white" transform="translate(8 10)"/>
</clipPath>
</defs>
</svg>
