<svg width="82" height="38" viewBox="0 0 82 38" fill="none" xmlns="http://www.w3.org/2000/svg">
<g clip-path="url(#clip0)">
<path d="M22.7855 9.96527C22.0941 10.7422 20.9879 11.3549 19.8816 11.2674C19.7433 10.2169 20.2849 9.10086 20.9187 8.41151C21.6101 7.61275 22.8201 7.04377 23.7996 7C23.9148 8.0942 23.4654 9.16651 22.7855 9.96527ZM23.7881 11.4753C22.1863 11.3877 20.815 12.3397 20.0545 12.3397C19.2824 12.3397 18.1185 11.519 16.851 11.5409C15.2031 11.5628 13.6705 12.4491 12.8293 13.8606C11.1008 16.6836 12.3799 20.8635 14.0508 23.1613C14.8689 24.2992 15.8484 25.5466 17.139 25.5029C18.3605 25.4591 18.8445 24.7479 20.3195 24.7479C21.806 24.7479 22.2324 25.5029 23.523 25.481C24.8597 25.4591 25.701 24.343 26.5191 23.205C27.4525 21.9139 27.8328 20.6556 27.8558 20.5899C27.8328 20.568 25.2746 19.638 25.2515 16.8368C25.2285 14.4952 27.2681 13.3792 27.3603 13.3135C26.208 11.6941 24.4103 11.519 23.7881 11.4753ZM33.0414 8.30209V25.3606H35.8301V19.5285H39.6904C43.2166 19.5285 45.6941 17.2307 45.6941 13.9044C45.6941 10.578 43.2627 8.30209 39.7826 8.30209H33.0414ZM35.8301 10.5343H39.0451C41.465 10.5343 42.8478 11.7598 42.8478 13.9153C42.8478 16.0709 41.465 17.3073 39.0336 17.3073H35.8301V10.5343ZM50.7875 25.4919C52.539 25.4919 54.1638 24.6494 54.9013 23.3145H54.959V25.3606H57.5402V16.8696C57.5402 14.4077 55.466 12.8211 52.274 12.8211C49.3125 12.8211 47.123 14.4296 47.0424 16.6399H49.5545C49.7619 15.5894 50.7875 14.9001 52.1933 14.9001C53.8988 14.9001 54.8553 15.6551 54.8553 17.0447V17.9857L51.3752 18.1827C48.1371 18.3687 46.3855 19.627 46.3855 21.8154C46.3855 24.0257 48.1947 25.4919 50.7875 25.4919ZM51.5365 23.4676C50.05 23.4676 49.1051 22.7892 49.1051 21.7498C49.1051 20.6775 50.0154 20.0538 51.7555 19.9553L54.8553 19.7693V20.7322C54.8553 22.3297 53.4263 23.4676 51.5365 23.4676ZM60.9857 30C63.7053 30 64.9844 29.0152 66.1021 26.0281L70.9996 12.9853H68.1648L64.8806 23.0628H64.823L61.5388 12.9853H58.6234L63.348 25.4044L63.0945 26.1594C62.6681 27.4396 61.9767 27.932 60.7437 27.932C60.5248 27.932 60.0984 27.9101 59.9256 27.8882V29.9343C60.0869 29.9781 60.7783 30 60.9857 30Z" fill="black"/>
</g>
<defs>
<clipPath id="clip0">
<rect width="59" height="23" fill="white" transform="translate(12 7)"/>
</clipPath>
</defs>
</svg>
