<svg width="38" height="38" viewBox="0 0 38 38" fill="none" xmlns="http://www.w3.org/2000/svg">
<path d="M5.87017 11.1185C6.1022 10.1903 6.68711 9.55472 7.56679 9.1811C7.67614 9.13467 7.81371 9.14708 7.89509 9.03692C8.11959 9.02476 8.34397 9.00228 8.56848 9.0021C11.2316 8.99963 13.8948 9.00074 16.558 9C16.9171 8.99988 17.2644 9.04483 17.5807 9.23315C18.1931 9.59775 18.4648 10.3089 18.284 11.084C17.5341 14.2989 16.7836 17.5137 16.0336 20.7287C15.5132 22.9592 14.9746 25.1857 14.4802 27.4219C14.2094 28.6466 12.9864 29.6416 11.7113 29.6231C9.0938 29.5854 6.47539 29.6125 3.85741 29.6101C3.62599 29.6099 3.39457 29.5894 3.16315 29.5783C3.11801 29.5127 3.04083 29.5063 2.97575 29.4893C2.44987 29.3518 2.00012 28.6207 2 28.1561C1.99982 27.7125 2.0954 27.2933 2.20005 26.8699C2.19974 26.8701 5.63572 12.0563 5.87017 11.1185Z" fill="#E4363A"/>
<path d="M13.3736 11.1185C13.6056 10.1903 14.1905 9.55472 15.0702 9.1811C15.1796 9.13467 15.3171 9.14708 15.3985 9.03692C15.623 9.02476 15.8474 9.00228 16.0719 9.0021C18.735 8.99963 21.3983 9.00074 24.0614 9C24.4205 8.99988 24.7678 9.04483 25.0841 9.23315C25.6966 9.59775 25.9682 10.3089 25.7874 11.084C25.0375 14.2989 24.287 17.5137 23.537 20.7287C23.0166 22.9592 22.478 25.1857 21.9837 27.4219C21.7128 28.6466 20.4899 29.6416 19.2147 29.6231C16.5972 29.5854 13.9788 29.6125 11.3608 29.6101C11.1294 29.6099 10.898 29.5894 10.6666 29.5783C10.6214 29.5127 10.5443 29.5063 10.4792 29.4893C9.95329 29.3518 9.50354 28.6207 9.50342 28.1561C9.50323 27.7125 9.59881 27.2933 9.70347 26.8699C9.70316 26.8701 13.1391 12.0563 13.3736 11.1185Z" fill="#004A87"/>
<path d="M22.5313 11.1185C22.7633 10.1903 23.3482 9.55472 24.2279 9.1811C24.3373 9.13467 24.4748 9.14708 24.5562 9.03692C24.7807 9.02476 25.0051 9.00228 25.2296 9.0021C27.8927 8.99963 30.556 9.00074 33.2191 9C33.5783 8.99988 33.9255 9.04483 34.2418 9.23315C34.8543 9.59775 35.1259 10.3089 34.9451 11.084C34.1952 14.2989 33.4447 17.5137 32.6947 20.7287C32.1743 22.9592 31.6358 25.1857 31.1414 27.4219C30.8706 28.6466 29.6476 29.6416 28.3724 29.6231C25.7549 29.5854 23.1365 29.6125 20.5185 29.6101C20.2871 29.6099 20.0557 29.5894 19.8243 29.5783C19.7791 29.5127 19.702 29.5063 19.6369 29.4893C19.111 29.3518 18.6613 28.6207 18.6611 28.1561C18.6609 27.7125 18.7565 27.2933 18.8612 26.8699C18.8609 26.8701 22.2969 12.0563 22.5313 11.1185Z" fill="#008286"/>
<path d="M23.6029 18.5317C23.3896 18.5318 23.1761 18.5353 22.963 18.5301C22.8745 18.528 22.837 18.554 22.8192 18.6465C22.7172 19.1738 22.6053 19.6992 22.5022 20.2264C22.4832 20.3237 22.4488 20.3603 22.3432 20.3563C22.0914 20.3467 21.8388 20.3462 21.5871 20.3562C21.4625 20.3612 21.432 20.3323 21.4586 20.207C21.6189 19.4496 21.772 18.6906 21.9283 17.9323C22.0993 17.1029 22.2734 16.2741 22.4396 15.4438C22.4601 15.341 22.4958 15.3133 22.5982 15.314C23.3109 15.3189 24.0237 15.3174 24.7364 15.3162C24.9072 15.3159 25.0748 15.3369 25.2399 15.3776C25.709 15.493 25.9875 15.7985 26.0306 16.2816C26.1047 17.1098 25.7165 18.0241 24.7925 18.3971C24.5516 18.4944 24.2986 18.5328 24.0394 18.532C23.8938 18.5313 23.7484 18.5317 23.6029 18.5317ZM23.6509 17.6529C23.7818 17.6529 23.9129 17.6537 24.0438 17.6527C24.5725 17.6487 24.8682 17.3913 24.951 16.864C25.0149 16.4566 24.8849 16.2558 24.4842 16.2016C24.1235 16.1528 23.7576 16.1851 23.3941 16.1806C23.3379 16.1799 23.3242 16.2111 23.3142 16.2609C23.228 16.6929 23.1413 17.1249 23.0477 17.5553C23.0294 17.6393 23.0508 17.6554 23.1271 17.6539C23.3016 17.6505 23.4763 17.6528 23.6509 17.6529Z" fill="white"/>
<path d="M30.7198 19.2897C30.7806 19.2459 30.7857 19.1952 30.804 19.1527C31.0624 18.5529 31.3222 17.9537 31.5754 17.3517C31.6114 17.2659 31.6535 17.2364 31.7451 17.2394C31.9631 17.2463 32.1817 17.2471 32.3997 17.2394C32.5186 17.2353 32.5259 17.2654 32.4765 17.365C31.9279 18.4701 31.3812 19.5763 30.8372 20.6838C30.6023 21.1622 30.3737 21.6441 30.039 22.064C29.749 22.4278 29.4139 22.7283 28.9324 22.8078C28.7763 22.8335 28.6199 22.8704 28.4604 22.8283C28.4774 22.68 28.4937 22.5315 28.5121 22.3833C28.5168 22.3452 28.5269 22.3128 28.5726 22.2947C28.9936 22.1286 29.2479 21.7886 29.4726 21.4202C29.6215 21.1761 29.738 20.9149 29.8645 20.6591C29.8921 20.6031 29.8869 20.5483 29.8821 20.4897C29.7978 19.4557 29.7169 18.4215 29.6296 17.3878C29.6201 17.2756 29.6497 17.2452 29.7586 17.247C30.0107 17.2513 30.2632 17.2508 30.5149 17.2388C30.64 17.2329 30.6795 17.2651 30.6809 17.3962C30.6873 18.0214 30.7054 18.6465 30.7198 19.2897Z" fill="white"/>
<path d="M27.4618 20.3303C27.4121 20.3305 27.3623 20.3289 27.3352 20.279C27.2671 20.154 27.1792 20.1778 27.0686 20.2236C26.8579 20.3108 26.637 20.3689 26.407 20.3757C25.9397 20.3896 25.6209 20.1346 25.5647 19.6718C25.4805 18.9784 25.674 18.352 26.1117 17.8158C26.4928 17.3492 27.1635 17.2921 27.6686 17.6582C27.7616 17.7256 27.8288 17.7489 27.9153 17.6623C27.9503 17.6274 28.0382 17.536 28.0832 17.4892C28.1008 17.4709 28.1245 17.4603 28.1499 17.4595C28.3034 17.4542 28.8537 17.4354 28.8825 17.4347C29.0045 17.4314 28.9951 17.4796 28.952 17.6738C28.7624 18.5287 28.5724 19.3834 28.3878 20.2393C28.3685 20.3287 28.3379 20.3603 28.2464 20.3547C28.1162 20.3468 27.5926 20.3297 27.4618 20.3303ZM27.6727 18.6698C27.6669 18.5445 27.656 18.4198 27.5984 18.3041C27.4961 18.0986 27.3101 18.0331 27.1015 18.1299C27.0305 18.1629 26.9667 18.207 26.9129 18.263C26.6172 18.5699 26.4915 18.9387 26.5245 19.3613C26.5312 19.4476 26.5593 19.5312 26.603 19.6084C26.7033 19.785 26.8713 19.8452 27.0601 19.7698C27.1562 19.7313 27.2356 19.6689 27.3051 19.5932C27.5442 19.3321 27.6557 19.0202 27.6727 18.6698Z" fill="white"/>
<path d="M16.5479 17.1666C17.1913 17.1568 17.6398 17.4777 17.7709 18.041C18.0063 19.052 17.3049 20.177 16.2974 20.3942C15.9594 20.467 15.6204 20.4591 15.2995 20.3143C14.9457 20.1546 14.7354 19.8723 14.6834 19.4907C14.5944 18.8378 14.8484 17.8581 15.6572 17.3951C15.9332 17.237 16.2324 17.1707 16.5479 17.1666ZM15.4839 19.0659C15.4829 19.4675 15.6199 19.6862 15.8859 19.7334C16.2116 19.7913 16.4978 19.7065 16.691 19.4245C16.9203 19.0898 17.013 18.7121 16.9722 18.308C16.9455 18.0437 16.7554 17.8702 16.4894 17.8517C16.1718 17.8294 15.9215 17.9521 15.7499 18.22C15.5735 18.4956 15.5024 18.8047 15.4839 19.0659Z" fill="white"/>
<path d="M20.4969 17.1749C20.0425 17.1357 19.6711 17.2914 19.3501 17.6342C19.3671 17.5398 19.376 17.4429 19.4034 17.3516C19.4332 17.2517 19.3953 17.2374 19.3075 17.2399C19.1282 17.2453 18.9483 17.2469 18.7691 17.2393C18.6764 17.2354 18.6466 17.2674 18.6291 17.3566C18.5616 17.7006 18.1665 19.6652 18.0457 20.2483C18.0274 20.3368 18.0482 20.3569 18.1331 20.3548L18.7004 20.3558C18.8013 20.3607 18.8319 20.3202 18.8476 20.2297C18.8873 20.0008 19.1608 18.6617 19.2139 18.4466C19.3109 18.053 19.6237 17.8347 20.003 17.8491C20.2548 17.8587 20.3858 18.0003 20.37 18.2526C20.3649 18.3344 20.3495 18.4161 20.3335 18.4967C20.2176 19.0809 20.1024 19.6652 19.9815 20.2483C19.9632 20.3368 19.984 20.3569 20.0689 20.3548L20.6363 20.3558C20.7372 20.3607 20.7677 20.3202 20.7834 20.2297C20.8231 20.0008 20.874 19.7739 20.9165 19.5455C21.0105 19.041 21.1397 18.5429 21.2041 18.0334C21.2654 17.5492 20.9812 17.2165 20.4969 17.1749Z" fill="white"/>
<path d="M11.0061 17.8638C10.6352 17.9163 10.4314 18.1547 10.3535 18.4964C10.2372 19.0058 10.1431 19.5202 10.043 20.0332C9.98057 20.3532 9.98353 20.3537 9.65517 20.3537C9.53878 20.3537 9.42196 20.347 9.30619 20.3557C9.20394 20.3634 9.18517 20.3283 9.2045 20.234C9.33459 19.5986 9.46074 18.9625 9.5883 18.3266C9.65208 18.0087 9.71926 17.6913 9.77841 17.3726C9.79583 17.2788 9.81972 17.2294 9.93247 17.2369C10.1159 17.2492 10.3008 17.2432 10.485 17.2387C10.5594 17.237 10.5782 17.2629 10.5628 17.3315C10.5405 17.4302 10.5223 17.5298 10.515 17.6422C10.5662 17.5838 10.6204 17.5304 10.6775 17.4817C10.9441 17.255 11.2935 17.1444 11.6424 17.1727C11.6883 17.1764 11.7342 17.1829 11.7802 17.1929C12.1967 17.2834 12.4274 17.6163 12.3543 18.0622C12.2721 18.563 12.1645 19.0598 12.0672 19.5582C12.0237 19.7813 11.9744 20.0034 11.9351 20.2272C11.9195 20.316 11.8934 20.3607 11.7902 20.3554C11.6066 20.3459 11.4221 20.3489 11.2381 20.3543C11.1459 20.3569 11.117 20.3452 11.1394 20.2376C11.2691 19.6126 11.3922 18.9861 11.5098 18.3586C11.5807 17.9795 11.3942 17.8017 11.0061 17.8638Z" fill="white"/>
<path d="M12.8337 20.3523C12.7758 20.3524 12.7327 20.2988 12.7447 20.2422C12.8686 19.6631 12.9901 19.094 13.1123 18.525C13.1946 18.1416 13.2814 17.7591 13.3585 17.3745C13.3778 17.2779 13.406 17.2345 13.5148 17.24L14.126 17.2413C14.2174 17.2389 14.2395 17.2556 14.2178 17.3544C14.006 18.3191 13.8003 19.2853 13.5933 20.2511C13.582 20.3036 13.58 20.3548 13.5013 20.3537C13.2811 20.3507 13.0606 20.3518 12.8337 20.3523Z" fill="white"/>
<path d="M14.4258 16.1087C14.3211 16.1115 14.2164 16.1107 14.1117 16.1102L14.1118 16.1097C14.0838 16.1097 14.0569 16.1098 14.0306 16.1099C14.022 16.1099 14.0135 16.1099 14.0049 16.1099V16.11C13.9105 16.1105 13.8253 16.1111 13.7402 16.1087C13.6842 16.1073 13.6492 16.1206 13.6372 16.1816C13.5978 16.3806 13.5567 16.5791 13.513 16.7771C13.4989 16.8407 13.5147 16.8647 13.5824 16.8629C13.6871 16.8602 13.7918 16.8609 13.8965 16.8615L13.8965 16.8619C13.9244 16.8619 13.9513 16.8618 13.9777 16.8617C13.9862 16.8617 13.9948 16.8618 14.0033 16.8618V16.8616C14.0977 16.8612 14.183 16.8606 14.268 16.8629C14.324 16.8644 14.359 16.851 14.371 16.79C14.4104 16.5911 14.4515 16.3925 14.4952 16.1945C14.5093 16.1309 14.4937 16.107 14.4258 16.1087Z" fill="white"/>
<path d="M6.34126 20.4603C5.95554 20.4514 5.58513 20.4196 5.24597 20.2364C4.84741 20.021 4.63574 19.6848 4.59598 19.2357C4.56017 18.8313 4.67755 18.4476 4.75596 18.0596C4.94286 17.1345 5.14014 16.2116 5.32716 15.2866C5.35174 15.1652 5.39718 15.1235 5.52364 15.1287C5.78988 15.1397 6.05705 15.1374 6.32354 15.1295C6.434 15.1263 6.45228 15.1622 6.43147 15.2614C6.23185 16.2135 6.03476 17.1662 5.83785 18.1189C5.79673 18.318 5.75092 18.5165 5.7214 18.7175C5.65515 19.169 5.89725 19.4724 6.34879 19.5164C7.09208 19.5887 7.59301 19.2155 7.74194 18.4875C7.96311 17.4064 8.18996 16.3265 8.41156 15.2454C8.42768 15.1669 8.45077 15.1285 8.5403 15.1302C8.836 15.1356 9.13188 15.1331 9.42764 15.1316C9.49154 15.1313 9.52501 15.1374 9.5076 15.2199C9.26093 16.3896 9.03562 17.5641 8.76789 18.7289C8.54345 19.7055 7.87809 20.2355 6.90937 20.4097C6.84751 20.4208 6.78521 20.4319 6.72266 20.4369C6.59231 20.4469 6.46154 20.453 6.34126 20.4603Z" fill="white"/>
</svg>
