<svg width="38" height="38" viewBox="0 0 38 38" fill="none" xmlns="http://www.w3.org/2000/svg">
<path d="M23.9269 7C17.2039 7 11.856 12.3924 11.856 19C11.856 25.6835 17.2803 31 23.9269 31C30.5736 31 35.9979 25.6076 35.9979 19C35.9979 12.3924 30.5736 7 23.9269 7ZM23.9269 23.481C21.4822 23.481 19.4194 21.4304 19.4194 19C19.4194 16.5696 21.4822 14.519 23.9269 14.519C26.3717 14.519 28.4344 16.5696 28.4344 19C28.3582 21.4304 26.3717 23.481 23.9269 23.481Z" fill="#8B3FFD"/>
<path d="M11.779 10.4937V27.962H7.50072L2 10.4937H11.779Z" fill="#8B3FFD"/>
</svg>
