<svg width="38" height="38" viewBox="0 0 38 38" fill="none" xmlns="http://www.w3.org/2000/svg">
<path d="M37 27.2611C37 30.3591 34.4218 32.8817 31.2555 32.8817H0V10.6206C0 7.52263 2.57824 5 5.7445 5H37V27.2611Z" fill="white"/>
<path d="M26.8228 21.5521H29.1974C29.2653 21.5521 29.4236 21.5299 29.4915 21.5299C29.9438 21.4414 30.3283 21.0431 30.3283 20.4899C30.3283 19.9588 29.9438 19.5605 29.4915 19.4499C29.4236 19.4277 29.2879 19.4277 29.1974 19.4277H26.8228V21.5521Z" fill="url(#paint0_linear)"/>
<path d="M28.9259 6.88086C26.6642 6.88086 24.8097 8.67326 24.8097 10.9082V15.0905H30.6221C30.7578 15.0905 30.9161 15.0905 31.0292 15.1126C32.3409 15.179 33.3134 15.8429 33.3134 16.9935C33.3134 17.9008 32.6575 18.6753 31.4363 18.8302V18.8744C32.7706 18.963 33.7883 19.6932 33.7883 20.8217C33.7883 22.0388 32.6575 22.8354 31.1649 22.8354H24.7871V31.0229H30.8256C33.0872 31.0229 34.9418 29.2305 34.9418 26.9956V6.88086H28.9259Z" fill="url(#paint1_linear)"/>
<path d="M30.0342 17.259C30.0342 16.728 29.6498 16.3739 29.1974 16.3075C29.1522 16.3075 29.0391 16.2854 28.9713 16.2854H26.8228V18.2327H28.9713C29.0391 18.2327 29.1748 18.2327 29.1974 18.2106C29.6498 18.1442 30.0342 17.7901 30.0342 17.259Z" fill="url(#paint2_linear)"/>
<path d="M6.1744 6.88086C3.91278 6.88086 2.05826 8.67326 2.05826 10.9082V20.8439C3.21168 21.3971 4.41034 21.7511 5.60899 21.7511C7.03381 21.7511 7.80276 20.9102 7.80276 19.7596V15.0684H11.3309V19.7374C11.3309 21.552 10.1775 23.0346 6.26486 23.0346C3.89017 23.0346 2.03564 22.5256 2.03564 22.5256V31.0008H8.07415C10.3358 31.0008 12.1903 29.2084 12.1903 26.9734V6.88086H6.1744Z" fill="url(#paint3_linear)"/>
<path d="M17.5502 6.88086C15.2886 6.88086 13.4341 8.67326 13.4341 10.9082V16.1748C14.4744 15.3118 16.2837 14.7586 19.2012 14.8913C20.7617 14.9577 22.4353 15.3782 22.4353 15.3782V17.082C21.5985 16.6616 20.6034 16.2854 19.3143 16.1969C17.0979 16.042 15.7635 17.1042 15.7635 18.963C15.7635 20.8439 17.0979 21.906 19.3143 21.729C20.6034 21.6405 21.5985 21.2422 22.4353 20.8439V22.5478C22.4353 22.5478 20.7843 22.9682 19.2012 23.0346C16.2837 23.1673 14.4744 22.6141 13.4341 21.7511V31.045H19.4726C21.7342 31.045 23.5887 29.2526 23.5887 27.0177V6.88086H17.5502Z" fill="url(#paint4_linear)"/>
<defs>
<linearGradient id="paint0_linear" x1="24.8061" y1="20.4925" x2="34.9692" y2="20.4925" gradientUnits="userSpaceOnUse">
<stop stop-color="#007940"/>
<stop offset="0.2285" stop-color="#00873F"/>
<stop offset="0.7433" stop-color="#40A737"/>
<stop offset="1" stop-color="#5CB531"/>
</linearGradient>
<linearGradient id="paint1_linear" x1="24.8056" y1="18.9422" x2="34.9695" y2="18.9422" gradientUnits="userSpaceOnUse">
<stop stop-color="#007940"/>
<stop offset="0.2285" stop-color="#00873F"/>
<stop offset="0.7433" stop-color="#40A737"/>
<stop offset="1" stop-color="#5CB531"/>
</linearGradient>
<linearGradient id="paint2_linear" x1="24.8059" y1="17.2563" x2="34.9694" y2="17.2563" gradientUnits="userSpaceOnUse">
<stop stop-color="#007940"/>
<stop offset="0.2285" stop-color="#00873F"/>
<stop offset="0.7433" stop-color="#40A737"/>
<stop offset="1" stop-color="#5CB531"/>
</linearGradient>
<linearGradient id="paint3_linear" x1="2.05347" y1="18.9422" x2="12.3739" y2="18.9422" gradientUnits="userSpaceOnUse">
<stop stop-color="#1F286F"/>
<stop offset="0.4751" stop-color="#004E94"/>
<stop offset="0.8261" stop-color="#0066B1"/>
<stop offset="1" stop-color="#006FBC"/>
</linearGradient>
<linearGradient id="paint4_linear" x1="13.3756" y1="18.9422" x2="23.3991" y2="18.9422" gradientUnits="userSpaceOnUse">
<stop stop-color="#6C2C2F"/>
<stop offset="0.1735" stop-color="#882730"/>
<stop offset="0.5731" stop-color="#BE1833"/>
<stop offset="0.8585" stop-color="#DC0436"/>
<stop offset="1" stop-color="#E60039"/>
</linearGradient>
</defs>
</svg>
