<svg width="32" height="32" viewBox="0 0 32 32" fill="none" xmlns="http://www.w3.org/2000/svg">
<g opacity="0.5">
<path d="M20.4063 14.7634H19.7429V12.7435C19.7429 10.6795 18.0638 9 15.9999 9C13.9353 9 12.2564 10.6793 12.2564 12.7435V14.7634H11.5932C11.2116 14.7634 10.9023 15.0728 10.9023 15.4543V22.3091C10.9023 22.6907 11.2116 23 11.5932 23H20.4064C20.7872 23 21.0973 22.6907 21.0973 22.3091V15.4543C21.0973 15.0728 20.7872 14.7634 20.4063 14.7634ZM13.638 12.7435C13.638 11.441 14.6974 10.3817 15.9999 10.3817C17.302 10.3817 18.3614 11.441 18.3614 12.7435V14.7634H13.638V12.7435Z" fill="#030303"/>
</g>
</svg>
