<svg width="91" height="87" viewBox="0 0 91 87" fill="none" xmlns="http://www.w3.org/2000/svg">
<path d="M3.05326 21.5089H0.00163072C-0.0332135 18.6976 0.490654 15.9073 1.54287 13.2998C2.59509 10.6923 4.15472 8.31945 6.13138 6.31876C8.10803 4.31807 10.4624 2.72935 13.058 1.64468C15.6536 0.560004 18.4388 0.000957482 21.2522 -5.96447e-05C24.0656 -0.00107677 26.8513 0.555955 29.4476 1.63875C32.044 2.72154 34.3995 4.30857 36.3777 6.30783C38.3558 8.30709 39.9171 10.6788 40.9712 13.2856C42.0253 15.8923 42.5512 18.6822 42.5184 21.4936H39.4668C39.4971 19.0843 39.0483 16.693 38.1464 14.4585C37.2445 12.2239 35.9076 10.1906 34.2131 8.47655C32.5186 6.76249 30.5003 5.40181 28.2754 4.47346C26.0505 3.54512 23.6633 3.0676 21.2522 3.06862C18.8412 3.06963 16.4543 3.54917 14.2302 4.47939C12.0061 5.40961 9.98898 6.772 8.29595 8.48749C6.60291 10.203 5.26766 12.2374 4.36768 14.4727C3.46771 16.708 3.02092 19.0997 3.05326 21.5089Z" fill="white"/>
<path d="M3.05641 21.4474H0.004776V61.7748H3.05641V21.4474Z" fill="white"/>
<path d="M42.5187 21.4505H39.467V61.778H42.5187V21.4505Z" fill="white"/>
<path d="M51.5104 21.4996H48.4557C48.5205 15.9095 50.7876 10.5701 54.7653 6.63916C58.743 2.70818 64.1108 0.502368 69.705 0.499941C75.2992 0.497514 80.6689 2.69867 84.6501 6.6262C88.6312 10.5537 90.9028 15.8911 90.9725 21.4812H87.9209C87.9184 16.656 85.998 12.0295 82.5821 8.61937C79.1663 5.20922 74.5347 3.29479 69.7064 3.29723C64.8781 3.29968 60.2485 5.2188 56.8361 8.63241C53.4237 12.046 51.508 16.6745 51.5104 21.4996Z" fill="white"/>
<path d="M90.9722 21.429H87.9206V61.781H90.9722V21.429Z" fill="white"/>
<path d="M51.5074 21.4351H48.4557V61.778H51.5074V21.4351Z" fill="white"/>
<path d="M22.7656 77.0045C22.0512 77.0045 21.3528 76.7928 20.7588 76.3961C20.1648 75.9993 19.702 75.4355 19.4287 74.7758C19.1554 74.1162 19.0841 73.3904 19.2237 72.6902C19.3633 71.99 19.7076 71.3469 20.213 70.8423C20.7183 70.3377 21.3621 69.9942 22.0629 69.8553C22.7637 69.7163 23.4899 69.7883 24.1498 70.0619C24.8096 70.3355 25.3735 70.7986 25.7699 71.3925C26.1664 71.9864 26.3777 72.6845 26.3771 73.3985C26.3763 74.3551 25.9954 75.2723 25.3182 75.9485C24.641 76.6247 23.7229 77.0045 22.7656 77.0045ZM22.7656 70.5487C22.1991 70.5487 21.6454 70.7165 21.1744 71.031C20.7035 71.3455 20.3364 71.7925 20.1196 72.3155C19.9028 72.8385 19.8461 73.414 19.9566 73.9691C20.0671 74.5243 20.3399 75.0343 20.7404 75.4346C21.141 75.8348 21.6513 76.1074 22.2069 76.2179C22.7624 76.3283 23.3383 76.2716 23.8616 76.055C24.3849 75.8384 24.8322 75.4715 25.1469 75.0009C25.4616 74.5302 25.6296 73.9768 25.6296 73.4108C25.6308 73.034 25.5576 72.6607 25.4143 72.3122C25.2709 71.9637 25.0602 71.6469 24.7942 71.3799C24.5282 71.1129 24.2121 70.901 23.864 70.7562C23.5159 70.6115 23.1426 70.5368 22.7656 70.5364V70.5487Z" fill="white"/>
<path d="M39.3897 77.0075H34.4154V69.7893H35.1567V76.2667H39.3897V77.0075Z" fill="white"/>
<path d="M0.140013 72.4456V72.4179C0.122833 72.0641 0.177735 71.7105 0.301389 71.3785C0.425043 71.0465 0.614873 70.7431 0.859371 70.4866C1.10387 70.2301 1.39794 70.0259 1.72376 69.8864C2.04958 69.7469 2.40035 69.675 2.75482 69.675C3.10929 69.675 3.46006 69.7469 3.78588 69.8864C4.1117 70.0259 4.40577 70.2301 4.65027 70.4866C4.89477 70.7431 5.0846 71.0465 5.20825 71.3785C5.33191 71.7105 5.38681 72.0641 5.36963 72.4179H4.61595C4.62617 72.1663 4.58539 71.9152 4.49608 71.6797C4.40677 71.4442 4.27076 71.2292 4.09622 71.0475C3.92167 70.8659 3.7122 70.7213 3.48037 70.6226C3.24854 70.5239 2.99913 70.473 2.74713 70.473C2.49513 70.473 2.24572 70.5239 2.01389 70.6226C1.78206 70.7213 1.57258 70.8659 1.39804 71.0475C1.2235 71.2292 1.08749 71.4442 0.998176 71.6797C0.908864 71.9152 0.868093 72.1663 0.878311 72.4179L0.140013 72.4456Z" fill="white"/>
<path d="M0.8875 72.4117H0.139973V76.983H0.8875V72.4117Z" fill="white"/>
<path d="M5.37275 72.4117H4.62522V76.983H5.37275V72.4117Z" fill="white"/>
<path d="M10.7869 72.4516L10.4116 72.4301C10.4218 72.1785 10.381 71.9274 10.2917 71.6919C10.2024 71.4564 10.0664 71.2414 9.89187 71.0597C9.71733 70.8781 9.50785 70.7335 9.27602 70.6348C9.04419 70.5361 8.79478 70.4852 8.54278 70.4852C8.29078 70.4852 8.04137 70.5361 7.80954 70.6348C7.57771 70.7335 7.36823 70.8781 7.19369 71.0597C7.01915 71.2414 6.88314 71.4564 6.79383 71.6919C6.70451 71.9274 6.66374 72.1785 6.67396 72.4301H5.92643C5.95902 71.759 6.24873 71.1261 6.73553 70.6627C7.22233 70.1992 7.8689 69.9407 8.54124 69.9407C9.21358 69.9407 9.86015 70.1992 10.347 70.6627C10.8338 71.1261 11.1235 71.759 11.156 72.4301L10.7869 72.4516Z" fill="white"/>
<path d="M11.1592 72.4239H10.4117V76.9953H11.1592V72.4239Z" fill="white"/>
<path d="M6.67396 72.4239H5.92643V76.9953H6.67396V72.4239Z" fill="white"/>
<path d="M65.3376 77.0108H60.3233V69.7679H61.0678V76.2668H65.3376V77.0108Z" fill="white"/>
<path d="M65.3193 72.9988H60.6834V73.7428H65.3193V72.9988Z" fill="white"/>
<path d="M65.3193 69.7679H60.6834V70.5119H65.3193V69.7679Z" fill="white"/>
<path d="M90.8923 69.7679H85.8811V70.518H90.8923V69.7679Z" fill="white"/>
<path d="M88.7602 69.8324H88.0096V76.9953H88.7602V69.8324Z" fill="white"/>
<path d="M8.99321 82.1764L5.89236 82.1813L5.89353 82.9222L8.99438 82.9173L8.99321 82.1764Z" fill="white"/>
<path fill-rule="evenodd" clip-rule="evenodd" d="M8.44884 81.5698C8.32975 81.1937 8.13061 80.8479 7.8651 80.556C7.59959 80.2641 7.27401 80.0332 6.91072 79.879C6.75443 79.8097 6.59161 79.7561 6.42468 79.7191C6.21379 79.6703 5.99821 79.6445 5.78174 79.6422C5.03026 79.6447 4.31025 79.9441 3.77887 80.4751C3.24748 81.0061 2.94788 81.7257 2.94545 82.4767C2.94162 83.2277 3.23588 83.9496 3.76373 84.4841C4.29494 85.0149 5.01516 85.3134 5.76636 85.3142C6.51998 85.315 7.24314 85.017 7.77718 84.4856C8.31122 83.9542 8.61252 83.2329 8.61496 82.4797V82.1723H9.35634V82.4797C9.35593 82.9498 9.26279 83.4151 9.08224 83.8491C8.90169 84.2832 8.63727 84.6773 8.30411 85.0091C7.97096 85.3409 7.5756 85.6038 7.14068 85.7828C6.70575 85.9617 6.23978 86.0532 5.76944 86.052C5.30004 86.0526 4.83516 85.9603 4.40167 85.7804C3.96818 85.6004 3.57465 85.3365 3.24384 85.0037C2.57417 84.3329 2.19803 83.4242 2.19792 82.4767C2.19955 81.53 2.57678 80.6227 3.24688 79.9536C3.91698 79.2845 4.82525 78.9083 5.77251 78.9075C6.04467 78.9071 6.31603 78.937 6.58157 78.9967C6.79206 79.0466 6.9979 79.1145 7.19681 79.1996C7.69534 79.4117 8.13818 79.7359 8.49085 80.147C8.84353 80.5581 9.09654 81.045 9.23021 81.5698H8.44884Z" fill="white"/>
<path d="M50.5783 73.2632V72.5377C50.8492 72.5377 51.109 72.4301 51.3005 72.2387C51.4921 72.0473 51.5997 71.7877 51.5997 71.517C51.5997 71.2463 51.4921 70.9867 51.3005 70.7953C51.109 70.6039 50.8492 70.4964 50.5783 70.4964V69.7678C50.8142 69.7579 51.0496 69.7958 51.2704 69.8792C51.4912 69.9625 51.6928 70.0897 51.8632 70.2529C52.0336 70.4162 52.1691 70.6122 52.2617 70.8292C52.3543 71.0462 52.4021 71.2796 52.4021 71.5155C52.4021 71.7514 52.3543 71.9848 52.2617 72.2018C52.1691 72.4188 52.0336 72.6148 51.8632 72.778C51.6928 72.9413 51.4912 73.0684 51.2704 73.1518C51.0496 73.2352 50.8142 73.2731 50.5783 73.2632Z" fill="white"/>
<path d="M50.5784 69.7679H47.699V70.4934H50.5784V69.7679Z" fill="white"/>
<path d="M50.5784 72.5377H47.699V73.2632H50.5784V72.5377Z" fill="white"/>
<path d="M48.0743 69.7709H47.3329V77.0014H48.0743V69.7709Z" fill="white"/>
<path d="M50.5783 77.0046V76.2822C50.7162 76.2898 50.8541 76.2692 50.9836 76.2217C51.1132 76.1742 51.2318 76.1008 51.332 76.006C51.4322 75.9112 51.5121 75.797 51.5667 75.6703C51.6212 75.5436 51.6494 75.4071 51.6494 75.2692C51.6494 75.1313 51.6212 74.9948 51.5667 74.8681C51.5121 74.7414 51.4322 74.6272 51.332 74.5324C51.2318 74.4376 51.1132 74.3642 50.9836 74.3167C50.8541 74.2692 50.7162 74.2487 50.5783 74.2563V73.5338C50.8125 73.524 51.0463 73.5616 51.2656 73.6443C51.4849 73.7271 51.6851 73.8533 51.8543 74.0155C52.0235 74.1776 52.1582 74.3722 52.2501 74.5877C52.3421 74.8031 52.3895 75.035 52.3895 75.2692C52.3895 75.5035 52.3421 75.7353 52.2501 75.9507C52.1582 76.1662 52.0235 76.3609 51.8543 76.523C51.6851 76.6851 51.4849 76.8113 51.2656 76.8941C51.0463 76.9769 50.8125 77.0145 50.5783 77.0046Z" fill="white"/>
<path d="M50.5784 73.5338H47.699V74.2562H50.5784V73.5338Z" fill="white"/>
<path d="M50.5784 76.2821H47.699V77.0046H50.5784V76.2821Z" fill="white"/>
<path d="M39.3777 86.0703H34.4065V78.8521H35.1478V85.3294H39.3777V86.0703Z" fill="white"/>
<path d="M24.5101 81.4745V81.453C24.5101 80.9613 24.3147 80.4898 23.9668 80.1422C23.619 79.7945 23.1471 79.5992 22.6552 79.5992C22.1632 79.5992 21.6914 79.7945 21.3435 80.1422C20.9956 80.4898 20.8002 80.9613 20.8002 81.453H20.0588C20.0588 80.7648 20.3324 80.1049 20.8193 79.6183C21.3062 79.1317 21.9666 78.8583 22.6552 78.8583C23.3438 78.8583 24.0041 79.1317 24.4911 79.6183C24.978 80.1049 25.2515 80.7648 25.2515 81.453L24.5101 81.4745Z" fill="white"/>
<path d="M25.2516 81.4498H24.5102V85.9873H25.2516V81.4498Z" fill="white"/>
<path d="M20.8002 81.4498H20.0588V85.9873H20.8002V81.4498Z" fill="white"/>
<path d="M24.5867 82.1644L20.6675 82.1705L20.6687 82.936L24.5879 82.9298L24.5867 82.1644Z" fill="white"/>
<path d="M52.3377 86.0703H47.3665V78.8521H48.1079V85.3294H52.3377V86.0703Z" fill="white"/>
<path d="M65.3348 86.0704H60.3205V78.8307H61.065V85.3265H65.3348V86.0704Z" fill="white"/>
<path d="M65.3162 82.0616H60.6803V82.8055H65.3162V82.0616Z" fill="white"/>
<path d="M65.3162 78.8307H60.6803V79.5746H65.3162V78.8307Z" fill="white"/>
<path d="M76.4366 73.2632V72.5377C76.7075 72.5377 76.9673 72.4301 77.1588 72.2387C77.3503 72.0473 77.4579 71.7877 77.4579 71.517C77.4579 71.2463 77.3503 70.9867 77.1588 70.7953C76.9673 70.6039 76.7075 70.4964 76.4366 70.4964V69.7678C76.6725 69.7579 76.9079 69.7958 77.1287 69.8792C77.3495 69.9625 77.5511 70.0897 77.7215 70.2529C77.8918 70.4162 78.0274 70.6122 78.12 70.8292C78.2126 71.0462 78.2604 71.2796 78.2604 71.5155C78.2604 71.7514 78.2126 71.9848 78.12 72.2018C78.0274 72.4188 77.8918 72.6148 77.7215 72.778C77.5511 72.9413 77.3495 73.0684 77.1287 73.1518C76.9079 73.2352 76.6725 73.2731 76.4366 73.2632Z" fill="white"/>
<path d="M76.4401 69.7679H73.5608V70.4934H76.4401V69.7679Z" fill="white"/>
<path d="M76.4401 72.5377H73.5608V73.2632H76.4401V72.5377Z" fill="white"/>
<path d="M73.9328 69.7709H73.1914V77.0107H73.9328V69.7709Z" fill="white"/>
<path d="M78.2085 76.9984H77.4856V75.2122C77.4668 74.9489 77.3474 74.7028 77.1522 74.5249C76.9569 74.347 76.7008 74.2508 76.4366 74.2562V73.5337C76.8878 73.5291 77.3233 73.6983 77.6528 74.0064C77.9822 74.3144 78.1802 74.7375 78.2055 75.1876C78.2085 75.2245 78.2085 76.9799 78.2085 76.9984Z" fill="white"/>
<path d="M76.4401 73.5338H73.5608V74.2562H76.4401V73.5338Z" fill="white"/>
<path d="M76.4308 82.3321V81.5943C76.7016 81.5943 76.9614 81.4868 77.1529 81.2954C77.3445 81.104 77.4521 80.8444 77.4521 80.5737C77.4521 80.303 77.3445 80.0434 77.1529 79.852C76.9614 79.6606 76.7016 79.553 76.4308 79.553V78.8244C76.6666 78.8146 76.902 78.8524 77.1228 78.9358C77.3436 79.0192 77.5453 79.1463 77.7156 79.3096C77.886 79.4729 78.0216 79.6689 78.1142 79.8858C78.2068 80.1028 78.2545 80.3362 78.2545 80.5721C78.2545 80.808 78.2068 81.0415 78.1142 81.2584C78.0216 81.4754 77.886 81.6714 77.7156 81.8347C77.5453 81.9979 77.3436 82.1251 77.1228 82.2085C76.902 82.2918 76.6666 82.3297 76.4308 82.3198V82.3321Z" fill="white"/>
<path d="M76.4306 78.8246H73.5512V79.5501H76.4306V78.8246Z" fill="white"/>
<path d="M76.4306 81.5943H73.5512V82.3198H76.4306V81.5943Z" fill="white"/>
<path d="M73.9267 78.8275H73.1853V86.0704H73.9267V78.8275Z" fill="white"/>
<path d="M78.2027 86.055H77.4798V84.2689C77.4609 84.0055 77.3415 83.7594 77.1463 83.5815C76.9511 83.4036 76.6949 83.3074 76.4308 83.3128V82.5903C76.8819 82.5857 77.3175 82.755 77.6469 83.063C77.9764 83.371 78.1743 83.7941 78.1996 84.2443C78.2027 84.2812 78.2027 86.0365 78.2027 86.055Z" fill="white"/>
<path d="M76.4306 82.5904H73.5512V83.3128H76.4306V82.5904Z" fill="white"/>
<path d="M88.573 82.7902H88.1823V86.0489H88.573V82.7902Z" fill="white"/>
<path d="M88.4039 83.0422C87.715 83.0413 87.0546 82.7673 86.5678 82.2802C86.081 81.7931 85.8075 81.1329 85.8075 80.4444H86.5489C86.5489 80.9361 86.7443 81.4076 87.0922 81.7552C87.4401 82.1029 87.9119 82.2982 88.4039 82.2982C88.8958 82.2982 89.3677 82.1029 89.7155 81.7552C90.0634 81.4076 90.2588 80.9361 90.2588 80.4444L91.0002 80.426V80.4444C90.9994 81.1326 90.7257 81.7924 90.239 82.2793C89.7524 82.7662 89.0925 83.0405 88.4039 83.0422Z" fill="white"/>
<path d="M90.9996 78.8307H90.2582V80.4508H90.9996V78.8307Z" fill="white"/>
<path d="M86.5489 78.8275H85.8075V80.4507H86.5489V78.8275Z" fill="white"/>
</svg>
