<svg width="32" height="32" viewBox="0 0 32 32" fill="none" xmlns="http://www.w3.org/2000/svg">
<path fill-rule="evenodd" clip-rule="evenodd" d="M6.80003 28.1669L26 28.1669V29L6 29L6 4L26 4V4.83306L6.80003 4.83306L6.80003 28.1669Z" fill="black" stroke="black" stroke-miterlimit="10"/>
<path d="M13.2929 15.2929C12.9024 15.6834 12.9024 16.3166 13.2929 16.7071L19.6569 23.0711C20.0474 23.4616 20.6805 23.4616 21.0711 23.0711C21.4616 22.6805 21.4616 22.0474 21.0711 21.6569L15.4142 16L21.0711 10.3431C21.4616 9.95262 21.4616 9.31946 21.0711 8.92893C20.6805 8.53841 20.0474 8.53841 19.6569 8.92893L13.2929 15.2929ZM26 15L14 15V17H26V15Z" fill="black"/>
</svg>
