<svg width="120" height="120" viewBox="0 0 120 120" fill="none" xmlns="http://www.w3.org/2000/svg">
<path d="M18.0533 38.509H15.0016C14.9668 35.6977 15.4907 32.9074 16.5429 30.2999C17.5951 27.6924 19.1547 25.3195 21.1314 23.3188C23.108 21.3181 25.4624 19.7294 28.058 18.6447C30.6536 17.5601 33.4388 17.001 36.2522 17C39.0656 16.999 41.8513 17.556 44.4476 18.6388C47.044 19.7216 49.3995 21.3086 51.3777 23.3079C53.3558 25.3071 54.9171 27.6789 55.9712 30.2856C57.0253 32.8924 57.5512 35.6823 57.5184 38.4936H54.4668C54.4971 36.0843 54.0483 33.6931 53.1464 31.4585C52.2445 29.224 50.9076 27.1907 49.2131 25.4766C47.5186 23.7626 45.5003 22.4019 43.2754 21.4735C41.0505 20.5452 38.6633 20.0677 36.2522 20.0687C33.8412 20.0697 31.4543 20.5492 29.2302 21.4795C27.0061 22.4097 24.989 23.7721 23.2959 25.4875C21.6029 27.203 20.2677 29.2375 19.3677 31.4728C18.4677 33.7081 18.0209 36.0997 18.0533 38.509Z" fill="#1A1A18"/>
<path d="M18.0563 38.4473H15.0047V78.7747H18.0563V38.4473Z" fill="#1A1A18"/>
<path d="M57.5184 38.4507H54.4668V78.7781H57.5184V38.4507Z" fill="#1A1A18"/>
<path d="M66.5103 38.4997H63.4555C63.5204 32.9095 65.7874 27.5702 69.7651 23.6392C73.7428 19.7082 79.1106 17.5024 84.7048 17.5C90.299 17.4976 95.6688 19.6987 99.6499 23.6263C103.631 27.5538 105.903 32.8912 105.972 38.4812H102.921C102.918 33.6561 100.998 29.0296 97.582 25.6194C94.1661 22.2093 89.5346 20.2948 84.7062 20.2973C79.8779 20.2997 75.2483 22.2189 71.8359 25.6325C68.4235 29.0461 66.5078 33.6746 66.5103 38.4997Z" fill="#1A1A18"/>
<path d="M105.972 38.4292H102.921V78.7813H105.972V38.4292Z" fill="#1A1A18"/>
<path d="M66.5072 38.4351H63.4555V78.7779H66.5072V38.4351Z" fill="#1A1A18"/>
<path d="M37.7658 94.0044C37.0514 94.0044 36.353 93.7926 35.7591 93.3959C35.1651 92.9992 34.7022 92.4353 34.4289 91.7757C34.1557 91.116 34.0843 90.3902 34.224 89.69C34.3636 88.9898 34.7078 88.3468 35.2132 87.8421C35.7186 87.3375 36.3624 86.994 37.0632 86.8551C37.7639 86.7162 38.4902 86.7881 39.15 87.0617C39.8099 87.3354 40.3737 87.7984 40.7702 88.3924C41.1667 88.9863 41.378 89.6844 41.3773 90.3983C41.3765 91.355 40.9957 92.2722 40.3185 92.9484C39.6413 93.6245 38.7231 94.0044 37.7658 94.0044ZM37.7658 87.5485C37.1994 87.5485 36.6457 87.7164 36.1747 88.0309C35.7037 88.3454 35.3366 88.7924 35.1199 89.3154C34.9031 89.8383 34.8464 90.4138 34.9569 90.969C35.0674 91.5242 35.3402 92.0342 35.7407 92.4344C36.1412 92.8347 36.6515 93.1073 37.2071 93.2177C37.7627 93.3281 38.3385 93.2715 38.8618 93.0548C39.3852 92.8382 39.8325 92.4714 40.1472 92.0007C40.4619 91.53 40.6298 90.9767 40.6298 90.4106C40.631 90.0338 40.5579 89.6605 40.4145 89.3121C40.2712 88.9636 40.0605 88.6468 39.7944 88.3798C39.5284 88.1128 39.2123 87.9008 38.8642 87.7561C38.5161 87.6114 38.1429 87.5366 37.7658 87.5362V87.5485Z" fill="#1A1A18"/>
<path d="M54.3899 94.0078H49.4156V86.7896H50.1569V93.2669H54.3899V94.0078Z" fill="#1A1A18"/>
<path d="M15.1401 89.4454V89.4177C15.1229 89.0639 15.1778 88.7103 15.3014 88.3783C15.4251 88.0463 15.6149 87.7429 15.8594 87.4864C16.1039 87.23 16.398 87.0258 16.7238 86.8863C17.0496 86.7467 17.4004 86.6748 17.7549 86.6748C18.1093 86.6748 18.4601 86.7467 18.7859 86.8863C19.1117 87.0258 19.4058 87.23 19.6503 87.4864C19.8948 87.7429 20.0846 88.0463 20.2083 88.3783C20.3319 88.7103 20.3868 89.0639 20.3697 89.4177H19.616C19.6262 89.1661 19.5854 88.915 19.4961 88.6795C19.4068 88.444 19.2708 88.229 19.0963 88.0474C18.9217 87.8657 18.7122 87.7212 18.4804 87.6225C18.2486 87.5237 17.9992 87.4728 17.7472 87.4728C17.4952 87.4728 17.2458 87.5237 17.0139 87.6225C16.7821 87.7212 16.5726 87.8657 16.3981 88.0474C16.2235 88.229 16.0875 88.444 15.9982 88.6795C15.9089 88.915 15.8681 89.1661 15.8784 89.4177L15.1401 89.4454Z" fill="#1A1A18"/>
<path d="M15.8876 89.4116H15.1401V93.983H15.8876V89.4116Z" fill="#1A1A18"/>
<path d="M20.3727 89.4116H19.6252V93.983H20.3727V89.4116Z" fill="#1A1A18"/>
<path d="M25.787 89.4518L25.4116 89.4303C25.4219 89.1786 25.3811 88.9275 25.2918 88.6921C25.2025 88.4566 25.0665 88.2415 24.8919 88.0599C24.7174 87.8782 24.5079 87.7337 24.2761 87.635C24.0442 87.5363 23.7948 87.4854 23.5428 87.4854C23.2908 87.4854 23.0414 87.5363 22.8096 87.635C22.5778 87.7337 22.3683 87.8782 22.1937 88.0599C22.0192 88.2415 21.8832 88.4566 21.7939 88.6921C21.7046 88.9275 21.6638 89.1786 21.674 89.4303H20.9265C20.9591 88.7592 21.2488 88.1263 21.7356 87.6629C22.2224 87.1994 22.8689 86.9409 23.5413 86.9409C24.2136 86.9409 24.8602 87.1994 25.347 87.6629C25.8338 88.1263 26.1235 88.7592 26.1561 89.4303L25.787 89.4518Z" fill="#1A1A18"/>
<path d="M26.1592 89.4238H25.4116V93.9952H26.1592V89.4238Z" fill="#1A1A18"/>
<path d="M21.674 89.4238H20.9265V93.9952H21.674V89.4238Z" fill="#1A1A18"/>
<path d="M80.338 94.0109H75.3237V86.7681H76.0681V93.2669H80.338V94.0109Z" fill="#1A1A18"/>
<path d="M80.3195 89.999H75.6836V90.743H80.3195V89.999Z" fill="#1A1A18"/>
<path d="M80.3195 86.7681H75.6836V87.512H80.3195V86.7681Z" fill="#1A1A18"/>
<path d="M105.892 86.7681H100.881V87.5182H105.892V86.7681Z" fill="#1A1A18"/>
<path d="M103.76 86.8325H103.01V93.9954H103.76V86.8325Z" fill="#1A1A18"/>
<path d="M23.9931 99.1768L20.8922 99.1816L20.8934 99.9225L23.9942 99.9177L23.9931 99.1768Z" fill="#1A1A18"/>
<path fill-rule="evenodd" clip-rule="evenodd" d="M23.449 98.57C23.3299 98.1939 23.1308 97.8481 22.8653 97.5562C22.5997 97.2644 22.2742 97.0334 21.9109 96.8792C21.7546 96.8099 21.5918 96.7563 21.4248 96.7193C21.2139 96.6705 20.9984 96.6447 20.7819 96.6425C20.0304 96.6449 19.3104 96.9443 18.779 97.4753C18.2476 98.0064 17.948 98.7259 17.9456 99.4769C17.9418 100.228 18.236 100.95 18.7639 101.484C19.2951 102.015 20.0153 102.314 20.7665 102.314C21.5201 102.315 22.2433 102.017 22.7773 101.486C23.3114 100.954 23.6127 100.233 23.6151 99.48V99.1725H24.3565V99.48C24.3561 99.95 24.2629 100.415 24.0824 100.849C23.9018 101.283 23.6374 101.678 23.3043 102.009C22.9711 102.341 22.5758 102.604 22.1408 102.783C21.7059 102.962 21.2399 103.053 20.7696 103.052C20.3002 103.053 19.8353 102.961 19.4018 102.781C18.9683 102.601 18.5748 102.337 18.244 102.004C17.5743 101.333 17.1982 100.424 17.1981 99.4769C17.1997 98.5302 17.5769 97.6229 18.247 96.9538C18.9171 96.2847 19.8254 95.9085 20.7727 95.9077C21.0448 95.9073 21.3162 95.9372 21.5817 95.9969C21.7922 96.0468 21.9981 96.1147 22.197 96.1998C22.6955 96.4119 23.1383 96.7362 23.491 97.1473C23.8437 97.5584 24.0967 98.0452 24.2304 98.57H23.449Z" fill="#1A1A18"/>
<path d="M65.5782 90.263V89.5375C65.849 89.5375 66.1088 89.43 66.3003 89.2386C66.4919 89.0472 66.5995 88.7876 66.5995 88.5169C66.5995 88.2462 66.4919 87.9866 66.3003 87.7952C66.1088 87.6038 65.849 87.4962 65.5782 87.4962V86.7677C65.814 86.7578 66.0494 86.7956 66.2702 86.879C66.491 86.9624 66.6926 87.0895 66.863 87.2528C67.0334 87.4161 67.1689 87.6121 67.2616 87.829C67.3542 88.046 67.4019 88.2795 67.4019 88.5153C67.4019 88.7512 67.3542 88.9847 67.2616 89.2016C67.1689 89.4186 67.0334 89.6146 66.863 89.7779C66.6926 89.9411 66.491 90.0683 66.2702 90.1517C66.0494 90.235 65.814 90.2729 65.5782 90.263Z" fill="#1A1A18"/>
<path d="M65.5782 86.7681H62.6988V87.4936H65.5782V86.7681Z" fill="#1A1A18"/>
<path d="M65.5782 89.5376H62.6988V90.2631H65.5782V89.5376Z" fill="#1A1A18"/>
<path d="M63.0741 86.771H62.3327V94.0015H63.0741V86.771Z" fill="#1A1A18"/>
<path d="M65.5782 94.0045V93.2821C65.716 93.2897 65.8539 93.2691 65.9835 93.2216C66.113 93.1742 66.2316 93.1008 66.3318 93.006C66.4321 92.9112 66.5119 92.7969 66.5665 92.6702C66.621 92.5436 66.6492 92.4071 66.6492 92.2692C66.6492 92.1312 66.621 91.9948 66.5665 91.8681C66.5119 91.7414 66.4321 91.6271 66.3318 91.5323C66.2316 91.4375 66.113 91.3641 65.9835 91.3167C65.8539 91.2692 65.716 91.2486 65.5782 91.2562V90.5338C65.8124 90.5239 66.0461 90.5615 66.2654 90.6443C66.4847 90.727 66.6849 90.8533 66.8541 91.0154C67.0233 91.1775 67.158 91.3722 67.25 91.5876C67.3419 91.8031 67.3893 92.0349 67.3893 92.2692C67.3893 92.5034 67.3419 92.7352 67.25 92.9507C67.158 93.1661 67.0233 93.3608 66.8541 93.5229C66.6849 93.685 66.4847 93.8113 66.2654 93.894C66.0461 93.9768 65.8124 94.0144 65.5782 94.0045Z" fill="#1A1A18"/>
<path d="M65.5782 90.5337H62.6988V91.2561H65.5782V90.5337Z" fill="#1A1A18"/>
<path d="M65.5782 93.2822H62.6988V94.0047H65.5782V93.2822Z" fill="#1A1A18"/>
<path d="M54.3776 103.07H49.4063V95.8521H50.1477V102.329H54.3776V103.07Z" fill="#1A1A18"/>
<path d="M39.5101 98.4746V98.453C39.5101 97.9614 39.3146 97.4899 38.9668 97.1422C38.6189 96.7946 38.1471 96.5993 37.6551 96.5993C37.1631 96.5993 36.6913 96.7946 36.3434 97.1422C35.9956 97.4899 35.8001 97.9614 35.8001 98.453H35.0587C35.0587 97.7649 35.3323 97.1049 35.8192 96.6184C36.3061 96.1318 36.9665 95.8584 37.6551 95.8584C38.3437 95.8584 39.0041 96.1318 39.491 96.6184C39.9779 97.1049 40.2514 97.7649 40.2514 98.453L39.5101 98.4746Z" fill="#1A1A18"/>
<path d="M40.2514 98.4497H39.5101V102.987H40.2514V98.4497Z" fill="#1A1A18"/>
<path d="M35.8001 98.4497H35.0587V102.987H35.8001V98.4497Z" fill="#1A1A18"/>
<path d="M39.5865 99.1643L35.6674 99.1704L35.6686 99.9359L39.5877 99.9297L39.5865 99.1643Z" fill="#1A1A18"/>
<path d="M67.3378 103.07H62.3666V95.8521H63.1079V102.329H67.3378V103.07Z" fill="#1A1A18"/>
<path d="M80.3349 103.07H75.3206V95.8306H76.0651V102.326H80.3349V103.07Z" fill="#1A1A18"/>
<path d="M80.3164 99.0615H75.6805V99.8055H80.3164V99.0615Z" fill="#1A1A18"/>
<path d="M80.3164 95.8306H75.6805V96.5745H80.3164V95.8306Z" fill="#1A1A18"/>
<path d="M91.4371 90.263V89.5375C91.7079 89.5375 91.9677 89.43 92.1592 89.2386C92.3508 89.0472 92.4584 88.7876 92.4584 88.5169C92.4584 88.2462 92.3508 87.9866 92.1592 87.7952C91.9677 87.6038 91.7079 87.4962 91.4371 87.4962V86.7677C91.6729 86.7578 91.9083 86.7956 92.1291 86.879C92.3499 86.9624 92.5515 87.0895 92.7219 87.2528C92.8923 87.4161 93.0278 87.6121 93.1205 87.829C93.2131 88.046 93.2608 88.2795 93.2608 88.5153C93.2608 88.7512 93.2131 88.9847 93.1205 89.2016C93.0278 89.4186 92.8923 89.6146 92.7219 89.7779C92.5515 89.9411 92.3499 90.0683 92.1291 90.1517C91.9083 90.235 91.6729 90.2729 91.4371 90.263Z" fill="#1A1A18"/>
<path d="M91.4401 86.7681H88.5608V87.4936H91.4401V86.7681Z" fill="#1A1A18"/>
<path d="M91.4401 89.5376H88.5608V90.2631H91.4401V89.5376Z" fill="#1A1A18"/>
<path d="M88.933 86.771H88.1916V94.0107H88.933V86.771Z" fill="#1A1A18"/>
<path d="M93.209 93.9984H92.4861V92.2123C92.4672 91.9489 92.3478 91.7029 92.1526 91.5249C91.9574 91.347 91.7012 91.2508 91.4371 91.2562V90.5338C91.8882 90.5291 92.3238 90.6984 92.6532 91.0064C92.9826 91.3145 93.1806 91.7376 93.2059 92.1877C93.209 92.2246 93.209 93.98 93.209 93.9984Z" fill="#1A1A18"/>
<path d="M91.4401 90.5337H88.5608V91.2561H91.4401V90.5337Z" fill="#1A1A18"/>
<path d="M91.4309 99.332V98.5942C91.7018 98.5942 91.9615 98.4866 92.1531 98.2952C92.3446 98.1038 92.4522 97.8442 92.4522 97.5735C92.4522 97.3028 92.3446 97.0432 92.1531 96.8518C91.9615 96.6604 91.7018 96.5529 91.4309 96.5529V95.8243C91.6667 95.8144 91.9021 95.8523 92.1229 95.9357C92.3437 96.019 92.5454 96.1462 92.7158 96.3094C92.8861 96.4727 93.0217 96.6687 93.1143 96.8857C93.2069 97.1026 93.2546 97.3361 93.2546 97.572C93.2546 97.8079 93.2069 98.0413 93.1143 98.2583C93.0217 98.4752 92.8861 98.6713 92.7158 98.8345C92.5454 98.9978 92.3437 99.1249 92.1229 99.2083C91.9021 99.2917 91.6667 99.3295 91.4309 99.3197V99.332Z" fill="#1A1A18"/>
<path d="M91.4309 95.8247H88.5515V96.5502H91.4309V95.8247Z" fill="#1A1A18"/>
<path d="M91.4309 98.5942H88.5515V99.3197H91.4309V98.5942Z" fill="#1A1A18"/>
<path d="M88.9268 95.8276H88.1855V103.07H88.9268V95.8276Z" fill="#1A1A18"/>
<path d="M93.2028 103.055H92.4799V101.269C92.461 101.006 92.3417 100.76 92.1464 100.582C91.9512 100.404 91.6951 100.307 91.4309 100.313V99.5904C91.882 99.5858 92.3176 99.7551 92.647 100.063C92.9765 100.371 93.1744 100.794 93.1997 101.244C93.2028 101.281 93.2028 103.037 93.2028 103.055Z" fill="#1A1A18"/>
<path d="M91.4309 99.5903H88.5515V100.313H91.4309V99.5903Z" fill="#1A1A18"/>
<path d="M103.573 99.79H103.182V103.049H103.573V99.79Z" fill="#1A1A18"/>
<path d="M103.404 100.042C102.715 100.042 102.054 99.7676 101.568 99.2805C101.081 98.7934 100.807 98.1331 100.807 97.4447H101.549C101.549 97.9364 101.744 98.4079 102.092 98.7555C102.44 99.1032 102.912 99.2985 103.404 99.2985C103.896 99.2985 104.367 99.1032 104.715 98.7555C105.063 98.4079 105.259 97.9364 105.259 97.4447L106 97.4263V97.4447C105.999 98.1329 105.725 98.7927 105.239 99.2796C104.752 99.7665 104.092 100.041 103.404 100.042Z" fill="#1A1A18"/>
<path d="M106 95.8306H105.259V97.4507H106V95.8306Z" fill="#1A1A18"/>
<path d="M101.549 95.8276H100.807V97.4508H101.549V95.8276Z" fill="#1A1A18"/>
</svg>
