<svg width="32" height="32" viewBox="0 0 32 32" fill="none" xmlns="http://www.w3.org/2000/svg">
<path d="M16.1428 5.71021C12.3265 5.71021 9.2041 8.83264 9.2041 12.649C9.2041 16.4653 12.3265 19.5877 16.1428 19.5877C19.9592 19.5877 23.0816 16.4653 23.0816 12.649C23.0816 8.83264 19.9592 5.71021 16.1428 5.71021ZM16.1428 17.853C13.2806 17.853 10.9388 15.5112 10.9388 12.649C10.9388 9.78672 13.2806 7.44489 16.1428 7.44489C19.0051 7.44489 21.3469 9.78672 21.3469 12.649C21.3469 15.5112 19.0051 17.853 16.1428 17.853Z" fill="black"/>
<path d="M26.8111 10.3939C26.4642 10.1337 26.1173 9.70005 26.0305 9.52658C25.9438 9.26638 26.0305 8.74597 26.1173 8.22557C26.2907 7.35822 26.4642 6.40415 25.9438 5.5368C25.3367 4.75619 24.3826 4.66946 23.4285 4.49599C22.9948 4.40926 22.3877 4.40926 22.2142 4.23579C22.0407 4.06232 21.7805 3.54191 21.6071 3.19498C21.2601 2.41437 20.8265 1.46029 19.8724 1.11335C18.9183 0.853147 18.051 1.28682 17.3571 1.72049C16.9234 1.98069 16.403 2.2409 16.1428 2.2409C15.8826 2.2409 15.3622 1.98069 14.9285 1.72049C14.1479 1.28682 13.2806 0.766413 12.4132 1.11335C11.4592 1.46029 11.0255 2.32763 10.6785 3.19498C10.5051 3.62865 10.2449 4.06232 9.98467 4.23579C9.8112 4.40926 9.2908 4.49599 8.77039 4.49599C7.90305 4.58272 6.86223 4.75619 6.25509 5.5368C5.73469 6.31741 5.90816 7.27149 6.08162 8.13883C6.16836 8.5725 6.25509 9.17965 6.16836 9.43985C6.08162 9.70005 5.64795 10.047 5.38775 10.3072C4.78061 11.0011 4 11.6949 4 12.649C4 13.6031 4.78061 14.3837 5.47448 14.9908C5.82142 15.2511 6.16836 15.6847 6.25509 15.8582C6.34183 16.1184 6.25509 16.6388 6.16836 17.1592C5.99489 18.0266 5.82142 18.9806 6.34183 19.848C6.94897 20.6286 7.90305 20.7153 8.85712 20.8888C9.11733 20.8888 9.46426 20.9755 9.72447 21.0623V28.2612C9.72447 28.9551 10.0714 29.5622 10.6785 29.8224C10.9387 29.9092 11.199 29.9959 11.4592 29.9959C11.8061 29.9959 12.153 29.9092 12.5 29.649L16.2295 26.8735L19.9591 29.649C20.4795 30.0826 21.1734 30.0826 21.7805 29.8224C22.3877 29.5622 22.7346 28.9551 22.7346 28.2612V20.9755C22.9948 20.8888 23.3418 20.8888 23.602 20.802C24.4693 20.7153 25.5101 20.5418 26.1173 19.7612C26.7244 18.9806 26.4642 18.0266 26.2907 17.0725C26.204 16.6388 26.1173 16.0317 26.204 15.7715C26.2907 15.5113 26.7244 15.1643 26.9846 14.9041C27.6785 14.297 28.4591 13.6031 28.4591 12.5623C28.2856 11.6949 27.505 11.0011 26.8111 10.3939ZM16.1428 24.6184L11.3724 28.0877V23.4041C11.6326 23.751 11.9796 24.0112 12.4132 24.1847C13.3673 24.4449 14.2347 24.0112 14.9285 23.5775C15.3622 23.3173 15.8826 23.0571 16.1428 23.0571C16.403 23.0571 16.9234 23.3173 17.3571 23.5775C17.9642 23.9245 18.6581 24.2714 19.352 24.2714C19.5254 24.2714 19.6989 24.2714 19.9591 24.1847C20.3928 24.0112 20.7397 23.751 20.9132 23.4908V28.1745L16.1428 24.6184ZM25.6836 13.6898C25.1632 14.2102 24.6428 14.6439 24.3826 15.3378C24.1224 16.0317 24.2958 16.8123 24.4693 17.5061C24.556 17.9398 24.7295 18.6337 24.556 18.8072C24.4693 18.9806 23.6887 19.0674 23.255 19.1541C22.5612 19.2408 21.7805 19.3276 21.1734 19.7612C20.5663 20.1949 20.3061 20.8888 19.9591 21.4959C19.7857 21.9296 19.4387 22.5367 19.2652 22.6235C19.0918 22.7102 18.3979 22.3633 18.1377 22.1031C17.5306 21.7561 16.8367 21.3225 16.0561 21.3225C15.2755 21.3225 14.5816 21.7561 13.9745 22.1031C13.6275 22.2765 13.0204 22.6235 12.8469 22.6235C12.6734 22.5367 12.4132 21.8429 12.2398 21.4092C11.9796 20.7153 11.6326 20.1082 11.0255 19.6745C10.4183 19.2408 9.72447 19.1541 8.94386 19.0674C8.51019 18.9806 7.81631 18.8939 7.64284 18.7204C7.55611 18.547 7.64284 17.8531 7.72958 17.4194C7.90305 16.7255 7.98978 15.9449 7.81631 15.251C7.64284 14.5572 7.0357 14.1235 6.5153 13.6031C6.16836 13.2562 5.64795 12.8225 5.64795 12.5623C5.64795 12.3021 6.16836 11.8684 6.5153 11.5215C7.0357 11.0011 7.55611 10.5674 7.81631 9.87352C8.07651 9.17965 7.90305 8.39904 7.72958 7.70516C7.72958 7.44496 7.55611 6.75108 7.72958 6.57761C7.81631 6.40415 8.59692 6.31741 9.03059 6.23068C9.72447 6.14394 10.5051 6.05721 11.1122 5.62354C11.7194 5.18987 11.9796 4.49599 12.3265 3.88885C12.4132 3.45518 12.6734 2.84804 12.9336 2.7613C13.1071 2.67457 13.801 3.02151 14.0612 3.28171C14.6683 3.62865 15.3622 3.97558 16.1428 3.97558C16.9234 3.97558 17.6173 3.54191 18.2244 3.19498C18.5714 3.02151 19.1785 2.67457 19.352 2.67457C19.5254 2.7613 19.8724 3.36844 20.0459 3.80212C20.3061 4.49599 20.653 5.10313 21.2601 5.5368C21.8673 5.97047 22.5612 6.05721 23.3418 6.14394C23.7754 6.23068 24.4693 6.31741 24.6428 6.49088C24.7295 6.66435 24.6428 7.35822 24.556 7.7919C24.3826 8.48577 24.2958 9.26638 24.4693 9.96025C24.6428 10.6541 25.2499 11.0878 25.7703 11.6082C26.1173 11.9551 26.6377 12.3888 26.6377 12.649C26.6377 12.9092 26.0305 13.4296 25.6836 13.6898Z" fill="black"/>
</svg>
