<svg width="38" height="38" viewBox="0 0 38 38" fill="none" xmlns="http://www.w3.org/2000/svg">
<g clip-path="url(#clip0)">
<path d="M25.2358 12.3508C24.7074 11.8478 23.9413 11.6842 23.2536 11.9275C23.0592 11.9925 22.9175 12.1611 22.8871 12.3639L22.7344 13.4133C22.5028 14.9984 21.1465 16.1755 19.5446 16.1819H17.3629C17.1125 16.182 16.8944 16.3525 16.8338 16.5954L15.1975 23.1406C15.1246 23.4328 15.3024 23.7289 15.5947 23.8018C15.6378 23.8125 15.6821 23.818 15.7265 23.818H18.4537C18.704 23.8179 18.9222 23.6475 18.9828 23.4046L19.97 19.4545H22.0972C23.7302 19.46 25.1547 18.347 25.5444 16.7612L25.9469 15.1478C26.2303 14.1554 25.9586 13.0873 25.2358 12.3508Z" fill="#03A9F4"/>
<path d="M7.5453 30.3632C7.24406 30.3631 6.9999 30.1189 7 29.8176C7 29.7732 7.00547 29.7289 7.01621 29.6858L7.56166 27.515V27.4921L8.10711 25.3224C8.16771 25.0795 8.38585 24.909 8.6362 24.9089H10.0238C10.7769 24.9088 11.3875 25.5191 11.3877 26.2722C11.3877 26.3838 11.374 26.4949 11.347 26.6031L11.2107 27.1485C11.0589 27.7557 10.5133 28.1817 9.88746 28.1816H8.51726L8.07546 29.9499C8.01476 30.1931 7.79601 30.3636 7.5453 30.3632ZM8.78996 27.0906H9.88736C10.0125 27.0902 10.1213 27.0048 10.1514 26.8833L10.2877 26.3379C10.3251 26.1926 10.2376 26.0445 10.0923 26.0072C10.0699 26.0014 10.0469 25.9986 10.0237 25.9987H9.06266L8.78996 27.0906Z" fill="#283593"/>
<path d="M13.3783 30.3632H12.6017C11.7666 30.3634 11.0896 29.6867 11.0894 28.8516C11.0893 28.7279 11.1045 28.6047 11.1345 28.4847L11.2065 28.1946C11.3679 27.5433 11.9536 27.0869 12.6246 27.0895H13.4012C14.2363 27.0909 14.912 27.769 14.9106 28.604C14.9104 28.7271 14.8951 28.8497 14.8652 28.969L14.7932 29.2592C14.6316 29.9089 14.0477 30.3644 13.3783 30.3632ZM12.1937 28.7498C12.1376 28.9755 12.2752 29.2039 12.5009 29.2599C12.5339 29.2681 12.5677 29.2723 12.6017 29.2724H13.3783C13.5465 29.2728 13.6933 29.1585 13.734 28.9953L13.806 28.7051C13.862 28.4794 13.7245 28.251 13.4988 28.195C13.4658 28.1868 13.432 28.1826 13.398 28.1825H12.6213C12.4531 28.1821 12.3064 28.2964 12.2657 28.4596L12.1937 28.7498Z" fill="#283593"/>
<path d="M14.0907 30.3632C13.7895 30.3631 13.5454 30.1189 13.5454 29.8176C13.5454 29.7732 13.5509 29.7289 13.5616 29.6858L14.1071 27.504C14.18 27.2116 14.4762 27.0335 14.7687 27.1064C15.0612 27.1793 15.2392 27.4755 15.1663 27.7681L14.6209 29.9498C14.5602 30.1931 14.3414 30.3637 14.0907 30.3632Z" fill="#283593"/>
<path d="M20.6356 30.3632C20.3344 30.3631 20.0903 30.1189 20.0903 29.8176C20.0903 29.7732 20.0958 29.7289 20.1065 29.6858L20.652 27.515V27.4921L21.1974 25.3224C21.258 25.0795 21.4762 24.909 21.7265 24.9089H23.1141C23.8672 24.9088 24.4778 25.5191 24.478 26.2722C24.478 26.3838 24.4644 26.4949 24.4374 26.6031L24.301 27.1485C24.1493 27.7557 23.6037 28.1817 22.9778 28.1816H21.6076L21.1658 29.9499C21.1051 30.1931 20.8863 30.3637 20.6356 30.3632ZM21.8803 27.0906H22.9788C23.1039 27.0903 23.2128 27.0048 23.2428 26.8834L23.3792 26.3379C23.4165 26.1927 23.329 26.0446 23.1838 26.0073C23.1614 26.0015 23.1383 25.9986 23.1152 25.9987H22.153L21.8803 27.0906Z" fill="#03A9F4"/>
<path d="M26.4687 30.3632H25.692C24.857 30.3634 24.1799 29.6867 24.1797 28.8516C24.1796 28.7279 24.1948 28.6047 24.2248 28.4847L24.2968 28.1946C24.4582 27.5433 25.044 27.0869 25.7149 27.0895H26.4916C27.3266 27.0893 28.0037 27.766 28.0039 28.6011C28.0039 28.7248 27.9887 28.848 27.9588 28.968L27.8868 29.2582C27.7254 29.9094 27.1396 30.3658 26.4687 30.3632ZM25.284 28.7498C25.2279 28.9755 25.3655 29.2039 25.5912 29.2599C25.6242 29.2681 25.658 29.2723 25.692 29.2724H26.4687C26.6369 29.2728 26.7836 29.1585 26.8243 28.9953L26.8963 28.7051C26.9524 28.4794 26.8148 28.251 26.5891 28.195C26.5561 28.1868 26.5223 28.1826 26.4883 28.1825H25.7116C25.5434 28.1821 25.3967 28.2964 25.356 28.4596L25.284 28.7498Z" fill="#03A9F4"/>
<path d="M27.181 30.3632C26.8798 30.3631 26.6357 30.1189 26.6357 29.8176C26.6357 29.7732 26.6412 29.7289 26.652 29.6858L27.1974 27.504C27.2703 27.2116 27.5665 27.0335 27.859 27.1064C28.1515 27.1793 28.3296 27.4755 28.2566 27.7681L27.7112 29.9498C27.6505 30.1931 27.4317 30.3637 27.181 30.3632Z" fill="#03A9F4"/>
<path d="M17.363 29.8178C17.1806 29.8177 17.0103 29.7264 16.9092 29.5746L15.8183 27.9383C15.6511 27.6877 15.7188 27.3489 15.9694 27.1817C16.2201 27.0145 16.5588 27.0822 16.726 27.3328L17.8168 28.9691C17.9843 29.2195 17.9171 29.5583 17.6667 29.7258C17.5768 29.7859 17.4711 29.8179 17.363 29.8178Z" fill="#283593"/>
<path d="M16.2723 31.4551C15.9711 31.455 15.7269 31.2107 15.7271 30.9094C15.7271 30.782 15.7718 30.6585 15.8534 30.5605L18.5806 27.2879C18.7736 27.0566 19.1177 27.0256 19.3491 27.2186C19.5804 27.4117 19.6114 27.7558 19.4183 27.9871L16.6912 31.2597C16.5874 31.3838 16.434 31.4553 16.2723 31.4551Z" fill="#283593"/>
<path d="M29.3627 30.3633C29.0614 30.3632 28.8173 30.1189 28.8174 29.8177C28.8174 29.7732 28.8229 29.729 28.8336 29.6859L29.9244 25.3224C29.9974 25.0299 30.2935 24.8519 30.5861 24.9248C30.8786 24.9977 31.0566 25.2939 30.9837 25.5864L29.8928 29.9499C29.8322 30.1932 29.6134 30.3637 29.3627 30.3633Z" fill="#03A9F4"/>
<path d="M23.4349 9.48948C22.9108 8.88922 22.1526 8.54513 21.3557 8.5459H15.1814C14.9176 8.5459 14.6916 8.73469 14.6447 8.99425L12.4629 20.9938C12.4093 21.2902 12.6061 21.5739 12.9026 21.6276C12.9346 21.6333 12.9671 21.6363 12.9996 21.6363H16.2722C16.5226 21.6362 16.7407 21.4657 16.8013 21.2228L17.7896 17.2728H19.5448C21.6903 17.2644 23.5066 15.687 23.8156 13.5639L24.0883 11.6996C24.2007 10.903 23.9624 10.0969 23.4349 9.48948Z" fill="#283593"/>
</g>
<defs>
<clipPath id="clip0">
<rect width="24" height="24" fill="white" transform="translate(7 8)"/>
</clipPath>
</defs>
</svg>
