<svg width="47" height="43" viewBox="0 0 47 43" fill="none" xmlns="http://www.w3.org/2000/svg">
<path d="M1 39.8223L44.6751 1L46 2.17767L2.32488 41L1 39.8223Z" fill="black" stroke="black"/>
<path d="M11 19C16.5221 19 21 15.1938 21 10.5C21 5.80621 16.5221 2 11 2C5.47789 2 1 5.80621 1 10.5C1 15.1938 5.47789 19 11 19ZM11 3.60724C15.4779 3.60724 19.1091 6.69379 19.1091 10.5C19.1091 14.3062 15.4779 17.3928 11 17.3928C6.52211 17.3928 2.89088 14.3062 2.89088 10.5C2.89088 6.69379 6.52211 3.60724 11 3.60724Z" fill="black" stroke="black"/>
<path d="M36.5 25C31.254 25 27 28.8062 27 33.5C27 38.1938 31.254 42 36.5 42C41.746 42 46 38.1938 46 33.5C46 28.8062 41.746 25 36.5 25ZM36.5 40.3928C32.246 40.3928 28.7963 37.3062 28.7963 33.5C28.7963 29.6938 32.246 26.6072 36.5 26.6072C40.754 26.6072 44.2037 29.6938 44.2037 33.5C44.2037 37.3062 40.754 40.3928 36.5 40.3928Z" fill="black" stroke="black"/>
</svg>
