<svg width="82" height="38" viewBox="0 0 82 38" fill="none" xmlns="http://www.w3.org/2000/svg">
<path d="M52.1813 11.4985V23.6239C52.1813 23.816 52.0372 23.9601 51.8451 23.9601H49.372C49.1799 23.9601 49.0359 23.816 49.0359 23.6239V11.4985C49.0359 11.3064 49.1799 11.1623 49.372 11.1623H51.8451C52.0372 11.1863 52.1813 11.3304 52.1813 11.4985ZM71.486 11.1863H68.7247C68.5807 11.1863 68.4606 11.2824 68.4126 11.4264L66.2276 18.6057L63.8265 11.4264C63.7785 11.2824 63.6584 11.2104 63.5144 11.2104H61.5695C61.4254 11.2104 61.3054 11.3064 61.2574 11.4264L58.8563 18.6057L56.6713 11.4264C56.6233 11.2824 56.5032 11.1863 56.3591 11.1863H53.5979C53.5019 11.1863 53.3818 11.2344 53.3338 11.3304C53.2618 11.4264 53.2618 11.5225 53.2858 11.6185L57.3676 23.768C57.4156 23.9121 57.5357 23.9841 57.6797 23.9841H59.8887C60.0328 23.9841 60.1529 23.8881 60.2009 23.768L62.578 16.6848L64.955 23.768C65.003 23.9121 65.1231 23.9841 65.2672 23.9841H67.4762C67.6202 23.9841 67.7403 23.8881 67.7883 23.768L71.8701 11.6185C71.8941 11.5225 71.8942 11.4024 71.8221 11.3304C71.7021 11.2344 71.606 11.1863 71.486 11.1863ZM75.6639 11.1863H73.1907C72.9986 11.1863 72.8546 11.3304 72.8546 11.5225V23.648C72.8546 23.84 72.9986 23.9841 73.1907 23.9841H75.6639C75.8559 23.9841 76 23.84 76 23.648V11.5225C76 11.3304 75.8319 11.1863 75.6639 11.1863ZM47.6192 23.5519C47.7633 23.72 47.6432 23.9601 47.4271 23.9601H44.4018C44.2817 23.9601 44.1617 23.9121 44.0896 23.816L43.5854 23.1918C42.5289 23.8641 41.2804 24.2722 39.9598 24.2722C36.2621 24.2722 33.2607 21.2709 33.2607 17.5732C33.2607 13.8756 36.2621 10.8742 39.9598 10.8742C43.6574 10.8742 46.6588 13.8756 46.6588 17.5732C46.6588 18.8938 46.2746 20.1424 45.6023 21.1988L47.6192 23.5519ZM41.5925 20.8627L40.2719 19.254C40.1278 19.0859 40.2479 18.8218 40.464 18.8218H43.2492C43.3933 18.4376 43.4653 18.0054 43.4653 17.5732C43.4653 15.5803 41.9767 13.8515 39.9357 13.8515C37.8948 13.8515 36.4062 15.5803 36.4062 17.5732C36.4062 19.5661 37.8948 21.2709 39.9357 21.2709C40.536 21.2949 41.0883 21.1268 41.5925 20.8627ZM25.6013 23.5039C25.6733 24.0081 25.5052 24.2242 25.3612 24.2242C25.1931 24.2242 24.977 24.0081 24.7129 23.6239C24.4488 23.2158 24.3527 22.7596 24.4968 22.5435C24.5688 22.3994 24.7609 22.3274 24.977 22.3994C25.3852 22.5435 25.5533 23.1917 25.6013 23.5039ZM23.2242 24.5844C23.7284 25.0166 23.8965 25.5448 23.6324 25.905C23.4883 26.0971 23.2482 26.2171 22.9361 26.2171C22.648 26.2171 22.3598 26.1211 22.1437 25.929C21.6875 25.5208 21.5435 24.8485 21.8556 24.4883C21.9756 24.3443 22.1677 24.2722 22.4078 24.2722C22.672 24.2722 22.9601 24.3923 23.2242 24.5844ZM22.3598 28.7863C24.5688 28.7863 26.9699 29.5546 29.6351 31.9077C29.8992 32.1478 30.2594 31.8597 30.0193 31.5475C27.4021 28.258 25.001 27.6338 22.5999 27.1055C19.6466 26.4572 18.1339 24.8005 17.0774 22.9757C16.8613 22.6155 16.7653 22.6875 16.7653 23.1437C16.7413 23.72 16.7893 24.4643 16.9094 25.2087C16.7893 25.2087 16.6693 25.2087 16.5492 25.2087C12.3473 25.2087 8.91376 21.7991 8.91376 17.5732C8.91376 13.3713 12.3233 9.93777 16.5492 9.93777C20.7751 9.93777 24.1846 13.3473 24.1846 17.5732C24.1846 17.8614 24.1606 18.1735 24.1366 18.4616C23.5844 18.3656 22.4799 18.3416 21.7115 18.4136C21.4234 18.4376 21.4714 18.5817 21.6875 18.6057C24.2087 19.0619 25.9374 20.6226 26.3456 23.4559C26.3456 23.5279 26.4417 23.5519 26.4657 23.4799C27.4981 21.7511 28.0984 19.7342 28.0984 17.5492C28.0984 11.1863 22.9361 6 16.5492 6C10.1623 6 5 11.1623 5 17.5492C5 23.9121 10.1623 29.0984 16.5492 29.0984C18.23 29.1224 19.9107 28.7863 22.3598 28.7863Z" fill="#FF8C00"/>
</svg>
