<svg width="100" height="100" viewBox="0 0 100 100" fill="none" xmlns="http://www.w3.org/2000/svg">
<path d="M89.0493 22L43.6257 31.9955L49.5761 59.0366L94.9997 49.0412L89.0493 22Z" stroke="black" stroke-width="2" stroke-miterlimit="10"/>
<path d="M71.4184 50.0875C75.2327 49.2482 77.3803 44.2758 76.2153 38.9814C75.0502 33.687 71.0137 30.0755 67.1995 30.9148C63.3852 31.7541 61.2376 36.7265 62.4026 42.0209C63.5677 47.3153 67.6042 50.9269 71.4184 50.0875Z" stroke="black" stroke-width="2" stroke-miterlimit="10"/>
<path d="M89.8965 25.7914C89.791 25.8266 89.6854 25.8618 89.5447 25.8969C87.4689 26.3543 85.3931 25.0525 84.9357 22.9416" stroke="black" stroke-width="2" stroke-miterlimit="10"/>
<path d="M44.5454 35.7835C44.651 35.7835 44.7917 35.7483 44.8972 35.7131C46.973 35.2558 48.31 33.18 47.8526 31.1042" stroke="black" stroke-width="2" stroke-miterlimit="10"/>
<path d="M94.224 45.4236C94.1184 45.4236 93.9777 45.4587 93.8722 45.4939C91.7964 45.9513 90.4594 48.0271 90.9168 50.1029" stroke="black" stroke-width="2" stroke-miterlimit="10"/>
<path d="M70.2644 47.1476L69.9126 45.494C68.9626 45.7051 67.9071 45.5995 67.2387 45.3181L67.3794 44.1218C68.0479 44.4033 68.9978 44.5088 69.9126 44.2977C71.0736 44.0515 71.7421 43.1719 71.531 42.2571C71.3199 41.3424 70.5811 40.9202 69.2441 40.7091C67.4146 40.4276 66.2184 39.8999 65.9017 38.4574C65.5851 37.0852 66.3591 35.8186 67.8016 35.2557L67.4498 33.6021L68.4701 33.391L68.8219 34.9742C69.807 34.7983 70.5459 34.9039 71.1088 35.0798L70.9329 36.276C70.5459 36.1705 69.7719 35.9242 68.7164 36.1705C67.4498 36.4519 67.1331 37.3315 67.2739 37.9648C67.4498 38.8092 68.1534 39.1258 69.7367 39.4073C71.6014 39.7239 72.6217 40.3924 72.9735 41.8701C73.255 43.1719 72.6217 44.5792 70.9681 45.2477L71.3551 46.9717L70.2644 47.1476Z" fill="#FF4823"/>
<path d="M5 26.7062V30.9282V70.3684C5 74.2385 8.13129 77.3698 12.0014 77.3698H62.7003V30.9282H52.849H9.22197C6.89989 30.9282 5 29.0283 5 26.7062C5 24.3841 6.89989 22.4842 9.22197 22.4842H52.849V30.9282" fill="white"/>
<path d="M5 26.7062V30.9282V70.3684C5 74.2385 8.13129 77.3698 12.0014 77.3698H62.7003V30.9282H52.849H9.22197C6.89989 30.9282 5 29.0283 5 26.7062ZM5 26.7062C5 24.3841 6.89989 22.4842 9.22197 22.4842H52.849V30.9282" stroke="black" stroke-width="2" stroke-miterlimit="10"/>
<path d="M65.163 58.7932H51.0898C48.3807 58.7932 46.1642 56.5767 46.1642 53.8676C46.1642 51.1585 48.3807 48.9419 51.0898 48.9419H65.163V58.7932Z" fill="white" stroke="#FF4823" stroke-width="2" stroke-miterlimit="10"/>
<path d="M51.2659 56.1544C52.5289 56.1544 53.5528 55.1305 53.5528 53.8675C53.5528 52.6045 52.5289 51.5806 51.2659 51.5806C50.0029 51.5806 48.979 52.6045 48.979 53.8675C48.979 55.1305 50.0029 56.1544 51.2659 56.1544Z" fill="white" stroke="#FF4823" stroke-width="2" stroke-miterlimit="10"/>
</svg>
