<svg width="100" height="100" viewBox="0 0 100 100" fill="none" xmlns="http://www.w3.org/2000/svg">
<path d="M64.6727 28.4528C64.6727 27.4367 64.5455 26.5476 64.2909 25.6586C63.9091 24.2614 63.1455 22.9913 62 21.9753C60.0909 19.9431 57.4182 18.8 54.6182 18.8H22.6727C22.5455 18.8 21.7818 18.8 21.4 18.8C15.9273 18.8 11.6 23.1184 11.6 28.5798H14.1455C14.1455 24.5155 17.3273 21.3402 21.4 21.3402C25.2182 21.3402 27.7636 24.2614 27.7636 28.5798V67.699C27.7636 74.6845 33.4909 80.4 40.4909 80.4H64.6727C64.6727 80.4 64.6727 36.2004 64.6727 28.4528ZM40.6182 77.8598C35.0182 77.8598 30.4364 73.2874 30.4364 67.699V28.5798V27.4367C30.1818 25.0235 29.2909 22.8643 27.7636 21.3402H54.7455C56.9091 21.3402 58.9455 22.2293 60.3455 23.6264C61.6182 25.0235 62.3818 26.6746 62.3818 28.5798V77.8598H40.6182Z" fill="black"/>
<path d="M69.0001 62.2375H38.4547C43.1638 62.2375 46.982 66.0478 46.982 70.7472C46.982 75.4466 43.9274 79.1299 39.2183 79.1299L68.491 79.2569C73.2001 79.2569 77.2729 75.7006 77.4001 71.0012C77.6547 66.0478 73.8365 62.2375 69.0001 62.2375Z" fill="white"/>
<path d="M68.6184 80.4002L39.3457 80.2732V77.733C43.1638 77.733 45.8366 74.8118 45.8366 70.6204C45.8366 66.6831 42.6548 63.3808 38.582 63.3808V60.8406H69.1275C71.8002 60.8406 74.2184 61.8567 76.1275 63.7619C78.0366 65.667 78.9275 68.2072 78.9275 70.8744C78.6729 76.2089 74.0911 80.4002 68.6184 80.4002ZM45.582 77.86H68.6184C72.6911 77.86 76.1275 74.6848 76.2548 70.8744C76.2548 68.9693 75.6184 67.0641 74.2184 65.667C72.8184 64.2699 71.0366 63.5078 69.0002 63.5078H45.0729C46.982 65.286 48.2548 67.8262 48.2548 70.7474C48.382 73.5417 47.3638 76.0819 45.582 77.86Z" fill="black"/>
<path d="M38.0004 37H46.0004" stroke="black" stroke-width="2" stroke-miterlimit="10"/>
<path d="M37.691 45.4721H56.1456" stroke="black" stroke-width="2" stroke-miterlimit="10"/>
<path d="M37.691 53.8549H56.1456" stroke="black" stroke-width="2" stroke-miterlimit="10"/>
<path d="M75.1218 47.2002L63.9357 59.1202C63.2414 59.8402 62.7014 60.7202 62.3156 61.6802L59.6155 68.2402C59.5384 68.4802 59.7698 68.7202 60.0013 68.6402L66.4815 66.3202C67.5615 65.9202 68.6416 65.2802 69.4902 64.4002L80.6763 52.8802" fill="white"/>
<path d="M75.1218 47.2002L63.9357 59.1202C63.2414 59.8402 62.7014 60.7202 62.3156 61.6802L59.6155 68.2402C59.5384 68.4802 59.7698 68.7202 60.0013 68.6402L66.4815 66.3202C67.5615 65.9202 68.6416 65.2802 69.4902 64.4002L80.6763 52.8802" stroke="#FF4823" stroke-width="2" stroke-miterlimit="10"/>
<path d="M61.1583 68.7199C61.9679 68.7199 62.6241 68.0394 62.6241 67.1999C62.6241 66.3604 61.9679 65.6799 61.1583 65.6799C60.3488 65.6799 59.6926 66.3604 59.6926 67.1999C59.6926 68.0394 60.3488 68.7199 61.1583 68.7199Z" fill="#FF4823"/>
<path d="M62.8559 60.2399L68.4875 59.8399L77.8993 50.0799" stroke="#FF4823" stroke-width="2" stroke-miterlimit="10"/>
<path d="M83.6852 49.7602L80.5994 52.9602L75.0449 47.2002L78.1307 44.0002C79.6737 42.4002 82.1423 42.4002 83.6852 44.0002C85.2281 45.6802 85.2281 48.2402 83.6852 49.7602Z" stroke="#FF4823" stroke-width="2" stroke-miterlimit="10"/>
<path d="M77.6676 45.2002L82.9135 50.7202" stroke="#FF4823" stroke-width="2" stroke-miterlimit="10"/>
<path d="M68.1785 65.76L68.4871 59.84" stroke="#FF4823" stroke-width="2" stroke-miterlimit="10"/>
<rect x="49" y="33" width="6" height="8" stroke="black" stroke-width="2"/>
</svg>
