<svg width="100" height="100" viewBox="0 0 100 100" fill="none" xmlns="http://www.w3.org/2000/svg">
<path d="M75.7002 64.1C78.1855 64.1 80.2002 62.0853 80.2002 59.6C80.2002 57.1147 78.1855 55.1 75.7002 55.1C73.2149 55.1 71.2002 57.1147 71.2002 59.6C71.2002 62.0853 73.2149 64.1 75.7002 64.1Z" stroke="#FF4823" stroke-width="2" stroke-miterlimit="10"/>
<path d="M24 64.1C26.4853 64.1 28.5 62.0853 28.5 59.6C28.5 57.1147 26.4853 55.1 24 55.1C21.5147 55.1 19.5 57.1147 19.5 59.6C19.5 62.0853 21.5147 64.1 24 64.1Z" stroke="#FF4823" stroke-width="2" stroke-miterlimit="10"/>
<path d="M71.4 61.2C67.5 65.6 59.7 68.6 50.6 68.6C40.4 68.6 31.7 64.8 28.5 59.5" stroke="#FF4823" stroke-width="2" stroke-miterlimit="10"/>
<path d="M86.6998 65.4C83.7998 63.9 81.5998 62 80.2998 59.8" stroke="#FF4823" stroke-width="2" stroke-miterlimit="10"/>
<path d="M13 65.4C15.9 63.9 18.1 62 19.4 59.8" stroke="#FF4823" stroke-width="2" stroke-miterlimit="10"/>
<path d="M77.9996 63.6V75.4H73.3996V63.6" stroke="#FF4823" stroke-width="2" stroke-miterlimit="10"/>
<path d="M77.9996 75.4H80.2996" stroke="#FF4823" stroke-width="2" stroke-miterlimit="10" stroke-linecap="round"/>
<path d="M71.0996 75.4H73.3996" stroke="#FF4823" stroke-width="2" stroke-miterlimit="10" stroke-linecap="round"/>
<path d="M26.3004 63.6V75.4H21.7004V63.6" stroke="#FF4823" stroke-width="2" stroke-miterlimit="10"/>
<path d="M26.3004 75.4H28.6004" stroke="#FF4823" stroke-width="2" stroke-miterlimit="10" stroke-linecap="round"/>
<path d="M19.4004 75.4H21.7004" stroke="#FF4823" stroke-width="2" stroke-miterlimit="10" stroke-linecap="round"/>
<path d="M67.9004 73.9C68.7288 73.9 69.4004 73.2284 69.4004 72.4C69.4004 71.5716 68.7288 70.9 67.9004 70.9C67.072 70.9 66.4004 71.5716 66.4004 72.4C66.4004 73.2284 67.072 73.9 67.9004 73.9Z" fill="#FF4823"/>
<path d="M31.4004 72.5C32.2288 72.5 32.9004 71.8284 32.9004 71C32.9004 70.1716 32.2288 69.5 31.4004 69.5C30.572 69.5 29.9004 70.1716 29.9004 71C29.9004 71.8284 30.572 72.5 31.4004 72.5Z" fill="#FF4823"/>
<path d="M61.3 29.4H40.5V50.2H61.3V29.4Z" stroke="black" stroke-width="2" stroke-miterlimit="10"/>
<path d="M65.6996 25H36.0996V54.6H65.6996V25Z" stroke="black" stroke-width="2" stroke-miterlimit="10"/>
<path d="M47.2002 43C46.9002 42.4 46.7002 41.7 46.7002 41C46.7002 38.7 48.6002 36.8 50.9002 36.8C53.2002 36.8 55.1002 38.7 55.1002 41C55.1002 41.9 54.8002 42.7 54.4002 43.4" stroke="black" stroke-width="2" stroke-miterlimit="10"/>
<path d="M40.5 42.8C42.6 42.8 42.6 43.6 44.7 43.6C46.8 43.6 46.8 42.8 48.9 42.8C51 42.8 51 43.6 53.1 43.6C55.2 43.6 55.2 42.8 57.3 42.8C59.4 42.8 59.4 43.6 61.5 43.6" stroke="black" stroke-width="2" stroke-miterlimit="10"/>
<path d="M45.5 46.6C47.6 46.6 47.6 45.8 49.7 45.8C51.8 45.8 51.8 46.6 53.9 46.6" stroke="black" stroke-width="2" stroke-miterlimit="10" stroke-linecap="round"/>
</svg>
