<svg width="40" height="39" viewBox="0 0 40 39" fill="none" xmlns="http://www.w3.org/2000/svg">
<path d="M30.1757 16.0553V16.5553H30.6757H32.5698C33.3933 16.5553 34.0427 17.2052 34.0427 17.98V37.0755C34.0427 37.8502 33.3934 38.5 32.57 38.5H7.40539C6.58005 38.5 5.93262 37.8506 5.93262 37.0755V17.98C5.93262 17.2048 6.58009 16.5553 7.40539 16.5553H9.29892H9.79892V16.0553V10.4284C9.79892 4.96577 14.3572 0.5 19.9879 0.5C25.6165 0.5 30.1757 4.96637 30.1757 10.4284V16.0553ZM26.7309 16.5553H27.2309V16.0553V10.4284C27.2309 6.51227 23.9705 3.34899 19.9878 3.34899C16.0043 3.34899 12.744 6.51224 12.744 10.4284V16.0553V16.5553H13.244H26.7309Z" stroke="black"/>
</svg>
