<svg width="41" height="40" viewBox="0 0 41 40" fill="none" xmlns="http://www.w3.org/2000/svg">
<path d="M40.9906 10.1555C40.9558 9.96081 40.8242 9.79572 40.6393 9.71463L25.5854 3.10427C25.3663 3.0079 25.1094 3.0459 24.9294 3.20154L20.5 7.02663L16.0705 3.20154C15.8906 3.04599 15.6336 3.0079 15.4146 3.10427L0.360477 9.71463C0.175791 9.79572 0.044125 9.96081 0.00918182 10.1555C-0.0257614 10.3501 0.0403045 10.549 0.185668 10.6866L4.94102 15.1868L2.2598 19.8055C2.09385 20.0915 2.19616 20.4546 2.48875 20.6174L5.09449 22.0684V28.0021C5.09449 28.215 5.21078 28.4118 5.39956 28.5183L20.1938 36.8683C20.2886 36.9216 20.3942 36.9484 20.5 36.9484C20.601 36.9484 20.7018 36.9234 20.7932 36.8746C20.793 36.875 20.7924 36.8755 20.7924 36.8759L35.6003 28.5184C35.7891 28.4119 35.9054 28.2151 35.9054 28.0022V22.0684L38.5113 20.6175C38.8039 20.4547 38.9062 20.0916 38.7401 19.8056L36.0591 15.1869L40.8142 10.6867C40.9596 10.549 41.0258 10.3501 40.9906 10.1555ZM25.9615 19.4152L21.1112 16.6742V8.79063L33.9823 15.1037L25.9615 19.4152ZM7.01757 15.1038L19.8889 8.79063V16.6742L15.0384 19.4152L7.01757 15.1038ZM1.6831 10.4419L15.5559 4.35027L19.4187 7.68581L5.81944 14.3562L1.6831 10.4419ZM3.62398 19.8763L5.93992 15.8865L19.5827 23.2197L16.5558 27.0767L3.62398 19.8763ZM19.8887 35.3179L6.31703 27.6581V22.7492L16.4136 28.3709C16.5087 28.4239 16.6129 28.4494 16.7162 28.4494C16.901 28.4494 17.0826 28.3675 17.2021 28.2154L19.8888 24.7919L19.8887 35.3179ZM20.5 22.351L16.2885 20.0873L20.5 17.7073L24.7114 20.0873L20.5 22.351ZM34.6828 27.6581L21.1112 35.3179V24.7918L23.7979 28.2154C23.9172 28.3674 24.0988 28.4493 24.2838 28.4493C24.3868 28.4493 24.4913 28.4238 24.5864 28.3708L34.6828 22.7491V27.6581ZM37.376 19.8763L24.4442 27.0766L21.4172 23.2196L35.0601 15.8864L37.376 19.8763ZM35.1806 14.3562L21.5812 7.68581L25.4438 4.35027L39.3168 10.4419L35.1806 14.3562Z" fill="black"/>
</svg>
