<svg width="41" height="40" viewBox="0 0 41 40" fill="none" xmlns="http://www.w3.org/2000/svg">
<path d="M2.6709 16.0131V31.9414C2.6709 33.2948 3.80015 34.375 5.16114 34.375H7.04839C7.18074 35.3013 7.6448 36.149 8.3553 36.7623C9.06579 37.3756 9.97498 37.7133 10.9158 37.7133C11.8566 37.7133 12.7657 37.3756 13.4762 36.7623C14.1867 36.149 14.6508 35.3013 14.7832 34.375H26.325C26.4573 35.3014 26.9213 36.1491 27.6318 36.7625C28.3423 37.3758 29.2515 37.7135 30.1923 37.7135C31.1332 37.7135 32.0424 37.3758 32.7529 36.7625C33.4634 36.1491 33.9274 35.3014 34.0597 34.375H35.0598C36.4207 34.375 37.55 33.2948 37.55 31.9414V25.1628C37.55 25.1583 37.5385 25.1539 37.5383 25.1495C37.5383 25.1394 37.5266 25.1294 37.5258 25.1194C37.5252 25.1111 37.5244 25.1029 37.5233 25.0947C37.5222 25.0853 37.5207 25.076 37.519 25.0666C37.5174 25.0572 37.5158 25.0496 37.5139 25.0412C37.512 25.0328 37.5096 25.0236 37.5071 25.0148C37.5046 25.006 37.5023 24.998 37.4992 24.9896C37.4962 24.9813 37.4932 24.9727 37.4899 24.9642C37.4866 24.9558 37.4833 24.948 37.4798 24.94C37.4763 24.9321 37.472 24.9237 37.4679 24.9156C37.4639 24.9075 37.4601 24.9 37.4555 24.8921C37.4508 24.8843 37.4463 24.8769 37.4416 24.8694C37.4368 24.8619 37.4314 24.8538 37.4258 24.8464C37.4203 24.8389 37.4159 24.8328 37.4105 24.826C37.4052 24.8193 37.3981 24.8104 37.3916 24.8032C37.3885 24.7998 37.386 24.7962 37.3829 24.7928L32.4421 19.4532C32.21 19.2048 31.9285 19.007 31.6154 18.8726C31.3024 18.7381 30.9647 18.6697 30.6237 18.6719H25.0595V16.0131C25.0595 14.6596 23.9316 13.5938 22.5706 13.5938H22.3681C22.7006 12.5 22.8336 11.5105 22.7621 10.4702C22.6128 8.30355 21.6706 6.26636 20.1136 4.74362C18.4831 3.15921 16.2942 2.2716 14.0146 2.27036C11.7349 2.26912 9.54511 3.15434 7.91282 4.73698C6.35558 6.26273 5.41351 8.30242 5.26429 10.4714C5.19257 11.5117 5.32611 12.5 5.65825 13.5938H5.16114C3.80015 13.5938 2.6709 14.6596 2.6709 16.0131ZM30.1923 36.6407C29.6372 36.6407 29.0944 36.477 28.6328 36.1702C28.1712 35.8635 27.8114 35.4275 27.5989 34.9174C27.3864 34.4073 27.3308 33.8459 27.4391 33.3044C27.5474 32.7629 27.8148 32.2654 28.2074 31.875C28.6 31.4846 29.1001 31.2187 29.6447 31.111C30.1892 31.0033 30.7536 31.0586 31.2665 31.2699C31.7794 31.4812 32.2179 31.839 32.5263 32.2981C32.8347 32.7572 32.9994 33.297 32.9993 33.8491C32.9985 34.5892 32.7025 35.2988 32.1762 35.8221C31.65 36.3454 30.9365 36.6398 30.1923 36.6407ZM25.0595 19.7657H30.6237C30.8121 19.7627 30.9991 19.7988 31.1726 19.8717C31.3462 19.9447 31.5026 20.0528 31.6318 20.1892L35.727 24.6094H25.0595V19.7657ZM25.0595 25.7032H36.4502V31.9414C36.4502 32.6917 35.8144 33.2813 35.0598 33.2813H34.0597C33.9274 32.3549 33.4634 31.5072 32.7529 30.8938C32.0424 30.2805 31.1332 29.9428 30.1923 29.9428C29.2515 29.9428 28.3423 30.2805 27.6318 30.8938C26.9213 31.5072 26.4573 32.3549 26.325 33.2813H25.0595V25.7032ZM10.9158 36.6407C10.3606 36.6407 9.8179 36.4769 9.35628 36.1702C8.89466 35.8634 8.53487 35.4274 8.32241 34.9173C8.10996 34.4072 8.05437 33.8459 8.16269 33.3044C8.27101 32.7628 8.53836 32.2654 8.93094 31.875C9.32353 31.4846 9.8237 31.2187 10.3682 31.111C10.9127 31.0033 11.4772 31.0586 11.9901 31.2699C12.503 31.4812 12.9414 31.839 13.2498 32.2981C13.5583 32.7572 13.7229 33.297 13.7229 33.8491C13.722 34.5892 13.426 35.2988 12.8998 35.8221C12.3735 36.3455 11.66 36.6399 10.9158 36.6407ZM6.36149 10.527C6.49268 8.62976 7.31901 6.84628 8.68394 5.51441C10.11 4.13268 12.0222 3.35942 14.0132 3.35942C16.0041 3.35942 17.9164 4.13268 19.3424 5.51441C20.7074 6.84626 21.5337 8.62975 21.6649 10.527C21.7316 11.5546 21.576 12.5844 21.2086 13.5471C20.8477 14.5111 20.2555 15.4247 19.4485 16.2625L14.0132 21.9046L8.57836 16.2625C7.77095 15.4248 7.17879 14.5112 6.81782 13.5469C6.45046 12.5843 6.29486 11.5545 6.36149 10.527ZM6.10029 14.6875C6.54872 15.5448 7.11535 16.3355 7.78376 17.0368L13.6161 23.0823C13.6677 23.135 13.7295 23.1767 13.7977 23.2049C13.866 23.2331 13.9393 23.2472 14.0132 23.2464C14.0875 23.246 14.161 23.2306 14.2292 23.2013C14.2975 23.172 14.359 23.1292 14.4102 23.0757L20.2426 17.0378C20.9111 16.3361 21.4778 15.5451 21.9261 14.6875H22.5703C23.3248 14.6875 23.9594 15.2627 23.9594 16.0131V33.2813H14.7832C14.6509 32.3549 14.1869 31.507 13.4764 30.8937C12.7659 30.2803 11.8566 29.9425 10.9158 29.9425C9.9749 29.9425 9.06565 30.2803 8.35514 30.8937C7.64463 31.507 7.18062 32.3549 7.04839 33.2813H5.16114C4.407 33.2813 3.77069 32.6917 3.77069 31.9414V16.0131C3.77069 15.2627 4.40653 14.6875 5.16114 14.6875H6.10029Z" fill="black"/>
<path d="M12.409 12.431C12.5022 12.5396 12.6345 12.6077 12.7775 12.6205C12.9205 12.6334 13.0629 12.5902 13.1743 12.5L16.5607 9.76011C16.617 9.7149 16.6638 9.65906 16.6984 9.59581C16.733 9.53256 16.7547 9.46314 16.7623 9.39153C16.7698 9.31992 16.7631 9.24754 16.7424 9.17852C16.7218 9.10951 16.6876 9.04524 16.642 8.98938C16.5963 8.93353 16.5399 8.8872 16.4762 8.85305C16.4125 8.8189 16.3426 8.7976 16.2705 8.79038C16.1985 8.78316 16.1257 8.79016 16.0564 8.81098C15.9871 8.83179 15.9226 8.86601 15.8666 8.91167L12.8967 11.3146L12.069 10.3508C12.0223 10.2955 11.9651 10.2498 11.9006 10.2166C11.8361 10.1834 11.7656 10.1631 11.6933 10.1571C11.6209 10.1511 11.548 10.1595 11.4789 10.1816C11.4097 10.2038 11.3457 10.2393 11.2905 10.2862C11.2352 10.3332 11.1899 10.3905 11.157 10.4549C11.1242 10.5194 11.1045 10.5896 11.0992 10.6617C11.0938 10.7337 11.1028 10.8061 11.1257 10.8746C11.1486 10.9432 11.185 11.0065 11.2327 11.061L12.409 12.431Z" fill="black"/>
<path d="M14.0132 16.3124C17.2761 16.3124 19.9306 13.6574 19.9306 10.394C19.9306 7.13054 17.2761 4.47546 14.0132 4.47546C10.7504 4.47546 8.0957 7.13054 8.0957 10.394C8.0957 13.6574 10.7503 16.3124 14.0132 16.3124ZM14.0132 5.56921C16.6697 5.56921 18.8309 7.73328 18.8309 10.394C18.8309 13.0547 16.6697 15.2187 14.0132 15.2187C11.3567 15.2187 9.1955 13.0546 9.1955 10.394C9.1955 7.73336 11.3567 5.56882 14.0132 5.56882V5.56921Z" fill="black"/>
</svg>
