<svg width="91" height="38" viewBox="0 0 91 38" fill="none" xmlns="http://www.w3.org/2000/svg">
<path d="M90.0217 7H53.9783C53.4373 7 53 7.438 53 7.97826V30.6484C53 31.1887 53.4373 31.6267 53.9783 31.6267H90.0217C90.5627 31.6267 91 31.1887 91 30.6484V7.97826C91 7.438 90.5627 7 90.0217 7ZM55.9422 14.4419H59.9978C60.5448 14.4627 60.9855 14.637 61.1376 15.2217L62.0196 19.4637C61.153 17.2448 59.0647 15.3986 55.9085 14.6343L55.9422 14.4419ZM60.8496 24.1168L58.5069 16.1131C60.1909 17.191 61.6254 18.9012 62.1306 20.0914L62.4038 21.0798L64.9658 14.5341H67.7378L63.6182 24.1148L60.8496 24.1168ZM69.775 24.1235H67.1592L68.7948 14.524H71.412L69.775 24.1235ZM74.3272 24.2675C73.1545 24.2554 72.0249 24.0233 71.4126 23.7549L71.7807 21.6066L72.1177 21.7593C72.9769 22.1179 73.5333 22.2632 74.5809 22.2632C75.3324 22.2632 76.1377 21.9692 76.1451 21.326C76.1499 20.9055 75.8081 20.6055 74.7894 20.1345C73.7964 19.6756 72.4817 18.9059 72.4979 17.5274C72.512 15.6617 74.334 14.3598 76.9195 14.3598C77.9328 14.3598 78.7449 14.5684 79.2629 14.7628L78.9097 16.8438L78.6735 16.7328C78.1918 16.539 77.5722 16.352 76.7157 16.3654C75.6917 16.3654 75.2167 16.792 75.2167 17.191C75.2113 17.6404 75.7711 17.9364 76.6861 18.3818C78.1952 19.0667 78.8929 19.8977 78.8835 20.9896C78.8633 22.9811 77.0783 24.2675 74.3272 24.2675ZM85.664 24.1276C85.664 24.1276 85.4251 23.0242 85.3458 22.6891C84.9649 22.6891 82.2953 22.6851 81.9952 22.6851C81.8936 22.9441 81.4455 24.1276 81.4455 24.1276H78.6984L82.5825 15.3307C82.8584 14.7056 83.326 14.5341 83.953 14.5341H85.9741L88.0915 24.1269L85.664 24.1276Z" fill="#0353A5"/>
<path d="M84.3134 17.9506L84.1371 17.123C84.0039 17.4843 83.7744 18.065 83.7892 18.0394C83.7892 18.0394 82.9624 20.1702 82.7471 20.7225H84.9196C84.8146 20.2415 84.3134 17.9506 84.3134 17.9506Z" fill="#0353A5"/>
<path d="M1 7C0.447716 7 0 7.44772 0 8V30C0 30.5523 0.447715 31 1 31H37C37.5523 31 38 30.5523 38 30V8C38 7.44772 37.5523 7 37 7H1Z" fill="#1E306D"/>
<path d="M15.4775 19.0327C15.4775 13.1497 20.2194 8.38062 26.0688 8.38062C31.9182 8.38062 36.66 13.1497 36.66 19.0327C36.66 24.9157 31.9182 29.6848 26.0688 29.6848C20.2194 29.6848 15.4775 24.9157 15.4775 19.0327Z" fill="#EE8414"/>
<path d="M18.9721 11.1045C18.9767 11.1045 18.4183 11.5912 18.0414 12.0686H19.926C19.926 12.0686 20.5682 12.7706 20.8102 13.2995H17.1293C17.1293 13.2995 16.771 13.8611 16.5337 14.3385H21.4058C21.4058 14.3385 21.8526 15.1762 21.9503 15.6209H16.0264C16.0264 15.6209 15.8217 16.2012 15.7379 16.6271L22.2202 16.6177C22.397 17.4368 22.8298 19.819 21.941 22.4493L16.0497 22.4586C16.1428 22.7722 16.3057 23.2028 16.4592 23.5163H21.5175C21.3128 23.9422 21.0149 24.4805 20.8474 24.7519L17.1386 24.7566C17.3341 25.0561 17.6505 25.5241 17.8506 25.7394H20.1354C19.7073 26.3338 18.9814 26.9516 18.9814 26.9516H18.9628L18.986 26.961C17.1107 28.6599 14.6258 29.6942 11.9035 29.6942C6.04947 29.6848 1.30762 24.9157 1.30762 19.0327C1.30762 13.1497 6.04947 8.38062 11.8988 8.38062C14.6165 8.38062 17.0967 9.41026 18.9721 11.1045Z" fill="#E20020"/>
<path d="M13.7507 17.521L13.5786 18.4804L12.6479 18.457C12.6479 18.457 12.1825 18.5787 12.1825 18.7753C12.1825 18.9719 12.5222 19.2199 13.0388 19.4399C13.5506 19.6599 13.5786 20.273 13.5274 20.6942C13.4808 21.1107 13.4064 21.9812 11.9126 22.0233C11.0564 22.0467 10.5957 21.8783 10.5957 21.8783L10.7911 20.8954C10.7911 20.8954 11.8894 21.1903 12.136 21.0171C12.378 20.8439 12.6711 20.5491 12.2104 20.3525C11.7451 20.156 10.9866 19.8377 10.9866 19.0514C10.9866 18.2652 11.303 17.8205 11.7916 17.6006C12.2849 17.3759 13.1365 17.3993 13.7507 17.521Z" fill="#1E306D"/>
<path d="M6.40773 21.9064H5.32813L5.95634 18.1716L4.6208 21.883H3.87625L3.69477 18.0218L3.03863 21.9064H2.01953L2.98279 16.2059H4.22061L4.65338 19.4867L6.09594 16.2059H7.37099L6.40773 21.9064Z" fill="#1E306D"/>
<path d="M14.7143 21.986C14.3606 21.986 14.1093 21.9064 13.9604 21.7566C13.8115 21.5975 13.7324 21.3541 13.7324 21.0499C13.7324 20.9704 13.7417 20.8908 13.751 20.8206C13.7603 20.741 13.7743 20.6474 13.7836 20.5445L14.4351 16.8939H15.4495L15.3053 17.6053H16.2499L16.0917 18.5086H15.1471L14.8865 20.0624C14.8725 20.1654 14.8539 20.2683 14.8353 20.3807C14.8167 20.4836 14.812 20.5866 14.812 20.6568C14.812 20.8159 14.8353 20.9189 14.9051 20.975C14.9656 21.0312 15.0633 21.0686 15.1983 21.0686C15.2494 21.0686 15.3146 21.0593 15.3984 21.0359C15.4821 21.0031 15.5566 20.9797 15.6078 20.9423H15.6915L15.5333 21.8549C15.417 21.9017 15.3006 21.9251 15.175 21.9438C15.04 21.9766 14.8911 21.986 14.7143 21.986Z" fill="#1E306D"/>
<path d="M21.9827 18.8128C21.764 18.6396 21.2707 18.677 21.1683 19.028L20.6844 21.9064H19.6699L20.4005 17.6146H21.415L21.3917 17.961C21.5825 17.7644 21.8012 17.6006 22.341 17.6193C22.3736 17.6146 22.0106 18.2558 21.9827 18.8128Z" fill="#1E306D"/>
<path d="M23.8953 22.0187C23.3368 22.0187 22.8901 21.8221 22.5876 21.4477C22.2759 21.0733 22.127 20.521 22.127 19.8143C22.127 19.2574 22.1921 18.7519 22.3271 18.2932C22.462 17.8393 22.6528 17.4508 22.8901 17.1185C23.1228 16.8003 23.402 16.5475 23.7277 16.365C24.0442 16.1825 24.3885 16.0889 24.7515 16.0889C25.0354 16.0889 25.3053 16.1357 25.5565 16.2152C25.6775 16.2574 25.9102 16.3697 25.9102 16.3697L25.6775 17.7223C25.5612 17.5725 25.4449 17.4555 25.3239 17.3666C25.147 17.2542 24.9376 17.184 24.705 17.184C24.2862 17.184 23.9418 17.4134 23.6719 17.8673C23.3973 18.326 23.2624 18.9063 23.2624 19.6131C23.2624 20.0717 23.3368 20.404 23.4858 20.6053C23.6347 20.7971 23.8534 20.9001 24.1372 20.9001C24.3978 20.9001 24.6398 20.8299 24.8678 20.6942C24.9749 20.624 25.0819 20.5491 25.1843 20.4648L24.9469 21.7566C24.9469 21.7566 24.8259 21.8174 24.7655 21.8361C24.6212 21.8923 24.4956 21.9251 24.3885 21.9625C24.2722 21.9999 24.1047 22.0187 23.8953 22.0187Z" fill="#1E306D"/>
<path d="M8.90183 21.7566C8.85995 21.7893 8.81807 21.8127 8.78549 21.8361C8.67381 21.8923 8.5854 21.9391 8.49233 21.9765C8.39926 21.9999 8.27362 22.0233 8.10609 22.0233C7.8455 22.0233 7.62679 21.9204 7.46857 21.7238C7.30105 21.5179 7.21729 21.2558 7.21729 20.9375C7.21729 20.5959 7.27778 20.3104 7.39412 20.067C7.51045 19.8377 7.68728 19.6411 7.91995 19.5054C8.13867 19.3697 8.39926 19.2761 8.69242 19.2199L8.90183 19.1871C9.14381 19.1403 9.39509 19.1076 9.6743 19.0982C9.6743 19.0748 9.6743 19.0514 9.68361 19.0187C9.69291 18.9859 9.69291 18.9485 9.69291 18.9063C9.69291 18.7238 9.63707 18.5974 9.50678 18.5179C9.38113 18.4477 9.19965 18.4149 8.95302 18.4149H8.90183C8.75292 18.4243 8.5854 18.4617 8.39926 18.5272C8.19916 18.6068 8.0456 18.663 7.94787 18.7238H7.85481L8.00372 17.7082C8.12005 17.6614 8.30619 17.6193 8.54817 17.5725C8.6645 17.5397 8.78549 17.5257 8.90183 17.5163C9.02747 17.4929 9.16242 17.4929 9.28806 17.4929C9.78133 17.4929 10.1396 17.5818 10.377 17.755C10.6096 17.9282 10.7213 18.1996 10.7213 18.5787C10.7213 18.6255 10.7213 18.691 10.712 18.7753C10.7027 18.8549 10.6981 18.9251 10.6887 18.9906L10.1908 21.9063H9.18569L9.26014 21.4477C9.19965 21.5038 9.11589 21.574 9.03213 21.6536C8.98559 21.6864 8.94371 21.7238 8.90183 21.7566ZM8.90183 19.9781C8.7948 20.0015 8.70173 20.0343 8.62728 20.067C8.51094 20.1232 8.42718 20.2027 8.36668 20.3057C8.30154 20.4087 8.27362 20.5444 8.27362 20.7176C8.27362 20.8673 8.3155 20.9703 8.38995 21.0265C8.47371 21.0826 8.58074 21.1201 8.74361 21.1201C8.7948 21.1201 8.84599 21.1107 8.90183 21.0873C8.95302 21.0733 9.0042 21.0545 9.06005 21.0311C9.16708 20.9656 9.27876 20.8814 9.37648 20.7925L9.53004 19.8798C9.35321 19.9032 9.17638 19.9266 9.02747 19.9594C8.98559 19.9547 8.94371 19.9641 8.90183 19.9781Z" fill="#1E306D"/>
<path d="M17.6597 18.3541C17.5248 18.3775 17.3991 18.443 17.3014 18.56C17.1571 18.7191 17.0501 18.9251 16.9757 19.2012H17.6644H18.3345C18.3345 19.1544 18.3438 19.1216 18.3438 19.0748C18.3438 19.0421 18.3531 18.9953 18.3531 18.9625C18.3531 18.7566 18.3019 18.6068 18.2088 18.4945C18.1157 18.3915 17.9901 18.3354 17.8133 18.3354C17.7667 18.3307 17.7062 18.34 17.6597 18.3541ZM17.6597 21.0499H17.8086C18.0273 21.0499 18.2367 21.0031 18.4368 20.9001C18.6276 20.7971 18.8045 20.6848 18.9487 20.5584H19.065L18.8696 21.6676C18.6788 21.78 18.4694 21.8736 18.2507 21.9297C18.0646 21.9859 17.8645 22.0093 17.6551 22.0233H17.562C17.0175 22.0233 16.608 21.8642 16.3149 21.5319C16.0217 21.2137 15.8774 20.7644 15.8774 20.1981C15.8774 19.8096 15.9286 19.4446 16.017 19.1216C16.1101 18.7893 16.2497 18.5038 16.4265 18.2558C16.6034 18.0171 16.8128 17.8346 17.0734 17.6848C17.2549 17.5959 17.4503 17.5257 17.6504 17.4882C17.7435 17.4789 17.8319 17.4789 17.925 17.4789C18.395 17.4789 18.744 17.6052 18.9859 17.8673C19.2186 18.1154 19.3396 18.5085 19.3396 19.0093C19.3396 19.1825 19.3303 19.351 19.307 19.5241C19.2838 19.6833 19.2465 19.8564 19.2047 20.0155H17.6457H16.8593V20.0623V20.1091C16.8593 20.404 16.9431 20.6333 17.092 20.8065C17.2316 20.9375 17.4177 21.0265 17.6597 21.0499Z" fill="#1E306D"/>
<path d="M27.1482 21.7566C27.1063 21.7893 27.0644 21.8127 27.0225 21.8361C26.9201 21.8923 26.8224 21.9391 26.7293 21.9765C26.6363 21.9999 26.5106 22.0233 26.3524 22.0233C26.0825 22.0233 25.8731 21.9204 25.7102 21.7238C25.5427 21.5179 25.4683 21.2558 25.4683 20.9375C25.4683 20.5959 25.5288 20.3104 25.6451 20.067C25.7614 19.8377 25.9383 19.6411 26.1616 19.5054C26.3803 19.3697 26.6409 19.2761 26.9387 19.2199C27.0086 19.2106 27.0737 19.1965 27.1482 19.1871C27.3808 19.1403 27.6414 19.1076 27.9113 19.0982C27.9206 19.0748 27.9206 19.0514 27.9299 19.0187C27.9299 18.9859 27.9392 18.9485 27.9392 18.9063C27.9392 18.7238 27.8741 18.5974 27.7531 18.5179C27.6275 18.4477 27.446 18.4149 27.1993 18.4149H27.1482C26.9853 18.4243 26.8224 18.4617 26.6456 18.5272C26.4455 18.6068 26.2966 18.663 26.1942 18.7238H26.1011L26.2454 17.7082C26.3617 17.6614 26.5479 17.6193 26.7991 17.5725C26.9155 17.5397 27.0365 17.5257 27.1528 17.5163C27.2784 17.4929 27.4041 17.4929 27.539 17.4929C28.0323 17.4929 28.3906 17.5818 28.6279 17.755C28.8513 17.9282 28.9723 18.1996 28.9723 18.5787C28.9723 18.6255 28.9723 18.691 28.963 18.7753C28.9537 18.8549 28.9444 18.9251 28.9397 18.9906L28.4465 21.9157H27.4413L27.5158 21.457C27.4506 21.5132 27.3715 21.5834 27.2831 21.663L27.1482 21.7566ZM27.1482 19.9781C27.0365 20.0015 26.9481 20.0343 26.8643 20.067C26.7573 20.1232 26.6642 20.2027 26.6037 20.3057C26.5479 20.4087 26.5106 20.5444 26.5106 20.7176C26.5106 20.8673 26.5525 20.9703 26.6363 21.0265C26.7107 21.0826 26.8271 21.1201 26.9806 21.1201C27.0318 21.1201 27.0923 21.1107 27.1482 21.0873C27.1993 21.0733 27.2459 21.0545 27.2971 21.0311C27.4134 20.9656 27.5158 20.8814 27.6135 20.7925L27.7717 19.8798C27.5856 19.9032 27.4227 19.9266 27.2598 19.9594C27.2226 19.9547 27.1807 19.9641 27.1482 19.9781Z" fill="#1E306D"/>
<path d="M31.42 18.8128C31.1966 18.6396 30.708 18.677 30.6009 19.028L30.117 21.9064H29.1025L29.8285 17.6146H30.8429L30.8197 17.961C31.0105 17.7644 31.2292 17.6006 31.769 17.6193C31.8108 17.6146 31.4479 18.2558 31.42 18.8128Z" fill="#1E306D"/>
<path fill-rule="evenodd" clip-rule="evenodd" d="M33.4117 18.5226C33.3605 18.546 33.3093 18.5788 33.2674 18.6162C33.1325 18.7051 33.0255 18.8455 32.9324 19.0047C32.8579 19.1638 32.7928 19.3463 32.7463 19.5897C32.6951 19.819 32.6718 20.0484 32.6718 20.2636C32.6718 20.5257 32.723 20.7083 32.8067 20.8253C32.8998 20.9516 33.0301 21.0078 33.2116 21.0078C33.2767 21.0078 33.3465 20.9938 33.4117 20.961C33.4443 20.947 33.4722 20.9376 33.5048 20.9142C33.6071 20.858 33.7002 20.7972 33.7886 20.7176L34.1469 18.6069C34.0911 18.5741 34.0213 18.5413 33.9282 18.5133C33.8445 18.4805 33.77 18.4665 33.7049 18.4665C33.5932 18.4665 33.5001 18.4899 33.4117 18.5226ZM33.4117 21.6771C33.3372 21.7473 33.2535 21.8128 33.1604 21.8689C33.0766 21.9158 32.9929 21.9626 32.9184 21.9813C32.8347 22.0047 32.7323 22.014 32.6253 22.014C32.3135 22.014 32.0715 21.8736 31.8854 21.6115C31.7085 21.3401 31.6201 20.9516 31.6201 20.4555C31.6201 20.0437 31.662 19.6552 31.7597 19.2995C31.8528 18.9438 31.9877 18.6256 32.1553 18.3541C32.3228 18.078 32.5136 17.8767 32.7416 17.7129C32.9603 17.5632 33.179 17.4836 33.4117 17.4743H33.4443C33.6211 17.4743 33.77 17.4977 33.8957 17.5445C34.0213 17.5913 34.1562 17.6708 34.2912 17.7738L34.5146 16.2761H35.529L34.603 21.897H33.5885L33.663 21.4524C33.5699 21.5413 33.4861 21.6115 33.4117 21.6771Z" fill="#1E306D"/>
<path d="M13.9556 17.3666L13.7834 18.326L12.8527 18.3026C12.8527 18.3026 12.3874 18.4243 12.3874 18.6209C12.3874 18.8175 12.7271 19.0655 13.2436 19.2855C13.7555 19.5054 13.7834 20.1185 13.7322 20.5398C13.6857 20.9563 13.6112 21.8268 12.1175 21.8689C11.2612 21.8923 10.7959 21.7238 10.7959 21.7238L10.9913 20.741C10.9913 20.741 12.0942 21.0359 12.3362 20.8627C12.5782 20.6895 12.876 20.3947 12.4106 20.1981C11.9453 20.0015 11.1868 19.6833 11.1868 18.897C11.1868 18.1107 11.5032 17.6661 11.9918 17.4462C12.4851 17.2215 13.3413 17.2449 13.9556 17.3666Z" fill="white"/>
<path d="M6.60766 21.752H5.52806L6.15628 18.0172L4.82074 21.7286H4.07619L3.89936 17.8674L3.24322 21.752H2.22412L3.18738 16.0515H4.4252L4.85797 19.3323L6.30053 16.0515H7.57092L6.60766 21.752Z" fill="white"/>
<path d="M14.9189 21.8315C14.5699 21.8315 14.3139 21.7519 14.165 21.6021C14.0115 21.443 13.937 21.2043 13.937 20.8954C13.937 20.8159 13.9463 20.7363 13.9556 20.6661C13.9649 20.5865 13.9789 20.4976 13.9882 20.3946L14.635 16.7488H15.6495L15.5006 17.4602H16.4452L16.287 18.3634H15.3424L15.0818 19.9173C15.0631 20.0202 15.0492 20.1232 15.0306 20.2355C15.012 20.3385 15.0073 20.4414 15.0073 20.5116C15.0073 20.6708 15.0306 20.7737 15.1004 20.8299C15.1609 20.8861 15.2586 20.9235 15.3935 20.9235C15.4447 20.9235 15.5099 20.9095 15.5936 20.8861C15.6774 20.8533 15.7519 20.8299 15.803 20.7925H15.8868L15.7286 21.7051C15.6123 21.7519 15.4959 21.7753 15.3703 21.794C15.2446 21.8221 15.0957 21.8315 14.9189 21.8315Z" fill="white"/>
<path d="M22.1878 18.6584C21.9644 18.4852 21.4758 18.5226 21.3734 18.8737L20.8895 21.752H19.875L20.6056 17.4556H21.62L21.6014 17.8019C21.7922 17.61 22.0063 17.4415 22.5507 17.4602C22.5787 17.4649 22.2157 18.1014 22.1878 18.6584Z" fill="white"/>
<path d="M24.1003 21.869C23.5373 21.869 23.0952 21.6771 22.7927 21.298C22.4809 20.9236 22.332 20.3713 22.332 19.6646C22.332 19.103 22.3972 18.6022 22.5321 18.1436C22.6671 17.6849 22.8579 17.3011 23.0905 16.9689C23.3232 16.6506 23.6024 16.3979 23.9282 16.2153C24.2446 16.0328 24.5889 15.9392 24.9473 15.9392C25.2311 15.9392 25.501 15.986 25.7523 16.0656C25.8733 16.1077 26.106 16.22 26.106 16.22L25.8686 17.5726C25.7523 17.4228 25.636 17.3058 25.515 17.2169C25.3382 17.1046 25.1287 17.0344 24.8961 17.0344C24.4773 17.0344 24.1329 17.2637 23.8677 17.7224C23.5931 18.181 23.4582 18.7614 23.4582 19.4681C23.4582 19.9267 23.5326 20.259 23.6862 20.4603C23.8351 20.6522 24.0538 20.7551 24.3377 20.7551C24.5983 20.7551 24.8402 20.6849 25.0683 20.5492C25.1753 20.479 25.2777 20.4041 25.3847 20.3199L25.1474 21.6116C25.1474 21.6116 25.0264 21.6724 24.9659 21.6912C24.8263 21.7473 24.7006 21.7801 24.589 21.8175C24.4773 21.8409 24.3097 21.869 24.1003 21.869Z" fill="white"/>
<path d="M9.10203 21.6021C9.06015 21.6349 9.01827 21.6583 8.98569 21.6817C8.87866 21.7379 8.78559 21.7847 8.69252 21.8174C8.59946 21.8408 8.47381 21.8642 8.30629 21.8642C8.0457 21.8642 7.82698 21.7613 7.66877 21.5694C7.50124 21.3635 7.41748 21.1014 7.41748 20.7831C7.41748 20.4415 7.47332 20.156 7.59431 19.9173C7.71065 19.688 7.88748 19.4914 8.1248 19.3557C8.34352 19.2199 8.59946 19.1263 8.89728 19.0702L9.10668 19.0374C9.34866 18.9906 9.59995 18.9578 9.87915 18.9438C9.87915 18.9204 9.87915 18.897 9.88846 18.8642C9.89777 18.8315 9.89777 18.794 9.89777 18.7519C9.89777 18.5694 9.83727 18.443 9.71163 18.3635C9.58599 18.2933 9.39985 18.2605 9.15787 18.2605H9.10668C8.95777 18.2699 8.79025 18.3073 8.60411 18.3728C8.40401 18.4524 8.25045 18.5085 8.15272 18.5694H8.05966L8.20857 17.5538C8.3249 17.507 8.51104 17.4602 8.75302 17.4181C8.86936 17.3806 8.98569 17.3713 9.10668 17.3619C9.23232 17.3385 9.36727 17.3385 9.49292 17.3385C9.98618 17.3385 10.3445 17.4321 10.5818 17.6006C10.8145 17.7738 10.9262 18.0452 10.9262 18.4243C10.9262 18.4711 10.9262 18.5366 10.9169 18.6209C10.9076 18.7004 10.8983 18.7706 10.889 18.8362L10.3957 21.7613H9.39054L9.465 21.3026C9.4045 21.3588 9.32539 21.429 9.23698 21.5085C9.18579 21.5366 9.14391 21.5694 9.10203 21.6021ZM9.10203 19.8237C8.995 19.8471 8.90193 19.8798 8.82747 19.9173C8.71114 19.9734 8.62738 20.053 8.56688 20.156C8.50173 20.2589 8.47381 20.3947 8.47381 20.5678C8.47381 20.7176 8.51569 20.8206 8.59015 20.8767C8.67391 20.9329 8.78094 20.9703 8.94381 20.9703C8.995 20.9703 9.04619 20.961 9.10203 20.9376C9.15322 20.9282 9.2044 20.9048 9.26024 20.8814C9.36727 20.8112 9.47896 20.7316 9.57668 20.6427L9.72559 19.7301C9.54876 19.7535 9.37193 19.7769 9.22302 19.8096C9.18579 19.8003 9.14391 19.8096 9.10203 19.8237Z" fill="white"/>
<path d="M17.8596 18.1997C17.7247 18.2231 17.5991 18.2933 17.5013 18.4056C17.3571 18.5648 17.25 18.7707 17.1756 19.0468H17.8596H18.5391C18.5391 19 18.5484 18.9672 18.5484 18.9204C18.5484 18.8877 18.5577 18.8409 18.5577 18.8081C18.5577 18.6022 18.5065 18.4524 18.4134 18.3401C18.3203 18.2371 18.1947 18.181 18.0179 18.181C17.9713 18.1763 17.9108 18.1857 17.8596 18.1997ZM17.8596 20.8955H18.0086C18.2273 20.8955 18.4367 20.8487 18.6368 20.7457C18.8276 20.6428 19.0044 20.5304 19.1487 20.4041H19.265L19.0742 21.5133C18.8834 21.6303 18.674 21.7192 18.4553 21.7754C18.2692 21.8315 18.0691 21.8549 17.8596 21.869H17.7666C17.2221 21.869 16.8126 21.7098 16.5195 21.3775C16.2263 21.0593 16.082 20.61 16.082 20.0437C16.082 19.6552 16.1332 19.2902 16.2263 18.9672C16.3194 18.635 16.459 18.3495 16.6358 18.0967C16.8126 17.858 17.022 17.6755 17.2826 17.5258C17.4688 17.4368 17.6595 17.3666 17.8596 17.3292C17.9527 17.3198 18.0458 17.3198 18.1389 17.3198C18.6089 17.3198 18.9579 17.4462 19.2045 17.7083C19.4372 17.961 19.5582 18.3495 19.5582 18.8502C19.5582 19.0234 19.5489 19.1919 19.5256 19.3651C19.4977 19.5242 19.4651 19.6974 19.4232 19.8565H17.8643H17.0779V19.9033V19.9501C17.0779 20.2496 17.1616 20.4743 17.3105 20.6474C17.4362 20.7832 17.6177 20.8721 17.8596 20.8955Z" fill="white"/>
<path d="M27.353 21.6021C27.3111 21.6349 27.2692 21.6583 27.2274 21.6817C27.125 21.7379 27.0273 21.7847 26.9342 21.8174C26.8411 21.8408 26.7155 21.8642 26.5573 21.8642C26.2874 21.8642 26.078 21.7613 25.9104 21.5694C25.7429 21.3635 25.6685 21.1014 25.6685 20.7831C25.6685 20.4415 25.729 20.156 25.8453 19.9173C25.9616 19.688 26.1385 19.4914 26.3665 19.3557C26.5852 19.2199 26.8411 19.1263 27.1436 19.0702C27.2087 19.0561 27.2785 19.0468 27.353 19.0374C27.5857 18.9906 27.8463 18.9578 28.1162 18.9438C28.1255 18.9204 28.1255 18.897 28.1301 18.8642C28.1301 18.8315 28.1394 18.794 28.1394 18.7519C28.1394 18.5694 28.0743 18.443 27.9533 18.3635C27.8277 18.2933 27.6462 18.2605 27.3995 18.2605H27.3484C27.1901 18.2699 27.0226 18.3073 26.8458 18.3728C26.6457 18.4524 26.4921 18.5085 26.3944 18.5694H26.3013L26.4456 17.5538C26.5619 17.507 26.7481 17.4602 26.9993 17.4181C27.1157 17.3806 27.232 17.3713 27.3484 17.3619C27.474 17.3385 27.5996 17.3385 27.7346 17.3385C28.2279 17.3385 28.5862 17.4321 28.8235 17.6006C29.0469 17.7738 29.1678 18.0452 29.1678 18.4243C29.1678 18.4711 29.1678 18.5366 29.1585 18.6209C29.1492 18.7004 29.1399 18.7706 29.1306 18.8362L28.6374 21.7613H27.6322L27.7113 21.3026C27.6415 21.3588 27.5671 21.429 27.4786 21.5085L27.353 21.6021ZM27.353 19.8237C27.246 19.8471 27.1529 19.8798 27.0691 19.9173C26.9621 19.9734 26.869 20.053 26.8086 20.156C26.7481 20.2589 26.7155 20.3947 26.7155 20.5678C26.7155 20.7176 26.7574 20.8206 26.8411 20.8767C26.9156 20.9329 27.0319 20.9703 27.1855 20.9703C27.2367 20.9703 27.2972 20.961 27.353 20.9376C27.4042 20.9282 27.4554 20.9048 27.5019 20.8814C27.6183 20.8112 27.7206 20.7316 27.8183 20.6427L27.9766 19.7301C27.7904 19.7535 27.6229 19.7769 27.4647 19.8096C27.4275 19.8003 27.3856 19.8096 27.353 19.8237Z" fill="white"/>
<path d="M31.6245 18.6584C31.4012 18.4852 30.9079 18.5226 30.8055 18.8737L30.3216 21.752H29.3071L30.0331 17.4556H31.0475L31.0289 17.8019C31.2197 17.61 31.4338 17.4415 31.9782 17.4602C32.0154 17.4649 31.6525 18.1014 31.6245 18.6584Z" fill="white"/>
<path fill-rule="evenodd" clip-rule="evenodd" d="M33.6119 18.3728C33.5607 18.3962 33.5142 18.429 33.4723 18.4664C33.3373 18.5554 33.2303 18.6958 33.1372 18.8549C33.0628 19.014 32.993 19.1965 32.9511 19.4352C32.8999 19.6646 32.8766 19.8939 32.8766 20.1092C32.8766 20.3713 32.9278 20.5538 33.0116 20.6661C33.1047 20.7925 33.2396 20.8487 33.4164 20.8487C33.4862 20.8487 33.5514 20.8346 33.6165 20.8019C33.6491 20.7925 33.677 20.7785 33.7096 20.755C33.812 20.6989 33.9004 20.638 33.9935 20.5585L34.3518 18.4477C34.2913 18.415 34.2261 18.3775 34.1331 18.3541C34.0493 18.3214 33.9749 18.3073 33.9051 18.3073C33.798 18.3167 33.705 18.3354 33.6119 18.3728ZM33.6119 21.5226C33.5374 21.5928 33.4537 21.6583 33.3606 21.7145C33.2768 21.7613 33.1931 21.8034 33.1186 21.8268C33.0349 21.8502 32.9325 21.8596 32.8255 21.8596C32.5137 21.8596 32.2717 21.7238 32.0856 21.4571C31.9087 21.1809 31.8203 20.7925 31.8203 20.3011C31.8203 19.8892 31.8622 19.5008 31.9646 19.1497C32.0576 18.7987 32.1926 18.4758 32.3601 18.2043C32.5276 17.9282 32.7184 17.7223 32.9464 17.5632C33.1652 17.4134 33.3839 17.3338 33.6165 17.3245H33.6491C33.8259 17.3245 33.9749 17.3479 34.1005 17.3947C34.2261 17.4415 34.3611 17.521 34.4914 17.624L34.7148 16.1263H35.7292L34.8032 21.7473H33.7887L33.8632 21.3026C33.7748 21.3869 33.691 21.4571 33.6119 21.5226Z" fill="white"/>
</svg>
