<svg width="32" height="32" viewBox="0 0 32 32" fill="none" xmlns="http://www.w3.org/2000/svg">
<path d="M22.9549 22.9218L18.0856 18.0525C18.8412 17.0756 19.25 15.8812 19.25 14.625C19.25 13.1212 18.6631 11.7112 17.6018 10.6481C16.5406 9.585 15.1268 9 13.625 9C12.1231 9 10.7094 9.58687 9.64812 10.6481C8.585 11.7094 8 13.1212 8 14.625C8 16.1268 8.58687 17.5406 9.64812 18.6018C10.7094 19.665 12.1212 20.25 13.625 20.25C14.8812 20.25 16.0737 19.8412 17.0506 19.0875L21.9199 23.9549C21.9342 23.9692 21.9512 23.9806 21.9698 23.9883C21.9885 23.996 22.0085 24 22.0287 24C22.0489 24 22.0689 23.996 22.0875 23.9883C22.1062 23.9806 22.1232 23.9692 22.1374 23.9549L22.9549 23.1393C22.9692 23.125 22.9806 23.1081 22.9883 23.0894C22.996 23.0708 23 23.0508 23 23.0306C23 23.0104 22.996 22.9904 22.9883 22.9717C22.9806 22.953 22.9692 22.9361 22.9549 22.9218ZM16.595 17.595C15.8 18.3881 14.7462 18.825 13.625 18.825C12.5037 18.825 11.45 18.3881 10.655 17.595C9.86187 16.8 9.42499 15.7462 9.42499 14.625C9.42499 13.5037 9.86187 12.4481 10.655 11.655C11.45 10.8619 12.5037 10.425 13.625 10.425C14.7462 10.425 15.8018 10.86 16.595 11.655C17.3881 12.45 17.825 13.5037 17.825 14.625C17.825 15.7462 17.3881 16.8018 16.595 17.595Z" fill="black"/>
</svg>
