<?xml version="1.0" encoding="utf-8"?><svg xmlns="http://www.w3.org/2000/svg" xmlns:xlink="http://www.w3.org/1999/xlink"><symbol viewBox="0 0 26 16" id="arrow-r" xmlns="http://www.w3.org/2000/svg"><path d="M25.707 8.809a1 1 0 000-1.414L19.343 1.03a1 1 0 10-1.415 1.414l5.657 5.657-5.657 5.657a1 1 0 001.415 1.414l6.364-6.364zM0 9.102h25v-2H0v2z"/></symbol><symbol viewBox="0 0 39 16" id="arrow-r2" xmlns="http://www.w3.org/2000/svg"><path d="M38.707 8.707a1 1 0 000-1.414L32.343.929a1 1 0 10-1.414 1.414L36.586 8l-5.657 5.657a1 1 0 001.414 1.414l6.364-6.364zM0 9h38V7H0v2z"/></symbol><symbol viewBox="0 0 32 32" id="bag" xmlns="http://www.w3.org/2000/svg"><path d="M25.236 27H7L8.396 8.93h15.525L25.236 27zM8.807 25.357H23.43l-1.07-14.785H9.875L8.807 25.357z"/><path d="M21.868 9.75h-1.643c0-2.3-1.807-4.107-4.107-4.107A4.067 4.067 0 0012.01 9.75h-1.643A5.715 5.715 0 0116.118 4a5.715 5.715 0 015.75 5.75z"/></symbol><symbol viewBox="0 0 11 20" id="chevron-left" xmlns="http://www.w3.org/2000/svg"><path d="M.598 10.399l9.435 9.434a.564.564 0 00.8 0 .564.564 0 000-.8L1.801 10 10.833.969A.57.57 0 0010.435 0a.552.552 0 00-.398.168L.602 9.602a.563.563 0 00-.004.797z"/></symbol><symbol viewBox="0 0 11 20" id="chevron-right" xmlns="http://www.w3.org/2000/svg"><path d="M10.402 10.399L.967 19.833a.564.564 0 01-.8 0 .564.564 0 010-.8L9.199 10 .167.969A.57.57 0 01.565 0a.55.55 0 01.398.168l9.435 9.434a.563.563 0 01.004.797z"/></symbol><symbol viewBox="0 0 32 32" id="heart" xmlns="http://www.w3.org/2000/svg"><g clip-path="url(#fclip0)"><path d="M15.8 25.6c-.2 0-.5-.1-.7-.2C12.5 24 3.8 19.1 4 12.8v-.4C4 8.9 6.9 6 10.4 6h.3c2 0 3.9.9 5.1 2.5C17 6.9 18.9 6 20.9 6h.3c3.5 0 6.4 2.9 6.4 6.4v.4c.2 6.4-9.2 11.6-11.1 12.6-.2.1-.5.2-.7.2zM10.5 8C8 8 6 10 6 12.4v.5c-.2 5 8 9.6 9.8 10.6 1.8-1 10-5.6 9.8-10.6v-.5c0-2.4-2-4.4-4.4-4.4h-.3c-1.8 0-3.5 1.1-4.2 2.8l-.9 2.2-.9-2.2C14.2 9.1 12.5 8 10.7 8h-.2z"/></g><defs><clipPath id="fclip0"><path transform="translate(4 6)" d="M0 0h23.6v19.6H0z"/></clipPath></defs></symbol><symbol viewBox="0 0 19 20" id="search" xmlns="http://www.w3.org/2000/svg"><path d="M18.943 18.562l-6.168-6.492A7.689 7.689 0 0014.25 7.5c0-2.005-.743-3.885-2.088-5.303C10.818.78 9.027 0 7.125 0 5.223 0 3.432.782 2.088 2.197.74 3.612 0 5.495 0 7.5c0 2.002.743 3.887 2.088 5.302C3.432 14.22 5.22 15 7.125 15a6.842 6.842 0 004.34-1.55l6.167 6.49a.194.194 0 00.138.06.186.186 0 00.137-.06l1.036-1.088a.205.205 0 00.057-.145.215.215 0 00-.057-.145zm-8.056-7.102C9.88 12.517 8.545 13.1 7.125 13.1s-2.755-.583-3.762-1.64A5.722 5.722 0 011.805 7.5c0-1.495.553-2.903 1.558-3.96C4.37 2.482 5.705 1.9 7.125 1.9s2.757.58 3.762 1.64a5.722 5.722 0 011.558 3.96 5.718 5.718 0 01-1.558 3.96z"/></symbol><symbol viewBox="0 0 18 18" id="shopping-bag" xmlns="http://www.w3.org/2000/svg"><path d="M14.893 16H3l.91-11.785h10.126L14.893 16zM4.179 14.93h9.535l-.696-9.643H4.875l-.696 9.643z"/><path d="M12.696 4.75h-1.071c0-1.5-1.179-2.679-2.679-2.679A2.653 2.653 0 006.268 4.75H5.196C5.196 2.66 6.857 1 8.946 1c2.09 0 3.75 1.66 3.75 3.75z"/></symbol><symbol viewBox="0 0 32 32" id="user" xmlns="http://www.w3.org/2000/svg"><path d="M16.5 17.6c-3.444 0-6.3-2.856-6.3-6.3S13.056 5 16.5 5s6.3 2.856 6.3 6.3-2.856 6.3-6.3 6.3zm0-10.92c-2.52 0-4.62 2.1-4.62 4.62s2.1 4.62 4.62 4.62 4.62-2.1 4.62-4.62-2.1-4.62-4.62-4.62z"/><path d="M27 26.42h-1.68a8.819 8.819 0 00-8.82-8.82 8.819 8.819 0 00-8.82 8.82H6c0-5.796 4.704-10.5 10.5-10.5S27 20.624 27 26.42z"/></symbol></svg>