<?xml version="1.0" encoding="utf-8"?><svg xmlns="http://www.w3.org/2000/svg" xmlns:xlink="http://www.w3.org/1999/xlink"><symbol viewBox="0 0 101 16" id="arrow-l-long" xmlns="http://www.w3.org/2000/svg"><path d="M.293 7.293a1 1 0 000 1.414l6.364 6.364a1 1 0 001.414-1.414L2.414 8l5.657-5.657A1 1 0 006.657.93L.293 7.293zM101 7H1v2h100V7z"/></symbol><symbol viewBox="0 0 26 16" id="arrow-r" xmlns="http://www.w3.org/2000/svg"><path d="M25.707 8.809a1 1 0 000-1.414L19.343 1.03a1 1 0 10-1.415 1.414l5.657 5.657-5.657 5.657a1 1 0 001.415 1.414l6.364-6.364zM0 9.102h25v-2H0v2z"/></symbol><symbol viewBox="0 0 101 16" id="arrow-r-long" xmlns="http://www.w3.org/2000/svg"><path d="M100.707 8.707a1 1 0 000-1.414L94.343.929a1 1 0 10-1.414 1.414L98.586 8l-5.657 5.657a1 1 0 001.414 1.414l6.364-6.364zM0 9h100V7H0v2z"/></symbol><symbol viewBox="0 0 39 16" id="arrow-r2" xmlns="http://www.w3.org/2000/svg"><path d="M38.707 8.707a1 1 0 000-1.414L32.343.929a1 1 0 10-1.414 1.414L36.586 8l-5.657 5.657a1 1 0 001.414 1.414l6.364-6.364zM0 9h38V7H0v2z"/></symbol><symbol viewBox="0 0 32 32" id="bag" xmlns="http://www.w3.org/2000/svg"><path d="M25.236 27H7L8.396 8.93h15.525L25.236 27zM8.807 25.357H23.43l-1.07-14.785H9.875L8.807 25.357z"/><path d="M21.868 9.75h-1.643c0-2.3-1.807-4.107-4.107-4.107A4.067 4.067 0 0012.01 9.75h-1.643A5.715 5.715 0 0116.118 4a5.715 5.715 0 015.75 5.75z"/></symbol><symbol viewBox="0 0 20 11" id="chevron-bottom" xmlns="http://www.w3.org/2000/svg"><path d="M10.399 10.402L19.833.967a.564.564 0 000-.8.564.564 0 00-.8 0L10 9.199.969.167A.57.57 0 000 .565a.55.55 0 00.168.398l9.434 9.435a.563.563 0 00.797.004z"/></symbol><symbol viewBox="0 0 11 20" id="chevron-left" xmlns="http://www.w3.org/2000/svg"><path d="M.598 10.399l9.435 9.434a.564.564 0 00.8 0 .564.564 0 000-.8L1.801 10 10.833.969A.57.57 0 0010.435 0a.552.552 0 00-.398.168L.602 9.602a.563.563 0 00-.004.797z"/></symbol><symbol viewBox="0 0 11 20" id="chevron-right" xmlns="http://www.w3.org/2000/svg"><path d="M10.402 10.399L.967 19.833a.564.564 0 01-.8 0 .564.564 0 010-.8L9.199 10 .167.969A.57.57 0 01.565 0a.55.55 0 01.398.168l9.435 9.434a.563.563 0 01.004.797z"/></symbol><symbol viewBox="0 0 20 11" id="chevron-top" xmlns="http://www.w3.org/2000/svg"><path d="M10.399.598l9.434 9.435a.564.564 0 010 .8.564.564 0 01-.8 0L10 1.801.969 10.833A.57.57 0 010 10.435a.55.55 0 01.168-.398L9.602.602A.563.563 0 0110.4.598z"/></symbol><symbol viewBox="0 0 33 32" id="fb" xmlns="http://www.w3.org/2000/svg"><path d="M18.3 11.938v-3.25c0-.898.727-1.626 1.624-1.626h1.623V3H18.3a4.873 4.873 0 00-4.872 4.875v4.063H10.18V16h3.248v13H18.3V16h3.247l1.624-4.063H18.3z"/></symbol><symbol viewBox="0 0 33 32" id="gPlus" xmlns="http://www.w3.org/2000/svg"><path fill-rule="evenodd" clip-rule="evenodd" d="M15.793 2.996a13.442 13.442 0 00-7.68 2.268C2.769 8.837.682 15.722 3.14 21.664c2.46 5.941 8.798 9.33 15.101 8.076 6.304-1.255 10.864-6.815 10.864-13.246H29.1v-1.5H17.108v4h7.816a9.623 9.623 0 01-7.433 6.96 9.62 9.62 0 01-10.788-5.769 9.632 9.632 0 013.55-11.712 9.615 9.615 0 0112.172 1.2l2.728-2.728a13.473 13.473 0 00-9.36-3.949z"/><path fill-rule="evenodd" clip-rule="evenodd" d="M6.418 19.402L3.215 21.82c2.507 5.842 8.78 9.164 15.027 7.92a13.45 13.45 0 007.286-4.111l-3.02-2.416a9.596 9.596 0 01-5.017 2.742 9.62 9.62 0 01-11.073-6.553z"/><path fill-rule="evenodd" clip-rule="evenodd" d="M4.61 8.672c-2.622 3.703-3.284 8.605-1.469 12.992l.128.299c1.353-.782 2.353-1.469 3.304-2.116a9.63 9.63 0 011.067-8.79C5.622 9.494 5.622 9.494 4.61 8.672zm12.498 6.323v4h7.815a9.611 9.611 0 01-2.414 4.218l3.019 2.416a13.487 13.487 0 003.578-9.134h-.007v-1.5H17.108z"/></symbol><symbol viewBox="0 0 32 32" id="heart" xmlns="http://www.w3.org/2000/svg"><g clip-path="url(#lclip0)"><path d="M15.8 25.6c-.2 0-.5-.1-.7-.2C12.5 24 3.8 19.1 4 12.8v-.4C4 8.9 6.9 6 10.4 6h.3c2 0 3.9.9 5.1 2.5C17 6.9 18.9 6 20.9 6h.3c3.5 0 6.4 2.9 6.4 6.4v.4c.2 6.4-9.2 11.6-11.1 12.6-.2.1-.5.2-.7.2zM10.5 8C8 8 6 10 6 12.4v.5c-.2 5 8 9.6 9.8 10.6 1.8-1 10-5.6 9.8-10.6v-.5c0-2.4-2-4.4-4.4-4.4h-.3c-1.8 0-3.5 1.1-4.2 2.8l-.9 2.2-.9-2.2C14.2 9.1 12.5 8 10.7 8h-.2z"/></g><defs><clipPath id="lclip0"><path transform="translate(4 6)" d="M0 0h23.6v19.6H0z"/></clipPath></defs></symbol><symbol viewBox="0 0 32 32" id="heart2" xmlns="http://www.w3.org/2000/svg"><g clip-path="url(#mclip0)"><path d="M21.2 6h-.3c-2 0-3.9.9-5.1 2.5C14.6 6.9 12.7 6 10.7 6h-.3C6.9 6 4 8.9 4 12.4v.5c-.2 6.2 8.5 11.1 11.1 12.5.2.1.4.2.7.2.2 0 .5-.1.7-.2 2.7-1.4 11.3-6.3 11.1-12.6v-.5c0-3.4-2.9-6.3-6.4-6.3z"/></g><defs><clipPath id="mclip0"><path transform="translate(4 6)" d="M0 0h23.6v19.6H0z"/></clipPath></defs></symbol><symbol viewBox="0 0 33 32" id="inst" xmlns="http://www.w3.org/2000/svg"><path d="M30.134 10.235c-.066-1.488-.306-2.512-.65-3.398a6.835 6.835 0 00-1.62-2.484 6.887 6.887 0 00-2.476-1.614c-.891-.345-1.908-.586-3.396-.651C20.494 2.016 20.018 2 16.218 2s-4.275.016-5.768.082c-1.487.066-2.51.307-3.396.651a6.829 6.829 0 00-2.482 1.62 6.896 6.896 0 00-1.613 2.479c-.345.891-.585 1.909-.65 3.397-.072 1.5-.088 1.976-.088 5.778 0 3.803.016 4.28.082 5.773.065 1.488.306 2.511.65 3.398a6.908 6.908 0 001.619 2.484 6.888 6.888 0 002.477 1.614c.891.345 1.908.585 3.395.651 1.493.066 1.969.082 5.769.082s4.276-.016 5.768-.082c1.488-.066 2.51-.306 3.396-.65a7.162 7.162 0 004.096-4.099c.344-.892.585-1.91.65-3.398.066-1.494.082-1.97.082-5.773 0-3.802-.005-4.278-.071-5.772zm-2.52 11.436c-.06 1.367-.29 2.106-.482 2.599a4.645 4.645 0 01-2.657 2.659c-.492.191-1.236.421-2.598.481-1.476.066-1.919.082-5.653.082-3.735 0-4.183-.016-5.654-.082-1.367-.06-2.105-.29-2.597-.481a4.306 4.306 0 01-1.608-1.045 4.354 4.354 0 01-1.044-1.609c-.192-.492-.421-1.236-.481-2.599-.066-1.477-.082-1.92-.082-5.658 0-3.737.016-4.186.082-5.657.06-1.368.29-2.107.48-2.6.225-.607.58-1.16 1.05-1.608a4.369 4.369 0 011.608-1.045c.492-.192 1.236-.421 2.598-.482 1.476-.065 1.919-.082 5.653-.082 3.74 0 4.183.017 5.654.082 1.367.06 2.105.29 2.597.482a4.3 4.3 0 011.608 1.045c.464.454.82 1.001 1.044 1.609.192.492.421 1.236.481 2.599.066 1.477.082 1.92.082 5.657 0 3.738-.016 4.175-.082 5.652z"/><path d="M16.218 8.812a7.194 7.194 0 00-7.19 7.195 7.194 7.194 0 007.19 7.195c3.97 0 7.19-3.222 7.19-7.195a7.194 7.194 0 00-7.19-7.195zm0 11.863a4.667 4.667 0 01-4.664-4.668 4.666 4.666 0 014.664-4.667 4.666 4.666 0 014.665 4.667 4.666 4.666 0 01-4.665 4.668zm9.154-12.147a1.68 1.68 0 11-3.359 0 1.68 1.68 0 013.359 0z"/></symbol><symbol viewBox="0 0 9 12" id="location" xmlns="http://www.w3.org/2000/svg"><path d="M4.5 0C2.01 0 0 1.783 0 3.991c0 .798.27 1.557.735 2.182l1.89 2.913L4.545 12l1.89-2.927 1.86-2.927A3.65 3.65 0 009 3.991C9 1.783 6.99 0 4.5 0zm0 5.361c-.825 0-1.5-.598-1.5-1.33 0-.732.675-1.33 1.5-1.33S6 3.299 6 4.03c0 .732-.675 1.33-1.5 1.33z"/></symbol><symbol viewBox="0 0 41 40" id="mastercard" xmlns="http://www.w3.org/2000/svg"><g clip-path="url(#pclip0)"><path d="M10.834 18.28c-.749 0-1.323.241-1.323.241l-.159.942s.474-.193 1.19-.193c.408 0 .705.046.705.376 0 .202-.036.276-.036.276s-.32-.026-.47-.026c-.944 0-1.936.402-1.936 1.62 0 .958.65 1.177 1.054 1.177.77 0 1.104-.5 1.12-.501l-.036.418h.962l.43-3.01c-.002-1.279-1.115-1.32-1.501-1.32zm-.54 3.497c-.339 0-.427-.258-.427-.413 0-.298.162-.658.962-.658.187 0 .207.02.238.025.021.184-.114 1.046-.773 1.046zm4.013-2.487c.154 0 .746.048.746.048l.138-.964s-.383-.086-1.008-.086c-.808 0-1.627.323-1.627 1.427 0 1.252 1.367 1.125 1.367 1.653 0 .351-.382.38-.677.38-.51 0-.969-.174-.97-.167l-.146.957c.026.007.31.133 1.226.133.246 0 1.652.064 1.652-1.389 0-1.358-1.302-1.09-1.302-1.636 0-.271.212-.357.601-.357zm2.298.123h.578l.14-1.029h-.545l.111-.637h-1.092c-.024.023-.645 3.595-.645 4.028 0 .646.362.932.87.927.4-.003.71-.114.82-.144l.136-.93c-.075 0-.184.033-.282.033-.38 0-.421-.203-.397-.352l.306-1.896zm4.577-5.966h-1.949c-.262.354-.508.73-.731 1.099h3.477c-.241-.384-.508-.75-.797-1.1zM36.39 25.811a.559.559 0 00-.053-.07.077.077 0 00-.03-.02.111.111 0 00.073-.032.095.095 0 00.011-.12.085.085 0 00-.044-.035.268.268 0 00-.09-.01h-.123v.357h.057v-.151h.034c.02 0 .036.004.045.012a.32.32 0 01.06.083l.032.057h.072l-.044-.071zm-.13-.129h-.07v-.108h.067a.17.17 0 01.056.007c.011.004.019.01.025.018a.05.05 0 01.008.028.05.05 0 01-.017.04c-.012.01-.036.015-.068.015zM22.57 15.624h-4.676c-.299.566-.497.994-.553 1.1h5.672a10.354 10.354 0 00-.443-1.1zM7.466 17.41L6.39 20.604l-.056-3.194H4.74l-.873 5.205H4.92l.664-3.924.098 3.924h.752L7.84 18.69l-.622 3.924h1.118l.861-5.205h-1.73zm21.074.87c-.75 0-1.324.241-1.324.241l-.16.942s.475-.193 1.191-.193c.407 0 .705.046.705.376 0 .202-.037.276-.037.276s-.32-.026-.47-.026c-.944 0-1.936.402-1.936 1.62 0 .958.651 1.177 1.055 1.177.77 0 1.102-.5 1.12-.501l-.036.418h.961l.429-3.01c.002-1.279-1.112-1.32-1.498-1.32zm-.538 3.497c-.34 0-.428-.258-.428-.413 0-.298.162-.658.963-.658.186 0 .206.02.238.025.02.184-.116 1.046-.773 1.046zm8.422.358a.298.298 0 00-.124-.123.33.33 0 00-.45.123.327.327 0 000 .33c.03.053.07.094.123.124a.332.332 0 00.452-.454zm-.046.303a.28.28 0 01-.24.14.279.279 0 01-.276-.278c0-.047.012-.093.038-.138a.276.276 0 01.478.276z"/><path d="M36.25 22.413a.452.452 0 00-.053-.07.08.08 0 00-.03-.019.11.11 0 00.073-.032.092.092 0 00.011-.12.1.1 0 00-.043-.035.273.273 0 00-.09-.011h-.125v.357h.058v-.152h.033c.02 0 .037.005.047.012.014.013.034.04.06.085l.03.056h.072l-.043-.07zm-.128-.13h-.07v-.109h.065c.029 0 .047.002.058.006.01.005.018.01.024.019a.052.052 0 01-.008.068c-.014.012-.036.015-.069.015zm-3.872-3.951c-.488 0-.851.668-.851.668l.098-.614h-1.018l-.682 4.236h1.121c.32-1.81.378-3.278 1.135-3.01.134-.7.263-.97.408-1.266 0 0-.068-.014-.21-.014zm2.818-.916l-.236 1.462s-.41-.569-1.054-.569c-1.002.001-1.836 1.209-1.836 2.595 0 .896.446 1.774 1.354 1.774.655 0 1.017-.457 1.017-.457l-.047.39h1.062l.835-5.197-1.095.002zm-1.385 4.2c-.394 0-.578-.33-.578-.849 0-.848.38-1.407.86-1.407.393.001.594.271.594.907 0 .577-.285 1.348-.876 1.348z"/><path d="M39.125 7.04H1.211C.64 7.04.18 7.5.18 8.068v23.863c0 .569.46 1.03 1.03 1.03h37.914a1.03 1.03 0 001.03-1.03V8.07a1.03 1.03 0 00-1.03-1.03zm-2.56 18.823a.309.309 0 01-.122.124.336.336 0 01-.33 0 .332.332 0 01.002-.577.348.348 0 01.163-.043c.056 0 .11.015.162.043a.3.3 0 01.124.123.338.338 0 01.001.33zM37.307 20c.001 5.67-4.589 10.267-10.255 10.268-2.65 0-5.066-1.004-6.886-2.655a10.212 10.212 0 01-6.877 2.652C7.626 30.265 3.03 25.667 3.03 20c0-5.645 4.56-10.23 10.193-10.266h.066c2.645 0 5.057 1.004 6.877 2.652a10.218 10.218 0 016.881-2.655c5.666-.002 10.26 4.594 10.261 10.264l-.001.005z"/><path d="M19.116 26.492c.324.398.668.777 1.048 1.121l.027-.021-.001-.001h.002c.374-.34.723-.708 1.042-1.1h-2.119zm1.397-5.635s.143-.708.143-.996c0-.72-.358-1.599-1.557-1.599-1.098 0-1.911 1.185-1.911 2.524 0 1.544 1.018 1.911 1.887 1.911.8 0 1.153-.18 1.153-.18l.193-1.054s-.61.27-1.16.27c-1.173 0-.968-.876-.968-.876h2.22zm-1.41-1.614c.616 0 .502.693.502.749h-1.212c0-.072.115-.749.71-.749zm6.532-.836c.556 0 1.002.313 1.002.313l.179-1.158s-.661-.268-1.23-.268c-1.26 0-2.487 1.095-2.487 3.15 0 1.364.661 2.264 1.965 2.264.368 0 .955-.15.955-.15l.196-1.192s-.535.269-.903.269c-.776-.001-1.087-.593-1.087-1.228 0-1.29.667-2 1.41-2zm-7.889 5.928c.178.382.384.745.606 1.1h3.64c.22-.354.42-.72.597-1.1h-4.843zm5.333-6.001c-.49 0-.852.667-.852.667l.099-.614h-1.017l-.682 4.237h1.121c.318-1.81.377-3.278 1.136-3.01.133-.7.26-.972.406-1.268 0 0-.068-.014-.211-.012z"/></g><defs><clipPath id="pclip0"><path transform="translate(.182)" d="M0 0h39.972v40H0z"/></clipPath></defs></symbol><symbol viewBox="0 0 24 24" id="minus" xmlns="http://www.w3.org/2000/svg"><path d="M1 12h22v1H1z"/></symbol><symbol viewBox="0 0 41 40" id="paypal" xmlns="http://www.w3.org/2000/svg"><g clip-path="url(#rclip0)"><path d="M37.615 6.25H2.64a2.503 2.503 0 00-2.498 2.5v22.5c0 1.38 1.121 2.5 2.498 2.5h34.975a2.5 2.5 0 002.499-2.5V8.75c0-1.378-1.12-2.5-2.498-2.5zM13.9 12.295c.1-.602.62-1.045 1.232-1.045h5.581c1.075 0 2.099.463 2.81 1.268a3.755 3.755 0 01.91 2.947 3.756 3.756 0 01-3.72 3.285H17.63c-.612 0-1.131.442-1.231 1.045l-1.075 6.455h-3.747L13.9 12.295zm15.48 7.287a4.977 4.977 0 01-4.93 4.168h-3.265l-1.074 6.455c-.1.603-.62 1.045-1.231 1.045h-3.75c-.367 0-.717-.16-.954-.445a1.245 1.245 0 01-.277-1.015l.177-1.04h2.303c.612 0 1.132-.442 1.232-1.045l1.074-6.455h2.026a6.255 6.255 0 006.196-5.475 6.12 6.12 0 00.022-1.318 4.939 4.939 0 012.449 5.125z"/></g><defs><clipPath id="rclip0"><path transform="translate(.142)" d="M0 0h39.972v40H0z"/></clipPath></defs></symbol><symbol viewBox="0 0 24 24" id="plus" xmlns="http://www.w3.org/2000/svg"><path d="M1 11h22v1H1z"/><path d="M13 1v22h-1V1z"/></symbol><symbol viewBox="0 0 19 20" id="search" xmlns="http://www.w3.org/2000/svg"><path d="M18.943 18.562l-6.168-6.492A7.689 7.689 0 0014.25 7.5c0-2.005-.743-3.885-2.088-5.303C10.818.78 9.027 0 7.125 0 5.223 0 3.432.782 2.088 2.197.74 3.612 0 5.495 0 7.5c0 2.002.743 3.887 2.088 5.302C3.432 14.22 5.22 15 7.125 15a6.842 6.842 0 004.34-1.55l6.167 6.49a.194.194 0 00.138.06.186.186 0 00.137-.06l1.036-1.088a.205.205 0 00.057-.145.215.215 0 00-.057-.145zm-8.056-7.102C9.88 12.517 8.545 13.1 7.125 13.1s-2.755-.583-3.762-1.64A5.722 5.722 0 011.805 7.5c0-1.495.553-2.903 1.558-3.96C4.37 2.482 5.705 1.9 7.125 1.9s2.757.58 3.762 1.64a5.722 5.722 0 011.558 3.96 5.718 5.718 0 01-1.558 3.96z"/></symbol><symbol viewBox="0 0 18 18" id="shopping-bag" xmlns="http://www.w3.org/2000/svg"><path d="M14.893 16H3l.91-11.785h10.126L14.893 16zM4.179 14.93h9.535l-.696-9.643H4.875l-.696 9.643z"/><path d="M12.696 4.75h-1.071c0-1.5-1.179-2.679-2.679-2.679A2.653 2.653 0 006.268 4.75H5.196C5.196 2.66 6.857 1 8.946 1c2.09 0 3.75 1.66 3.75 3.75z"/></symbol><symbol viewBox="0 0 41 40" id="uni-pay" xmlns="http://www.w3.org/2000/svg"><path d="M25.077 16.479c-.16-.135-.394-.204-.697-.204h-1.573l-.726 3.542h.73l.26-1.28h.845c.338 0 .634-.104.884-.309.248-.205.409-.476.479-.814.013-.06.022-.12.03-.179.005-.058.008-.114.008-.162v-.008c0-.255-.08-.45-.24-.586zm-.519.837c-.004.027-.008.057-.015.088-.038.176-.107.305-.212.39-.105.084-.25.126-.433.126H23.2l.215-1.038h.593c.195 0 .334.027.424.085.089.057.133.149.133.274 0 .025-.003.05-.006.075zm2.239.492l-.255.175c-.265-.207-.507-.336-.975-.119-.637.296-1.17 2.563.582 1.817l.101.118.692.018.453-2.061-.598.052zm-.393 1.127c-.11.328-.358.544-.552.482-.194-.06-.263-.375-.15-.704.11-.328.36-.543.552-.482.194.06.263.376.15.704zm-13.442-2.791l-.503 2.42a.797.797 0 01-.293.494c-.15.116-.345.174-.58.174-.206 0-.353-.059-.444-.177a.473.473 0 01-.092-.305c0-.056.005-.118.02-.186l.502-2.42h-.767l-.507 2.448c-.025.12-.037.23-.037.334 0 .25.073.456.218.618.21.229.538.342.986.342.477 0 .866-.112 1.167-.334.304-.227.5-.545.585-.96l.508-2.45-.763.002zm8.858 1.63c-.104-.133-.268-.2-.495-.2a.845.845 0 00-.64.281l-.077.09.062-.315h-.542l-.437 2.186h.556l.25-1.256a.656.656 0 01.195-.371c.1-.089.22-.133.363-.133.116 0 .195.033.24.1.042.067.049.171.021.31l-.27 1.35h.557l.297-1.489c.05-.236.02-.42-.08-.553zm-6.207.001c-.102-.135-.267-.2-.495-.2a.845.845 0 00-.64.28l-.077.09.061-.315h-.541l-.437 2.186h.557l.249-1.255a.66.66 0 01.195-.371.52.52 0 01.362-.134c.117 0 .197.034.239.101.043.067.05.17.023.31l-.27 1.35h.558l.297-1.49c.048-.235.02-.42-.08-.552zm11.072 3.385c-.081.002-.118-.03-.115-.093l-.029-.255h-.689l.024.556c.01.161.108.234.301.224h.506l.124-.431h-.122zm-10.251-3.53l-.469 2.184h.599l.47-2.184h-.6zm2.65 3.469l.152-.268h-.728l-.272.406c-.03.064-.095.097-.192.097h-.104l-.119.43h.542c.177.01.325-.074.444-.256h1.04l.11-.409h-.873zm5.834-.254c-.27 0-.644.187-.644.187l.032-.187h-.732l-.144.509h.14l-.683 2.404h-.14l-.135.478h1.398l-.06.207h.71l.059-.207h.143l.134-.478h-.143l.683-2.404h.142l.144-.51h-.904zm-.834 2.913h-.546l.14-.493h.547l-.141.493zm.272-.955c-.242.014-.596.188-.596.188l.188-.682h.548s-.071.23-.14.494zm.27-.955a3.034 3.034 0 00-.592.157l.186-.651h.547s-.08.267-.14.494zm4.605-4.218l-.63 1.477-.037-1.476h-.337l-.401.006.191 2.352c-.16.32-.442 1.041-.96 1.201l-.054.375c.618.023.873-.283 1.003-.416.13-.133.35-.419.58-.91l1.285-2.61h-.64zm-1.35 4.104h-2.227l-.134.463h.771l-.123.43h-.77l-.132.46h.71l-.55.796c-.062.074-.132.112-.215.112h-.202l-.127.445h.648a.38.38 0 00.385-.206l.35-.527.104.495c.01.16.123.233.343.221h.425l.127-.446h-.12c-.081 0-.13-.026-.14-.08l-.09-.541h-.387l.179-.27h.79l.132-.462h-.71l.123-.429h.71v.001l.13-.462z"/><path d="M39.045 7H1.13C.561 7 .101 7.461.101 8.03v23.862c0 .57.46 1.03 1.03 1.03h37.914c.569 0 1.029-.46 1.029-1.029V8.03c0-.569-.46-1.03-1.03-1.03zm-6.222 6.656l-2.85 12.62c-.185.81-.971 1.465-1.78 1.507h-6.331c-.822-.014-1.333-.686-1.145-1.513l.221-.982h-.497l-.221.982c-.188.828.323 1.5 1.145 1.513h-6.73c-.822-.014-1.334-.686-1.145-1.513l.662-2.93h-.58l-.662 2.93c-.188.828.323 1.5 1.145 1.513H8.49c-.662-.01-1.122-.449-1.178-1.052v-.234c.006-.073.016-.15.033-.226l2.851-12.619c.191-.835 1.261-1.512 2.096-1.512h5.53c-.83.018-1.875.686-2.063 1.512l-.535 2.371h.58l.537-2.37c.187-.825 1.232-1.494 2.062-1.511.01-.002.022-.002.032-.002l4.285.002h2.409l-.014.001c-.828.026-1.858.69-2.047 1.51l-.536 2.37h.497l.536-2.37c.188-.82 1.22-1.484 2.047-1.51h6.042c.836 0 1.36.678 1.169 1.513z"/><path d="M19.611 22.368l.122-.445h-1.914l-.12.445h.457l-.117.43h-.479l-.12.447h.477l-.222.812c-.07.254.007.382.23.382h1.17l.114-.414h-.61c-.157.01-.214-.037-.17-.144l.174-.634h.749l.122-.447h-.749l.117-.432h.77zm1.921-1.548c-.327 0-.688.27-.688.27l.029-.26h-.64l-.91 3.355c-.043.16.067.238.33.238h.687l.1-.364h-.27c-.07 0-.096-.033-.077-.097l.321-1.178h1.373c.29 0 .455-.095.493-.287l.463-1.678h-1.21zm.107 1.437c-.006.076-.051.106-.131.096h-.977l.09-.334h1.083l-.065.238zm.174-.635s-.343-.005-.643 0a.894.894 0 00-.481.134l.13-.452h1.08l-.086.318zm-5.191-4.788l-.112.53h.605l.113-.53h-.606zm2.679.964c-.156-.15-.37-.227-.64-.227-.33 0-.611.106-.844.314-.233.208-.384.49-.456.845a1.468 1.468 0 00-.033.308c.002.257.08.46.238.61.156.147.37.222.64.222.327 0 .608-.102.841-.308.234-.204.385-.483.455-.832a2.57 2.57 0 00.025-.164c.006-.055.01-.107.01-.151 0-.26-.08-.465-.236-.617zm-.347.785a1.1 1.1 0 01-.017.112c-.046.231-.121.405-.227.52a.529.529 0 01-.409.174c-.127 0-.224-.037-.292-.11-.07-.072-.104-.176-.104-.31a1.02 1.02 0 01.02-.209c.049-.236.124-.412.231-.53a.525.525 0 01.408-.175c.126 0 .223.038.291.112a.44.44 0 01.104.313c0 .032-.002.067-.005.103z"/><path d="M21.734 22.913l-.053.174c0 .053-.042.079-.126.079h-.165l.012-.27h-.625l-.046 1.24c-.003.214.101.313.31.305h.75l.101-.366h-.311c-.138 0-.205-.039-.2-.112l.002-.462h.333c.252-.012.407-.121.466-.334l.07-.254h-.518z"/></symbol><symbol viewBox="0 0 32 32" id="user" xmlns="http://www.w3.org/2000/svg"><path d="M16.5 17.6c-3.444 0-6.3-2.856-6.3-6.3S13.056 5 16.5 5s6.3 2.856 6.3 6.3-2.856 6.3-6.3 6.3zm0-10.92c-2.52 0-4.62 2.1-4.62 4.62s2.1 4.62 4.62 4.62 4.62-2.1 4.62-4.62-2.1-4.62-4.62-4.62z"/><path d="M27 26.42h-1.68a8.819 8.819 0 00-8.82-8.82 8.819 8.819 0 00-8.82 8.82H6c0-5.796 4.704-10.5 10.5-10.5S27 20.624 27 26.42z"/></symbol><symbol viewBox="0 0 41 40" id="visa" xmlns="http://www.w3.org/2000/svg"><g clip-path="url(#xclip0)"><path d="M39.165 7.04H1.251C.682 7.04.222 7.5.222 8.068v23.863c0 .569.46 1.03 1.03 1.03h37.913c.57 0 1.03-.461 1.03-1.03V8.07c0-.569-.46-1.03-1.03-1.03zM3.317 14.872h4.266c.575.022 1.039.205 1.199.82l.928 4.466c-.912-2.336-3.109-4.28-6.428-5.084l.035-.202zm5.162 10.184l-2.464-8.425c1.771 1.134 3.28 2.935 3.812 4.188l.287 1.04 2.695-6.89h2.916L11.39 25.055l-2.912.002zm9.389.007h-2.752l1.72-10.105h2.754l-1.722 10.105zm4.788.151c-1.233-.012-2.422-.257-3.066-.54l.387-2.26.355.16c.904.378 1.489.53 2.591.53.79 0 1.638-.309 1.645-.986.005-.442-.354-.758-1.426-1.254-1.044-.483-2.427-1.293-2.41-2.744.015-1.964 1.931-3.335 4.651-3.335 1.066 0 1.92.22 2.465.425l-.372 2.19-.248-.117a5.074 5.074 0 00-2.06-.387c-1.077 0-1.576.45-1.576.87-.006.473.583.784 1.545 1.253 1.588.72 2.322 1.596 2.312 2.745-.021 2.096-1.899 3.45-4.793 3.45zm11.925-.147s-.251-1.161-.335-1.514l-3.524-.004c-.107.272-.578 1.518-.578 1.518h-2.89l4.086-9.26c.29-.658.782-.838 1.442-.838h2.126l2.227 10.097-2.554.001z"/><path d="M33.16 18.566l-.184-.871c-.14.38-.382.991-.366.964l-1.097 2.825h2.285l-.637-2.918z"/></g><defs><clipPath id="xclip0"><path transform="translate(.222)" d="M0 0h39.972v40H0z"/></clipPath></defs></symbol><symbol viewBox="0 0 33 32" id="yt" xmlns="http://www.w3.org/2000/svg"><path d="M30.132 10.558c0-2.526-2.046-4.558-4.59-4.558H6.741c-2.544 0-4.59 2.032-4.59 4.558v9.94c0 2.525 2.046 4.557 4.59 4.557h18.857c2.543 0 4.59-2.032 4.59-4.558v-9.94h-.056zm-8.627 5.107l-7.022 3.46c-.277.164-1.217-.056-1.217-.385v-7.03c0-.33.995-.494 1.272-.33l6.746 3.625c.166.11.498.549.221.659z"/></symbol></svg>