<svg width="32" height="32" viewBox="0 0 32 32" fill="none" xmlns="http://www.w3.org/2000/svg">
<path d="M8.51612 24.8235H7V7.85621C7 5.69673 8.66773 4 10.7145 4H21.0241C23.0708 4 24.7386 5.69673 24.7386 7.77908V22.7412H23.2224V7.77908C23.2224 6.5451 22.237 5.54248 21.0241 5.54248H10.7145C9.50159 5.54248 8.51612 6.5451 8.51612 7.77908V24.8235Z" fill="black"/>
<path d="M24.7386 27.6H9.82561C8.25583 27.6 7 26.366 7 24.8235C7 23.281 8.25583 22.0471 9.82561 22.0471H24.7386V23.5895C24.0322 23.5895 23.4827 24.1294 23.4827 24.8235C23.4827 25.5176 24.0322 26.0575 24.7386 26.0575V27.6ZM9.82561 23.5895C9.11921 23.5895 8.56978 24.1294 8.56978 24.8235C8.56978 25.5176 9.11921 26.0575 9.82561 26.0575H22.2269C22.0699 25.6719 21.9129 25.2863 21.9129 24.8235C21.9129 24.3608 21.9914 23.9752 22.2269 23.5895H9.82561Z" fill="black"/>
<path d="M9.93079 21.4301C9.46804 21.4301 9.15955 21.1216 9.15955 20.6588V6.77649C9.15955 6.31375 9.46804 6.00525 9.93079 6.00525C10.3935 6.00525 10.702 6.31375 10.702 6.77649V20.6588C10.702 21.0445 10.3935 21.4301 9.93079 21.4301Z" fill="black"/>
</svg>
