<svg width="33" height="32" viewBox="0 0 33 32" fill="none" xmlns="http://www.w3.org/2000/svg">
<path fill-rule="evenodd" clip-rule="evenodd" d="M15.7928 2.99602C13.1325 2.95802 10.4505 3.70043 8.11265 5.26353C2.76898 8.83663 0.682047 15.7222 3.14149 21.6639C5.6009 27.6055 11.9391 30.9948 18.2423 29.7401C24.5456 28.4854 29.1059 22.9253 29.1059 16.494H29.0999V14.994H17.1082V18.994H20.1061H23.104H24.9231C23.9947 22.4756 21.1678 25.223 17.4908 25.9549C12.9685 26.855 8.46782 24.4481 6.70332 20.1854C4.93881 15.9225 6.4198 11.0359 10.2536 8.47252C14.0874 5.90912 19.1645 6.41109 22.4248 9.67369L25.1534 6.94517C22.8812 4.67137 19.9548 3.35851 16.9306 3.06041C16.5526 3.02341 16.1728 3.00144 15.7927 2.99644L15.7928 2.99602Z" fill="white"/>
<path fill-rule="evenodd" clip-rule="evenodd" d="M6.41813 19.4023L3.21527 21.8203C5.72161 27.6623 11.9957 30.9836 18.2419 29.7402C21.1292 29.1655 23.6428 27.6803 25.5279 25.629L22.5085 23.213C21.1859 24.573 19.4678 25.5616 17.4905 25.9552C12.9683 26.8553 8.46757 24.4482 6.70308 20.1855C6.59597 19.9268 6.5015 19.665 6.41813 19.4023Z" fill="white"/>
<path fill-rule="evenodd" clip-rule="evenodd" d="M4.61032 8.67188C1.98817 12.3749 1.32551 17.2766 3.14149 21.6638C3.18306 21.7642 3.26948 21.9628 3.26948 21.9628C4.62249 21.1811 5.6218 20.4944 6.57326 19.8466C6.53029 19.7322 6.48612 19.6117 6.45728 19.5247C5.49197 16.6167 5.97693 13.4944 7.64005 11.0574C5.6218 9.49437 5.6218 9.49437 4.61032 8.67188Z" fill="white"/>
<path fill-rule="evenodd" clip-rule="evenodd" d="M17.108 14.9946V18.9946H20.1059H23.1038H24.9229C24.4937 20.604 23.6455 22.0444 22.5085 23.2135L25.5279 25.6295C27.7582 23.2025 29.1055 19.98 29.1055 16.4946H29.0995V14.9946H17.1078H17.108Z" fill="white"/>
</svg>
