<svg width="32" height="32" viewBox="0 0 32 32" fill="none" xmlns="http://www.w3.org/2000/svg">
<g clip-path="url(#clip0)">
<path d="M21.2 6H21.1H20.9C18.9 6 17 6.9 15.8 8.5C14.6 6.9 12.7 6 10.7 6H10.5H10.4C6.89997 6 3.99997 8.9 3.99997 12.4V12.6C3.99997 12.7 3.99997 12.8 3.99997 12.9C3.79997 19.1 12.5 24 15.1 25.4C15.3 25.5 15.5 25.6 15.8 25.6C16 25.6 16.3 25.5 16.5 25.4C19.2 24 27.8 19.1 27.6 12.8C27.6 12.7 27.6 12.6 27.6 12.5V12.3C27.6 8.9 24.7 6 21.2 6Z" fill="#FF4823"/>
</g>
<defs>
<clipPath id="clip0">
<rect width="23.6" height="19.6" fill="white" transform="translate(4 6)"/>
</clipPath>
</defs>
</svg>
