<svg width="33" height="32" viewBox="0 0 33 32" fill="none" xmlns="http://www.w3.org/2000/svg">
<path d="M30.134 10.2348C30.0684 8.74657 29.8279 7.72342 29.4834 6.83684C29.128 5.89576 28.5812 5.05322 27.8648 4.35281C27.1649 3.64149 26.3174 3.08877 25.3878 2.73867C24.4967 2.39392 23.4796 2.15325 21.9924 2.08763C20.4941 2.01646 20.0185 2 16.2183 2C12.4182 2 11.9425 2.01646 10.4497 2.08207C8.96253 2.14769 7.94009 2.38857 7.05434 2.73311C6.1137 3.08877 5.27174 3.63593 4.57181 4.35281C3.86099 5.05322 3.30887 5.90132 2.9588 6.8315C2.61428 7.72342 2.37378 8.74102 2.30821 10.2293C2.23709 11.7286 2.22064 12.2046 2.22064 16.0074C2.22064 19.8102 2.23709 20.2862 2.30266 21.78C2.36823 23.2682 2.60894 24.2914 2.95346 25.178C3.30887 26.119 3.86099 26.9616 4.57181 27.662C5.27174 28.3733 6.11925 28.926 7.04879 29.2761C7.94009 29.6209 8.95698 29.8615 10.4444 29.9272C11.9369 29.993 12.4128 30.0092 16.213 30.0092C20.0131 30.0092 20.4888 29.993 21.9815 29.9272C23.4688 29.8615 24.4912 29.6209 25.3769 29.2761C27.258 28.5484 28.7452 27.0601 29.4725 25.178C29.8168 24.286 30.0575 23.2682 30.1231 21.78C30.1886 20.2862 30.2051 19.8102 30.2051 16.0074C30.2051 12.2046 30.1995 11.7286 30.134 10.2348ZM27.6134 21.6705C27.5532 23.0385 27.3236 23.7771 27.1322 24.2696C26.6619 25.4898 25.6941 26.4582 24.4747 26.9289C23.9826 27.1204 23.2391 27.3501 21.8775 27.4102C20.4012 27.476 19.9584 27.4923 16.2239 27.4923C12.4893 27.4923 12.041 27.476 10.57 27.4102C9.20303 27.3501 8.46487 27.1204 7.97277 26.9289C7.36596 26.7045 6.81363 26.3488 6.36531 25.8837C5.90054 25.4295 5.54513 24.8824 5.32086 24.2751C5.12949 23.7827 4.89988 23.0385 4.83986 21.6761C4.77408 20.1988 4.75785 19.7555 4.75785 16.0183C4.75785 12.2811 4.77408 11.8325 4.83986 10.3607C4.89988 8.9928 5.12949 8.25413 5.32086 7.76168C5.54513 7.15424 5.90054 6.60173 6.37086 6.15289C6.82452 5.6878 7.3713 5.33214 7.97832 5.10793C8.47042 4.91643 9.21414 4.68666 10.5755 4.62639C12.0519 4.56077 12.4948 4.54431 16.2292 4.54431C19.9693 4.54431 20.4121 4.56077 21.8831 4.62639C23.25 4.68666 23.9882 4.91643 24.4803 5.10793C25.0871 5.33214 25.6394 5.6878 26.0878 6.15289C26.5525 6.60708 26.9079 7.15424 27.1322 7.76168C27.3236 8.25413 27.5532 8.99814 27.6134 10.3607C27.679 11.8381 27.6954 12.2811 27.6954 16.0183C27.6954 19.7555 27.679 20.1932 27.6134 21.6705Z" fill="white"/>
<path d="M16.2183 8.81201C12.2488 8.81201 9.02814 12.0347 9.02814 16.0072C9.02814 19.9797 12.2488 23.2024 16.2183 23.2024C20.1881 23.2024 23.4086 19.9797 23.4086 16.0072C23.4086 12.0347 20.1881 8.81201 16.2183 8.81201ZM16.2183 20.6746C13.6431 20.6746 11.5542 18.5844 11.5542 16.0072C11.5542 13.43 13.6431 11.3399 16.2183 11.3399C18.7938 11.3399 20.8825 13.43 20.8825 16.0072C20.8825 18.5844 18.7938 20.6746 16.2183 20.6746Z" fill="white"/>
<path d="M25.3716 8.52789C25.3716 9.45551 24.62 10.2076 23.6928 10.2076C22.7658 10.2076 22.0142 9.45551 22.0142 8.52789C22.0142 7.60007 22.7658 6.84814 23.6928 6.84814C24.62 6.84814 25.3716 7.60007 25.3716 8.52789Z" fill="white"/>
</svg>
