<svg width="41" height="40" viewBox="0 0 41 40" fill="none" xmlns="http://www.w3.org/2000/svg">
<g clip-path="url(#clip0)">
<path d="M10.8337 18.2803C10.085 18.2803 9.511 18.5211 9.511 18.5211L9.35247 19.463C9.35247 19.463 9.82593 19.2704 10.5429 19.2704C10.9498 19.2704 11.247 19.3157 11.247 19.6464C11.247 19.8476 11.211 19.9219 11.211 19.9219C11.211 19.9219 10.8904 19.8957 10.7417 19.8957C9.79692 19.8957 8.80469 20.298 8.80469 21.5154C8.80469 22.4743 9.45509 22.6932 9.8592 22.6932C10.6299 22.6932 10.9625 22.1932 10.9795 22.1917L10.9434 22.6096H11.9052L12.3341 19.5997C12.3334 18.3213 11.2202 18.2803 10.8337 18.2803ZM10.2944 21.7774C9.95545 21.7774 9.86698 21.5189 9.86698 21.3645C9.86698 21.0657 10.0291 20.7059 10.8295 20.7059C11.0163 20.7066 11.0361 20.7257 11.0673 20.7314C11.0885 20.9155 10.9526 21.7774 10.2944 21.7774Z" fill="white"/>
<path d="M14.3072 19.2895C14.4608 19.2895 15.0532 19.3384 15.0532 19.3384L15.1912 18.3738C15.1912 18.3738 14.8076 18.2881 14.1834 18.2881C13.3752 18.2881 12.5556 18.611 12.5556 19.7151C12.5556 20.9673 13.9229 20.8398 13.9229 21.3681C13.9229 21.7194 13.5408 21.7484 13.2464 21.7484C12.7361 21.7484 12.2775 21.5742 12.2761 21.5813L12.1303 22.5381C12.1565 22.5452 12.4396 22.6712 13.3561 22.6712C13.6016 22.6712 15.0079 22.735 15.0079 21.2824C15.0079 19.9241 13.7064 20.1925 13.7064 19.6464C13.7064 19.3745 13.918 19.2895 14.3072 19.2895Z" fill="white"/>
<path d="M16.6052 19.4128H17.1834L17.3228 18.3845H16.7779L16.889 17.7471H15.797C15.7729 17.7704 15.1523 21.342 15.1523 21.7754C15.1523 22.4206 15.5139 22.7067 16.0228 22.7017C16.4212 22.6989 16.7319 22.5884 16.8416 22.558L16.9782 21.6288C16.9032 21.6288 16.7935 21.6614 16.6965 21.6614C16.3165 21.6614 16.2747 21.4581 16.2988 21.3087L16.6052 19.4128Z" fill="white"/>
<path d="M21.1821 13.4468H19.233C18.9711 13.8009 18.7249 14.1777 18.5019 14.5459H21.979C21.7376 14.1621 21.4708 13.7952 21.1821 13.4468Z" fill="white"/>
<path d="M36.3896 25.811C36.3684 25.7791 36.3507 25.755 36.3366 25.7402C36.3288 25.7331 36.3189 25.7253 36.3061 25.7217C36.3366 25.7196 36.362 25.7083 36.3804 25.6892C36.3981 25.67 36.4081 25.6474 36.4081 25.6212C36.4081 25.6028 36.4024 25.5851 36.3918 25.5688C36.3812 25.5525 36.3656 25.5404 36.3465 25.5341C36.3288 25.527 36.2984 25.5234 36.2566 25.5234H36.1335V25.8811H36.1915V25.7295H36.2248C36.2446 25.7295 36.2608 25.7338 36.27 25.7423C36.2849 25.7543 36.3061 25.7819 36.3309 25.8251L36.3621 25.8818H36.4335L36.3896 25.811ZM36.2608 25.6821H36.1901V25.5744H36.2566C36.2842 25.5744 36.3026 25.5766 36.3132 25.5808C36.3245 25.5851 36.3316 25.5914 36.338 25.5992C36.3436 25.6077 36.3465 25.6169 36.3465 25.6268C36.3465 25.6431 36.3408 25.6573 36.3288 25.6672C36.3168 25.6764 36.2934 25.6821 36.2608 25.6821Z" fill="white"/>
<path d="M22.5699 15.6245H17.894C17.5953 16.1904 17.3972 16.6181 17.3412 16.7244H23.013C22.8849 16.3462 22.7377 15.98 22.5699 15.6245Z" fill="white"/>
<path d="M7.46637 17.4102L6.38992 20.6042L6.33401 17.4102H4.74021L3.86688 22.6148H4.92068L5.58524 18.6913L5.6829 22.6148H6.43522L7.83863 18.6913L7.21654 22.6148H8.33475L9.19605 17.4102H7.46637Z" fill="white"/>
<path d="M28.5396 18.2803C27.7894 18.2803 27.2161 18.5211 27.2161 18.5211L27.0569 19.463C27.0569 19.463 27.5311 19.2704 28.2473 19.2704C28.6542 19.2704 28.9522 19.3157 28.9522 19.6464C28.9522 19.8476 28.9147 19.9219 28.9147 19.9219C28.9147 19.9219 28.5948 19.8957 28.4448 19.8957C27.5006 19.8957 26.5091 20.298 26.5091 21.5154C26.5091 22.4743 27.1602 22.6932 27.5636 22.6932C28.3336 22.6932 28.6663 22.1932 28.684 22.1917L28.6479 22.6096H29.609L30.0378 19.5997C30.04 18.3213 28.926 18.2803 28.5396 18.2803ZM28.0017 21.7774C27.662 21.7774 27.5743 21.5189 27.5743 21.3645C27.5743 21.0657 27.7363 20.7059 28.5368 20.7059C28.7229 20.7066 28.7427 20.7257 28.7746 20.7314C28.7951 20.9155 28.6585 21.7774 28.0017 21.7774Z" fill="white"/>
<path d="M36.4243 22.1352C36.3953 22.0814 36.3529 22.0403 36.2998 22.012C36.2474 21.9829 36.1936 21.9688 36.137 21.9688C36.0825 21.9695 36.028 21.9836 35.9742 22.012C35.9211 22.0403 35.8801 22.0814 35.8504 22.1352C35.8206 22.1883 35.8058 22.2435 35.8058 22.3009C35.8058 22.3583 35.8206 22.4128 35.8504 22.4652C35.8794 22.5176 35.9204 22.5594 35.9728 22.5891C36.0259 22.6182 36.0804 22.6331 36.137 22.6331C36.195 22.6331 36.2502 22.6182 36.3019 22.5891C36.3543 22.5594 36.3953 22.5176 36.4243 22.4652C36.4548 22.4128 36.4682 22.3583 36.4682 22.3009C36.4682 22.2421 36.4541 22.1869 36.4243 22.1352ZM36.3783 22.4376C36.3543 22.4815 36.3203 22.5148 36.2757 22.541C36.2318 22.5651 36.1865 22.5778 36.1391 22.5778C36.091 22.5778 36.045 22.5651 36.0018 22.541C35.9572 22.5162 35.924 22.4822 35.8985 22.4376C35.873 22.393 35.8617 22.3476 35.8617 22.3002C35.8617 22.2527 35.8737 22.2067 35.8999 22.1621C35.9247 22.1182 35.9579 22.0842 36.0032 22.0594C36.0485 22.0346 36.0931 22.024 36.1391 22.024C36.1851 22.024 36.2304 22.0353 36.2736 22.0594C36.3189 22.0842 36.3522 22.1175 36.3769 22.1621C36.4017 22.2067 36.4151 22.2527 36.4151 22.3002C36.4151 22.3476 36.4031 22.3937 36.3783 22.4376Z" fill="white"/>
<path d="M36.2496 22.4135C36.229 22.3802 36.2106 22.3569 36.1972 22.3427C36.1887 22.3349 36.1795 22.3285 36.1667 22.3243C36.1972 22.3222 36.2219 22.3108 36.2404 22.2917C36.258 22.2733 36.2687 22.2492 36.2687 22.2237C36.2687 22.206 36.263 22.1876 36.2517 22.1713C36.2403 22.1557 36.2255 22.1437 36.2078 22.1366C36.1901 22.1295 36.159 22.126 36.1172 22.126H35.9926V22.4829H36.0507V22.3314H36.0839C36.1045 22.3314 36.1207 22.3356 36.1307 22.3434C36.1455 22.3561 36.1653 22.3831 36.1915 22.4277L36.2219 22.4836H36.2934L36.2496 22.4135ZM36.1222 22.2825H36.0521V22.1741H36.1172C36.1455 22.1741 36.1639 22.1763 36.1752 22.1798C36.1844 22.1848 36.1929 22.1897 36.1986 22.1989C36.205 22.2081 36.2078 22.2159 36.2078 22.228C36.2078 22.2435 36.2014 22.257 36.1908 22.2669C36.1774 22.279 36.1554 22.2825 36.1222 22.2825Z" fill="white"/>
<path d="M32.2509 18.332C31.7619 18.332 31.3988 18.9999 31.3988 18.9999L31.4965 18.3859H30.4787L29.7972 22.6224H30.9182C31.2374 20.8122 31.2955 19.3441 32.0534 19.6125C32.1872 18.9128 32.316 18.6415 32.4611 18.3462C32.4611 18.3469 32.3931 18.332 32.2509 18.332Z" fill="white"/>
<path d="M35.0676 17.4157L34.832 18.8782C34.832 18.8782 34.4215 18.3095 33.7775 18.3095C32.776 18.3102 31.9423 19.5177 31.9423 20.9044C31.9423 21.8003 32.3875 22.6777 33.2962 22.6777C33.9508 22.6777 34.3132 22.2209 34.3132 22.2209L34.2658 22.6112H35.3281L36.1632 17.4136L35.0676 17.4157ZM33.6826 21.6154C33.2891 21.6154 33.1051 21.2854 33.1051 20.767C33.1051 19.9192 33.4852 19.3605 33.9657 19.3605C34.3578 19.3612 34.5595 19.631 34.5595 20.267C34.5595 20.8442 34.2743 21.6154 33.6826 21.6154Z" fill="white"/>
<path d="M39.125 7.03906H1.21079C0.641784 7.03906 0.181763 7.50011 0.181763 8.06881V31.9321C0.181763 32.5008 0.641784 32.9619 1.21079 32.9619H39.125C39.694 32.9619 40.1541 32.5008 40.1541 31.9321V8.06881C40.1541 7.50011 39.694 7.03906 39.125 7.03906ZM36.5652 25.8627C36.5355 25.9165 36.4951 25.9576 36.4427 25.9867C36.3904 26.0157 36.3352 26.0306 36.2786 26.0306C36.2205 26.0306 36.1653 26.0157 36.1129 25.9867C36.0613 25.9576 36.0202 25.9165 35.9898 25.8627C35.9608 25.811 35.9459 25.7558 35.9459 25.6984C35.9459 25.641 35.9608 25.5865 35.9905 25.5327C36.0195 25.4789 36.062 25.4385 36.1144 25.4095C36.1674 25.3818 36.2212 25.367 36.2778 25.367C36.3338 25.367 36.3875 25.3818 36.4399 25.4095C36.493 25.4385 36.5348 25.4789 36.5638 25.5327C36.5935 25.5865 36.6076 25.6418 36.6076 25.6984C36.6076 25.7551 36.5949 25.8124 36.5652 25.8627ZM37.3069 20.0008C37.3083 25.6701 32.718 30.2678 27.0519 30.2692C24.4022 30.2699 21.9861 29.265 20.1658 27.6141C18.3455 29.2622 15.9343 30.2664 13.2888 30.2664C7.62632 30.2664 3.03035 25.668 3.03035 20.0008C3.03035 14.3563 7.59022 9.77136 13.223 9.73453C13.2449 9.73453 13.2669 9.73453 13.2888 9.73453C15.9343 9.73453 18.3462 10.7388 20.1665 12.3868C21.9861 10.7381 24.3994 9.73311 27.047 9.7324C32.713 9.73028 37.3069 14.3259 37.3083 19.9959C37.3069 19.9973 37.3069 19.998 37.3069 20.0008Z" fill="white"/>
<path d="M19.1155 26.4917C19.4404 26.8897 19.7843 27.2693 20.1644 27.6135C20.1729 27.6057 20.1821 27.5986 20.1906 27.5916C20.1906 27.5916 20.1899 27.5916 20.1899 27.5908H20.192C20.5657 27.2502 20.9146 26.8833 21.2338 26.4917H19.1155Z" fill="white"/>
<path d="M20.5126 20.8571C20.5126 20.8571 20.6562 20.1489 20.6562 19.8606C20.6562 19.1404 20.2981 18.2622 19.0992 18.2622C18.0009 18.2629 17.1877 19.4471 17.1877 20.7856C17.1877 22.3302 18.2061 22.6971 19.0745 22.6971C19.8756 22.6971 20.2281 22.5172 20.2281 22.5172L20.4206 21.4633C20.4206 21.4633 19.8112 21.7325 19.2606 21.7325C18.0879 21.7325 18.2931 20.8571 18.2931 20.8571H20.5126ZM19.1028 19.2431C19.7192 19.2431 19.6053 19.9364 19.6053 19.9917H18.3929C18.3929 19.9201 18.5076 19.2431 19.1028 19.2431Z" fill="white"/>
<path d="M25.6351 18.4073C26.1907 18.4073 26.6372 18.7196 26.6372 18.7196L26.8156 17.5617C26.8156 17.5617 26.1546 17.2939 25.5855 17.2939C24.3251 17.2939 23.0986 18.3888 23.0986 20.4448C23.0986 21.8081 23.7603 22.7083 25.064 22.7083C25.432 22.7083 26.0194 22.5588 26.0194 22.5588L26.2147 21.3662C26.2147 21.3662 25.6797 21.6346 25.3117 21.6346C24.536 21.6339 24.2253 21.0418 24.2253 20.4073C24.2253 19.1162 24.892 18.4073 25.6351 18.4073Z" fill="white"/>
<path d="M17.7461 24.335C17.9237 24.7167 18.1304 25.08 18.3519 25.4341H21.9917C22.2125 25.0814 22.4114 24.7146 22.589 24.335H17.7461Z" fill="white"/>
<path d="M23.0788 18.3336C22.5897 18.3336 22.2274 19.0014 22.2274 19.0014L22.3258 18.3874H21.3088L20.6272 22.624H21.7483C22.066 20.8145 22.1255 19.3456 22.8835 19.614C23.0165 18.9136 23.1446 18.6424 23.2897 18.3463C23.2897 18.3463 23.2217 18.3322 23.0788 18.3336Z" fill="white"/>
</g>
<defs>
<clipPath id="clip0">
<rect width="39.9723" height="40" fill="white" transform="translate(0.181763)"/>
</clipPath>
</defs>
</svg>
