<svg width="41" height="40" viewBox="0 0 41 40" fill="none" xmlns="http://www.w3.org/2000/svg">
<g clip-path="url(#clip0)">
<path d="M37.6155 6.25H2.63986C1.26332 6.25 0.141602 7.3725 0.141602 8.75V31.25C0.141602 32.63 1.26332 33.75 2.63986 33.75H37.6155C38.9945 33.75 40.1138 32.63 40.1138 31.25V8.75C40.1138 7.3725 38.9945 6.25 37.6155 6.25ZM13.8995 12.295C13.9995 11.6925 14.5191 11.25 15.1312 11.25H20.7123C21.7865 11.25 22.8108 11.7125 23.5228 12.5175C24.2348 13.325 24.5646 14.3975 24.4322 15.465C24.1974 17.3375 22.5985 18.75 20.7123 18.75H17.6294C17.0174 18.75 16.4977 19.1925 16.3978 19.795L15.3235 26.25H11.5761L13.8995 12.295ZM29.3787 19.5825C28.9765 21.9975 26.903 23.75 24.4497 23.75H21.1845L20.1102 30.205C20.0103 30.8075 19.4906 31.25 18.8786 31.25H15.1312C14.7639 31.25 14.4142 31.09 14.1768 30.805C13.9395 30.525 13.8371 30.1525 13.8995 29.79L14.0769 28.75H16.3803C16.9924 28.75 17.512 28.3075 17.6119 27.705L18.6862 21.25H20.7123C23.8551 21.25 26.5182 18.8975 26.908 15.775C26.9629 15.335 26.9704 14.8925 26.9304 14.4575C28.7042 15.4625 29.7335 17.4775 29.3787 19.5825Z" fill="white"/>
</g>
<defs>
<clipPath id="clip0">
<rect width="39.9722" height="40" fill="white" transform="translate(0.141602)"/>
</clipPath>
</defs>
</svg>
