<svg width="36" height="35" viewBox="0 0 36 35" fill="none" xmlns="http://www.w3.org/2000/svg">
<path opacity="0.5" d="M17.5245 1.08156C17.6741 0.620903 18.3259 0.620906 18.4755 1.08156L22.0148 11.9742C22.2156 12.5922 22.7915 13.0106 23.4413 13.0106H34.8945C35.3789 13.0106 35.5802 13.6305 35.1884 13.9152L25.9226 20.6472C25.3969 21.0291 25.1769 21.7062 25.3777 22.3242L28.9169 33.2168C29.0666 33.6775 28.5393 34.0605 28.1475 33.7758L18.8817 27.0438C18.3559 26.6619 17.6441 26.6619 17.1183 27.0438L7.85252 33.7758C7.46066 34.0605 6.93342 33.6775 7.08309 33.2168L10.6223 22.3242C10.8231 21.7062 10.6031 21.0291 10.0774 20.6472L0.811605 13.9152C0.419747 13.6305 0.621136 13.0106 1.1055 13.0106H12.5587C13.2085 13.0106 13.7844 12.5922 13.9852 11.9742L17.5245 1.08156Z" stroke="black"/>
</svg>
