<svg width="41" height="40" viewBox="0 0 41 40" fill="none" xmlns="http://www.w3.org/2000/svg">
<path d="M25.0769 16.4789C24.9162 16.3436 24.6827 16.2749 24.3797 16.2749H22.8072L22.0811 19.8167H22.8107L23.0719 18.5362H23.9155C24.2545 18.5362 24.5503 18.4328 24.8001 18.2282C25.0485 18.0228 25.2085 17.7522 25.2786 17.4144C25.292 17.3535 25.3012 17.294 25.309 17.2352C25.3139 17.1765 25.3168 17.1212 25.3168 17.0731V17.0653C25.3168 16.8103 25.2368 16.6148 25.0769 16.4789ZM24.5581 17.316C24.5538 17.3429 24.5496 17.3726 24.5432 17.4045C24.505 17.5801 24.4357 17.709 24.3309 17.794C24.2262 17.8776 24.0811 17.9201 23.8985 17.9201H23.1993L23.4137 16.8818H24.0068C24.2021 16.8818 24.3415 16.9095 24.4314 16.9675C24.5199 17.0242 24.5645 17.1156 24.5645 17.2409C24.5645 17.2657 24.5609 17.2905 24.5581 17.316Z" fill="white"/>
<path d="M26.7966 17.8082L26.5425 17.9831C26.2771 17.7756 26.0351 17.6467 25.5672 17.8641C24.9303 18.1602 24.3973 20.4272 26.149 19.6807L26.2502 19.799L26.9417 19.8167L27.3947 17.7558L26.7966 17.8082ZM26.4045 18.935C26.2941 19.2629 26.0457 19.4789 25.8518 19.4173C25.6578 19.3578 25.5892 19.0419 25.7024 18.7133C25.8121 18.3847 26.062 18.1701 26.2538 18.231C26.4477 18.2912 26.517 18.6071 26.4045 18.935Z" fill="white"/>
<path d="M12.9616 16.144L12.4591 18.5647C12.4152 18.7786 12.3168 18.9422 12.1661 19.0576C12.0153 19.1745 11.8214 19.2318 11.5857 19.2318C11.3798 19.2318 11.2326 19.173 11.142 19.0548C11.0797 18.9754 11.0493 18.8742 11.05 18.7502C11.0493 18.6943 11.0549 18.632 11.0705 18.564L11.5716 16.1433H10.8051L10.2977 18.5923C10.2729 18.7113 10.2609 18.8225 10.2609 18.9259C10.2609 19.1752 10.3338 19.382 10.4788 19.5441C10.6883 19.7729 11.0167 19.8862 11.4654 19.8862C11.9417 19.8862 12.331 19.7743 12.6318 19.5519C12.9361 19.3253 13.1328 19.0066 13.217 18.5916L13.7245 16.1426L12.9616 16.144Z" fill="white"/>
<path d="M21.8199 17.7739C21.7165 17.6408 21.5524 17.5742 21.3252 17.5742C21.0747 17.5742 20.8602 17.6677 20.6847 17.8554L20.6083 17.9453L20.6699 17.6302H20.1278L19.6912 19.8164H20.2474L20.4979 18.5601C20.5291 18.4021 20.5942 18.2782 20.6925 18.189C20.7916 18.1004 20.9119 18.0558 21.0549 18.0558C21.1709 18.0558 21.2495 18.0891 21.2941 18.1564C21.3372 18.2229 21.3436 18.3271 21.316 18.4666L21.0464 19.8164H21.6033L21.9005 18.3271C21.9494 18.0912 21.9203 17.9071 21.8199 17.7739Z" fill="white"/>
<path d="M15.6132 17.7746C15.5106 17.6401 15.3464 17.5742 15.1185 17.5742C14.8672 17.5742 14.6542 17.6677 14.478 17.8554L14.4008 17.9453L14.4624 17.6302H13.9209L13.4843 19.8164H14.0413L14.2897 18.5608C14.3215 18.4028 14.3867 18.2789 14.485 18.1897C14.5834 18.1011 14.7037 18.0565 14.8467 18.0565C14.9635 18.0565 15.0442 18.0898 15.0859 18.1571C15.1291 18.2237 15.1369 18.3278 15.1093 18.4673L14.8396 19.8171H15.3966L15.6939 18.3278C15.742 18.0919 15.7144 17.9078 15.6132 17.7746Z" fill="white"/>
<path d="M26.6854 21.1609C26.604 21.1624 26.5665 21.1305 26.5701 21.0667L26.5411 20.8125H25.8525L25.8759 21.3684C25.8858 21.5292 25.9842 21.6022 26.1773 21.5915H26.6833L26.8071 21.1609H26.6854Z" fill="white"/>
<path d="M16.4343 17.6304L15.9651 19.8145H16.5638L17.0344 17.6304H16.4343Z" fill="white"/>
<path d="M19.084 21.099L19.2361 20.8306H18.5079L18.2361 21.2371C18.2057 21.3008 18.1413 21.3341 18.0443 21.3341H17.9396L17.8214 21.7633H18.3628C18.5404 21.7739 18.6876 21.6896 18.8072 21.5083H19.8462L19.9573 21.099H19.084Z" fill="white"/>
<path d="M24.9176 20.8447C24.6486 20.8447 24.2742 21.0317 24.2742 21.0317L24.3061 20.8447H23.5743L23.4299 21.3539H23.5708L22.8871 23.7583H22.747L22.6118 24.2364H24.0103L23.9508 24.4432H24.6592L24.7187 24.2364H24.8617L24.9961 23.7583H24.8532L25.5361 21.3539H25.6784L25.822 20.8447C25.822 20.8447 25.1872 20.8447 24.9176 20.8447ZM24.0839 23.7583H23.5375L23.6783 23.2647H24.2247L24.0839 23.7583ZM24.3563 22.8029C24.1143 22.8171 23.7604 22.9913 23.7604 22.9913L23.948 22.3093H24.4958C24.4958 22.3093 24.425 22.5395 24.3563 22.8029ZM24.6267 21.8476C24.3521 21.8823 24.0336 22.0048 24.0336 22.0048L24.2197 21.3539H24.7668C24.7668 21.3539 24.6868 21.6209 24.6267 21.8476Z" fill="white"/>
<path d="M29.2314 17.6294L28.6001 19.1067L28.564 17.6308H28.2265L27.8259 17.6365L28.017 19.9892C27.8563 20.3093 27.5754 21.0302 27.0566 21.1903L27.0028 21.5649C27.6207 21.5876 27.8761 21.2817 28.0064 21.1492C28.1352 21.0161 28.356 20.73 28.5853 20.2385L29.8712 17.6294H29.2314Z" fill="white"/>
<path d="M27.8813 21.7344H25.6535L25.5204 22.1975H26.2911L26.168 22.6267H25.3987L25.2664 23.0871H25.9755L25.4256 23.8831C25.364 23.9568 25.294 23.995 25.2112 23.995H25.0088L24.8821 24.4405H25.5303C25.703 24.4518 25.8311 24.3824 25.9146 24.2337L26.2657 23.7075L26.369 24.2018C26.3782 24.3612 26.4921 24.4355 26.7122 24.4235H27.1368L27.2642 23.9773H27.1439C27.0625 23.9773 27.0144 23.9511 27.0031 23.8973L26.9146 23.3555H26.5275L26.7058 23.0857H27.4956L27.628 22.6239H26.9189L27.0413 22.1954H27.7504V22.1961L27.8813 21.7344Z" fill="white"/>
<path d="M39.0446 7H1.13035C0.561339 7 0.101318 7.46105 0.101318 8.02974V31.8924C0.101318 32.4611 0.561339 32.9228 1.13035 32.9228H39.0446C39.6136 32.9228 40.0736 32.4618 40.0736 31.8931V8.02974C40.0736 7.46105 39.6136 7 39.0446 7ZM32.823 13.6565L29.973 26.2755C29.7875 27.0864 29.002 27.7415 28.1923 27.7826H21.8617C21.0401 27.7691 20.5291 27.097 20.7166 26.2698L20.9381 25.2875H20.4413L20.2198 26.2698C20.0323 27.0977 20.5425 27.7691 21.3649 27.7826H14.6344C13.8135 27.7691 13.3011 27.097 13.4901 26.2698L14.1518 23.3399H13.5714L12.9097 26.2698C12.7215 27.0977 13.2331 27.7691 14.0548 27.7826H8.49069C7.82896 27.7734 7.36894 27.3343 7.31303 26.7309V26.4972C7.31869 26.4242 7.32931 26.3477 7.3463 26.2712L10.197 13.6523C10.3881 12.8166 11.4582 12.1395 12.2933 12.1395L17.8235 12.1409C16.9933 12.1579 15.948 12.8265 15.7604 13.6523L15.2254 16.0234H15.8057L16.3415 13.653C16.529 12.8279 17.5736 12.1586 18.4038 12.1416C18.4144 12.1402 18.4257 12.1402 18.4363 12.1402L22.7209 12.1424H25.13C25.125 12.1424 25.1201 12.1431 25.1158 12.1431C24.2878 12.1686 23.2581 12.8329 23.0691 13.6523L22.5334 16.0227H23.0302L23.5659 13.6523C23.7542 12.8329 24.7853 12.1686 25.6134 12.1431C25.6176 12.1431 25.6219 12.1424 25.6268 12.1424C25.6268 12.1424 25.6275 12.1424 25.6282 12.1424L31.6545 12.1438C32.4896 12.1438 33.0133 12.8215 32.823 13.6565Z" fill="white"/>
<path d="M19.6111 22.3683L19.7328 21.9229H17.8191L17.6988 22.3683H18.156L18.0392 22.7989H17.5601L17.4391 23.2451H17.9175L17.6953 24.0567C17.6259 24.3109 17.7016 24.4391 17.9246 24.4391H19.0958L19.2091 24.0248H18.599C18.4419 24.0355 18.3853 23.988 18.4285 23.8811L18.6026 23.2465H19.352L19.4738 22.7996H18.725L18.8418 22.3683H19.6111Z" fill="white"/>
<path d="M21.5325 20.8193C21.2048 20.8193 20.8438 21.0906 20.8438 21.0906L20.8729 20.83H20.2324L19.3236 24.1848C19.2805 24.3448 19.3895 24.4234 19.6534 24.4234H20.3399L20.4404 24.0587H20.1701C20.1 24.0587 20.0745 24.0261 20.0929 23.9624L20.4143 22.7839H21.7866C22.0767 22.7839 22.2416 22.689 22.2798 22.4971L22.7434 20.8193H21.5325ZM21.6386 22.257C21.633 22.3328 21.5877 22.3632 21.5077 22.3526H20.531L20.6209 22.0191H21.7037L21.6386 22.257ZM21.8127 21.6217C21.8127 21.6217 21.4702 21.6175 21.1701 21.6217C20.8686 21.626 20.6889 21.7563 20.6889 21.7563L20.8184 21.3038H21.8998L21.8127 21.6217Z" fill="white"/>
<path d="M16.6223 16.8335L16.5098 17.3647H17.115L17.2283 16.8335H16.6223Z" fill="white"/>
<path d="M19.3013 17.7979C19.1449 17.6471 18.9304 17.5713 18.6608 17.5713C18.3317 17.5713 18.05 17.6768 17.8172 17.885C17.5836 18.0932 17.4329 18.3751 17.3607 18.7299C17.3508 18.7802 17.343 18.834 17.3366 18.8893C17.331 18.9438 17.3281 18.9934 17.3281 19.038C17.3295 19.2951 17.4081 19.4976 17.5659 19.6478C17.7223 19.7951 17.9354 19.8702 18.2064 19.8702C18.5334 19.8702 18.8137 19.7682 19.0472 19.5621C19.2808 19.3581 19.4322 19.0791 19.5016 18.7299C19.5115 18.6768 19.52 18.623 19.5271 18.5663C19.5334 18.5111 19.5363 18.4594 19.5363 18.4148C19.5363 18.1542 19.4577 17.9495 19.3013 17.7979ZM18.9538 18.5833C18.9503 18.6216 18.9446 18.6591 18.9375 18.6952C18.8908 18.9261 18.8158 19.1003 18.7096 19.2151C18.6035 19.3305 18.4683 19.3886 18.3013 19.3886C18.1739 19.3886 18.0769 19.3525 18.009 19.2795C17.9396 19.2066 17.9049 19.1032 17.9049 18.9693C17.9049 18.9381 17.9056 18.9049 17.9092 18.868C17.9134 18.8333 17.9191 18.7965 17.9255 18.7604C17.9736 18.5245 18.0493 18.3482 18.1562 18.2306C18.2623 18.1138 18.3975 18.055 18.5638 18.055C18.6898 18.055 18.7868 18.0925 18.8554 18.1669C18.9248 18.2413 18.9587 18.3461 18.9587 18.4799C18.9587 18.5118 18.9566 18.5465 18.9538 18.5833Z" fill="white"/>
<path d="M21.7336 22.913L21.6812 23.0865C21.6812 23.1396 21.6394 23.1658 21.5552 23.1658H21.3896L21.4024 22.896H20.7775L20.7308 24.1368C20.7279 24.35 20.832 24.4491 21.0407 24.4406H21.7902L21.8921 24.0745H21.5807C21.4427 24.0745 21.3762 24.0362 21.3818 23.9626L21.3833 23.5015H21.7159C21.9678 23.4895 22.1235 23.3797 22.1822 23.1672L22.2516 22.913H21.7336Z" fill="white"/>
</svg>
