<svg width="41" height="40" viewBox="0 0 41 40" fill="none" xmlns="http://www.w3.org/2000/svg">
<g clip-path="url(#clip0)">
<path d="M39.1652 7.03906H1.25107C0.682066 7.03906 0.222046 7.50011 0.222046 8.06881V31.9321C0.222046 32.5008 0.682066 32.9619 1.25107 32.9619H39.1652C39.7342 32.9619 40.1942 32.5008 40.1942 31.9321V8.06881C40.1942 7.50011 39.7342 7.03906 39.1652 7.03906ZM3.31692 14.8726H7.58307C8.15845 14.8946 8.622 15.078 8.78195 15.6935L9.70977 20.1588C8.79823 17.8231 6.60146 15.8797 3.28153 15.0752L3.31692 14.8726ZM8.47904 25.0568L6.01476 16.6318C7.78618 17.7664 9.29505 19.5667 9.82655 20.8195L10.1139 21.8599L12.8089 14.9697H15.7247L11.3913 25.0546L8.47904 25.0568ZM17.8677 25.0639H15.1161L16.8365 14.959H19.5896L17.8677 25.0639ZM22.6561 25.2154C21.4226 25.2027 20.2343 24.9583 19.5903 24.6757L19.9774 22.4144L20.332 22.5752C21.2357 22.9527 21.821 23.1056 22.923 23.1056C23.7135 23.1056 24.5606 22.7961 24.5684 22.1191C24.5734 21.6765 24.2138 21.3606 23.1423 20.8648C22.0978 20.3818 20.7149 19.5716 20.7318 18.1205C20.7467 16.1566 22.6632 14.7862 25.383 14.7862C26.4488 14.7862 27.303 15.0058 27.848 15.2105L27.4764 17.401L27.228 17.2841C26.7213 17.0801 26.0695 16.8833 25.1686 16.8974C24.0914 16.8974 23.5918 17.3464 23.5918 17.7664C23.5861 18.2395 24.1749 18.5511 25.1374 19.0199C26.7248 19.7409 27.4587 20.6155 27.4488 21.765C27.4276 23.8613 25.55 25.2154 22.6561 25.2154ZM34.5813 25.0681C34.5813 25.0681 34.33 23.9066 34.2465 23.5539C33.8459 23.5539 31.0377 23.5497 30.7221 23.5497C30.6152 23.8223 30.1438 25.0681 30.1438 25.0681H27.2542L31.3399 15.8082C31.6301 15.1503 32.1219 14.9697 32.7815 14.9697H34.9075L37.1347 25.0674L34.5813 25.0681Z" fill="white"/>
<path d="M33.1609 18.5659L32.9755 17.6948C32.8353 18.0751 32.594 18.6863 32.6096 18.6594C32.6096 18.6594 31.7398 20.9023 31.5133 21.4838H33.7985C33.6881 20.9774 33.1609 18.5659 33.1609 18.5659Z" fill="white"/>
</g>
<defs>
<clipPath id="clip0">
<rect width="39.9722" height="40" fill="white" transform="translate(0.222046)"/>
</clipPath>
</defs>
</svg>
